<?xml version="1.0" encoding="UTF-8"?>
<svg xmlns="http://www.w3.org/2000/svg" xmlns:xlink="http://www.w3.org/1999/xlink" width="360pt" height="360pt" viewBox="0 0 360 360" version="1.1">
<g id="surface1">
<path style="fill:none;stroke-width:1;stroke-linecap:square;stroke-linejoin:miter;stroke:rgb(99.998474%,0%,0%);stroke-opacity:1;stroke-miterlimit:3.25;" d="M 340.515625 187.78125 L 340.632812 187.777344 L 340.984375 187.746094 L 341.5625 187.65625 L 342.363281 187.488281 L 343.375 187.207031 L 344.589844 186.796875 L 345.992188 186.222656 L 347.5625 185.472656 L 349.28125 184.519531 L 351.132812 183.34375 L 353.089844 181.933594 L 355.128906 180.265625 L 357.226562 178.335938 L 359.351562 176.132812 L 361.480469 173.644531 L 363.585938 170.871094 L 365.632812 167.808594 L 367.59375 164.457031 L 369.441406 160.820312 L 371.148438 156.90625 L 372.679688 152.71875 L 374.015625 148.277344 L 375.125 143.59375 L 375.980469 138.679688 L 376.566406 133.558594 L 376.851562 128.25 L 376.820312 122.78125 L 376.457031 117.171875 L 375.742188 111.453125 L 374.660156 105.652344 L 373.207031 99.796875 L 371.371094 93.921875 L 369.144531 88.054688 L 366.53125 82.226562 L 363.523438 76.46875 L 360.132812 70.820312 L 356.359375 65.304688 L 352.210938 59.960938 L 347.703125 54.8125 L 342.847656 49.890625 L 337.660156 45.226562 L 332.164062 40.839844 L 326.378906 36.765625 L 320.324219 33.019531 L 314.03125 29.625 L 307.527344 26.597656 L 300.835938 23.957031 L 293.988281 21.71875 L 287.019531 19.886719 L 279.960938 18.476562 L 272.839844 17.488281 L 265.699219 16.925781 L 258.5625 16.789062 L 251.464844 17.078125 L 244.441406 17.78125 L 237.523438 18.894531 L 230.738281 20.402344 L 224.121094 22.296875 L 217.691406 24.554688 L 211.484375 27.160156 L 205.523438 30.089844 L 199.828125 33.324219 L 194.417969 36.835938 L 189.3125 40.597656 L 184.144531 44.925781 L 179.367188 49.484375 L 174.996094 54.226562 L 171.039062 59.117188 L 167.503906 64.117188 L 164.386719 69.183594 L 161.6875 74.28125 L 159.402344 79.367188 L 157.519531 84.40625 L 156.023438 89.363281 L 154.894531 94.203125 L 154.117188 98.890625 L 153.664062 103.398438 L 153.511719 107.699219 L 153.628906 111.769531 L 153.988281 115.585938 L 154.550781 119.132812 L 155.289062 122.394531 L 156.164062 125.363281 L 157.140625 128.03125 L 158.183594 130.390625 L 159.253906 132.445312 L 160.316406 134.203125 L 161.339844 135.671875 L 162.285156 136.859375 L 163.125 137.78125 L 163.824219 138.460938 L 164.359375 138.914062 L 164.699219 139.167969 L 164.824219 139.253906 L 164.714844 139.191406 L 164.355469 139.023438 L 163.726562 138.773438 L 162.824219 138.480469 L 161.640625 138.175781 L 160.175781 137.898438 L 158.425781 137.683594 L 156.398438 137.566406 L 154.105469 137.582031 L 151.554688 137.765625 L 148.765625 138.144531 L 145.757812 138.753906 L 142.554688 139.621094 L 139.175781 140.773438 L 135.65625 142.234375 L 132.023438 144.023438 L 128.3125 146.160156 L 124.554688 148.65625 L 120.792969 151.523438 L 117.058594 154.769531 L 113.390625 158.398438 L 109.828125 162.40625 L 106.414062 166.792969 L 103.179688 171.546875 L 100.167969 176.652344 L 97.410156 182.105469 L 94.941406 187.875 L 92.800781 193.941406 L 91.011719 200.28125 L 89.605469 206.863281 L 88.605469 213.65625 L 88.035156 220.628906 L 87.914062 227.738281 L 88.257812 234.953125 L 89.003906 241.746094 L 90.171875 248.558594 L 91.765625 255.363281 L 93.785156 262.121094 L 96.226562 268.796875 L 99.085938 275.363281 L 102.351562 281.777344 L 106.015625 288.019531 L 110.066406 294.046875 L 114.480469 299.835938 L 119.242188 305.355469 L 124.328125 310.582031 L 129.71875 315.488281 L 135.382812 320.054688 L 141.292969 324.261719 L 147.425781 328.085938 L 153.738281 331.519531 L 160.210938 334.546875 L 166.804688 337.160156 L 173.484375 339.355469 L 180.21875 341.125 L 186.976562 342.472656 L 193.71875 343.398438 L 200.417969 343.910156 L 207.035156 344.019531 L 213.542969 343.734375 L 219.914062 343.066406 L 226.113281 342.039062 L 232.117188 340.667969 L 237.902344 338.972656 L 243.445312 336.980469 L 248.726562 334.714844 L 253.726562 332.207031 L 258.425781 329.480469 L 262.820312 326.5625 L 266.898438 323.492188 L 270.648438 320.289062 L 274.070312 316.996094 L 277.164062 313.636719 L 279.929688 310.246094 L 282.371094 306.851562 L 284.5 303.484375 L 286.324219 300.175781 L 287.855469 296.949219 L 289.113281 293.832031 L 290.109375 290.847656 L 290.871094 288.019531 L 291.414062 285.371094 L 291.765625 282.914062 L 291.953125 280.667969 L 291.996094 278.644531 L 291.929688 276.851562 L 291.777344 275.300781 L 291.566406 273.992188 L 291.332031 272.933594 L 291.097656 272.117188 L 290.898438 271.542969 L 290.753906 271.199219 L 290.695312 271.082031 L 290.753906 271.175781 L 290.945312 271.46875 L 291.300781 271.941406 L 291.835938 272.574219 L 292.570312 273.347656 L 293.507812 274.214844 L 294.664062 275.171875 L 296.058594 276.191406 L 297.699219 277.246094 L 299.589844 278.3125 L 301.738281 279.363281 L 304.144531 280.367188 L 306.804688 281.296875 L 309.722656 282.128906 L 312.882812 282.828125 L 316.28125 283.375 L 319.90625 283.742188 L 323.742188 283.898438 L 327.773438 283.828125 L 331.984375 283.507812 L 336.347656 282.910156 L 340.84375 282.023438 L 345.453125 280.828125 L 350.140625 279.3125 L 354.886719 277.460938 L 359.660156 275.269531 L 364.433594 272.726562 L 369.171875 269.828125 L 373.847656 266.574219 L 378.433594 262.964844 L 382.894531 259.007812 L 387.203125 254.703125 L 391.328125 250.066406 L 395.238281 245.105469 L 398.914062 239.835938 L 402.320312 234.277344 L 405.4375 228.445312 L 408.238281 222.363281 L 410.707031 216.054688 L 412.820312 209.542969 L 414.558594 202.859375 L 415.914062 196.027344 L 416.871094 189.082031 L 417.417969 182.050781 L 417.550781 174.960938 L 417.261719 167.851562 L 416.554688 160.753906 L 415.425781 153.695312 L 413.882812 146.714844 L 411.933594 139.839844 L 409.582031 133.097656 L 406.847656 126.527344 L 403.738281 120.148438 L 400.277344 113.996094 L 396.476562 108.089844 L 392.367188 102.457031 L 387.964844 97.121094 L 383.296875 92.09375 L 378.390625 87.402344 L 373.273438 83.058594 L 367.976562 79.070312 L 362.527344 75.457031 L 356.960938 72.214844 L 351.300781 69.355469 L 345.585938 66.878906 L 339.84375 64.78125 L 334.105469 63.0625 L 328.402344 61.714844 L 322.765625 60.730469 L 316.75 60.058594 L 310.882812 59.78125 L 305.1875 59.875 L 299.695312 60.320312 L 294.441406 61.085938 L 289.4375 62.144531 L 284.714844 63.464844 L 280.289062 65.015625 L 276.167969 66.757812 L 272.371094 68.664062 L 268.902344 70.6875 L 265.765625 72.800781 L 262.960938 74.964844 L 260.480469 77.144531 L 258.320312 79.300781 L 256.46875 81.402344 L 254.914062 83.414062 L 253.632812 85.308594 L 252.609375 87.058594 L 251.816406 88.632812 L 251.230469 90.011719 L 250.820312 91.171875 L 250.558594 92.097656 L 250.414062 92.773438 L 250.351562 93.1875 L 250.339844 93.335938 L 250.339844 93.210938 L 250.320312 92.820312 L 250.246094 92.15625 L 250.082031 91.238281 L 249.792969 90.066406 L 249.355469 88.660156 L 248.730469 87.039062 L 247.890625 85.222656 L 246.816406 83.230469 L 245.476562 81.09375 L 243.855469 78.839844 L 241.933594 76.5 L 239.699219 74.105469 L 237.132812 71.695312 L 234.238281 69.296875 L 231.003906 66.953125 L 227.429688 64.695312 L 223.523438 62.5625 L 219.285156 60.59375 L 214.734375 58.824219 L 209.878906 57.28125 L 204.742188 56.007812 L 199.339844 55.027344 L 193.699219 54.375 L 187.847656 54.078125 L 181.8125 54.15625 L 175.632812 54.632812 L 169.335938 55.523438 L 162.957031 56.851562 L 156.542969 58.617188 L 150.125 60.835938 L 143.746094 63.511719 L 137.445312 66.644531 L 131.257812 70.226562 L 125.234375 74.25 L 119.402344 78.710938 L 113.808594 83.589844 L 108.484375 88.871094 L 103.792969 94.136719 L 99.390625 99.714844 L 95.304688 105.582031 L 91.5625 111.707031 L 88.179688 118.070312 L 85.171875 124.640625 L 82.5625 131.390625 L 80.355469 138.285156 L 78.570312 145.292969 L 77.203125 152.386719 L 76.269531 159.527344 L 75.765625 166.683594 L 75.6875 173.820312 L 76.035156 180.910156 L 76.800781 187.914062 L 77.972656 194.800781 L 79.539062 201.542969 L 81.484375 208.109375 L 83.789062 214.46875 L 86.4375 220.601562 L 89.402344 226.480469 L 92.664062 232.085938 L 96.195312 237.394531 L 99.964844 242.390625 L 103.949219 247.058594 L 108.113281 251.390625 L 112.429688 255.371094 L 116.867188 259 L 121.394531 262.269531 L 125.980469 265.179688 L 130.589844 267.734375 L 135.195312 269.9375 L 139.769531 271.800781 L 144.277344 273.328125 L 148.695312 274.535156 L 152.996094 275.441406 L 157.152344 276.058594 L 161.148438 276.410156 L 164.953125 276.515625 L 168.558594 276.402344 L 171.945312 276.09375 L 175.097656 275.613281 L 178.007812 274.992188 L 180.664062 274.253906 L 183.0625 273.429688 L 185.203125 272.550781 L 187.085938 271.640625 L 188.710938 270.734375 L 190.085938 269.855469 L 191.21875 269.03125 L 192.121094 268.289062 L 192.804688 267.652344 L 193.289062 267.148438 L 193.589844 266.796875 L 193.726562 266.617188 L 193.722656 266.625 L 193.597656 266.839844 L 193.382812 267.273438 L 193.101562 267.933594 L 192.78125 268.832031 L 192.453125 269.972656 L 192.136719 271.355469 L 191.867188 272.988281 L 191.671875 274.859375 L 191.578125 277.152344 L 191.636719 279.710938 L 191.882812 282.519531 L 192.347656 285.5625 L 193.066406 288.8125 L 194.0625 292.253906 L 195.359375 295.851562 L 196.988281 299.578125 L 198.957031 303.402344 L 201.289062 307.285156 L 203.996094 311.195312 L 207.082031 315.089844 L 210.558594 318.9375 L 214.425781 322.695312 L 218.675781 326.320312 L 223.304688 329.78125 L 228.304688 333.03125 L 233.65625 336.039062 L 239.347656 338.769531 L 245.347656 341.1875 L 251.640625 343.257812 L 258.191406 344.949219 L 264.976562 346.242188 L 271.953125 347.109375 L 279.09375 347.53125 L 286.351562 347.488281 L 293.695312 346.96875 L 301.082031 345.960938 L 308.464844 344.464844 L 315.804688 342.472656 L 323.0625 339.988281 L 330.195312 337.019531 L 337.15625 333.578125 L 343.914062 329.675781 L 350.421875 325.328125 L 356.644531 320.5625 L 362.554688 315.402344 L 368.109375 309.871094 L 373.289062 304.003906 L 378.058594 297.835938 L 382.402344 291.398438 L 386.296875 284.730469 L 389.730469 277.875 L 392.6875 270.871094 L 395.15625 263.757812 L 397.144531 256.582031 L 398.640625 249.382812 L 399.65625 242.199219 L 400.195312 235.074219 L 400.269531 228.050781 L 399.898438 221.167969 L 399.097656 214.457031 L 397.890625 207.953125 L 396.304688 201.691406 L 394.363281 195.699219 L 392.105469 190 L 389.554688 184.625 L 386.753906 179.582031 L 383.738281 174.894531 L 380.542969 170.574219 L 377.203125 166.621094 L 373.765625 163.050781 L 370.265625 159.855469 L 366.742188 157.03125 L 363.292969 154.617188 L 359.894531 152.546875 L 356.574219 150.800781 L 353.363281 149.367188 L 350.296875 148.222656 L 347.394531 147.347656 L 344.6875 146.714844 L 342.191406 146.296875 L 339.925781 146.0625 L 337.910156 145.984375 L 336.148438 146.027344 L 334.65625 146.15625 L 333.4375 146.34375 L 332.492188 146.550781 L 331.816406 146.742188 L 331.402344 146.886719 L 331.25 146.953125 L 331.335938 146.90625 L 331.652344 146.71875 L 332.175781 146.359375 L 332.886719 145.804688 L 333.757812 145.03125 L 334.765625 144.015625 L 335.882812 142.742188 L 337.070312 141.191406 L 338.300781 139.359375 L 339.542969 137.226562 L 340.761719 134.796875 L 341.917969 132.066406 L 342.980469 129.035156 L 343.914062 125.710938 L 344.6875 122.101562 L 345.257812 118.21875 L 345.601562 114.082031 L 345.6875 109.707031 L 345.484375 105.117188 L 344.96875 100.34375 L 344.117188 95.402344 L 342.902344 90.335938 L 341.316406 85.167969 L 339.335938 79.9375 L 336.953125 74.679688 L 334.160156 69.429688 L 330.949219 64.226562 L 327.324219 59.105469 L 323.285156 54.109375 L 318.839844 49.273438 L 314 44.636719 L 308.773438 40.234375 L 303.1875 36.101562 L 297.253906 32.269531 L 290.996094 28.773438 L 284.449219 25.644531 L 277.636719 22.902344 L 270.589844 20.574219 L 263.34375 18.683594 L 255.9375 17.246094 L 248.40625 16.277344 L 240.785156 15.78125 L 233.121094 15.773438 L 225.449219 16.253906 L 217.808594 17.222656 L 210.246094 18.675781 L 202.796875 20.605469 L 195.984375 22.820312 L 189.335938 25.429688 L 182.878906 28.417969 L 176.644531 31.765625 L 170.652344 35.453125 L 164.933594 39.460938 L 159.507812 43.761719 L 154.398438 48.335938 L 149.617188 53.152344 L 145.183594 58.183594 L 141.109375 63.398438 L 137.40625 68.769531 L 134.078125 74.261719 L 131.132812 79.851562 L 128.570312 85.496094 L 126.390625 91.171875 L 124.589844 96.847656 L 123.164062 102.488281 L 122.097656 108.066406 L 121.382812 113.554688 L 121.007812 118.921875 L 120.949219 124.148438 L 121.195312 129.203125 L 121.722656 134.070312 L 122.507812 138.726562 L 123.527344 143.152344 L 124.757812 147.335938 L 126.167969 151.265625 L 127.734375 154.925781 L 129.425781 158.308594 L 131.214844 161.414062 L 133.074219 164.238281 L 134.972656 166.78125 L 136.882812 169.046875 L 138.777344 171.039062 L 140.628906 172.769531 L 142.410156 174.246094 L 144.09375 175.484375 L 145.664062 176.496094 L 147.089844 177.304688 L 148.359375 177.925781 L 149.453125 178.382812 L 150.355469 178.699219 L 151.050781 178.898438 L 151.527344 179.003906 L 151.78125 179.046875 L 151.804688 179.050781 L 151.597656 179.042969 L 151.15625 179.054688 L 150.484375 179.109375 L 149.589844 179.234375 L 148.476562 179.457031 L 147.15625 179.804688 L 145.644531 180.304688 L 143.949219 180.972656 L 142.097656 181.832031 L 140.101562 182.910156 L 137.988281 184.21875 L 135.777344 185.773438 L 133.496094 187.589844 L 131.167969 189.683594 L 128.820312 192.054688 L 126.484375 194.71875 L 124.1875 197.671875 L 121.773438 201.207031 L 119.472656 205.085938 L 117.332031 209.296875 L 115.375 213.839844 L 113.648438 218.691406 L 112.179688 223.839844 L 111.003906 229.261719 L 110.152344 234.9375 L 109.648438 240.835938 L 109.523438 246.929688 L 109.796875 253.183594 L 110.488281 259.566406 L 111.617188 266.039062 L 113.191406 272.566406 L 115.21875 279.109375 L 117.710938 285.625 L 120.664062 292.074219 L 124.078125 298.414062 L 127.945312 304.609375 L 132.253906 310.617188 L 136.996094 316.398438 L 142.144531 321.914062 L 147.683594 327.132812 L 153.589844 332.019531 L 159.832031 336.539062 L 166.382812 340.671875 L 173.207031 344.382812 L 180.269531 347.65625 L 187.535156 350.472656 L 194.960938 352.8125 L 202.507812 354.667969 L 210.136719 356.03125 L 217.808594 356.894531 L 225.472656 357.265625 L 233.097656 357.144531 L 240.636719 356.535156 L 248.050781 355.453125 L 255.304688 353.914062 L 262.355469 351.9375 L 269.175781 349.542969 L 275.726562 346.757812 L 281.984375 343.609375 L 287.917969 340.128906 L 293.507812 336.347656 L 298.730469 332.300781 L 303.570312 328.027344 L 308.011719 323.5625 L 312.050781 318.941406 L 315.679688 314.214844 L 318.898438 309.410156 L 321.707031 304.570312 L 324.113281 299.734375 L 326.125 294.9375 L 327.753906 290.21875 L 329.023438 285.613281 L 329.949219 281.144531 L 330.554688 276.851562 L 330.867188 272.761719 L 330.910156 268.890625 L 330.71875 265.265625 L 330.324219 261.902344 L 329.757812 258.820312 L 329.058594 256.023438 L 328.257812 253.519531 L 327.449219 251.453125 L 326.617188 249.648438 L 325.785156 248.097656 L 324.984375 246.796875 L 324.242188 245.738281 L 323.585938 244.910156 L 323.039062 244.300781 L 322.625 243.890625 L 322.367188 243.664062 L 322.285156 243.601562 L 322.394531 243.675781 L 322.714844 243.863281 L 323.257812 244.144531 L 324.035156 244.488281 L 325.050781 244.867188 L 326.3125 245.25 L 327.824219 245.617188 L 329.582031 245.929688 L 331.585938 246.167969 L 333.828125 246.292969 L 336.300781 246.289062 L 338.988281 246.117188 L 341.882812 245.761719 L 344.960938 245.191406 L 348.210938 244.386719 L 351.605469 243.324219 L 355.121094 241.988281 L 358.738281 240.359375 L 362.425781 238.425781 L 366.152344 236.175781 L 369.898438 233.597656 L 373.625 230.6875 L 377.304688 227.4375 L 380.90625 223.855469 L 384.398438 219.933594 L 387.75 215.683594 L 390.925781 211.113281 L 393.90625 206.230469 L 396.652344 201.046875 L 399.140625 195.585938 L 401.34375 189.863281 L 403.238281 183.898438 L 404.800781 177.714844 L 406.007812 171.339844 L 406.84375 164.800781 L 407.292969 158.125 L 407.34375 151.347656 L 406.984375 144.496094 L 406.203125 137.601562 L 404.996094 130.699219 L 403.367188 123.824219 L 401.3125 117.007812 L 398.835938 110.285156 L 395.945312 103.6875 L 392.652344 97.253906 L 388.96875 91.003906 L 384.90625 84.980469 L 380.488281 79.203125 L 375.730469 73.703125 L 370.660156 68.507812 L 365.296875 63.636719 L 359.675781 59.109375 L 353.816406 54.949219 L 347.753906 51.167969 L 341.640625 47.84375 L 335.394531 44.90625 L 329.039062 42.367188 L 322.613281 40.226562 L 316.140625 38.484375 L 309.660156 37.144531 L 303.199219 36.203125 L 296.792969 35.648438 L 290.460938 35.476562 L 284.242188 35.671875 L 278.160156 36.222656 L 272.242188 37.113281 L 266.511719 38.324219 L 260.988281 39.832031 L 255.699219 41.621094 L 250.660156 43.660156 L 245.882812 45.929688 L 241.386719 48.398438 L 237.179688 51.042969 L 233.269531 53.835938 L 229.667969 56.742188 L 226.375 59.734375 L 223.386719 62.789062 L 220.707031 65.871094 L 218.332031 68.957031 L 216.246094 72.015625 L 214.449219 75.023438 L 212.925781 77.949219 L 211.660156 80.773438 L 210.636719 83.476562 L 209.835938 86.027344 L 209.238281 88.417969 L 208.824219 90.625 L 208.566406 92.632812 L 208.445312 94.433594 L 208.429688 96.015625 L 208.496094 97.375 L 208.617188 98.5 L 208.765625 99.390625 L 208.917969 100.050781 L 209.042969 100.480469 L 209.117188 100.6875 L 209.109375 100.675781 L 209.003906 100.464844 L 208.769531 100.054688 L 208.382812 99.472656 L 207.832031 98.730469 L 207.089844 97.847656 L 206.144531 96.84375 L 204.976562 95.746094 L 203.574219 94.574219 L 201.929688 93.355469 L 200.03125 92.117188 L 197.878906 90.882812 L 195.464844 89.683594 L 192.789062 88.546875 L 189.855469 87.496094 L 186.667969 86.5625 L 183.238281 85.777344 L 179.570312 85.15625 L 175.679688 84.734375 L 171.582031 84.535156 L 167.292969 84.574219 L 162.835938 84.878906 L 157.828125 85.535156 L 152.675781 86.542969 L 147.410156 87.929688 L 142.066406 89.710938 L 136.675781 91.894531 L 131.28125 94.496094 L 125.914062 97.515625 L 120.621094 100.960938 L 115.433594 104.828125 L 110.394531 109.109375 L 105.539062 113.800781 L 100.910156 118.886719 L 96.539062 124.347656 L 92.460938 130.171875 L 88.710938 136.328125 L 85.316406 142.796875 L 82.308594 149.542969 L 79.710938 156.539062 L 77.542969 163.753906 L 75.832031 171.144531 L 74.585938 178.675781 L 73.816406 186.3125 L 73.539062 194.011719 L 73.75 201.730469 L 74.457031 209.433594 L 75.652344 217.074219 L 77.332031 224.617188 L 79.484375 232.019531 L 82.09375 239.242188 L 85.148438 246.253906 L 88.621094 253.011719 L 92.488281 259.488281 L 96.726562 265.652344 L 101.300781 271.476562 L 106.183594 276.933594 L 111.34375 282.007812 L 116.734375 286.671875 L 122.332031 290.917969 L 128.085938 294.734375 L 133.964844 298.113281 L 139.925781 301.050781 L 145.929688 303.546875 L 151.941406 305.605469 L 157.917969 307.234375 L 163.824219 308.449219 L 169.625 309.257812 L 175.289062 309.679688 L 180.777344 309.738281 L 186.066406 309.457031 L 191.128906 308.863281 L 195.9375 307.984375 L 200.476562 306.851562 L 204.726562 305.5 L 208.671875 303.957031 L 212.304688 302.265625 L 215.617188 300.457031 L 218.605469 298.566406 L 221.269531 296.632812 L 223.617188 294.691406 L 225.65625 292.773438 L 227.390625 290.917969 L 228.84375 289.148438 L 230.027344 287.503906 L 230.96875 286.007812 L 231.640625 284.773438 L 232.140625 283.707031 L 232.492188 282.828125 L 232.71875 282.152344 L 232.839844 281.691406 L 232.890625 281.457031 L 232.890625 281.449219 L 232.875 281.675781 L 232.867188 282.140625 L 232.894531 282.835938 L 232.984375 283.765625 L 233.167969 284.914062 L 233.472656 286.277344 L 233.917969 287.839844 L 234.527344 289.589844 L 235.332031 291.507812 L 236.347656 293.578125 L 237.59375 295.777344 L 239.085938 298.078125 L 240.839844 300.464844 L 242.871094 302.902344 L 245.183594 305.371094 L 247.792969 307.835938 L 250.699219 310.273438 L 253.902344 312.652344 L 257.402344 314.941406 L 261.199219 317.113281 L 265.285156 319.132812 L 269.648438 320.980469 L 274.277344 322.621094 L 279.160156 324.03125 L 284.28125 325.183594 L 289.613281 326.054688 L 295.144531 326.621094 L 300.84375 326.867188 L 306.691406 326.769531 L 312.65625 326.3125 L 318.707031 325.484375 L 324.820312 324.273438 L 330.964844 322.667969 L 337.101562 320.671875 L 343.207031 318.273438 L 349.242188 315.476562 L 355.179688 312.285156 L 360.980469 308.703125 L 366.621094 304.738281 L 372.066406 300.402344 L 377.289062 295.710938 L 382.257812 290.683594 L 386.949219 285.335938 L 391.335938 279.6875 L 395.390625 273.765625 L 399.101562 267.59375 L 402.441406 261.203125 L 405.394531 254.617188 L 407.953125 247.871094 L 410.101562 240.992188 L 411.835938 234.015625 L 413.140625 226.972656 L 414.023438 219.894531 L 414.480469 212.820312 L 414.515625 205.777344 L 414.132812 198.796875 L 413.34375 191.917969 L 412.042969 184.605469 L 410.292969 177.480469 L 408.113281 170.582031 L 405.539062 163.9375 L 402.585938 157.582031 L 399.292969 151.542969 L 395.6875 145.839844 L 391.808594 140.503906 L 387.691406 135.542969 L 383.371094 130.976562 L 378.886719 126.8125 L 374.285156 123.054688 L 369.59375 119.710938 L 364.863281 116.777344 L 360.125 114.25 L 355.421875 112.117188 L 350.785156 110.363281 L 346.253906 108.980469 L 341.859375 107.941406 L 337.632812 107.226562 L 333.601562 106.808594 L 329.789062 106.664062 L 326.21875 106.757812 L 322.910156 107.058594 L 319.875 107.535156 L 317.128906 108.148438 L 314.679688 108.863281 L 312.523438 109.648438 L 310.667969 110.460938 L 309.109375 111.269531 L 307.832031 112.039062 L 306.835938 112.730469 L 306.097656 113.316406 L 305.601562 113.761719 L 305.328125 114.042969 L 305.253906 114.128906 L 305.347656 114 L 305.585938 113.632812 L 305.933594 113.007812 L 306.359375 112.117188 L 306.828125 110.945312 L 307.304688 109.488281 L 307.753906 107.742188 L 308.136719 105.707031 L 308.425781 103.386719 L 308.574219 100.792969 L 308.558594 97.933594 L 308.335938 94.832031 L 307.882812 91.496094 L 307.164062 87.957031 L 306.15625 84.234375 L 304.832031 80.363281 L 303.171875 76.367188 L 301.160156 72.285156 L 298.773438 68.144531 L 296.007812 63.992188 L 292.851562 59.859375 L 289.304688 55.78125 L 285.359375 51.804688 L 281.027344 47.964844 L 276.308594 44.300781 L 271.222656 40.851562 L 265.78125 37.652344 L 260 34.738281 L 254.015625 32.191406 L 247.753906 29.980469 L 241.242188 28.136719 L 234.503906 26.679688 L 227.578125 25.640625 L 220.492188 25.03125 L 213.289062 24.871094 L 206 25.167969 L 198.667969 25.9375 L 191.328125 27.179688 L 184.023438 28.898438 L 176.792969 31.09375 L 169.671875 33.757812 L 162.707031 36.878906 L 155.929688 40.449219 L 149.382812 44.449219 L 143.09375 48.859375 L 137.097656 53.65625 L 131.429688 58.816406 L 126.113281 64.3125 L 121.175781 70.109375 L 116.640625 76.171875 L 112.523438 82.472656 L 108.84375 88.972656 L 105.609375 95.628906 L 102.835938 102.40625 L 100.519531 109.269531 L 98.671875 116.171875 L 97.28125 123.082031 L 96.351562 129.953125 L 95.863281 136.753906 L 95.808594 143.441406 L 96.167969 149.988281 L 96.929688 156.355469 L 98.0625 162.511719 L 99.546875 168.433594 L 101.351562 174.089844 L 103.445312 179.460938 L 105.804688 184.527344 L 108.390625 189.269531 L 111.164062 193.675781 L 114.101562 197.734375 L 117.15625 201.441406 L 120.292969 204.792969 L 123.480469 207.792969 L 126.683594 210.441406 L 129.863281 212.75 L 132.988281 214.730469 L 136.023438 216.394531 L 138.941406 217.761719 L 141.714844 218.851562 L 144.3125 219.6875 L 146.71875 220.296875 L 148.910156 220.703125 L 150.867188 220.941406 L 152.574219 221.042969 L 154.027344 221.035156 L 155.214844 220.953125 L 156.132812 220.832031 L 156.78125 220.703125 L 157.164062 220.601562 L 157.285156 220.5625 L 157.15625 220.617188 L 156.796875 220.792969 L 156.257812 221.09375 L 155.546875 221.554688 L 154.679688 222.1875 L 153.671875 223.019531 L 152.550781 224.0625 L 151.335938 225.332031 L 150.054688 226.839844 L 148.730469 228.601562 L 147.390625 230.617188 L 146.066406 232.898438 L 144.777344 235.445312 L 143.5625 238.257812 L 142.441406 241.328125 L 141.449219 244.660156 L 140.605469 248.238281 L 139.941406 252.054688 L 139.484375 256.09375 L 139.253906 260.339844 L 139.277344 264.78125 L 139.574219 269.390625 L 140.164062 274.144531 L 141.066406 279.023438 L 142.292969 284.003906 L 143.859375 289.050781 L 145.777344 294.140625 L 148.050781 299.246094 L 150.6875 304.332031 L 153.691406 309.371094 L 157.058594 314.332031 L 160.789062 319.183594 L 164.878906 323.890625 L 169.3125 328.429688 L 174.085938 332.769531 L 179.183594 336.882812 L 184.589844 340.734375 L 190.285156 344.308594 L 196.246094 347.574219 L 202.457031 350.515625 L 208.882812 353.105469 L 215.507812 355.328125 L 222.292969 357.167969 L 229.21875 358.613281 L 236.25 359.648438 L 243.355469 360.269531 L 250.5 360.472656 L 257.660156 360.25 L 264.792969 359.609375 L 271.875 358.542969 L 278.867188 357.066406 L 285.742188 355.183594 L 292.464844 352.902344 L 299.011719 350.246094 L 305.355469 347.222656 L 311.464844 343.855469 L 317.316406 340.160156 L 322.886719 336.164062 L 328.15625 331.890625 L 333.109375 327.367188 L 337.722656 322.617188 L 341.992188 317.671875 L 345.898438 312.5625 L 349.4375 307.320312 L 352.605469 301.972656 L 355.398438 296.550781 L 358 290.628906 L 360.164062 284.695312 L 361.898438 278.789062 L 363.214844 272.953125 L 364.125 267.21875 L 364.648438 261.621094 L 364.808594 256.195312 L 364.625 250.964844 L 364.128906 245.964844 L 363.34375 241.210938 L 362.308594 236.730469 L 361.050781 232.539062 L 359.605469 228.648438 L 358.011719 225.074219 L 356.300781 221.816406 L 354.511719 218.882812 L 352.679688 216.273438 L 350.839844 213.980469 L 349.027344 211.996094 L 347.28125 210.3125 L 345.625 208.914062 L 344.097656 207.777344 L 342.722656 206.886719 L 341.523438 206.21875 L 340.53125 205.742188 L 339.757812 205.429688 L 339.226562 205.253906 L 338.945312 205.179688 L 338.929688 205.175781 L 339.183594 205.207031 L 339.710938 205.238281 L 340.511719 205.230469 L 341.582031 205.15625 L 342.910156 204.980469 L 344.484375 204.667969 L 346.292969 204.183594 L 348.320312 203.5 L 350.535156 202.589844 L 352.921875 201.429688 L 355.453125 199.992188 L 358.09375 198.257812 L 360.8125 196.207031 L 363.582031 193.828125 L 366.363281 191.113281 L 369.121094 188.050781 L 371.820312 184.636719 L 374.421875 180.875 L 376.886719 176.769531 L 379.179688 172.324219 L 381.269531 167.554688 L 383.113281 162.472656 L 384.683594 157.097656 L 385.949219 151.453125 L 386.875 145.5625 L 387.4375 139.453125 L 387.609375 133.160156 L 387.375 126.710938 L 386.714844 120.144531 L 385.609375 113.492188 L 384.050781 106.800781 L 382.03125 100.105469 L 379.546875 93.445312 L 376.597656 86.859375 L 373.1875 80.394531 L 369.59375 74.496094 L 365.613281 68.769531 L 361.261719 63.246094 L 356.554688 57.949219 L 351.5 52.910156 L 346.128906 48.15625 L 340.457031 43.714844 L 334.511719 39.609375 L 328.316406 35.855469 L 321.898438 32.476562 L 315.292969 29.488281 L 308.527344 26.902344 L 301.632812 24.730469 L 294.644531 22.980469 L 287.59375 21.65625 L 280.515625 20.761719 L 273.441406 20.296875 L 266.40625 20.253906 L 259.441406 20.632812 L 252.582031 21.414062 L 245.859375 22.59375 L 239.296875 24.15625 L 232.925781 26.082031 L 226.777344 28.347656 L 220.867188 30.9375 L 215.226562 33.824219 L 209.867188 36.984375 L 204.8125 40.390625 L 200.074219 44.011719 L 195.667969 47.816406 L 191.597656 51.78125 L 187.875 55.867188 L 184.5 60.050781 L 181.476562 64.292969 L 178.804688 68.566406 L 176.472656 72.84375 L 174.476562 77.085938 L 172.804688 81.273438 L 171.449219 85.375 L 170.390625 89.359375 L 169.609375 93.210938 L 169.085938 96.898438 L 168.804688 100.410156 L 168.738281 103.71875 L 168.859375 106.816406 L 169.144531 109.683594 L 169.566406 112.3125 L 170.097656 114.695312 L 170.707031 116.824219 L 171.367188 118.699219 L 172.046875 120.324219 L 172.722656 121.691406 L 173.363281 122.816406 L 173.941406 123.707031 L 174.433594 124.371094 L 174.8125 124.820312 L 175.050781 125.078125 L 175.136719 125.15625 L 175.039062 125.078125 L 174.75 124.867188 L 174.246094 124.546875 L 173.519531 124.136719 L 172.558594 123.667969 L 171.355469 123.171875 L 169.773438 122.628906 L 167.894531 122.117188 L 165.722656 121.675781 L 163.265625 121.339844 L 160.53125 121.140625 L 157.527344 121.121094 L 154.273438 121.3125 L 150.789062 121.742188 L 147.097656 122.445312 L 143.226562 123.445312 L 139.203125 124.769531 L 135.054688 126.4375 L 130.820312 128.46875 L 126.535156 130.878906 L 122.238281 133.675781 L 117.960938 136.875 L 113.746094 140.46875 L 109.636719 144.46875 L 105.671875 148.863281 L 101.886719 153.648438 L 98.320312 158.808594 L 95.011719 164.328125 L 91.996094 170.191406 L 89.3125 176.371094 L 86.984375 182.84375 L 85.042969 189.578125 L 83.519531 196.542969 L 82.433594 203.707031 L 81.804688 211.027344 L 81.648438 218.464844 L 81.976562 225.984375 L 82.804688 233.539062 L 84.128906 241.089844 L 85.953125 248.597656 L 88.273438 256.011719 L 91.085938 263.292969 L 94.375 270.402344 L 98.121094 277.300781 L 102.316406 283.945312 L 106.929688 290.304688 L 111.9375 296.339844 L 117.308594 302.023438 L 123.015625 307.320312 L 129.019531 312.214844 L 135.285156 316.675781 L 141.777344 320.691406 L 148.449219 324.242188 L 155.269531 327.320312 L 162.1875 329.921875 L 169.164062 332.035156 L 176.15625 333.671875 L 183.125 334.828125 L 190.027344 335.523438 L 196.824219 335.761719 L 203.480469 335.5625 L 209.960938 334.945312 L 216.226562 333.9375 L 222.25 332.5625 L 228 330.851562 L 233.457031 328.835938 L 238.597656 326.546875 L 243.402344 324.019531 L 247.863281 321.296875 L 251.960938 318.410156 L 255.628906 315.457031 L 258.941406 312.421875 L 261.902344 309.34375 L 264.515625 306.253906 L 266.789062 303.1875 L 268.738281 300.183594 L 270.371094 297.269531 L 271.707031 294.480469 L 272.773438 291.839844 L 273.589844 289.378906 L 274.1875 287.113281 L 274.585938 285.066406 L 274.820312 283.257812 L 274.921875 281.699219 L 274.925781 280.402344 L 274.863281 279.375 L 274.769531 278.613281 L 274.675781 278.125 L 274.621094 277.902344 L 274.632812 277.941406 L 274.75 278.226562 L 275 278.746094 L 275.410156 279.484375 L 276.011719 280.417969 L 276.832031 281.523438 L 277.886719 282.777344 L 279.203125 284.148438 L 280.792969 285.613281 L 282.671875 287.132812 L 284.851562 288.675781 L 287.339844 290.207031 L 290.136719 291.695312 L 293.242188 293.101562 L 296.65625 294.394531 L 300.371094 295.535156 L 304.371094 296.488281 L 308.648438 297.226562 L 313.179688 297.710938 L 317.945312 297.917969 L 322.925781 297.816406 L 328.089844 297.382812 L 333.410156 296.589844 L 338.855469 295.421875 L 344.390625 293.859375 L 349.980469 291.890625 L 355.585938 289.503906 L 361.175781 286.691406 L 366.703125 283.453125 L 372.140625 279.789062 L 377.4375 275.699219 L 382.5625 271.195312 L 387.476562 266.292969 L 392.144531 261 L 396.527344 255.335938 L 400.597656 249.328125 L 404.316406 243 L 407.664062 236.375 L 410.609375 229.488281 L 413.132812 222.375 L 415.210938 215.0625 L 416.828125 207.59375 L 417.96875 200.003906 L 418.628906 192.335938 L 418.800781 184.628906 L 418.515625 177.433594 L 417.808594 170.277344 L 416.675781 163.183594 L 415.128906 156.191406 L 413.175781 149.328125 L 410.832031 142.625 L 408.109375 136.109375 L 405.027344 129.8125 L 401.605469 123.757812 L 397.863281 117.972656 L 393.824219 112.476562 L 389.519531 107.289062 L 384.972656 102.429688 L 380.210938 97.914062 L 375.265625 93.75 L 370.167969 89.953125 L 364.945312 86.527344 L 359.636719 83.476562 L 354.265625 80.800781 L 348.871094 78.503906 L 343.476562 76.574219 L 338.117188 75.011719 L 332.820312 73.804688 L 327.617188 72.9375 L 322.53125 72.398438 L 317.589844 72.167969 L 312.8125 72.230469 L 308.230469 72.5625 L 303.851562 73.144531 L 299.703125 73.949219 L 295.792969 74.949219 L 292.132812 76.125 L 288.738281 77.4375 L 285.613281 78.867188 L 282.761719 80.382812 L 280.183594 81.957031 L 277.878906 83.554688 L 275.84375 85.15625 L 274.070312 86.730469 L 272.554688 88.246094 L 271.277344 89.683594 L 270.226562 91.019531 L 269.390625 92.222656 L 268.742188 93.28125 L 268.269531 94.167969 L 267.945312 94.875 L 267.75 95.378906 L 267.65625 95.675781 L 267.636719 95.746094 L 267.664062 95.589844 L 267.714844 95.203125 L 267.757812 94.578125 L 267.769531 93.71875 L 267.714844 92.632812 L 267.574219 91.320312 L 267.320312 89.789062 L 266.921875 88.058594 L 266.359375 86.136719 L 265.605469 84.042969 L 264.644531 81.789062 L 263.453125 79.40625 L 262.015625 76.90625 L 260.316406 74.320312 L 258.339844 71.675781 L 255.875 68.765625 L 253.058594 65.847656 L 249.890625 62.960938 L 246.367188 60.144531 L 242.488281 57.433594 L 238.257812 54.863281 L 233.6875 52.476562 L 228.785156 50.304688 L 223.570312 48.386719 L 218.058594 46.753906 L 212.277344 45.4375 L 206.25 44.46875 L 200.007812 43.875 L 193.578125 43.679688 L 187 43.902344 L 180.304688 44.5625 L 173.535156 45.675781 L 166.726562 47.25 L 159.917969 49.292969 L 153.15625 51.804688 L 146.476562 54.792969 L 139.925781 58.242188 L 133.535156 62.152344 L 127.355469 66.503906 L 121.417969 71.289062 L 115.757812 76.480469 L 110.417969 82.054688 L 105.421875 87.992188 L 100.804688 94.253906 L 96.59375 100.816406 L 92.808594 107.640625 L 89.472656 114.691406 L 86.601562 121.925781 L 84.210938 129.3125 L 82.308594 136.804688 L 80.898438 144.359375 L 79.988281 151.941406 L 79.566406 159.5 L 79.632812 167.003906 L 80.179688 174.40625 L 81.183594 181.667969 L 82.636719 188.753906 L 84.515625 195.628906 L 86.792969 202.257812 L 89.445312 208.609375 L 92.441406 214.660156 L 95.746094 220.382812 L 99.332031 225.753906 L 103.160156 230.757812 L 107.195312 235.378906 L 111.394531 239.609375 L 115.722656 243.441406 L 120.136719 246.867188 L 124.605469 249.898438 L 129.082031 252.527344 L 133.535156 254.773438 L 137.925781 256.640625 L 142.21875 258.152344 L 146.382812 259.320312 L 150.386719 260.171875 L 154.203125 260.730469 L 157.804688 261.019531 L 161.175781 261.074219 L 164.289062 260.925781 L 166.957031 260.628906 L 169.382812 260.210938 L 171.554688 259.699219 L 173.472656 259.125 L 175.136719 258.519531 L 176.546875 257.902344 L 177.707031 257.3125 L 178.628906 256.773438 L 179.316406 256.308594 L 179.789062 255.953125 L 180.054688 255.722656 L 180.136719 255.648438 L 180.050781 255.742188 L 179.820312 256.027344 L 179.472656 256.523438 L 179.027344 257.242188 L 178.511719 258.191406 L 177.953125 259.386719 L 177.382812 260.832031 L 176.824219 262.53125 L 176.3125 264.480469 L 175.875 266.683594 L 175.539062 269.136719 L 175.332031 271.828125 L 175.285156 274.746094 L 175.425781 277.878906 L 175.773438 281.210938 L 176.355469 284.726562 L 177.195312 288.402344 L 178.308594 292.214844 L 179.71875 296.140625 L 181.4375 300.15625 L 183.480469 304.226562 L 185.855469 308.328125 L 188.570312 312.429688 L 191.632812 316.496094 L 195.046875 320.503906 L 198.804688 324.414062 L 202.90625 328.199219 L 207.347656 331.824219 L 212.113281 335.265625 L 217.195312 338.484375 L 222.578125 341.457031 L 228.238281 344.152344 L 234.164062 346.550781 L 240.328125 348.621094 L 246.707031 350.34375 L 253.273438 351.703125 L 260 352.675781 L 266.851562 353.25 L 273.804688 353.414062 L 280.820312 353.15625 L 287.867188 352.472656 L 294.914062 351.359375 L 301.925781 349.8125 L 308.863281 347.835938 L 315.703125 345.441406 L 322.402344 342.628906 L 328.933594 339.410156 L 335.261719 335.804688 L 341.363281 331.828125 L 347.207031 327.496094 L 352.765625 322.832031 L 358.011719 317.859375 L 362.835938 312.710938 L 367.324219 307.316406 L 371.457031 301.707031 L 375.226562 295.910156 L 378.613281 289.953125 L 381.613281 283.867188 L 384.222656 277.6875 L 386.433594 271.441406 L 388.246094 265.160156 L 389.667969 258.878906 L 390.699219 252.625 L 391.347656 246.429688 L 391.625 240.324219 L 391.546875 234.335938 L 391.121094 228.488281 L 390.371094 222.8125 L 389.3125 217.324219 L 387.972656 212.054688 L 386.367188 207.015625 L 384.527344 202.226562 L 382.472656 197.703125 L 380.234375 193.460938 L 377.839844 189.5 L 375.316406 185.835938 L 372.695312 182.472656 L 370.003906 179.410156 L 367.269531 176.644531 L 364.523438 174.175781 L 361.792969 172 L 359.101562 170.101562 L 356.480469 168.476562 L 353.953125 167.109375 L 351.542969 165.980469 L 349.265625 165.074219 L 347.148438 164.375 L 345.207031 163.859375 L 343.453125 163.5 L 341.90625 163.277344 L 340.574219 163.164062 L 339.460938 163.136719 L 338.578125 163.164062 L 337.925781 163.226562 L 337.503906 163.289062 L 337.316406 163.328125 L 337.347656 163.320312 L 337.597656 163.230469 L 338.058594 163.042969 L 338.710938 162.726562 L 339.542969 162.265625 L 340.542969 161.628906 L 341.683594 160.808594 L 342.949219 159.773438 L 344.316406 158.519531 L 345.761719 157.027344 L 347.257812 155.285156 L 348.78125 153.285156 L 350.304688 151.019531 L 351.800781 148.488281 L 353.238281 145.6875 L 354.589844 142.621094 L 355.832031 139.289062 L 356.933594 135.703125 L 357.863281 131.867188 L 358.605469 127.796875 L 359.15625 123.132812 L 359.425781 118.230469 L 359.375 113.113281 L 358.984375 107.8125 L 358.226562 102.355469 L 357.085938 96.769531 L 355.542969 91.097656 L 353.585938 85.375 L 351.203125 79.632812 L 348.386719 73.914062 L 345.140625 68.253906 L 341.457031 62.695312 L 337.34375 57.28125 L 332.8125 52.042969 L 327.871094 47.019531 L 322.542969 42.25 L 316.835938 37.773438 L 310.785156 33.613281 L 304.40625 29.8125 L 297.734375 26.390625 L 290.800781 23.375 L 283.632812 20.792969 L 276.273438 18.660156 L 268.757812 16.996094 L 261.128906 15.8125 L 253.417969 15.113281 L 245.671875 14.910156 L 237.929688 15.203125 L 230.238281 15.992188 L 222.628906 17.261719 L 215.148438 19.011719 L 207.832031 21.226562 L 200.71875 23.882812 L 193.839844 26.964844 L 187.238281 30.453125 L 180.933594 34.3125 L 174.960938 38.515625 L 169.339844 43.035156 L 164.101562 47.835938 L 159.253906 52.878906 L 154.816406 58.128906 L 150.800781 63.550781 L 147.21875 69.097656 L 144.066406 74.738281 L 141.347656 80.429688 L 139.054688 86.132812 L 137.1875 91.8125 L 135.730469 97.425781 L 134.671875 102.945312 L 133.988281 108.328125 L 133.664062 113.550781 L 133.675781 118.578125 L 133.992188 123.386719 L 134.589844 127.953125 L 135.433594 132.253906 L 136.492188 136.273438 L 137.734375 139.996094 L 139.121094 143.414062 L 140.621094 146.523438 L 142.195312 149.3125 L 143.808594 151.789062 L 145.425781 153.953125 L 147.011719 155.816406 L 148.53125 157.390625 L 149.867188 158.609375 L 151.09375 159.601562 L 152.1875 160.382812 L 153.132812 160.976562 L 153.902344 161.398438 L 154.484375 161.675781 L 154.867188 161.828125 L 155.03125 161.886719 L 154.96875 161.871094 L 154.675781 161.8125 L 154.148438 161.738281 L 153.382812 161.675781 L 152.378906 161.652344 L 151.140625 161.699219 L 149.679688 161.84375 L 148.003906 162.105469 L 146.121094 162.519531 L 144.046875 163.109375 L 141.800781 163.890625 L 139.402344 164.894531 L 136.871094 166.132812 L 134.230469 167.625 L 131.503906 169.390625 L 128.71875 171.4375 L 125.90625 173.777344 L 123.085938 176.421875 L 120.296875 179.371094 L 117.5625 182.628906 L 114.914062 186.195312 L 112.382812 190.070312 L 110 194.242188 L 107.792969 198.707031 L 105.789062 203.445312 L 104.019531 208.453125 L 102.503906 213.707031 L 101.277344 219.191406 L 100.351562 224.882812 L 99.753906 230.757812 L 99.503906 236.789062 L 99.613281 242.953125 L 100.101562 249.21875 L 100.980469 255.554688 L 102.253906 261.933594 L 103.933594 268.320312 L 106.015625 274.683594 L 108.507812 280.992188 L 111.40625 287.210938 L 114.699219 293.308594 L 118.386719 299.253906 L 122.457031 305.011719 L 126.890625 310.558594 L 131.675781 315.855469 L 136.792969 320.886719 L 142.21875 325.617188 L 147.933594 330.027344 L 153.90625 334.097656 L 160.117188 337.800781 L 166.53125 341.128906 L 173.121094 344.0625 L 179.855469 346.585938 L 186.703125 348.699219 L 193.628906 350.390625 L 200.601562 351.660156 L 207.585938 352.503906 L 215.128906 352.941406 L 222.609375 352.894531 L 229.984375 352.367188 L 237.214844 351.375 L 244.261719 349.941406 L 251.089844 348.085938 L 257.664062 345.835938 L 263.960938 343.210938 L 269.949219 340.25 L 275.601562 336.980469 L 280.902344 333.441406 L 285.828125 329.667969 L 290.371094 325.699219 L 294.523438 321.570312 L 298.273438 317.320312 L 301.621094 312.996094 L 304.566406 308.628906 L 307.121094 304.261719 L 309.292969 299.929688 L 311.09375 295.671875 L 312.539062 291.515625 L 313.652344 287.503906 L 314.457031 283.660156 L 314.972656 280.011719 L 315.238281 276.582031 L 315.273438 273.394531 L 315.121094 270.46875 L 314.804688 267.8125 L 314.371094 265.441406 L 313.847656 263.363281 L 313.269531 261.574219 L 312.679688 260.078125 L 312.113281 258.871094 L 311.597656 257.945312 L 311.175781 257.28125 L 310.875 256.871094 L 310.726562 256.695312 L 310.757812 256.726562 L 311 256.941406 L 311.46875 257.316406 L 312.183594 257.816406 L 313.167969 258.414062 L 314.429688 259.074219 L 315.980469 259.761719 L 317.824219 260.4375 L 319.964844 261.074219 L 322.398438 261.625 L 325.125 262.058594 L 328.125 262.34375 L 331.394531 262.4375 L 334.910156 262.3125 L 338.65625 261.933594 L 342.609375 261.277344 L 346.738281 260.3125 L 351.019531 259.015625 L 355.417969 257.367188 L 359.898438 255.34375 L 364.429688 252.941406 L 368.96875 250.136719 L 373.480469 246.933594 L 377.925781 243.320312 L 382.265625 239.304688 L 386.460938 234.882812 L 390.464844 230.070312 L 394.183594 224.976562 L 397.652344 219.53125 L 400.832031 213.753906 L 403.699219 207.664062 L 406.21875 201.285156 L 408.363281 194.652344 L 410.113281 187.789062 L 411.4375 180.730469 L 412.328125 173.511719 L 412.757812 166.167969 L 412.722656 158.738281 L 412.210938 151.261719 L 411.222656 143.773438 L 409.746094 136.320312 L 407.792969 128.941406 L 405.367188 121.671875 L 402.476562 114.550781 L 399.136719 107.625 L 395.363281 100.917969 L 391.175781 94.476562 L 386.597656 88.328125 L 381.65625 82.5 L 376.382812 77.023438 L 370.804688 71.925781 L 364.957031 67.226562 L 358.875 62.945312 L 352.59375 59.09375 L 346.15625 55.6875 L 339.597656 52.734375 L 332.953125 50.242188 L 326.273438 48.203125 L 319.585938 46.621094 L 312.9375 45.484375 L 306.359375 44.789062 L 299.890625 44.519531 L 293.566406 44.65625 L 287.421875 45.179688 L 281.480469 46.066406 L 275.777344 47.296875 L 270.335938 48.835938 L 265.175781 50.65625 L 260.316406 52.726562 L 255.773438 55.011719 L 251.5625 57.476562 L 247.6875 60.085938 L 244.160156 62.804688 L 240.976562 65.597656 L 238.136719 68.429688 L 235.632812 71.261719 L 233.460938 74.058594 L 231.601562 76.792969 L 230.046875 79.429688 L 228.773438 81.9375 L 227.757812 84.292969 L 226.980469 86.46875 L 226.414062 88.445312 L 226.03125 90.199219 L 225.796875 91.714844 L 225.683594 92.980469 L 225.65625 93.988281 L 225.683594 94.730469 L 225.730469 95.203125 L 225.765625 95.40625 L 225.75 95.351562 L 225.664062 95.066406 L 225.480469 94.574219 L 225.179688 93.875 L 224.730469 92.992188 L 224.117188 91.941406 L 223.3125 90.734375 L 222.304688 89.398438 L 221.070312 87.953125 L 219.597656 86.421875 L 217.878906 84.828125 L 215.898438 83.203125 L 213.648438 81.570312 L 211.128906 79.957031 L 208.332031 78.394531 L 205.265625 76.910156 L 201.925781 75.535156 L 198.324219 74.292969 L 194.46875 73.214844 L 190.367188 72.324219 L 186.039062 71.652344 L 181.496094 71.21875 L 176.757812 71.046875 L 171.847656 71.164062 L 166.785156 71.582031 L 161.597656 72.324219 L 156.308594 73.398438 L 150.945312 74.828125 L 145.542969 76.617188 L 140.125 78.773438 L 134.722656 81.300781 L 129.371094 84.207031 L 124.097656 87.484375 L 118.9375 91.136719 L 113.917969 95.152344 L 109.070312 99.527344 L 104.425781 104.25 L 100.011719 109.300781 L 95.855469 114.664062 L 91.984375 120.328125 L 88.421875 126.265625 L 85.1875 132.453125 L 82.308594 138.871094 L 79.796875 145.484375 L 77.671875 152.269531 L 75.949219 159.195312 L 74.628906 166.230469 L 73.730469 173.34375 L 73.253906 180.503906 L 73.199219 187.679688 L 73.570312 194.832031 L 74.363281 201.9375 L 75.570312 208.957031 L 77.183594 215.859375 L 79.195312 222.617188 L 81.582031 229.203125 L 84.335938 235.582031 L 87.433594 241.734375 L 90.855469 247.632812 L 94.578125 253.253906 L 98.578125 258.578125 L 102.828125 263.585938 L 107.296875 268.265625 L 111.960938 272.601562 L 116.789062 276.582031 L 122.175781 280.492188 L 127.675781 283.96875 L 133.253906 287.011719 L 138.867188 289.621094 L 144.480469 291.804688 L 150.050781 293.570312 L 155.546875 294.929688 L 160.933594 295.898438 L 166.171875 296.5 L 171.230469 296.75 L 176.089844 296.683594 L 180.714844 296.316406 L 185.089844 295.6875 L 189.191406 294.828125 L 193.003906 293.765625 L 196.515625 292.539062 L 199.71875 291.1875 L 202.609375 289.742188 L 205.183594 288.238281 L 207.445312 286.71875 L 209.398438 285.210938 L 211.058594 283.753906 L 212.433594 282.382812 L 213.539062 281.121094 L 214.402344 280.007812 L 215.039062 279.0625 L 215.480469 278.3125 L 215.746094 277.78125 L 215.875 277.480469 L 215.894531 277.433594 L 215.835938 277.648438 L 215.734375 278.136719 L 215.625 278.898438 L 215.546875 279.933594 L 215.527344 281.246094 L 215.609375 282.820312 L 215.820312 284.65625 L 216.195312 286.730469 L 216.769531 289.035156 L 217.5625 291.542969 L 218.613281 294.230469 L 219.9375 297.078125 L 221.5625 300.050781 L 223.503906 303.117188 L 225.78125 306.25 L 228.402344 309.410156 L 231.378906 312.5625 L 234.714844 315.667969 L 238.414062 318.691406 L 242.472656 321.597656 L 246.886719 324.34375 L 251.640625 326.898438 L 256.726562 329.222656 L 262.128906 331.28125 L 267.820312 333.042969 L 273.78125 334.472656 L 279.980469 335.546875 L 286.398438 336.238281 L 292.992188 336.523438 L 299.730469 336.382812 L 306.578125 335.796875 L 313.5 334.753906 L 320.449219 333.242188 L 327.390625 331.261719 L 333.828125 328.984375 L 340.1875 326.292969 L 346.441406 323.195312 L 352.546875 319.699219 L 358.480469 315.8125 L 364.210938 311.546875 L 369.703125 306.921875 L 374.929688 301.949219 L 379.871094 296.660156 L 384.492188 291.070312 L 388.777344 285.203125 L 392.703125 279.09375 L 396.253906 272.761719 L 399.410156 266.242188 L 402.164062 259.570312 L 404.503906 252.769531 L 406.417969 245.878906 L 407.90625 238.929688 L 408.972656 231.957031 L 409.609375 224.992188 L 409.824219 218.070312 L 409.628906 211.222656 L 409.03125 204.484375 L 408.042969 197.882812 L 406.679688 191.449219 L 404.964844 185.207031 L 402.910156 179.1875 L 400.546875 173.410156 L 397.894531 167.894531 L 394.980469 162.667969 L 391.835938 157.738281 L 388.484375 153.125 L 384.957031 148.835938 L 381.285156 144.882812 L 377.503906 141.265625 L 373.636719 137.992188 L 369.722656 135.0625 L 365.785156 132.46875 L 361.863281 130.207031 L 357.980469 128.269531 L 354.164062 126.640625 L 350.445312 125.3125 L 346.847656 124.269531 L 343.394531 123.484375 L 340.105469 122.945312 L 337.007812 122.625 L 334.109375 122.496094 L 331.429688 122.542969 L 328.976562 122.730469 L 326.765625 123.035156 L 324.800781 123.425781 L 323.085938 123.875 L 321.617188 124.355469 L 320.402344 124.835938 L 319.429688 125.289062 L 318.691406 125.6875 L 318.179688 126.003906 L 317.886719 126.210938 L 317.789062 126.289062 L 317.871094 126.210938 L 318.117188 125.960938 L 318.5 125.511719 L 319.003906 124.855469 L 319.597656 123.972656 L 320.246094 122.878906 L 320.929688 121.550781 L 321.625 119.980469 L 322.304688 118.164062 L 322.941406 116.097656 L 323.503906 113.792969 L 323.972656 111.242188 L 324.316406 108.460938 L 324.507812 105.457031 L 324.527344 102.238281 L 324.34375 98.824219 L 323.9375 95.230469 L 323.289062 91.46875 L 322.378906 87.570312 L 321.183594 83.550781 L 319.695312 79.433594 L 317.894531 75.25 L 315.777344 71.023438 L 313.328125 66.785156 L 310.542969 62.558594 L 307.421875 58.375 L 303.960938 54.265625 L 300.164062 50.261719 L 296.035156 46.390625 L 291.578125 42.679688 L 286.808594 39.160156 L 281.738281 35.859375 L 276.378906 32.804688 L 270.75 30.019531 L 264.871094 27.53125 L 258.761719 25.355469 L 252.449219 23.519531 L 245.957031 22.039062 L 239.3125 20.929688 L 232.542969 20.207031 L 225.679688 19.878906 L 218.753906 19.953125 L 211.792969 20.441406 L 204.832031 21.339844 L 197.898438 22.652344 L 191.03125 24.378906 L 184.253906 26.511719 L 177.605469 29.042969 L 171.109375 31.960938 L 164.796875 35.257812 L 158.699219 38.914062 L 152.835938 42.910156 L 147.242188 47.234375 L 141.933594 51.855469 L 136.929688 56.753906 L 132.257812 61.90625 L 127.925781 67.28125 L 123.953125 72.855469 L 120.351562 78.59375 L 117.125 84.472656 L 114.289062 90.453125 L 111.839844 96.511719 L 109.78125 102.613281 L 108.109375 108.726562 L 106.824219 114.824219 L 105.917969 120.875 L 105.375 126.84375 L 105.191406 132.710938 L 105.347656 138.445312 L 105.886719 144.492188 L 106.78125 150.320312 L 108.007812 155.90625 L 109.535156 161.226562 L 111.335938 166.257812 L 113.375 170.980469 L 115.617188 175.382812 L 118.03125 179.453125 L 120.574219 183.183594 L 123.214844 186.566406 L 125.917969 189.609375 L 128.640625 192.308594 L 131.355469 194.671875 L 134.019531 196.710938 L 136.609375 198.441406 L 139.085938 199.878906 L 141.425781 201.042969 L 143.597656 201.957031 L 145.578125 202.648438 L 147.351562 203.136719 L 148.890625 203.460938 L 150.1875 203.648438 L 151.230469 203.734375 L 152.003906 203.746094 L 152.511719 203.722656 L 152.75 203.699219 L 152.71875 203.703125 L 152.425781 203.777344 L 151.882812 203.949219 L 151.101562 204.253906 L 150.097656 204.714844 L 148.890625 205.371094 L 147.503906 206.238281 L 145.960938 207.347656 L 144.292969 208.71875 L 142.527344 210.367188 L 140.695312 212.3125 L 138.832031 214.5625 L 136.96875 217.128906 L 135.140625 220.011719 L 133.386719 223.21875 L 131.738281 226.742188 L 130.238281 230.578125 L 128.914062 234.714844 L 127.800781 239.144531 L 126.9375 243.847656 L 126.347656 248.800781 L 126.066406 253.984375 L 126.117188 259.375 L 126.523438 264.9375 L 127.3125 270.644531 L 128.496094 276.464844 L 130.089844 282.359375 L 132.113281 288.292969 L 134.566406 294.226562 L 137.457031 300.125 L 140.789062 305.945312 L 144.554688 311.648438 L 148.75 317.199219 L 153.363281 322.558594 L 158.382812 327.683594 L 163.789062 332.546875 L 169.5625 337.105469 L 175.679688 341.332031 L 181.671875 344.949219 L 187.917969 348.230469 L 194.386719 351.148438 L 201.054688 353.691406 L 207.886719 355.84375 L 214.859375 357.589844 L 221.9375 358.921875 L 229.089844 359.832031 L 236.28125 360.3125 L 243.484375 360.367188 L 250.660156 359.992188 L 257.777344 359.195312 L 264.804688 357.980469 L 271.707031 356.359375 L 278.460938 354.34375 L 285.03125 351.945312 L 291.390625 349.1875 L 297.511719 346.089844 L 303.375 342.667969 L 308.957031 338.949219 L 314.234375 334.960938 L 319.191406 330.726562 L 323.8125 326.277344 L 328.085938 321.644531 L 332.003906 316.855469 L 335.558594 311.941406 L 338.742188 306.933594 L 341.554688 301.863281 L 344.003906 296.765625 L 346.085938 291.671875 L 347.8125 286.605469 L 349.191406 281.601562 L 350.234375 276.683594 L 350.960938 271.882812 L 351.382812 267.226562 L 351.519531 262.730469 L 351.398438 258.417969 L 351.035156 254.3125 L 350.457031 250.429688 L 349.691406 246.78125 L 348.761719 243.382812 L 347.699219 240.238281 L 346.53125 237.359375 L 345.285156 234.746094 L 343.988281 232.402344 L 342.671875 230.324219 L 341.367188 228.507812 L 340.097656 226.945312 L 338.890625 225.628906 L 337.769531 224.546875 L 336.761719 223.679688 L 335.886719 223.015625 L 335.171875 222.535156 L 334.628906 222.214844 L 334.273438 222.035156 L 334.125 221.96875 L 334.195312 221.992188 L 334.488281 222.078125 L 335.015625 222.203125 L 335.777344 222.335938 L 336.78125 222.449219 L 338.019531 222.511719 L 339.488281 222.503906 L 341.183594 222.390625 L 343.265625 222.125 L 345.585938 221.671875 L 348.125 221.007812 L 350.859375 220.097656 L 353.765625 218.917969 L 356.816406 217.445312 L 359.980469 215.65625 L 363.222656 213.535156 L 366.511719 211.066406 L 369.8125 208.238281 L 373.085938 205.050781 L 376.296875 201.488281 L 379.402344 197.5625 L 382.367188 193.273438 L 385.152344 188.625 L 387.722656 183.636719 L 390.042969 178.316406 L 392.074219 172.691406 L 393.789062 166.777344 L 395.15625 160.605469 L 396.144531 154.199219 L 396.730469 147.59375 L 396.894531 140.824219 L 396.613281 133.921875 L 395.878906 126.929688 L 394.671875 119.886719 L 392.988281 112.828125 L 390.828125 105.800781 L 388.183594 98.84375 L 385.066406 92 L 381.480469 85.308594 L 377.4375 78.8125 L 372.957031 72.546875 L 368.050781 66.550781 L 362.75 60.859375 L 357.074219 55.507812 L 351.058594 50.527344 L 344.730469 45.9375 L 338.125 41.773438 L 331.277344 38.050781 L 324.230469 34.789062 L 317.019531 32 L 309.6875 29.695312 L 302.277344 27.878906 L 294.828125 26.558594 L 287.378906 25.726562 L 279.980469 25.382812 L 272.664062 25.515625 L 265.476562 26.109375 L 258.449219 27.152344 L 251.617188 28.617188 L 245.023438 30.488281 L 238.6875 32.730469 L 232.644531 35.324219 L 226.917969 38.226562 L 221.53125 41.414062 L 216.5 44.847656 L 211.835938 48.488281 L 207.558594 52.300781 L 203.667969 56.246094 L 200.167969 60.28125 L 197.0625 64.371094 L 194.339844 68.476562 L 192 72.5625 L 190.144531 76.328125 L 188.59375 80.011719 L 187.335938 83.589844 L 186.355469 87.039062 L 185.628906 90.332031 L 185.132812 93.453125 L 184.847656 96.382812 L 184.75 99.097656 L 184.808594 101.59375 L 184.996094 103.851562 L 185.289062 105.871094 L 185.65625 107.636719 L 186.066406 109.15625 L 186.492188 110.421875 L 186.90625 111.441406 L 187.273438 112.214844 L 187.574219 112.761719 L 187.777344 113.082031 L 187.859375 113.199219 L 187.796875 113.121094 L 187.5625 112.875 L 187.144531 112.472656 L 186.519531 111.945312 L 185.671875 111.3125 L 184.589844 110.597656 L 183.261719 109.835938 L 181.683594 109.050781 L 179.84375 108.269531 L 177.742188 107.523438 L 175.382812 106.84375 L 172.769531 106.253906 L 169.902344 105.792969 L 166.796875 105.476562 L 163.460938 105.34375 L 159.914062 105.414062 L 156.167969 105.714844 L 152.242188 106.269531 L 148.164062 107.101562 L 143.957031 108.226562 L 139.640625 109.660156 L 135.25 111.421875 L 130.804688 113.523438 L 126.34375 115.972656 L 121.894531 118.773438 L 117.488281 121.933594 L 113.160156 125.457031 L 108.9375 129.332031 L 104.855469 133.5625 L 100.945312 138.136719 L 97.238281 143.042969 L 93.761719 148.265625 L 90.546875 153.796875 L 87.617188 159.609375 L 85.003906 165.683594 L 82.730469 171.996094 L 80.8125 178.523438 L 79.273438 185.234375 L 78.125 192.101562 L 77.390625 199.09375 L 77.070312 206.179688 L 77.183594 213.320312 L 77.726562 220.488281 L 78.707031 227.652344 L 80.121094 234.769531 L 81.925781 241.671875 L 84.140625 248.46875 L 86.753906 255.128906 L 89.757812 261.625 L 93.132812 267.921875 L 96.863281 273.992188 L 100.9375 279.816406 L 105.324219 285.363281 L 110.007812 290.613281 L 114.960938 295.546875 L 120.15625 300.140625 L 125.566406 304.386719 L 131.160156 308.265625 L 136.910156 311.769531 L 142.785156 314.886719 L 148.753906 317.617188 L 154.78125 319.957031 L 160.84375 321.902344 L 166.902344 323.460938 L 172.929688 324.636719 L 178.894531 325.441406 L 184.769531 325.878906 L 190.523438 325.96875 L 196.132812 325.722656 L 201.574219 325.164062 L 206.824219 324.308594 L 211.859375 323.179688 L 216.664062 321.800781 L 221.21875 320.195312 L 225.511719 318.390625 L 229.53125 316.414062 L 233.269531 314.292969 L 236.714844 312.058594 L 239.871094 309.738281 L 242.734375 307.359375 L 245.308594 304.953125 L 247.59375 302.546875 L 249.601562 300.167969 L 251.339844 297.839844 L 252.820312 295.59375 L 254.058594 293.449219 L 255.066406 291.429688 L 255.871094 289.558594 L 256.488281 287.851562 L 256.9375 286.328125 L 257.246094 285 L 257.4375 283.878906 L 257.539062 282.980469 L 257.574219 282.304688 L 257.570312 281.855469 L 257.558594 281.640625 L 257.5625 281.65625 L 257.605469 281.898438 L 257.722656 282.359375 L 257.9375 283.035156 L 258.269531 283.910156 L 258.75 284.972656 L 259.394531 286.207031 L 260.230469 287.597656 L 261.269531 289.117188 L 262.535156 290.75 L 264.039062 292.472656 L 265.792969 294.257812 L 267.8125 296.082031 L 270.304688 298.070312 L 273.121094 300.035156 L 276.265625 301.941406 L 279.734375 303.753906 L 283.527344 305.433594 L 287.632812 306.945312 L 292.035156 308.257812 L 296.726562 309.328125 L 301.683594 310.132812 L 306.886719 310.640625 L 312.308594 310.816406 L 317.921875 310.640625 L 323.695312 310.089844 L 329.597656 309.140625 L 335.59375 307.777344 L 341.640625 305.988281 L 347.710938 303.761719 L 353.757812 301.09375 L 359.746094 297.976562 L 365.632812 294.417969 L 371.378906 290.421875 L 376.945312 285.992188 L 382.296875 281.148438 L 387.390625 275.898438 L 392.195312 270.273438 L 396.675781 264.285156 L 400.804688 257.96875 L 404.546875 251.347656 L 407.878906 244.457031 L 410.777344 237.328125 L 413.222656 230 L 415.203125 222.511719 L 416.699219 214.898438 L 417.707031 207.203125 L 418.21875 199.464844 L 418.234375 191.726562 L 417.753906 184.03125 L 416.789062 176.417969 L 415.347656 168.925781 L 413.441406 161.59375 L 411.089844 154.457031 L 408.3125 147.558594 L 405.136719 140.921875 L 401.585938 134.582031 L 397.691406 128.570312 L 393.484375 122.902344 L 389 117.609375 L 384.273438 112.703125 L 379.34375 108.199219 L 374.242188 104.113281 L 369.015625 100.445312 L 363.699219 97.203125 L 358.335938 94.382812 L 352.960938 91.984375 L 347.609375 90 L 342.324219 88.414062 L 337.140625 87.214844 L 332.085938 86.378906 L 327.195312 85.894531 L 322.496094 85.726562 L 318.015625 85.855469 L 313.777344 86.25 L 309.800781 86.878906 L 306.101562 87.710938 L 302.910156 88.636719 L 299.980469 89.683594 L 297.316406 90.816406 L 294.917969 92.011719 L 292.789062 93.234375 L 290.925781 94.460938 L 289.320312 95.660156 L 287.964844 96.804688 L 286.84375 97.871094 L 285.949219 98.832031 L 285.261719 99.664062 L 284.761719 100.347656 L 284.433594 100.859375 L 284.25 101.183594 L 284.191406 101.304688 L 284.226562 101.210938 L 284.335938 100.890625 L 284.488281 100.335938 L 284.65625 99.542969 L 284.8125 98.511719 L 284.929688 97.238281 L 284.976562 95.726562 L 284.925781 93.984375 L 284.753906 92.019531 L 284.429688 89.847656 L 283.929688 87.476562 L 283.230469 84.925781 L 282.308594 82.214844 L 281.144531 79.363281 L 279.722656 76.390625 L 278.023438 73.332031 L 276.035156 70.203125 L 273.742188 67.035156 L 271.144531 63.859375 L 268.226562 60.699219 L 264.988281 57.589844 L 261.433594 54.5625 L 257.558594 51.644531 L 253.375 48.867188 L 248.886719 46.261719 L 244.105469 43.855469 L 239.042969 41.675781 L 233.71875 39.75 L 228.152344 38.109375 L 222.359375 36.769531 L 216.367188 35.757812 L 210.199219 35.089844 L 203.886719 34.789062 L 197.453125 34.867188 L 190.933594 35.335938 L 184.351562 36.207031 L 177.746094 37.488281 L 171.148438 39.179688 L 164.585938 41.289062 L 158.101562 43.808594 L 151.71875 46.742188 L 145.476562 50.074219 L 139.40625 53.796875 L 133.535156 57.898438 L 127.894531 62.367188 L 122.515625 67.175781 L 117.421875 72.3125 L 112.636719 77.75 L 108.183594 83.460938 L 103.757812 89.9375 L 99.769531 96.667969 L 96.242188 103.617188 L 93.183594 110.746094 L 90.609375 118.015625 L 88.527344 125.378906 L 86.9375 132.796875 L 85.84375 140.226562 L 85.242188 147.628906 L 85.121094 154.957031 L 85.472656 162.171875 L 86.273438 169.242188 L 87.511719 176.121094 L 89.160156 182.777344 L 91.195312 189.183594 L 93.585938 195.304688 L 96.300781 201.117188 L 99.308594 206.597656 L 102.570312 211.726562 L 106.054688 216.488281 L 109.71875 220.871094 L 113.523438 224.867188 L 117.429688 228.46875 L 121.402344 231.683594 L 125.398438 234.507812 L 129.382812 236.953125 L 133.3125 239.027344 L 137.160156 240.75 L 140.886719 242.140625 L 144.464844 243.210938 L 147.867188 243.996094 L 151.058594 244.519531 L 154.027344 244.808594 L 156.75 244.894531 L 159.207031 244.816406 L 161.390625 244.605469 L 163.289062 244.292969 L 164.902344 243.921875 L 166.226562 243.527344 L 167.265625 243.140625 L 168.023438 242.800781 L 168.515625 242.542969 L 168.75 242.402344 L 168.53125 242.582031 L 168.125 242.960938 L 167.550781 243.566406 L 166.839844 244.421875 L 166.023438 245.539062 L 165.136719 246.941406 L 164.210938 248.632812 L 163.28125 250.625 L 162.390625 252.921875 L 161.566406 255.523438 L 160.851562 258.421875 L 160.285156 261.609375 L 159.894531 265.082031 L 159.71875 268.816406 L 159.789062 272.796875 L 160.136719 277 L 160.789062 281.402344 L 161.773438 285.972656 L 163.109375 290.683594 L 164.820312 295.5 L 166.882812 300.296875 L 169.332031 305.125 L 172.179688 309.953125 L 175.425781 314.734375 L 179.078125 319.441406 L 183.132812 324.027344 L 187.585938 328.460938 L 192.421875 332.703125 L 197.632812 336.714844 L 203.203125 340.464844 L 209.109375 343.917969 L 215.328125 347.039062 L 221.835938 349.804688 L 228.605469 352.183594 L 235.597656 354.15625 L 242.789062 355.695312 L 250.136719 356.785156 L 257.605469 357.410156 L 265.15625 357.5625 L 272.75 357.230469 L 280.347656 356.414062 L 287.90625 355.109375 L 295.390625 353.324219 L 302.753906 351.058594 L 309.960938 348.332031 L 316.976562 345.15625 L 323.757812 341.550781 L 330.277344 337.53125 L 336.5 333.125 L 342.394531 328.363281 L 347.933594 323.269531 L 353.097656 317.878906 L 357.859375 312.226562 L 362.207031 306.347656 L 366.125 300.277344 L 369.597656 294.058594 L 372.625 287.726562 L 375.199219 281.320312 L 377.320312 274.882812 L 379 268.449219 L 380.234375 262.058594 L 381.046875 255.75 L 381.445312 249.558594 L 381.445312 243.515625 L 381.078125 237.65625 L 380.355469 232.003906 L 379.316406 226.59375 L 377.976562 221.441406 L 376.378906 216.574219 L 374.546875 212.007812 L 372.523438 207.757812 L 370.332031 203.828125 L 368.019531 200.234375 L 365.617188 196.976562 L 363.15625 194.050781 L 360.679688 191.460938 L 358.222656 189.195312 L 355.8125 187.242188 L 353.484375 185.589844 L 351.273438 184.222656 L 349.199219 183.117188 L 347.296875 182.25 L 345.582031 181.601562 L 344.082031 181.136719 L 342.886719 180.847656 L 341.90625 180.667969 L 341.144531 180.578125 L 340.613281 180.542969 L 340.3125 180.542969 L 340.246094 180.546875 L 340.410156 180.523438 L 340.800781 180.453125 L 341.417969 180.304688 L 342.242188 180.050781 L 343.269531 179.667969 L 344.480469 179.132812 L 345.859375 178.417969 L 347.394531 177.511719 L 349.054688 176.390625 L 350.824219 175.035156 L 352.679688 173.433594 L 354.589844 171.570312 L 356.53125 169.441406 L 358.476562 167.035156 L 360.398438 164.347656 L 362.269531 161.378906 L 364.054688 158.125 L 365.730469 154.59375 L 367.265625 150.789062 L 368.632812 146.71875 L 369.804688 142.398438 L 370.753906 137.839844 L 371.457031 133.058594 L 371.890625 128.074219 L 372.035156 122.90625 L 371.863281 117.582031 L 371.367188 112.125 L 370.519531 106.558594 L 369.320312 100.914062 L 367.746094 95.21875 L 365.800781 89.503906 L 363.46875 83.800781 L 360.753906 78.140625 L 357.65625 72.554688 L 354.175781 67.074219 L 350.316406 61.734375 L 346.09375 56.558594 L 341.515625 51.585938 L 336.597656 46.835938 L 331.351562 42.34375 L 325.800781 38.136719 L 319.964844 34.230469 L 313.867188 30.65625 L 307.53125 27.433594 L 300.992188 24.578125 L 294.269531 22.109375 L 287.394531 20.039062 L 280.402344 18.375 L 273.320312 17.128906 L 266.1875 16.304688 L 259.027344 15.910156 L 251.878906 15.9375 L 244.773438 16.386719 L 237.746094 17.253906 L 230.824219 18.527344 L 224.039062 20.195312 L 217.417969 22.25 L 210.996094 24.667969 L 204.28125 27.679688 L 197.859375 31.074219 L 191.757812 34.816406 L 186.003906 38.882812 L 180.613281 43.234375 L 175.613281 47.832031 L 171.011719 52.644531 L 166.824219 57.628906 L 163.058594 62.746094 L 159.71875 67.960938 L 156.804688 73.226562 L 154.308594 78.511719 L 152.226562 83.773438 L 150.546875 88.972656 L 149.25 94.078125 L 148.324219 99.054688 L 147.746094 103.871094 L 147.492188 108.496094 L 147.53125 112.902344 L 147.839844 117.070312 L 148.378906 120.980469 L 149.125 124.609375 L 150.035156 127.949219 L 151.078125 130.992188 L 152.21875 133.726562 L 153.421875 136.152344 L 154.644531 138.273438 L 155.855469 140.09375 L 157.023438 141.621094 L 158.109375 142.867188 L 159.085938 143.851562 L 159.917969 144.59375 L 160.585938 145.113281 L 161.054688 145.433594 L 161.308594 145.582031 L 161.328125 145.59375 L 161.09375 145.496094 L 160.597656 145.324219 L 159.828125 145.109375 L 158.777344 144.886719 L 157.449219 144.691406 L 155.839844 144.5625 L 153.960938 144.53125 L 151.816406 144.636719 L 149.425781 144.90625 L 146.800781 145.375 L 143.960938 146.070312 L 140.933594 147.023438 L 137.738281 148.261719 L 134.410156 149.804688 L 130.976562 151.671875 L 127.472656 153.878906 L 123.929688 156.445312 L 120.390625 159.375 L 116.882812 162.675781 L 113.453125 166.351562 L 110.132812 170.402344 L 106.964844 174.816406 L 103.984375 179.589844 L 101.230469 184.710938 L 98.734375 190.160156 L 96.535156 195.921875 L 94.660156 201.964844 L 93.140625 208.269531 L 92.070312 214.367188 L 91.351562 220.636719 L 91.003906 227.054688 L 91.042969 233.589844 L 91.480469 240.214844 L 92.328125 246.890625 L 93.59375 253.59375 L 95.273438 260.28125 L 97.378906 266.929688 L 99.898438 273.5 L 102.835938 279.957031 L 106.175781 286.269531 L 109.910156 292.40625 L 114.027344 298.339844 L 118.507812 304.03125 L 123.335938 309.460938 L 128.488281 314.59375 L 133.945312 319.414062 L 139.671875 323.894531 L 145.648438 328.015625 L 151.847656 331.757812 L 158.230469 335.109375 L 164.773438 338.058594 L 171.4375 340.589844 L 178.191406 342.703125 L 185.003906 344.394531 L 191.839844 345.660156 L 198.667969 346.503906 L 205.449219 346.929688 L 212.15625 346.949219 L 218.757812 346.570312 L 225.21875 345.8125 L 231.515625 344.683594 L 237.617188 343.207031 L 243.5 341.402344 L 249.144531 339.292969 L 254.523438 336.90625 L 259.621094 334.265625 L 264.425781 331.402344 L 268.917969 328.339844 L 273.089844 325.117188 L 276.9375 321.757812 L 280.453125 318.292969 L 283.632812 314.757812 L 286.480469 311.183594 L 289 307.597656 L 291.199219 304.03125 L 293.085938 300.511719 L 294.675781 297.070312 L 295.976562 293.734375 L 297.015625 290.523438 L 297.804688 287.464844 L 298.363281 284.574219 L 298.722656 281.875 L 298.902344 279.382812 L 298.929688 277.109375 L 298.832031 275.066406 L 298.636719 273.261719 L 298.375 271.703125 L 298.070312 270.386719 L 297.753906 269.320312 L 297.453125 268.5 L 297.203125 267.914062 L 297.023438 267.554688 L 296.945312 267.417969 L 296.984375 267.476562 L 297.164062 267.714844 L 297.507812 268.117188 L 298.035156 268.664062 L 298.757812 269.335938 L 299.695312 270.105469 L 300.859375 270.953125 L 302.261719 271.851562 L 303.90625 272.773438 L 305.800781 273.695312 L 307.949219 274.589844 L 310.347656 275.425781 L 313 276.175781 L 315.894531 276.816406 L 319.027344 277.316406 L 322.386719 277.652344 L 325.960938 277.796875 L 329.734375 277.730469 L 333.691406 277.425781 L 337.808594 276.859375 L 342.070312 276.019531 L 346.445312 274.886719 L 350.914062 273.441406 L 355.449219 271.675781 L 360.023438 269.574219 L 364.609375 267.136719 L 369.171875 264.347656 L 373.6875 261.214844 L 378.125 257.730469 L 382.449219 253.898438 L 386.636719 249.726562 L 390.652344 245.222656 L 394.472656 240.394531 L 398.066406 235.257812 L 401.40625 229.828125 L 404.46875 224.125 L 407.230469 218.164062 L 409.667969 211.972656 L 411.761719 205.570312 L 413.492188 198.988281 L 414.84375 192.253906 L 415.808594 185.390625 L 416.367188 178.429688 L 416.519531 171.410156 L 416.257812 164.351562 L 415.574219 157.292969 L 414.476562 150.265625 L 412.964844 143.300781 L 411.039062 136.433594 L 408.71875 129.6875 L 406.003906 123.097656 L 402.914062 116.695312 L 399.464844 110.503906 L 395.667969 104.550781 L 391.554688 98.859375 L 387.140625 93.457031 L 382.449219 88.363281 L 377.511719 83.59375 L 372.347656 79.164062 L 366.992188 75.09375 L 361.472656 71.386719 L 355.820312 68.058594 L 350.066406 65.109375 L 343.742188 62.34375 L 337.375 60.035156 L 331 58.171875 L 324.660156 56.75 L 318.390625 55.761719 L 312.230469 55.1875 L 306.210938 55.015625 L 300.363281 55.222656 L 294.726562 55.78125 L 289.320312 56.671875 L 284.167969 57.859375 L 279.296875 59.316406 L 274.722656 61.011719 L 270.460938 62.90625 L 266.523438 64.96875 L 262.917969 67.160156 L 259.644531 69.449219 L 256.710938 71.792969 L 254.105469 74.160156 L 251.828125 76.515625 L 249.863281 78.820312 L 248.199219 81.046875 L 246.824219 83.160156 L 245.707031 85.136719 L 244.835938 86.945312 L 244.179688 88.558594 L 243.710938 89.964844 L 243.398438 91.136719 L 243.214844 92.066406 L 243.128906 92.734375 L 243.097656 93.140625 L 243.097656 93.277344 L 243.085938 93.144531 L 243.035156 92.742188 L 242.90625 92.082031 L 242.667969 91.167969 L 242.289062 90.019531 L 241.738281 88.648438 L 240.988281 87.078125 L 240.007812 85.328125 L 238.777344 83.425781 L 237.277344 81.398438 L 235.484375 79.28125 L 233.390625 77.097656 L 230.976562 74.886719 L 228.234375 72.679688 L 225.164062 70.515625 L 221.765625 68.433594 L 218.035156 66.460938 L 213.980469 64.640625 L 209.613281 63.003906 L 204.949219 61.589844 L 200.003906 60.429688 L 194.792969 59.550781 L 189.34375 58.988281 L 183.683594 58.769531 L 177.839844 58.914062 L 171.84375 59.449219 L 165.726562 60.390625 L 159.53125 61.753906 L 153.289062 63.550781 L 147.039062 65.792969 L 140.824219 68.484375 L 134.675781 71.621094 L 129.042969 74.953125 L 123.535156 78.667969 L 118.1875 82.761719 L 113.035156 87.214844 L 108.101562 92.023438 L 103.417969 97.164062 L 99.011719 102.621094 L 94.90625 108.375 L 91.128906 114.402344 L 87.699219 120.675781 L 84.636719 127.167969 L 81.960938 133.855469 L 79.679688 140.699219 L 77.8125 147.675781 L 76.363281 154.753906 L 75.335938 161.890625 L 74.742188 169.0625 L 74.574219 176.234375 L 74.832031 183.371094 L 75.511719 190.441406 L 76.605469 197.410156 L 78.101562 204.25 L 79.984375 210.929688 L 82.238281 217.421875 L 84.847656 223.695312 L 87.789062 229.726562 L 91.039062 235.492188 L 94.574219 240.976562 L 98.367188 246.152344 L 102.390625 251.007812 L 106.617188 255.527344 L 111.015625 259.699219 L 115.554688 263.523438 L 120.199219 266.984375 L 124.925781 270.082031 L 129.695312 272.820312 L 134.484375 275.199219 L 139.253906 277.226562 L 143.980469 278.910156 L 148.636719 280.261719 L 153.1875 281.292969 L 157.613281 282.023438 L 161.890625 282.46875 L 165.992188 282.648438 L 169.90625 282.585938 L 173.605469 282.308594 L 177.082031 281.835938 L 180.320312 281.199219 L 183.308594 280.421875 L 186.042969 279.539062 L 188.515625 278.570312 L 190.726562 277.546875 L 192.679688 276.5 L 194.371094 275.460938 L 195.8125 274.449219 L 197.011719 273.496094 L 197.980469 272.628906 L 198.730469 271.871094 L 199.28125 271.246094 L 199.648438 270.773438 L 199.855469 270.472656 L 199.925781 270.363281 L 199.875 270.457031 L 199.738281 270.769531 L 199.507812 271.386719 L 199.234375 272.296875 L 198.957031 273.507812 L 198.71875 275.023438 L 198.550781 276.832031 L 198.496094 278.933594 L 198.59375 281.316406 L 198.878906 283.964844 L 199.390625 286.859375 L 200.152344 289.976562 L 201.203125 293.292969 L 202.570312 296.773438 L 204.273438 300.390625 L 206.335938 304.105469 L 208.773438 307.882812 L 211.601562 311.683594 L 214.824219 315.464844 L 218.453125 319.1875 L 222.488281 322.804688 L 226.921875 326.28125 L 231.746094 329.570312 L 236.949219 332.632812 L 242.515625 335.425781 L 248.421875 337.917969 L 254.648438 340.0625 L 261.160156 341.835938 L 267.929688 343.203125 L 274.921875 344.132812 L 282.09375 344.605469 L 289.414062 344.601562 L 296.832031 344.105469 L 304.308594 343.097656 L 311.800781 341.578125 L 319.257812 339.539062 L 326.636719 336.984375 L 333.894531 333.917969 L 340.980469 330.347656 L 347.855469 326.292969 L 354.476562 321.769531 L 360.800781 316.800781 L 366.789062 311.410156 L 372.410156 305.628906 L 377.632812 299.496094 L 382.425781 293.039062 L 386.761719 286.300781 L 390.621094 279.324219 L 393.988281 272.152344 L 396.847656 264.824219 L 399.195312 257.390625 L 401.023438 249.894531 L 402.332031 242.386719 L 403.128906 234.902344 L 403.421875 227.496094 L 403.222656 220.203125 L 402.554688 213.070312 L 401.433594 206.136719 L 399.886719 199.4375 L 397.945312 193.007812 L 395.640625 186.875 L 393.003906 181.070312 L 390.074219 175.617188 L 386.890625 170.53125 L 383.492188 165.832031 L 379.921875 161.53125 " transform="matrix(1,0,0,1,-66,-8)"/>
</g>
</svg>
