<?xml version="1.0" encoding="UTF-8" standalone="no"?>
<svg
   xmlns:dc="http://purl.org/dc/elements/1.1/"
   xmlns:cc="http://creativecommons.org/ns#"
   xmlns:rdf="http://www.w3.org/1999/02/22-rdf-syntax-ns#"
   xmlns:svg="http://www.w3.org/2000/svg"
   xmlns="http://www.w3.org/2000/svg"
   xmlns:sodipodi="http://sodipodi.sourceforge.net/DTD/sodipodi-0.dtd"
   xmlns:inkscape="http://www.inkscape.org/namespaces/inkscape"
   width="210mm"
   height="297mm"
   viewBox="0 0 210 297"
   version="1.1"
   id="svg5"
   inkscape:version="1.0.1 (c497b03c, 2020-09-10)"
   sodipodi:docname="logo.svg"
   inkscape:export-filename="/Users/noahjones/Documents/Brittany and Noah/Cardano/Jones Financial/jonesfinancial.io/logo.png"
   inkscape:export-xdpi="96"
   inkscape:export-ydpi="96">
  <metadata
     id="metadata844">
    <rdf:RDF>
      <cc:Work
         rdf:about="">
        <dc:format>image/svg+xml</dc:format>
        <dc:type
           rdf:resource="http://purl.org/dc/dcmitype/StillImage" />
      </cc:Work>
    </rdf:RDF>
  </metadata>
  <sodipodi:namedview
     id="namedview7"
     pagecolor="#ffffff"
     bordercolor="#666666"
     borderopacity="1.0"
     inkscape:pageshadow="2"
     inkscape:pageopacity="0.0"
     inkscape:pagecheckerboard="0"
     inkscape:document-units="mm"
     showgrid="false"
     inkscape:zoom="0.851713"
     inkscape:cx="427.96106"
     inkscape:cy="316.42114"
     inkscape:window-width="1312"
     inkscape:window-height="847"
     inkscape:window-x="0"
     inkscape:window-y="25"
     inkscape:window-maximized="0"
     inkscape:current-layer="layer1"
     inkscape:document-rotation="0" />
  <defs
     id="defs2">
    <clipPath
       id="clip1">
      <path
         d="M 0 0 L 360 0 L 360 356.640625 L 0 356.640625 Z M 0 0 "
         id="path9" />
    </clipPath>
  </defs>
  <g
     inkscape:label="Layer 1"
     inkscape:groupmode="layer"
     id="layer1">
    <g
       id="g7179">
      <path
         style="clip-rule:nonzero;fill:none;stroke:#5c7fb3;stroke-width:0.614884;stroke-linecap:square;stroke-linejoin:miter;stroke-miterlimit:3.25;stroke-opacity:1"
         d="m 173.12389,69.577326 -0.16513,4.251348 -0.49539,4.224331 -0.81965,4.170289 -1.1409,4.090732 -1.45314,3.982635 -1.75489,3.852041 -2.04611,3.695915 -2.32233,3.515763 -2.58354,3.31612 -2.82673,3.09395 -3.05191,2.85224 -3.25306,2.59405 -3.43621,2.32083 -3.59233,2.0341 -3.72744,1.73387 -3.83402,1.42612 -3.91659,1.10938 -3.97364,0.78662 -4.00065,0.46387 -4.00366,0.1366 -3.97813,-0.18615 -3.9271,-0.5074 -3.84754,-0.82114 -3.74395,-1.12889 -3.61635,-1.42463 -3.461725,-1.70834 -3.28609,-1.97857 -3.089435,-2.23225 -2.871766,-2.46945 -2.634578,-2.68561 -2.380876,-2.88228 -2.113666,-3.05492 -1.831443,-3.206524 -1.537212,-3.33112 -1.235477,-3.433203 -0.926227,-3.506769 -0.612484,-3.556312 -0.294233,-3.577315 0.02102,-3.572817 0.337768,-3.539797 0.648511,-3.481245 0.953248,-3.397178 1.250487,-3.287589 1.53571,-3.152485 1.80893,-2.993363 2.067128,-2.813214 2.310322,-2.61056 2.533998,-2.389888 2.738159,-2.148191 2.921306,-1.891494 3.08343,-1.621277 3.220035,-1.337553 3.33413,-1.041823 3.4197,-0.738577 3.48125,-0.42934 3.51727,-0.115592 3.52477,0.201162 3.50677,0.517905 3.46023,0.830149 3.38968,1.139408 3.29059,1.441129 3.169,1.733863 3.02038,2.014592 2.84925,2.284797 2.87026,2.762177 2.61657,3.038397 2.33883,3.290595 2.03861,3.517281 1.71736,3.715425 1.38108,3.885071 1.02832,4.021666 0.66502,4.126758 0.29273,4.200311 -0.0855,4.23784 -0.46538,4.242349 -0.84516,4.210813 -1.22047,4.147768 -1.59124,4.0487 -1.95005,3.91809 -2.2968,3.75446 -2.62858,3.5608 -2.94231,3.33864 -3.23204,3.08643 -3.50378,2.81172 -3.74544,2.51148 -3.96164,2.19323 -4.14926,1.85396 -4.3039,1.49968 -4.42849,1.1319 -4.52006,0.75659 -4.57711,0.37379 -4.59963,-0.015 -4.587615,-0.40082 -4.542583,-0.78812 -4.461517,-1.16641 -4.34893,-1.53872 -4.201813,-1.89749 -4.024674,-2.24428 -3.81601,-2.57002 -3.581824,-2.87927 -3.319118,-3.166 -3.033891,-3.4257 -2.724647,-3.66139 -2.397391,-3.86704 -2.053619,-4.04269 -1.694838,-4.186806 -1.325545,-4.299388 -0.947246,-4.377453 -0.565947,-4.420994 -0.181643,-4.429982 0.20266,-4.407475 0.580958,-4.34743 0.95175,-4.254354 1.315039,-4.129764 1.661807,-3.973626 1.993572,-3.78449 2.307321,-3.56981 2.598549,-3.326631 2.867262,-3.057907 3.110452,-2.766677 3.325122,-2.455936 3.509766,-2.125674 3.66589,-1.783418 3.787487,-1.427621 3.87756,-1.062837 3.933099,-0.690547 3.95562,-0.316743 3.942112,0.05708 3.640365,0.387301 3.57132,0.707062 3.47824,1.017802 3.35514,1.318031 3.20954,1.609273 3.0399,1.883988 2.84624,2.145184 2.63158,2.386892 2.39589,2.61055 2.14368,2.811722 1.87498,2.991859 1.59125,3.146483 1.29553,3.277076 0.99078,3.382167 0.67553,3.458727 0.35729,3.511268 0.0345,3.532292 -0.28974,3.529285 -0.61098,3.496256 -0.92922,3.43621 -1.24149,3.349137 -1.54471,3.235049 -1.83745,3.095446 -2.11817,2.931814 -2.38238,2.744159 -2.63308,2.534 -2.86126,2.30282 -3.07142,2.05361 -3.26057,1.78641 -3.4242,1.50419 -3.56381,1.20845 -3.67941,0.90072 -3.766455,0.58395 -3.828024,0.26121 -3.862546,-0.066 -3.86705,-0.39482 -3.846032,-0.72657 -3.796495,-1.05232 -3.716928,-1.37359 -3.614903,-1.68884 -3.482746,-1.99508 -3.326624,-2.2893 -3.144982,-2.56703 -2.94232,-2.832737 -2.715639,-3.078921 -2.470949,-3.30711 -2.206741,-3.511267 -1.926018,-3.695914 -1.630286,-3.855038 -1.321042,-3.988648 -1.004291,-4.098227 -0.675534,-4.179297 -0.34377,-4.233341 -0.0075,-4.258864 0.328759,-4.258854 0.666526,-4.227338 0.999788,-4.170288 1.327046,-4.084719 1.646799,-3.972122 1.954542,-3.834035 2.251775,-3.670391 2.532495,-3.484251 2.798208,-3.272577 3.044402,-3.041392 3.206528,-2.738165 3.403184,-2.479956 3.578822,-2.205238 3.73194,-1.920015 3.861047,-1.621278 3.964627,-1.315037 4.044186,-0.9997881 4.095229,-0.6800359 4.123753,-0.3572816 4.122254,-0.03303 4.096715,0.2882269 4.04419,0.6064777 3.96614,0.9202263 3.86254,1.2249667 3.73344,1.519197 3.58183,1.802922 3.40769,2.073135 3.21253,2.325333 2.99786,2.56252 2.76218,2.780191 2.51297,2.978351 2.24578,3.152485 1.96805,3.30711 1.67683,3.434707 1.37808,3.541301 1.07035,3.617851 0.7596,3.673386 0.44435,3.698921 0.13059,3.700424 -0.18463,3.67489 -0.4954,3.623864 -0.80013,3.545789 -1.09586,3.443716 -1.38259,3.319115 -1.65731,3.167507 -1.91851,2.996359 -2.16471,2.802713 -2.39139,2.589535 -2.60155,2.358362 -2.7892,2.110662 -2.95883,1.847963 -3.10145,1.573236 -3.22304,1.286516 -3.31911,0.989283 -3.38968,0.689044 -3.4347,0.379796 -3.45273,0.07059 -3.44672,-0.240193 -3.413675,-0.549421 -3.35365,-0.85418 L 92.286652,93.02438 89.126663,91.580244 86.101775,89.855379 83.233014,87.860309 80.542893,85.61303 78.053931,83.125567 75.784142,80.41594 73.753039,77.505141 71.975637,74.412701 70.466947,71.159634 69.23898,67.769962 68.305243,64.2662 67.671742,60.673863 67.345988,57.019987 v -4.006645 l 0.370791,-4.015664 0.741586,-3.993147 1.109375,-3.936108 1.471159,-3.847531 1.82394,-3.724434 2.164706,-3.571324 2.490464,-3.386666 2.799705,-3.175003 3.089439,-2.934818 3.355143,-2.670606 3.59834,-2.380877 3.813006,-2.073135 4.002153,-1.744376 4.161285,-1.400603 4.28737,-1.0448248 4.38196,-0.6755325 4.44501,-0.3032394 4.47502,0.078064 4.46753,0.4578614 4.42999,0.8361601 4.35794,1.2114542 4.25285,1.577744 4.11625,1.935027 3.94811,2.277295 3.74845,2.606055 3.52328,2.912293 3.27108,3.20203 2.99336,3.46473 2.69463,3.70342 2.37486,3.915083 2.03862,4.096735 1.68732,4.249855 1.32406,4.369947 0.95174,4.457008 0.57345,4.511063 0.19366,4.532066 -0.18916,4.520072 -0.56894,4.47202 -0.93975,4.393967 -1.30452,4.279878 -1.6558,4.135756 -1.99208,3.961621 -2.31483,3.758966 -2.61355,3.527782 -2.89128,3.271085 -3.14648,2.990359 -3.37316,2.69012 -3.57432,2.37186 -3.74395,2.03562 -3.88206,1.68582 -3.99015,1.32854 -4.0652,0.95926 -4.10424,0.58997 -4.11325,0.21467 -4.08773,-0.15613 -4.02766,-0.5224 -3.93611,-0.8827 -3.81151,-1.23247 -3.65688,-1.57024 -3.473735,-1.88849 -3.26057,-2.19173 -3.020382,-2.47395 -2.759155,-2.73065 -2.319326,-2.75918 -2.053619,-2.940822 -1.775904,-3.096939 -1.48467,-3.232042 -1.184433,-3.338636 -0.876691,-3.421199 -0.561444,-3.475242 -0.244689,-3.505265 0.07355,-3.505265 0.391809,-3.479741 0.704055,-3.427201 1.014802,-3.346142 1.313537,-3.242554 1.604764,-3.110447 1.882486,-2.955834 2.145191,-2.777189 2.394388,-2.576039 2.624067,-2.356858 2.835744,-2.115162 3.02338,-1.859967 3.191515,-1.586755 3.33412,-1.301527 3.45423,-1.004284 3.5458,-0.698053 3.61334,-0.382802 3.65239,-0.06602 3.66589,0.256698 3.65088,0.576458 3.61034,0.897711 3.54129,1.211448 3.44673,1.520707 3.32511,1.820936 3.17951,2.110662 3.00837,2.386882 2.81772,2.649592 2.60155,2.892781 2.36737,3.119457 2.11367,3.32662 1.84495,3.509764 1.55974,3.671905 1.26249,3.810003 0.95325,3.921086 0.6365,4.008158 0.31225,4.068215 -0.0166,4.101234 -0.34527,4.105732 -0.67553,4.08473 -1.0013,4.033671 -1.32553,3.958625 -1.6393,3.85504 -1.94704,3.72744 -2.23976,3.57283 -2.52049,3.39567 -2.7877,3.19602 -3.0354,2.97385 -3.26356,2.73216 -3.47374,2.47244 -3.65989,2.19773 -3.82351,1.905 -3.96162,1.60327 -4.07572,1.28952 -4.16279,0.96676 -4.22283,0.6395 -4.25585,0.30925 -4.61914,-0.0436 -4.58912,-0.43235 -4.527575,-0.81814 -4.43149,-1.19645 -4.29939,-1.56573 -4.137261,-1.92002 -3.94361,-2.25778 -3.721433,-2.57753 -3.470736,-2.87476 -3.19452,-3.14949 -2.897287,-3.39568 -2.57603,-3.61635 -2.239767,-3.80551 -1.886986,-3.96463 -1.522201,-4.089217 -1.146902,-4.182304 -0.767108,-4.239343 -0.384303,-4.261861 v -4.251347 l 0.378301,-4.203318 0.753591,-4.123751 1.118383,-4.009662 1.46966,-3.864046 1.804422,-3.685402 2.124172,-3.478238 2.422912,-3.242565 2.696128,-2.98285 2.945321,-2.697622 3.165997,-2.391392 3.35965,-2.067131 3.520273,-1.726357 3.650879,-1.373589 3.746954,-1.010297 3.808511,-0.641003 3.83553,-0.265706 3.831005,0.108065 3.78899,0.481879 3.71243,0.848167 3.60434,1.205446 3.46323,1.552233 3.28909,1.883977 3.08794,2.197735 2.85675,2.491962 2.59855,2.762177 2.31933,3.011381 2.01458,3.229046 1.69334,3.421199 1.35557,3.580322 1.00279,3.710925 0.6395,3.804001 0.27022,3.868546 -0.10512,3.894069 -0.48038,3.888068 -0.85567,3.844536 -1.22497,3.770971 -1.58525,3.659889 -1.93653,3.517277 -2.27129,3.34313 -2.59105,3.13898 -2.89128,2.9048 -3.16898,2.64508 -3.4212,2.35985 -3.64789,2.05363 -3.84603,1.72636 -3.9391,1.36007 -4.07121,1.0148 -4.171785,0.65902 -4.239348,0.29424 -4.275372,-0.0751 -4.279875,-0.44736 -4.24985,-0.81814 -4.186805,-1.18594 -4.090725,-1.54622 -3.966126,-1.899 -3.807002,-2.23825 -3.620853,-2.56403 -3.406157,-2.87023 -3.164497,-3.1585 -2.898786,-3.42419 -2.610558,-3.664395 -2.299813,-3.880561 -1.974057,-4.068204 -1.633288,-4.227339 -1.277508,-4.353432 -0.911218,-4.449503 -0.540426,-4.514069 -0.16513,-4.544081 0.213168,-4.542579 0.588463,-4.508056 0.960759,-4.439001 1.324044,-4.339924 1.676821,-4.206314 2.017592,-4.045687 2.341846,-3.855037 2.64809,-3.635869 2.934811,-3.389672 3.197525,-3.122463 3.434708,-2.832736 3.646375,-2.521995 3.829518,-2.194728 3.984143,-1.853961 4.105736,-1.501184 4.195808,-1.137897 4.255857,-0.771609 4.279875,-0.397814 4.273869,-0.02702 4.233346,0.340769 4.159775,0.705557 4.05469,1.059835 3.92109,1.403608 3.75447,1.733867 3.56081,2.047611 3.33862,2.340344 3.09545,2.613567 2.82523,2.862758 2.53549,3.08793 2.22776,3.28309 1.905,3.452724 1.56573,3.589332 1.21897,3.697406 0.86318,3.770983 0.5029,3.814513 0.14111,3.825004 -0.22218,3.802497 -0.57795,3.745459 -0.93074,3.659889 -1.26999,3.539787 -1.60028,3.391176 -1.77589,3.002371 -2.03411,2.825219 -2.27729,2.627075 -2.50097,2.407896 -2.70814,2.172222 -2.89278,1.91851 -3.05641,1.649796 -3.19451,1.369079 -3.31012,1.077848 -3.40168,0.77762 -3.46474,0.468372 -3.503745,0.159123 -3.51428,-0.15762 -3.500718,-0.469797 -3.458728,-0.782119 -3.391174,-1.091356 -3.2981,-1.391596 -3.179508,-1.684329 -3.036893,-1.965059 -2.870263,-2.236756 -2.682616,-2.488965 -2.472449,-2.729149 -2.24277,-2.946825 -1.995074,-3.149489 -1.733867,-3.326621 -1.454645,-3.485743 -1.164919,-3.616358 -0.863178,-3.72743 -0.553939,-3.810014 -0.24019,-3.867043 0.08106,-3.897076 0.403818,-3.903078 0.723569,-3.880562 1.043322,-3.831017 1.35707,-3.75596 1.664812,-3.653886 1.963551,-3.529286 2.250274,-3.376153 2.524991,-3.203534 2.784693,-3.006868 3.026387,-2.789199 3.250066,-2.553514 3.455722,-2.29681 3.637371,-2.0281001 3.797994,-1.7413728 3.933099,-1.444138 4.044192,-1.1363973 4.131255,-0.8211465 4.1913,-0.4968922 4.22283,-0.1726357 4.23033,0.1576232 4.21083,0.4833819 4.16278,0.8106396 4.08773,1.1288894 3.99014,1.4426379 3.86404,1.7458762 3.71544,2.0386074 3.5443,2.317828 3.34763,2.582035 3.13297,2.829733 2.8973,3.057909 2.64508,3.266575 2.37637,3.454228 2.09265,3.617851 1.93503,4.081723 1.57624,4.213819 1.20545,4.315903 0.82715,4.383455 0.44736,4.414981 0.0631,4.416485 -0.31524,4.380448 -0.69205,4.311404 -1.05683,4.20932 -1.41412,4.077213 -1.75638,3.910585 -2.08065,3.715425 -2.38538,3.49326 -2.6706,3.244057 -2.93031,2.970845 -3.1645,2.675105 -3.37015,2.359866 -3.5458,2.029603 -3.69141,1.684316 -3.8055,1.32705 -3.88506,0.96226 -3.9316,0.59147 -3.94512,0.21917 -3.92259,-0.15162 -3.86855,-0.51941 -3.77998,-0.88119 -3.65989,-1.23097 -3.50826,-1.56874 -3.326615,-1.889991 -3.11496,-2.194729 -2.877771,-2.478453 -2.615064,-2.738157 -2.331339,-2.972349 -2.0266,-3.181005 -1.70234,-3.358147 -1.366077,-3.508271 -1.016302,-3.623853 -0.656016,-3.70793 -0.292732,-3.757463 0.07806,-3.775471 0.444351,-3.758967 0.81214,-3.707919 1.170926,-3.623864 1.5222,-3.508271 1.859966,-3.358147 2.185724,-3.179501 2.491966,-2.972349 2.778688,-2.735151 3.0429,-2.475457 3.28159,-2.190219 3.496255,-1.885491 3.6809,-1.561231 3.83553,-1.220457 3.95862,-0.867689 4.05019,-0.504397 4.10724,-0.13361 4.13126,0.2432 4.12225,0.616983 4.07721,0.993782 4.00066,1.361573 3.88957,1.724865 3.74545,2.074637 3.57132,2.410891 3.36715,2.733658 2.93481,2.823727 2.70964,3.068419 2.46645,3.293602 2.20373,3.499252 1.92452,3.682406 1.63029,3.841529 1.32554,3.97514 1.0088,4.084719 0.68303,4.164286 0.35278,4.219822 0.0181,4.246848 -0.31675,4.246849 -0.65151,4.216826 -0.98328,4.161279 -1.30903,4.077224 -1.62579,3.967624 -1.93502,3.831018 -2.22925,3.6689 -2.50998,3.48424 -2.7757,3.27708 -3.02188,3.04741 -3.24856,2.7982 -3.45423,2.5325 -3.63585,2.25027 -3.795,1.95305 -3.9286,1.64529 -4.03518,1.32704 -4.11625,1.0028 -4.16878,0.66953 -4.19431,0.33626 -4.19281,0.003 -4.16128,-0.33176 -4.10424,-0.65901 -4.01867,-0.98328 -3.909075,-1.29553 -3.77097,-1.60025 -3.608852,-1.88999 -3.424197,-2.16471 -3.218538,-2.42442 -2.988859,-2.66459 -2.744162,-2.88378 -2.478456,-3.08193 -2.200734,-3.25606 -1.908006,-3.4077 -1.603263,-3.53378 -1.29102,-3.631358 -0.972767,-3.70342 -0.648511,-3.749958 -0.321251,-3.766472 0.0031,-3.75596 0.327258,-3.716939 0.647009,-3.652373 0.956257,-3.560811 1.259492,-3.443716 1.550724,-3.299604 1.826938,-3.132965 2.089648,-2.943818 2.332839,-2.730662 2.558017,-2.50097 2.762178,-2.251779 2.943822,-1.984558 3.102948,-1.705343 3.238053,-1.412621 3.344643,-1.109374 3.35965,-0.786618 3.412185,-0.48188 3.44071,-0.174135 3.44222,0.1336 3.41669,0.442848 3.36866,0.747597 3.2921,1.046322 3.19151,1.340559 3.06692,1.621277 2.91829,1.89449 2.74867,2.151197 2.55652,2.395891 2.34485,2.622565 2.11517,2.82974 1.86897,3.018875 1.60627,3.187018 1.33005,3.33112 1.04483,3.452725 0.74758,3.550299 0.44285,3.623864 0.13511,3.668887 -0.17864,3.691415 -0.49089,3.686906 -0.80313,3.655379 -1.11389,3.59834 -1.41711,3.51577 -1.71435,3.40919 -2.00108,3.27709 -2.27579,3.12095 -2.53851,2.94533 -2.78619,2.74416 -3.01738,2.52649 -3.22754,2.28931 -3.41971,2.0356 -3.59082,1.76389 -3.73946,1.48317 -3.86254,1.18744 -3.96463,0.8827 -4.03818,0.57194 -4.089215,0.25521 -4.111751,-0.066 -4.11024,-0.3873 -4.080218,-0.70855 -4.026175,-1.02532 -3.945112,-1.33905 -3.840029,-1.6423 -3.707921,-1.93803 -3.556306,-2.22174 -3.379164,-2.49347 -3.181008,-2.74716 -2.961835,-2.98736 -2.726149,-3.20804 -2.472514,-3.40793 -2.202236,-3.58632 -1.920014,-3.743957 -1.625782,-3.877555 -1.321041,-3.985641 -1.008796,-4.068204 -0.690544,-4.128261 -0.369292,-4.159776 -0.04804,-4.164286 0.274717,-4.146268 0.594469,-4.098237 0.906714,-4.026177 1.33155,-4.258853 1.679825,-4.111746 2.013087,-3.936098 2.33134,-3.730447 2.628571,-3.500755 2.90329,-3.242554 3.153987,-2.963339 3.377662,-2.663101 3.575821,-2.34335 3.743953,-2.008578 3.879059,-1.661812 3.984139,-1.303031 4.056199,-0.939739 4.095229,-0.567449 4.102735,-0.198155 4.07422,0.172631 4.01417,0.535923 3.921075,0.894705 3.7965,1.242985 3.64038,1.574739 3.45722,1.8945 3.24556,2.194729 3.00687,2.472451 2.74566,2.729148 2.46045,2.960333 2.15869,3.165994 1.83745,3.338636 1.50419,3.485754 1.15741,3.601336 0.80164,3.682406 0.44134,3.73194 0.0795,3.749957 -0.28523,3.73194 -0.6455,3.683909 -0.9998,3.599833 -1.34506,3.487258 -1.67831,3.341631 -1.99659,3.167497 -2.29831,2.964843 -2.58053,2.733648 -2.84024,2.478453 -3.07743,2.202245 -3.28608,1.901995 -3.46774,1.58825 -3.62086,1.25499 -3.74395,0.90971 -3.832525,0.55695 -3.891065,0.19366 -3.91659,-0.17114 -3.907582,-0.54043 -3.86705,-0.90372 -3.79199,-1.26549 -3.683902,-1.61827 L 71.249071,98.202058 67.871405,95.912751 64.6919,93.308194 61.739069,90.410913 59.036938,87.238906 56.609527,83.816215 54.480849,80.168341 52.668918,76.322302 51.190255,72.308141 50.059862,68.154367 49.289755,63.894 l -0.387306,-4.045687 -0.06155,-4.083216 0.265709,-4.095231 0.594468,-4.08022 0.918724,-4.038181 1.242983,-3.967634 1.556727,-3.873045 1.86447,-3.751461 2.160201,-3.604342 2.442427,-3.433215 2.711139,-3.241051 2.961835,-3.026386 3.196021,-2.790701 3.409187,-2.537001 3.599839,-2.266786 3.769472,-1.9815635 3.915086,-1.6843272 4.035183,-1.3750843 4.128256,-1.0568335 4.195809,-0.7325781 4.237845,-0.4038181 4.25135,-0.072061 4.23633,0.2582041 4.19732,0.5869618 4.12975,0.9112184 4.03519,1.2294702 3.91658,1.5357109 3.77098,1.8329453 3.60434,2.118169 3.41219,2.385382 3.20052,2.637579 2.96935,2.871765 2.71714,3.083433 2.45293,3.277087 2.1692,3.443716 1.87799,3.587827 1.57173,3.70792 1.2595,3.802497 0.93974,3.868557 0.61699,3.909081 0.29273,3.922589 -0.0315,3.90908 -0.35428,3.867054 -0.66953,3.800994 -0.97876,3.706427 -1.28052,3.587827 -1.56723,3.443716 -1.84345,3.27858 -2.10317,3.087941 -2.34484,2.87777 -2.57003,2.649592 -2.77269,2.400389 -2.95432,2.139182 -3.11196,1.861471 -3.24705,1.571744 -3.35515,1.272997 -3.43921,0.965262 -3.49626,0.653019 -3.52628,0.336264 -3.53078,0.0195 -3.50527,-0.297233 -3.45573,-0.609476 -3.37916,-0.917233 -3.277085,-1.217461 -3.40618,-1.64679 -3.224547,-1.971061 -3.015875,-2.278795 -2.778692,-2.565526 -2.515986,-2.826722 -2.229257,-3.066927 -1.923014,-3.277076 -1.598762,-3.458728 -1.256491,-3.608852 -0.903712,-3.728933 -0.541928,-3.814513 -0.171134,-3.868546 0.202658,-3.885071 0.576455,-3.870049 0.947245,-3.819013 1.313537,-3.734946 1.670819,-3.61785 2.014589,-3.469229 2.346351,-3.286096 2.658592,-3.077429 2.951328,-2.837235 3.22154,-2.573031 3.469244,-2.284797 3.685395,-1.974059 3.87757,-1.643796 4.03668,-1.298524 4.16428,-0.939741 4.25885,-0.56895 4.32191,-0.19215 4.34743,0.190649 4.34143,0.574954 4.29939,0.956254 4.22282,1.334552 4.11325,1.703843 3.97063,2.062628 3.79649,2.406392 3.59083,2.736665 3.35815,3.044399 3.09694,3.331131 2.81172,3.59383 2.50398,3.83252 2.1752,4.039685 1.82995,4.218329 1.47116,4.365437 1.09737,4.479536 0.71756,4.560597 0.33027,4.607133 -0.0585,4.619139 -0.44735,4.598124 -0.83315,4.539583 -1.21146,4.44801 -1.58076,4.324913 -1.93651,4.167282 -2.2758,3.979638 -2.60005,3.763466 -2.90029,3.51727 -3.17801,3.24707 -3.43171,2.95433 -3.65538,2.63759 -3.85203,2.30581 -4.01717,1.95454 -4.15076,1.59426 -4.24835,1.22046 -4.31591,0.84217 -4.26786,0.45336 -4.26487,0.0841 -4.22884,-0.28372 -4.16278,-0.64701 -4.06371,-0.99979 -3.93309,-1.34506 -3.773965,-1.67532 -3.58634,-1.98907 -3.370159,-2.28481 -3.131466,-2.56101 -2.867262,-2.81323 -2.582037,-3.0399 -2.280296,-3.24105 -1.959047,-3.413695 -1.627285,-3.556302 -1.28351,-3.668887 -0.929233,-3.749968 -0.573454,-3.797988 -0.211666,-3.816017 0.148618,-3.797987 0.504397,-3.749958 0.855674,-3.67039 1.196447,-3.557816 1.526702,-3.415186 1.841953,-3.24556 2.140686,-3.045903 2.419911,-2.82072 2.678112,-2.571528 2.912294,-2.301323 3.119461,-2.008578 3.3026,-1.699341 3.454235,-1.375081 3.57581,-1.037324 3.6689,-0.69204 3.72744,-0.336264 3.75596,0.02102 3.75146,0.379796 3.71392,0.738577 3.64488,1.091367 3.54429,1.43663 3.41219,1.774398 3.24856,2.095651 3.05942,2.403396 2.84174,2.693124 2.59855,2.961836 2.33283,3.209535 2.04461,3.430197 1.73687,3.62686 1.41261,3.795003 1.07485,3.933101 0.72507,4.041177 0.36629,4.116256 0.003,4.162782 -0.3648,4.173285 -0.73257,4.15227 -1.09886,4.099741 -1.45616,4.014174 -1.80893,3.89557 -2.14668,3.74845 -2.47395,3.57133 -2.7817,3.36565 -3.07291,3.13296 -3.34164,2.87477 -3.58783,2.59554 -3.5443,2.1482 -3.71543,1.87198 -3.86104,1.58074 -3.98415,1.28051 -4.0802,0.96977 -4.15379,0.65151 -4.19881,0.32726 -4.21831,0.003 -4.210825,-0.32276 -4.176299,-0.64851 -4.117746,-0.96826 -4.029179,-1.28351 -3.919591,-1.59126 -3.782982,-1.88699 -3.622357,-2.17221 -3.440711,-2.44243 -3.235052,-2.69762 -3.012878,-2.93482 -2.769684,-3.15098 -2.511477,-3.35064 -2.235264,-3.52327 -1.950039,-3.67791 -1.649801,-3.80401 -1.342055,-3.909082 -1.028312,-3.985641 -0.707058,-4.036689 -0.385804,-4.062201 -0.06155,-4.060699 0.261205,-4.032179 0.577956,-3.978135 0.8887,-3.897076 1.194944,-3.791986 1.486169,-3.661392 1.769896,-3.508261 2.035607,-3.332633 2.287803,-3.134468 2.521988,-2.918305 2.736661,-2.681118 2.931809,-2.430413 3.102947,-2.163202 3.253064,-1.882485 3.379165,-1.591254 3.478242,-1.291026 3.554803,-0.984773 3.602841,-0.672529 3.625361,-0.358782 3.622358,-0.04205 3.59233,0.268713 3.536795,0.579454 3.45422,0.8827 3.34764,1.175422 3.21554,1.462154 3.06242,1.732371 2.88526,1.992063 2.68712,2.232268 2.47095,2.458932 2.23376,2.661608 1.98457,2.847736 1.71736,3.009877 1.43812,3.149479 1.14842,3.263579 0.84966,3.35514 0.54493,3.421199 0.23719,3.458727 -0.0976,3.764969 -0.46236,3.746951 -0.82715,3.695925 -1.18443,3.608842 -1.53272,3.491757 -1.86897,3.343135 -2.19023,3.16449 -2.49646,2.955838 -2.7787,2.72016 -3.04289,2.46043 -3.2801,2.17671 -3.49174,1.87198 -3.6749,1.55072 -3.82652,1.20996 -3.951115,0.86018 -4.03968,0.49689 -4.096739,0.1291 -4.120751,-0.24469 -4.11024,-0.61849 -4.066706,-0.99077 -3.988646,-1.35858 -3.879059,-1.71886 -3.737946,-2.06713 -3.56231,-2.4034 -3.361417,-2.72187 -3.129967,-3.021891 -2.873269,-3.301096 -2.59104,-3.554809 -2.287805,-3.785983 -1.965049,-3.985642 -1.624281,-4.158283 -1.271503,-4.300892 -0.905214,-4.408968 -0.529917,-4.487042 -0.150119,-4.52907 0.234185,-4.539583 0.613984,-4.515562 0.995285,-4.455505 1.367578,-4.365448 1.729363,-4.240846 2.080641,-4.084719 2.416908,-3.898568 2.735157,-3.68391 3.032389,-3.440709 3.30861,-3.172006 3.557805,-2.882272 3.781481,-2.570028 3.978135,-2.238264 4.141769,-1.894494 4.273868,-1.534209 4.377454,-1.1634174 4.443504,-0.7896226 4.479532,-0.4068204 4.47953,-0.025524 4.445005,0.3542783 4.37896,0.7295758 4.27837,1.0958643 4.14777,1.453146 3.98265,1.795416 3.79048,2.122672 3.56981,2.428916 3.32362,2.715641 3.05191,2.978354 2.75768,3.214035 2.2938,3.188511 2.00559,3.347634 1.70835,3.481245 1.4006,3.589341 1.08535,3.670391 0.7641,3.725937 0.44136,3.751461 0.11558,3.75145 -0.20566,3.725937 -0.52541,3.668898 -0.83767,3.589332 -1.14239,3.479741 -1.43514,3.349137 -1.71736,3.191529 -1.98305,3.011369 -2.23227,2.808715 -2.46493,2.58654 -2.67512,2.346346 -2.86575,2.088146 -3.0339,1.814933 -3.17651,1.528202 -3.29359,1.232472 -3.38667,0.924728 -3.45272,0.612483 -3.49175,0.295741 -3.50377,-0.02408 -3.48724,-0.342278 -3.445225,-0.65901 -3.37466,-0.971265 L 91.118788,92.529064 87.9618,90.95732 84.951927,89.101852 82.113188,86.974674 79.466602,84.5908 77.036184,81.969738 74.839954,79.129496 72.894419,76.0911 71.219097,72.874059 69.825998,69.5054 l -1.097366,-3.499252 -0.792624,-3.60285 -0.477375,-3.6794 -0.159127,-3.730436 0.165131,-3.752964 0.487884,-3.749958 0.81214,-3.718431 1.131895,-3.661382 1.447139,-3.574319 1.753383,-3.463238 2.050618,-3.325117 2.332839,-3.164501 2.604551,-2.976837 2.859758,-2.771191 3.093939,-2.541504 3.311612,-2.293809 3.506765,-2.028099 3.679405,-1.747378 3.829515,-1.451644 3.95262,-1.1454034 4.05019,-0.8286533 4.12375,-0.5043979 4.16728,-0.175638 4.18381,0.1576243 4.17479,0.4878842 4.47803,0.9037127 4.40148,1.2880154 4.28587,1.661811 4.14026,2.025096 3.96163,2.374873 3.75145,2.706635 3.51428,3.02038 3.24855,3.308613 2.95884,3.572817 2.64659,3.811506 2.31333,4.020164 1.96354,4.198818 1.59876,4.344423 1.22196,4.458512 0.83917,4.538079 0.44885,4.581621 0.0571,4.590619 -0.33327,4.565095 -0.72057,4.503558 -1.09886,4.408967 -1.46815,4.281382 -1.82244,4.119251 -2.16321,3.927089 -2.48146,3.706426 -2.78019,3.457224 -3.05491,3.182507 -3.30411,2.88377 -3.52178,2.56703 -3.71241,2.22926 -3.87006,1.87798 -3.99615,1.5132 -4.08772,1.1409 -4.14627,0.76109 -4.16728,0.3783 -4.15528,-0.004 -4.10875,-0.38281 -4.02616,-0.75659 -3.91209,-1.11838 -3.76497,-1.46966 -3.58501,-1.80459 -3.377665,-2.12268 -3.140474,-2.4169 -2.877769,-2.68862 -2.592543,-2.937815 -2.286303,-3.155482 -1.960545,-3.344638 -1.618277,-3.505265 -1.263996,-3.63137 -0.900709,-3.72293 -0.528418,-3.782987 -0.154624,-3.8085 0.220675,-3.796495 0.592968,-3.752965 0.960757,-3.673386 1.31804,-3.559308 1.66331,-3.415197 1.993572,-3.238055 2.30882,-3.029387 2.600051,-2.796711 2.870265,-2.533989 3.11495,-2.248772 3.332635,-1.942541 3.52027,-1.616767 3.6794,-1.274511 3.73345,-0.903714 3.82351,-0.552427 3.88056,-0.192152 3.90608,0.171128 3.89707,0.537426 3.85655,0.900707 3.78147,1.2595 3.67641,1.610765 3.53828,1.953042 3.37167,2.278795 3.175,2.59105 2.94982,2.885275 2.70063,3.156985 2.42742,3.407691 2.13167,3.631358 1.81794,3.829525 1.48467,3.997646 1.1409,4.138762 0.78212,4.245357 0.41733,4.323409 0.045,4.365437 -0.32876,4.377452 -0.70406,4.353432 -1.07484,4.299389 -1.44264,4.209323 -1.79692,4.08922 -2.14369,3.93911 -2.47394,3.75596 -2.7877,3.5473 -3.08194,3.3101 -3.35514,3.04741 -3.60284,2.76368 -3.82652,2.45594 -4.02167,2.13318 -4.1868,1.79241 -4.3219,1.43814 -4.427,1.07335 -4.49754,0.70255 -4.53509,0.32575 -4.54258,-0.0525 -4.51255,-0.42934 -4.454015,-0.80313 -4.359435,-1.16942 -4.233337,-1.52671 -4.078719,-1.86897 -3.892567,-2.19773 -3.679402,-2.50698 -3.440715,-2.79821 -3.176503,-3.06541 -2.889779,-3.30861 -2.583539,-3.52478 -2.259278,-3.71243 -1.921516,-3.87155 -1.570239,-3.99915 -1.211453,-4.095226 -0.843668,-4.159787 -0.472874,-4.188296 -0.102074,-4.186803 0.26721,-4.150778 0.628997,-4.083215 0.986279,-3.982646 1.330046,-3.852031 1.661811,-3.688408 1.974057,-3.499263 2.110665,-3.069923 2.350855,-2.858248 2.571525,-2.630082 2.772689,-2.383875 2.951325,-2.121175 3.108954,-1.844956 3.242556,-1.558224 3.34914,-1.259489 3.430204,-0.953258 3.48725,-0.642506 3.517275,-0.328759 3.518775,-0.01198 3.49625,0.301743 3.44522,0.612472 3.36716,0.918725 3.26657,1.215969 3.13898,1.504181 2.98735,1.780401 2.81323,2.043111 2.61805,2.289307 2.4019,2.518988 2.16771,2.727645 1.91701,2.918306 1.6498,3.086437 1.36908,3.229046 1.07785,3.350641 0.77611,3.445219 0.46988,3.514263 0.15462,3.557805 -0.16062,3.575823 -0.47588,3.563807 -0.79263,3.527782 -1.10187,3.463238 -1.40811,3.374661 -1.70384,3.259068 -1.99057,3.11945 -2.26529,2.95734 -2.52499,2.76968 -2.76668,2.56251 -2.99336,2.33584 -3.20053,2.08965 -3.38367,1.82545 -3.54729,1.54921 -3.6869,1.25949 -3.80101,0.95626 -3.891065,0.64701 -3.95412,0.32876 -3.991645,0.005 -4.000652,-0.31675 -3.984143,-0.6425 -3.940608,-0.96526 -3.871553,-1.28351 -3.773975,-1.59426 -3.652382,-1.8975 -3.505263,-2.19023 -3.335631,-2.46944 -3.141977,-2.73516 -2.927306,-2.98285 -2.694625,-3.21253 -2.44092,-3.423824 -2.172213,-3.611848 -1.88999,-3.778477 -1.591256,-3.922589 -1.285013,-4.038182 -1.034315,-4.484035 -0.656017,-4.557601 -0.268712,-4.599628 0.117092,-4.60563 0.504398,-4.578604 0.885698,-4.517065 1.260994,-4.420994 1.627283,-4.291883 1.978561,-4.132749 2.316327,-3.94211 2.633074,-3.721438 2.928812,-3.475243 3.205025,-3.202018 3.451223,-2.907793 3.671896,-2.592553 3.862546,-2.257781 4.023172,-1.908 4.152275,-1.54772 4.246848,-1.175427 4.309898,-0.79863 4.335418,-0.415828 4.330915,-0.03603 4.288881,0.343771 4.213815,0.716065 4.10575,1.080853 3.96762,1.43363 3.79499,1.769895 3.59534,2.092655 3.36715,2.391381 3.11346,2.670606 2.83423,2.924307 2.53551,3.150983 2.21724,3.349137 1.88399,3.518784 1.53421,3.655379 1.17692,3.760459 0.81065,3.831028 0.43984,3.870049 0.0675,3.871553 -0.30323,3.843032 -0.66803,3.778478 -1.02681,3.680903 -1.37508,3.550299 -1.70685,3.389672 -2.02509,3.199024 -2.32384,2.979854 -2.60156,2.735151 -2.85224,2.464945 -3.08043,2.172211 -3.28009,1.859967 -3.44972,1.532712 -3.58933,1.188931 -3.69591,0.834659 -3.76947,0.472871 -3.810005,0.102073 -3.81601,-0.26721 -3.787488,-0.636493 -3.727439,-1.004294 -3.631364,-1.363077 -3.50376,-1.712849 -3.344639,-2.050616 -3.155489,-2.37187 -2.936314,-2.673613 -2.691624,-2.957337 -2.268287,-2.994855 -2.01459,-3.200526 -1.742875,-3.383671 -1.454645,-3.542793 -1.157413,-3.6794 -0.846666,-3.787486 -0.526917,-3.871552 -0.202659,-3.927099 0.127601,-3.955619 0.457862,-3.955618 0.78812,-3.928591 1.116882,-3.873056 1.436632,-3.790493 1.753382,-3.682406 2.056621,-3.545789 2.349352,-3.385174 2.627073,-3.200523 2.89128,-2.991859 3.134472,-2.763679 3.359647,-2.515984 3.562308,-2.247272 3.743953,-1.9635482 3.900076,-1.6663135 4.030678,-1.3570706 4.13727,-1.0373176 4.215315,-0.7085587 4.26487,-0.3752964 4.29038,-0.039032 4.28437,0.298736 4.25135,0.6350006 4.19132,0.9667627 4.10272,1.2925194 3.98865,1.610769 3.84754,1.9185133 3.6839,2.211243 3.49326,2.491965 3.28008,2.754673 3.0489,2.999365 2.79822,3.221541 2.52649,3.424195 2.24277,3.604342 1.94252,3.757464 1.63329,3.888067 1.31204,3.988648 0.98628,4.065208 0.65451,4.113238 0.32125,4.13276 -0.0135,4.125254 -0.34677,4.090721 -0.67253,4.026177 -0.99378,3.936108 -1.30454,3.819012 -1.60476,3.677896 -1.893,3.509775 -2.1632,3.320607 -2.4169,3.108955 -2.6511,2.87777 -2.86575,2.625572 -3.05792,2.358362 -3.22604,2.077633 -3.37015,1.780412 -3.48726,1.47716 -3.57882,1.16041 -3.64337,0.84217 -3.60734,0.50891 -3.61636,0.19665 -3.59983,-0.11409 -3.5563,-0.42635 -3.48876,-0.72956 -3.39418,-1.02682 -3.27558,-1.31503 -3.134465,-1.591254 -2.96935,-1.856972 -2.783192,-2.10466 -2.577533,-2.337337 -2.352353,-2.552018 -2.110666,-2.744159 -1.852459,-2.919798 -1.583751,-3.069923 -1.298522,-3.196027 -1.008796,-3.301097 -0.707059,-3.377668 -0.402316,-3.4317 -0.09307,-3.458727 0.217673,-3.458728 0.525412,-3.433214 0.833156,-3.382167 1.133395,-3.305607 1.426126,-3.203522 1.711347,-3.077428 1.984568,-2.927304 2.244269,-2.754672 2.487462,-2.561027 2.717139,-2.346346 2.9243,-2.115172 3.114935,-1.865981 3.28159,-1.600263 3.4287,-1.324045 3.5503,-1.032814 3.64638,-0.734078 3.72144,-0.427836 3.76646,-0.115593 3.78749,0.199659 3.78299,0.516412 3.74995,0.830149 3.69291,1.143908 3.61036,1.450138 3.50075,1.750377 3.36866,2.038612 3.21103,2.317827 3.03239,2.582041 2.83273,2.831232 2.61056,3.06391 2.37187,3.27859 2.11517,3.470732 1.84345,3.643375 1.55824,3.793488 1.26099,3.919593 0.95475,4.021678 0.641,4.096723 0.32276,4.147772 -0.001,4.170288 -0.32426,4.170288 -0.64701,4.140266 -0.96676,4.087725 -1.28202,4.005163 -1.58674,3.900072 -1.88549,3.769469 -2.36736,3.91359 -2.68562,3.70342 -2.98586,3.46623 -3.26207,3.20353 -3.51428,2.91681 -3.74094,2.60905 -3.93911,2.2833 -4.10874,1.94104 -4.24534,1.58524 -4.35044,1.21896 -4.42398,0.84666 -4.46452,0.46688 -4.46903,0.0886 -4.44201,-0.29123 -4.38044,-0.66503 -4.28588,-1.03131 -4.161285,-1.38709 -4.003654,-1.73237 -3.817509,-2.05811 -3.602841,-2.36888 -3.361149,-2.6571 -3.095442,-2.9228 -2.808716,-3.163 -2.500972,-3.37616 -2.176716,-3.55931 -1.835946,-3.71543 -1.484674,-3.838529 -1.124386,-3.928591 -0.758095,-3.987145 -0.387309,-4.012668 -0.01803,-4.002156 0.349777,-3.961621 0.710058,-3.88506 1.064339,-3.778489 1.403609,-3.640367 1.732365,-3.470732 2.040108,-3.274081 2.329837,-3.048909 2.598548,-2.799706 2.843244,-2.526494 3.060912,-2.233761 3.251565,-1.920013 3.41069,-1.592757 3.542787,-1.251983 3.64038,-0.899215 3.706415,-0.541925 3.73794,-0.178634 3.73946,0.187643 3.70491,0.549431 3.63888,0.908224 3.53978,1.260992 3.4077,1.600263 3.24706,1.929011 3.0549,2.239774 2.83725,2.532496 2.59254,2.805709 2.32383,3.054911 2.0341,3.27858 1.72336,3.475242 1.3961,3.644878 1.05534,3.781483 0.70255,3.888057 0.34076,3.961631 -0.027,4.00366 -0.35878,3.743944 -0.68004,3.724445 -1.00129,3.676393 -1.31503,3.601349 -1.62429,3.50225 -1.92302,3.37617 -2.21124,3.22455 -2.48596,3.0489 -2.74566,2.85225 -2.98885,2.63457 -3.21104,2.3944 -3.41669,2.13918 -3.59684,1.86447 -3.75597,1.57774 -3.88956,1.27751 -4.00065,0.96677 -4.08172,0.647 -4.138765,0.32276 -4.16729,-0.008 -4.170281,-0.33777 -4.146272,-0.66801 -4.092224,-0.99529 -4.012665,-1.31654 -3.907582,-1.63179 -3.775477,-1.93653 -3.620854,-2.22925 -3.439213,-2.50998 -3.238053,-2.77269 -3.014376,-3.02037 -2.772685,-3.24707 -2.509979,-3.45273 -2.234181,-3.63875 -1.942531,-3.797985 -1.639293,-3.936108 -1.327047,-4.047191 -1.004291,-4.131256 -0.677034,-4.188306 -0.346773,-4.219822 -0.01501,-4.224332 0.315249,-4.200311 0.644007,-4.149274 0.965262,-4.071211 1.279008,-3.966131 1.582247,-3.838523 1.87498,-3.683909 2.152698,-3.505265 2.415402,-3.30711 2.658598,-3.086427 2.885273,-2.846244 3.086434,-2.589546 3.269577,-2.317827 3.427204,-2.029603 3.560809,-1.732359 3.667393,-1.424625 3.750001,-1.109386 3.804001,-0.788121 3.832519,-0.465365 3.832524,-0.141116 3.805505,0.183143 3.75296,0.499898 3.671895,0.813645 3.56682,1.118373 3.4347,1.412621 3.28009,1.693338 3.35214,2.136175 3.11645,2.42892 2.85375,2.699126 2.56703,2.943818 2.26228,3.158499 1.93503,3.346131 1.59726,3.502269 1.24298,3.626859 0.87969,3.718432 0.51041,3.77547 0.13811,3.796496 -0.23419,3.785982 -0.60498,3.74096 -0.96976,3.659889 -1.32555,3.545789 -1.66932,3.401678 -1.99806,3.224547 -2.30733,3.017382 -2.60005,2.783192 -2.86725,2.521995 -3.11046,2.23826 -3.32662,1.933526 -3.51277,1.60927 -3.67039,1.26699 -3.7935,0.91423 -3.886565,0.54943 -3.945114,0.17864 -3.967629,-0.19665 -3.957118,-0.57497 -3.910584,-0.95024 -3.832523,-1.31803 -3.718432,-1.681329 -3.572819,-2.029603 -3.395674,-2.367371 -3.187014,-2.684114 -2.951328,-2.984354 -2.688619,-3.262075 -2.400395,-3.51276 -2.09265,-3.739456 -1.76239,-3.936097 -1.417117,-4.102737 -1.055331,-4.23784 -0.686042,-4.339924 -0.304739,-4.408978 0.07957,-4.442008 0.466867,-4.441998 0.852673,-4.405972 1.233974,-4.336917 1.609269,-4.231837 1.971052,-4.095231 2.322331,-3.925596 2.657095,-3.725937 2.970843,-3.496262 3.265077,-3.239555 3.535284,-2.957331 3.778483,-2.651091 3.993147,-2.326834 4.179295,-1.9815632 4.332418,-1.6227793 4.455513,-1.2519874 4.542587,-0.8721876 4.59663,-0.4833808 4.614635,-0.094578 4.59962,0.2957326 4.46602,0.6680268 4.38496,1.0343163 4.27237,1.3915969 4.12825,1.7398717 3.95562,2.071633 3.75146,2.386882 3.52478,2.684116 3.26958,2.958833 2.99486,3.20953 2.69612,3.434707 2.38088,3.634365 2.05061,3.802498 1.70534,3.94211 1.34957,4.050197 0.98928,4.125254 0.61999,4.170288 0.2522,4.180801 -0.1171,4.158273 -0.48037,4.102737 -0.83766,4.017167 -1.18594,3.898569 -1.5207,3.751461 -1.84044,3.572816 -2.14219,3.367155 -2.42441,3.137475 -2.68562,2.882269 -2.9198,2.604558 -3.12997,2.308817 -3.31161,1.993578 -3.46474,1.666311 -3.58782,1.325548 -3.6764,0.975764 -3.73795,0.618486 -3.76196,0.259704 -3.75747,-0.102073 -3.71692,-0.459352 -3.64638,-0.812142 -3.5443,-1.157415 -3.410685,-1.492177 -3.247063,-1.811926 -3.054909,-2.116676 -2.837237,-2.401893 -2.594046,-2.667599 -2.326836,-2.907793 -2.038607,-3.12547 -1.733868,-3.316107 -1.412614,-3.475243 -1.076348,-3.608852 -0.729576,-3.707919 -0.375296,-3.778477 -0.01653,-3.814513 0.345273,-3.819013 0.707056,-3.790482 1.064342,-3.730447 1.414113,-3.635869 1.756387,-3.51277 2.086643,-3.356643 2.400395,-3.1735 2.697627,-2.961836 2.975347,-2.724649 3.230548,-2.461939 3.463219,-2.176721 3.667395,-1.873477 3.84604,-1.550722 3.72142,-1.142401 3.82652,-0.839161 3.90609,-0.528417 3.96012,-0.210166 3.98564,0.111088 3.98714,0.432341 3.96013,0.756596 3.90758,1.074848 3.82802,1.390096 3.72443,1.697839 3.59383,1.993576 3.43922,2.28179 3.26206,2.555025 3.06392,2.811711 2.84324,3.053408 2.60456,3.275583 2.34785,3.478238 2.07464,3.658386 1.78941,3.816017 1.48918,3.951108 1.18142,4.059206 0.86468,4.143261 0.54193,4.201815 0.21617,4.231837 -0.11107,4.236347 -0.43985,4.212316 -0.7626,4.164286 -1.08085,4.089229 -1.3931,3.988637 -1.69483,3.861051 -1.98608,3.712429 -2.26228,3.536783 -2.52499,3.34314 -2.76968,3.12546 -2.99487,2.89128 -3.20202,2.63758 -3.38517,2.37037 -3.54729,2.08665 -3.6854,1.7924 -3.798,1.48918 -3.88506,1.17543 -3.94662,0.85868 -3.98113,0.53592 -3.98865,0.21317 -3.97063,-0.10807 -3.9256,-0.42783 -3.85503,-0.74159 -3.75747,-1.04782 -3.63587,-1.34357 -3.491755,-1.62878 -3.32061,-1.902 -3.132969,-2.1572 -2.919804,-2.39739 -2.691624,-2.61655 -2.443924,-2.81773 -2.182723,-2.99637 -1.905002,-3.152485 -1.618277,-3.284582 -1.321041,-3.392679 -1.014799,-3.473739 -0.705557,-3.529285 -0.391809,-3.559309 -0.07656,-3.562304 0.237188,-3.538294 0.607979,-3.781484 0.963758,-3.688408 1.313537,-3.566803 1.646799,-3.410698 1.96505,-3.226039 2.266788,-3.012884 2.544505,-2.772679 2.802711,-2.508476 3.032389,-2.223259 3.235045,-1.915503 3.4107,-1.591255 3.554795,-1.253497 3.66739,-0.90221 3.74695,-0.543429 3.79499,-0.17713 3.80701,0.190649 3.78749,0.559933 3.73194,0.924738 3.64488,1.283509 3.52477,1.634785 3.37316,1.972553 3.19001,2.29531 2.97986,2.601551 2.74266,2.888283 2.47694,3.149479 2.19023,3.389672 1.88399,3.601347 1.55672,3.782976 1.21447,3.937611 0.85867,4.059195 0.4954,4.149275 0.12159,4.206314 -0.25521,4.228841 -0.63199,4.216826 -1.00729,4.171792 -1.37959,4.093732 -1.74138,3.98113 -2.09264,3.83702 -2.43192,3.6629 -2.75317,3.45722 -3.05491,3.22304 -3.33563,2.96483 -3.59233,2.68112 -3.82352,2.37488 -4.02617,2.05061 -4.19881,1.70685 -4.34143,1.35106 -4.45251,0.98328 -4.52907,0.60497 -4.5726,0.22368 -4.583115,-0.16213 -4.557591,-0.54642 -4.499047,-0.92624 -4.407476,-1.30152 -4.281374,-1.66631 -4.126754,-2.0176 -3.937607,-2.35385 -3.722936,-2.67362 -3.479741,-2.97083 -3.209533,-3.24706 -2.918301,-3.49776 -2.606056,-3.72144 -2.274289,-3.91509 -1.927522,-4.07871 -1.475663,-3.928596 -1.154411,-4.017168 -0.825651,-4.08022 -0.495391,-4.114741 -0.162128,-4.120755 0.169634,-4.09973 0.496892,-4.053193 0.819646,-3.976643 1.134896,-3.874548 1.439634,-3.745459 1.732365,-3.595333 2.010085,-3.418193 2.272795,-3.218544 2.517485,-2.999365 2.741161,-2.760674 2.945322,-2.502474 3.123965,-2.230754 3.283087,-1.945537 3.413691,-1.645297 3.518775,-1.339056 3.599839,-1.022313 3.652378,-0.702552 3.6764,-0.379795 3.673391,-0.05556 3.64337,0.26721 3.587835,0.585467 3.50226,0.896197 3.39267,1.199454 3.25607,1.490674 3.09694,1.771391 2.91381,2.035605 2.70962,2.281802 2.48447,2.512986 2.23976,2.720139 1.98006,2.909296 1.70535,3.07293 1.41561,3.212531 1.11688,3.32662 0.80764,3.4167 0.49389,3.476735 0.17414,3.514274 -0.14561,3.520276 -0.46687,3.499262 -0.78362,3.452715 -1.09587,3.379171 -1.40211,3.277087 -1.69783,3.150971 -1.98157,2.999376 -2.25176,2.823727 -2.50699,2.624074 -2.74416,2.40639 -2.96183,2.16771 -3.15849,1.90951 -3.33263,1.63779 -3.48575,1.34956 -3.61034,1.05084 -3.710925,0.74008 -3.78599,0.42332 -3.834024,0.10055 -3.853537,-0.22517 -3.844533,-0.55394 -3.810003,-0.87969 -3.746955,-1.20095 -3.658386,-1.51769 -3.47224,-1.78791 -3.338633,-2.07463 -3.178005,-2.34785 -2.996361,-2.61056 -2.795205,-2.855261 -2.573028,-3.083431 -2.332839,-3.295094 -2.074637,-3.484252 -1.804423,-3.652372 -1.519199,-3.797999 -1.221963,-3.921096 -0.917223,-4.020174 -0.603475,-4.092225 -0.286727,-4.138762 0.03603,-4.159776 0.355781,-4.15678 0.678535,-4.123751 0.993784,-4.068204 1.306029,-3.985641 1.61077,-3.877566 1.905002,-3.745447 2.188727,-3.590835 2.455934,-3.41219 2.711139,-3.214034 2.949826,-2.994866 3.165996,-2.757673 3.365657,-2.503974 3.542793,-2.233762 3.697415,-1.951539 3.829518,-1.657306 3.934602,-1.352567 4.01717,-1.0418201 4.074212,-0.7265735 4.104237,-0.4053192 4.108749,-0.08557 4.086205,0.2341847 4.03818,0.5524356 3.96463,0.8631807 3.86555,1.1664188 3.74395,1.460652 3.59683,1.745876 3.42871,2.01459 3.23805,2.268287 3.02939,2.508479 2.79971,2.727648 2.55502,2.927314 2.29381,3.105948 2.01909,3.262076 1.73386,3.395675 1.43813,3.505265 1.13641,3.589331 0.82715,3.647873 0.5164,3.6794 0.20267,3.688408 -0.10807,3.668888 -0.41884,3.62236 -0.72056,3.554798 -1.0178,3.457235 -1.30604,3.340129 -1.58074,3.196027 -1.84345,3.030891 -2.09115,2.846244 -2.32233,2.63908 -2.534,2.413897 -2.96934,2.346357 -3.169,2.043111 -3.34163,1.723362 -3.48275,1.388589 -3.59383,1.043326 -3.67341,0.687541 -3.71843,0.330262 -3.73344,-0.03453 -3.71394,-0.396321 -3.659865,-0.755092 -3.577323,-1.107871 -3.458727,-1.451642 -3.311609,-1.783407 -3.132973,-2.100161 -2.928808,-2.400389 -2.696128,-2.681118 -2.439421,-2.939319 -2.160206,-3.1735 -1.859965,-3.382167 -1.541716,-3.560811 -1.208452,-3.713922 -0.861681,-3.83252 -0.507399,-3.921097 -0.144114,-3.978135 0.223675,-4.000653 0.592969,-3.991655 0.957756,-3.948112 1.321042,-3.873056 1.67382,-3.764969 2.017591,-3.623853 2.347849,-3.455721 2.661598,-3.256073 2.958834,-3.027887 3.232051,-2.775688 3.482745,-2.499472 3.709424,-2.202236 3.909088,-1.883986 4.078705,-1.549221 4.21832,-1.1994608 4.32792,-0.8406635 4.40447,-0.4713717 4.44801,-0.096071 4.45851,0.2807212 4.43601,0.6575187 4.37894,1.0328141 4.29039,1.400605 4.17029,1.759387 4.01717,2.107661 3.83401,2.439423 3.62386,2.754674 3.38517,3.051902 3.12246,3.325128 2.83574,3.57432 2.52799,3.797987 2.20375,3.993158 1.85995,4.159776 1.5072,4.296393 1.14089,4.399959 0.76861,4.470527 0.39182,4.508057 0.012,4.514058 -0.36479,4.485539 -0.73858,4.422487 -1.10487,4.329412 -1.35256,3.925595 -1.6513,3.790493 -1.93954,3.632862 -2.21124,3.449718 -2.46645,3.247064 -2.70663,3.023386 -2.92431,2.780187 -3.12246,2.52049 -3.2966,2.24727 -3.44972,1.95904 -3.57582,1.66032 -3.6779,1.35257 -3.75296,1.03731 -3.80099,0.71757 -3.82352,0.39631 -3.81901,0.0735 -3.78599,-0.2462 -3.72743,-0.56294 -3.64338,-0.87068 -3.53229,-1.17393 -3.39716,-1.46216 -3.238055,-1.73987 -3.05791,-2.00258 -2.853754,-2.25027 -2.633075,-2.47545 -2.391387,-2.685618 -2.134681,-2.871768 -1.862971,-3.03539 -1.577744,-3.175003 -1.283511,-3.292098 -0.980272,-3.382167 -0.669529,-3.446723 -0.357283,-3.482747 -0.03903,-3.494753 0.274715,-3.478238 0.588464,-3.436221 0.896207,-3.365652 1.197945,-3.271074 1.490677,-3.150982 1.769896,-3.005378 2.038605,-2.837235 2.289308,-2.646585 2.52649,-2.436415 2.74266,-2.205241 2.93781,-1.956049 3.113455,-1.693328 3.26658,-1.414124 3.39267,-1.124386 3.49626,-0.824146 3.57431,-0.514909 3.62387,-0.199659 3.64937,0.117096 3.64637,0.435342 3.61786,0.753599 3.5593,1.070343 3.47825,1.378088 3.37016,1.679819 3.23505,1.972553 3.07892,2.253282 2.89579,2.520492 2.69463,2.769683 2.46944,3.003864 2.22776,3.217041 1.96805,3.41219 1.82094,3.891063 1.48016,4.062202 1.12438,4.203318 0.75661,4.311404 0.3798,4.384947 -0.001,4.426997 -0.38732,4.432999 -0.7716,4.404469 -1.1514,4.34293 -1.52521,4.245348 -1.88999,4.11624 -2.24127,3.95412 -2.57753,3.76346 -2.89579,3.5398 -3.19151,3.2906 -3.46624,3.01588 -3.71393,2.71714 -3.9361,2.39738 -4.12675,2.05963 -4.28739,1.70534 -4.41648,1.33906 -4.51256,0.96226 -4.5741,0.57795 -4.60262,0.19216 -4.59363,-0.19816 -4.55309,-0.58396 -4.476525,-0.96376 -4.368444,-1.33605 -4.225831,-1.69635 -4.051694,-2.0416 -3.849033,-2.37187 -3.617856,-2.68112 -3.359647,-2.96933 -3.07743,-3.23055 -2.772684,-3.46623 -2.449932,-3.6734 -2.10766,-3.85054 -1.753383,-3.99766 -1.388595,-4.110229 -1.013299,-4.18981 -0.635003,-4.234844 -0.2552,-4.246849 0.126101,-4.224331 0.501392,-4.165779 0.869187,-4.07572 1.227967,-3.951109 1.571741,-3.796495 1.900499,-3.610345 2.211244,-3.395675 2.499469,-3.153989 2.76368,-2.888282 3.003867,-2.598545 3.214037,-2.289307 3.397177,-1.962052 3.548797,-1.619773 3.667393,-1.267006 3.752961,-0.903702 3.806999,-0.53442 3.82351,-0.163633 3.808495,0.208667 3.75747,0.576447 3.6749,0.93975 3.5578,1.292518 3.40918,1.631779 3.02189,1.81794 2.84174,2.086642 2.64058,2.33884 2.41542,2.573032 2.17371,2.787701 1.91251,2.979844 1.63629,3.14949 1.34805,3.293591 1.04483,3.415196 0.73408,3.506768 0.41733,3.57432 0.093,3.614844 -0.23118,3.623864 -0.55543,3.608841 -0.8797,3.563807 -1.19795,3.491757 -1.51019,3.39268 -1.81193,3.268077 -2.10316,3.11645 -2.38087,2.94082 -2.64209,2.74417 -2.88677,2.52199 -3.11196,2.2818 -3.31611,2.0221 -3.49776,1.74586 -3.65688,1.45615 -3.78899,1.15142 -3.89708,0.83765 -3.976625,0.51491 -4.030673,0.18615 -4.054697,-0.14712 -4.053194,-0.48038 -4.021674,-0.81364 -3.963125,-1.14391 -3.877556,-1.46815 -3.763468,-1.78341 -3.625357,-2.08965 -3.460231,-2.38237 -3.271079,-2.6631 -3.059857,-2.92428 -2.828233,-3.16901 -2.57453,-3.39418 -2.302816,-3.595331 -2.017591,-3.775471 -1.717354,-3.931608 -1.403607,-4.060699 -1.080853,-4.162782 -0.752093,-4.240847 -0.414326,-4.287373 -0.07806,-4.309901 0.261205,-4.300892 0.598973,-4.266359 0.930733,-4.201826 1.257992,-4.110231 1.574743,-3.993147 1.882483,-3.850539 2.175215,-3.680903 2.452937,-3.48875 2.71414,-3.27408 2.955829,-3.038397 3.178005,-2.784695 3.377662,-2.511482 3.551803,-2.226255 3.70342,-1.92452 3.752962,-1.58375 3.849033,-1.276005 3.91659,-0.96226 3.961622,-0.642506 3.976637,-0.322755 3.96912,-0.0015 3.93311,0.316749 3.871545,0.631999 3.78298,0.93824 3.67189,1.236975 3.5338,1.523701 3.37615,1.799918 3.19302,2.061129 2.99186,2.304318 2.76968,2.530993 2.531,2.738158 2.27429,2.922804 2.00559,3.087941 1.72336,3.227543 1.43213,3.344638 1.13039,3.434707 0.82414,3.500755 0.51341,3.539798 0.19966,3.554798 -0.11259,3.541301 -0.42183,3.502258 -0.72808,3.43621 -1.02531,3.347635 -1.31654,3.232052 -1.59426,3.09244 -1.86146,2.931814 -2.11216,2.747166 -2.34785,2.542998 -2.56402,2.320833 -2.76069,2.079136 -2.93781,1.823943 -3.09243,1.552222 -3.22156,1.270001 -3.32812,0.978771 -3.41069,0.677039 -3.46623,0.370786 -3.496245,0.06155 -3.49926,-0.250695 -3.476738,-0.56295 -3.427203,-0.870684 -3.353647,-1.175423 -3.253064,-1.471162 -3.128465,-1.757884 -2.981354,-2.035605 -2.808713,-2.296813 -2.615064,-2.547508 -2.403392,-2.777189 -2.170713,-2.991859 -1.921515,-3.184012 -1.655808,-3.356643 -1.378083,-3.505265 -1.085357,-3.632862 -0.786622,-3.733454 -0.477374,-3.811506 -0.16213,-3.86104 0.154625,-3.886564 0.474372,-3.883557 0.792625,-3.856552 1.109376,-3.800994 1.552222,-4.032179 1.909506,-3.904582 2.253277,-3.745447 2.580537,-3.557805 2.892779,-3.340137 3.18251,-3.096943 3.451221,-2.825228 3.69291,-2.532496 3.912087,-2.2202506 4.099733,-1.8869879 4.257355,-1.5402143 4.384957,-1.1799304 4.479515,-0.8091385 4.54109,-0.4308398 4.5681,-0.049533 4.5636,0.3332622 4.52307,0.7145633 4.45101,1.0913608 4.34442,1.4591505 4.20633,1.8164321 4.03667,2.1602036 3.83853,2.488963 3.61184,2.796704 3.35815,3.083432 3.08044,3.347643 2.78168,3.584821 2.46194,3.796495 2.12569,3.976633 1.77589,4.126757 1.41412,4.246849 1.04182,4.330915 0.66652,4.384958 0.28673,4.404479 -0.0916,4.387954 -0.46838,4.339924 -0.83765,4.258854 -1.19795,4.146278 -1.54472,3.99915 -1.87798,3.823511 -2.19473,3.619354 -2.48897,3.386677 -2.76217,3.131472 -3.00987,2.850743 -3.23355,2.549011 -3.4257,2.232257 -3.58934,1.897501 -3.72293,1.54923 -3.82352,1.19194 -3.89106,0.82866 -3.9256,0.45785 -3.92559,0.0901 -3.89407,-0.27772 -3.82802,-0.641 -3.73044,-0.99679 -3.59834,-1.34056 -3.43922,-1.669326 -3.247045,-1.986061 -3.030884,-2.278795 -2.786198,-2.555013 -2.518987,-2.804217 -2.23076,-3.029387 -1.921516,-3.22604 -1.595756,-3.394182 -1.25649,-3.532281 -0.858679,-3.394183 -0.54493,-3.458727 -0.229679,-3.499252 0.09007,-3.511278 0.408323,-3.494753 0.725072,-3.454217 1.035816,-3.38367 1.342059,-3.289092 1.637792,-3.167508 1.923018,-3.021882 2.193229,-2.850743 2.45143,-2.658601 2.69013,-2.445424 2.91079,-2.211243 3.110455,-1.959045 3.28909,-1.690332 3.44522,-1.40811 3.57431,-1.112382 3.6824,-0.806139 3.76047,-0.492381 3.81451,-0.172643 3.84003,0.151629 3.83853,0.47737 3.8085,0.800137 3.75446,1.124386 3.67039,1.438133 3.56231,1.748874 3.4272,2.046118 3.26657,2.334341 3.08494,2.606051 2.87777,2.864262 2.6526,3.102952 2.40488,3.323614 2.14219,3.523283 1.86298,3.69891 1.56873,3.853545 1.264,3.981131 0.94725,4.083227 0.62298,4.159775 0.29574,4.210824 -0.0376,4.231837 -0.36929,4.225835 -0.70256,4.194298 -1.0298,4.13276 -1.35107,4.047201 -1.66632,3.933101 -1.96805,3.793503 -2.26078,3.63135 -2.537,3.44373 -2.7967,3.23504 -3.0399,3.00538 -3.26208,2.75617 -3.46323,2.48896 -3.64187,2.20824 -3.79499,1.91251 -3.92559,1.60627 -4.02918,1.28802 -4.10574,0.96526 -4.15528,0.63649 -4.17929,0.30475 -4.17329,-0.0255 -4.14177,-0.35728 -4.08172,-0.68304 -3.99614,-1.00129 -4.203315,-1.43663 -4.038188,-1.78791 -3.844532,-2.12267 -3.620853,-2.43643 -3.370157,-2.73065 -3.092441,-2.99936 -2.795201,-3.24105 -2.476956,-3.45574 -2.140688,-3.63886 -1.787908,-3.792 -1.426125,-3.91059 -1.053832,-3.997646 -0.677034,-4.048694 -0.297232,-4.065208 0.08256,-4.047191 0.457863,-3.993147 0.82715,-3.909091 1.184433,-3.787476 1.53121,-3.635868 1.859965,-3.452725 2.172212,-3.241062 2.46194,-3.000857 2.727653,-2.735162 2.967842,-2.446927 3.181006,-2.137689 3.364154,-1.810424 3.517273,-1.468156 3.635866,-1.112381 3.721425,-0.74909 3.77548,-0.376799 3.79199,-0.0044 3.77547,0.370798 3.72294,0.741583 3.63737,1.104876 3.52027,1.46065 3.36716,1.804421 3.18551,2.131676 2.97234,2.440925 2.73366,2.729159 2.46645,2.996358 2.17821,3.236552 1.86597,3.448215 1.53722,3.632873 1.19194,3.78448 0.83466,3.906085 0.46536,3.993147 0.0901,4.04719 -0.28973,4.065208 -0.66953,4.048683 -1.04632,3.997657 -1.41862,3.913577 -1.78191,3.79501 -2.13317,3.64186 -2.46946,3.46024 -2.78919,3.24556 -3.08794,3.00386 -3.36566,2.73666 -3.61484,2.44243 -3.84003,2.12868 -4.03518,1.79392 -4.20031,1.44413 -4.33242,1.07935 -4.4315,0.70255 -4.496035,0.31977 -4.445002,-0.0631 -4.440499,-0.43985 -4.404475,-0.81365 -4.333919,-1.18443 -4.233336,-1.54622 -4.099734,-1.899 -3.934601,-2.23976 -3.742451,-2.56252 -3.520277,-2.87026 -3.274082,-3.15399 -3.002367,-3.41819 -2.709637,-3.65689 -2.395807,-3.86856 -2.065628,-4.050192 -1.720357,-4.206324 -1.363074,-4.326405 -0.996787,-4.419491 -0.624492,-4.47653 -0.247695,-4.502054 0.129101,-4.494537 0.502897,-4.454013 0.872187,-4.380448 1.233973,-4.275379 1.582248,-4.137259 1.918512,-3.972133 2.238265,-3.775482 2.538502,-3.553295 2.819225,-3.304103 3.074424,-3.033898 3.304103,-2.73966 3.508268,-2.430412 3.682403,-2.100161 3.82802,-1.76089 3.942108,-1.406608 4.02167,-1.046322 4.072713,-0.681538 4.087723,-0.312244 4.071211,0.05556 4.021667,0.418827 3.940605,0.776106 3.82651,1.125889 3.68241,1.46065 3.50826,1.783407 3.30861,2.086653 3.07892,2.370367 2.82824,2.633077 2.55351,2.871768 2.25929,3.084934 1.94704,3.268067 1.61977,3.424206 1.2805,3.548796 0.93074,3.641871 0.57496,3.70342 0.21316,3.733442 -0.14561,3.728944 -0.5059,3.691416 -0.86018,3.623853 -1.20545,3.521779 -1.54322,3.391176 -1.86447,3.227543 -2.17071,3.038397 -2.46044,2.819216 -2.72615,2.576039 -2.97084,2.310321 -2.96934,1.897496 -3.13898,1.630288 -3.28459,1.34956 -3.40619,1.05985 -3.50375,0.7596 -3.575815,0.45184 -3.622357,0.13812 -3.638869,-0.17864 -3.632866,-0.49539 -3.598337,-0.81214 -3.536788,-1.12289 -3.449723,-1.43064 -3.33713,-1.727862 -3.200526,-2.017587 -3.039894,-2.293817 -2.855253,-2.556506 -2.649589,-2.802713 -2.42441,-3.030891 -2.181219,-3.241051 -1.918514,-3.430208 -1.642296,-3.596836 -1.354069,-3.740949 -1.052329,-3.859547 -0.741584,-3.954116 -0.424835,-4.021677 -0.102084,-4.065197 0.222175,-4.078717 0.547933,-4.066712 0.872187,-4.029172 1.19194,-3.964627 1.50719,-3.871553 1.810425,-3.75596 2.107664,-3.614854 2.389884,-3.448215 2.658597,-3.260573 2.909293,-3.050409 3.146481,-2.819223 3.359651,-2.573029 3.553301,-2.305817 3.725937,-2.0265984 3.874554,-1.7338671 3.997655,-1.4276254 4.095229,-1.1138791 4.168786,-0.7941259 4.21382,-0.4683695 4.234825,-0.1396105 4.22434,0.1891493 4.19131,0.514907 4.12975,0.8376602 4.04268,1.1544099 3.93011,1.4621527 3.79048,1.7593876 3.63137,2.0446122 3.44522,2.314825 3.24105,2.568525 3.01438,2.804212 2.77118,3.020379 2.51149,3.217041 2.23526,3.389673 1.94554,3.538283 1.64829,3.664399 1.33755,3.764969 1.02381,3.83702 0.70556,3.88506 0.39931,4.234844 0.021,4.225835 -0.35429,4.18079 -0.72506,4.10424 -1.08385,3.993147 -1.43215,3.852042 -1.76688,3.677896 -2.08214,3.476746 -2.37788,3.247064 -2.65259,2.991859 -2.90029,2.712633 -3.12246,2.413909 -3.31612,2.094148 -3.47974,1.76089 -3.61035,1.414112 -3.71092,1.055332 -3.77848,0.69205 -3.81,0.322757 -3.80851,-0.04804 -3.77398,-0.415832 -3.70642,-0.780616 -3.60284,-1.133395 -3.469225,-1.478668 -3.305609,-1.810423 -3.110453,-2.122678 -2.886773,-2.416905 -2.640585,-2.691619 -2.365865,-2.93932 -2.073135,-3.162997 -1.757886,-3.356644 -1.427625,-3.523272 -1.082355,-3.658396 -0.728073,-3.760459 -0.363285,-3.831018 0.006,-3.86555 0.376798,-3.868556 0.747588,-3.835516 1.11388,-3.770983 1.474163,-3.671893 1.822438,-3.539787 2.1587,-3.377668 2.478454,-3.185515 2.781693,-2.961836 3.062415,-2.714137 3.320615,-2.440925 3.5533,-2.14369 3.757455,-1.82694 3.93461,-1.493679 4.08022,-1.143901 4.1928,-0.783619 4.27238,-0.411323 4.3204,-0.03452 4.33392,0.346772 4.3129,0.726574 4.25586,1.104871 4.16878,1.475664 4.04576,1.840435 3.89257,2.190226 3.70642,2.526494 3.49175,2.846244 3.25006,3.143477 2.98286,3.421199 2.69012,3.671894 2.37637,3.897076 1.91852,3.816005 1.61677,3.961621 1.30152,4.083227 0.97879,4.177794 0.65001,4.245345 0.31374,4.285881 -0.0225,4.297885 -0.36028,4.281382 -0.69354,4.237839 -1.02232,4.16579 -1.34505,4.069707 -1.65731,3.943603 -1.95904,3.793499 -2.24727,3.620851 -2.51899,3.4227 -2.77419,3.20354 -3.00836,2.96333 -3.22305,2.70664 -3.41519,2.43191 -3.58332,2.14219 -3.72744,1.84195 -3.84603,1.5282 -3.93611,1.20696 -4.00065,0.88119 -4.03669,0.54944 -4.04569,0.21767 -4.02617,-0.11259 -3.97964,-0.44135 -3.90608,-0.76411 -3.8055,-1.07784 -3.6779,-1.38259 -3.527775,-1.67532 -3.35064,-1.95304 -3.153987,-2.21575 -2.934814,-2.45894 -2.694625,-2.68261 -2.440924,-2.88678 -2.166209,-3.06691 -1.882486,-3.221552 -1.582248,-3.35515 -1.276005,-3.458728 -0.960758,-3.53678 -0.641006,-3.589342 -0.31675,-3.61334 0.006,-3.608853 0.32876,-3.577315 0.645506,-3.518773 0.957756,-3.433204 1.259495,-3.320629 1.550721,-3.184011 1.829944,-3.021882 2.092649,-2.837235 2.340348,-2.631574 2.568524,-2.403396 2.777189,-2.1572 2.96183,-1.89449 3.12397,-1.618281 3.263565,-1.325548 3.37466,-1.025308 3.46324,-0.714557 3.52177,-0.399317 3.55481,-0.07658 3.5593,0.244693 3.53678,0.567449 3.41821,0.866185 3.34464,1.167917 3.24555,1.462154 3.12097,1.748874 2.97534,2.023601 2.80571,2.2863 2.61357,2.532497 2.40189,2.763681 2.1722,2.975344 1.92452,3.169 1.66031,3.340129 1.3856,3.490253 1.09586,3.617851 0.79712,3.718431 0.49089,3.796495 0.17864,3.847543 -0.1366,3.874548 -0.45487,3.873056 -0.7716,3.847532 -1.08536,3.794992 -1.3946,3.71544 -1.69633,3.61335 -1.98907,3.48574 -2.27129,3.33263 -2.54,3.1585 -2.79371,2.96182 -3.02938,2.74568 -3.25006,2.50997 -3.44973,2.25628 -3.62686,1.98907 -3.78298,1.70685 -3.91509,1.41261 -4.02317,1.10638 -4.10724,0.79562 -4.16428,0.47737 -4.19582,0.15613 -4.200285,-0.16964 -4.1793,-0.49088 -4.132765,-0.81215 -4.059201,-1.12738 -3.960124,-1.43514 -3.837023,-1.73687 -3.689913,-2.02358 -3.520273,-2.29982 -3.329625,-2.55952 -3.114957,-2.80421 -2.885278,-3.03089 -2.636076,-3.23656 -2.371869,-3.42269 -2.092653,-3.58483 -1.802919,-3.72594 -1.501184,-3.840027 -1.193442,-3.931598 -0.878193,-3.996154 -0.55844,-4.035185 -0.238688,-4.048694 0.08256,-4.035174 0.399316,-3.994651 0.713062,-3.930105 1.019303,-3.838523 1.315039,-3.724434 1.603262,-3.584832 1.87498,-3.422702 2.136183,-3.239548 2.589542,-3.283089 2.852251,-3.017383 3.089435,-2.732155 3.299603,-2.425913 3.482746,-2.101653 3.632863,-1.765389 3.752961,-1.414124 3.841528,-1.056824 3.897075,-0.693554 3.919587,-0.324248 3.907587,0.04205 3.864035,0.406812 3.78599,0.765604 3.6779,1.113884 3.53829,1.453145 3.36716,1.775901 3.16749,2.082143 2.94232,2.368864 2.69162,2.63458 2.41841,2.873271 2.12418,3.089434 1.81192,3.277076 1.48317,3.433214 1.14241,3.560801 0.79111,3.65539 0.43235,3.719935 0.0691,3.748454 -0.29573,3.745448 -0.65753,3.709422 -1.0148,3.638875 -1.36607,3.538284 -1.70685,3.404695 -2.03261,3.241051 -2.34335,3.047405 -2.63457,2.826721 -2.90779,2.57904 -3.15399,2.31032 -3.37916,2.0176 -3.57283,1.70534 -3.74093,1.37809 -3.87907,1.03432 -3.982635,0.68003 -4.0577,0.31676 -4.096728,-0.0511 -4.104238,-0.42332 -4.078715,-0.79413 -4.018669,-1.16042 -3.927097,-1.5237 -3.802502,-1.87498 -3.647873,-2.21725 -3.460195,-2.54146 -3.247061,-2.85076 -3.006871,-3.137458 -2.73816,-3.406187 -2.451431,-3.646381 -2.139187,-3.862543 -1.811928,-4.050197 -1.468159,-4.207817 -1.110875,-4.335414 -0.744587,-4.429993 -0.369292,-4.491541 0.01046,-4.521564 0.390307,-4.515562 0.768607,-4.478033 1.053831,-4.116246 1.375084,-4.026176 1.684329,-3.912088 1.987566,-3.770971 2.274311,-3.607349 2.549009,-3.419696 2.805711,-3.211028 3.045906,-2.979854 3.266572,-2.73215 3.464734,-2.466446 3.640371,-2.184221 3.791988,-1.891493 3.919591,-1.585249 4.021674,-1.2685 4.096728,-0.9487482 4.146269,-0.6199891 4.16729,-0.2912292 4.16128,0.039032 4.128255,0.3677897 4.0667,0.6905449 3.98264,1.0072949 3.86855,1.318038 3.73194,1.613773 3.57132,1.900498 3.38667,2.170711 3.17951,2.424412 2.95582,2.660102 2.70964,2.876266 2.44994,3.069923 2.17221,3.241051 1.88549,3.389673 1.58375,3.511267 1.276,3.608852 0.96076,3.6794 0.64101,3.722931 0.31975,3.740948 -0.001,3.730447 -0.32126,3.692908 -0.635,3.629866 -0.94124,3.539787 -1.24148,3.422702 -1.5282,3.284593 -1.80143,3.119456 -2.06112,2.933317 -2.30281,2.727645 -2.52649,2.499478 -2.72915,2.254774 -2.9108,1.993578 -3.06842,1.718851 -3.20352,1.430628 -3.31313,1.133395 -3.39567,0.827153 -3.45422,0.516401 -3.48425,0.199659 -3.48725,-0.117096 -3.46473,-0.433838 -3.413685,-0.746083 -3.337134,-1.053839 -3.233549,-1.354067 -3.107451,-1.643795 -2.954329,-1.923019 -2.778692,-2.188727 -2.580534,-2.436414 -2.362864,-2.669103 -2.35836,-3.229057 -2.037106,-3.46473 -1.696337,-3.67039 -1.337554,-3.843033 -0.96376,-3.979639 -0.576455,-4.081712 -0.183147,-4.146268 0.217674,-4.174798 0.616986,-4.164275 1.017804,-4.116256 1.409609,-4.032179 1.793915,-3.910584 2.166208,-3.752954 2.523491,-3.562314 2.859752,-3.338625 3.175005,-3.081936 3.466232,-2.799707 3.730445,-2.487461 3.963126,-2.1557 4.167285,-1.80142 4.335415,-1.427626 4.47052,-1.041821 4.56811,-0.6440074 4.62814,-0.237187 4.65217,0.1726357 4.63866,0.5839606 4.58461,0.9922822 4.49605,1.3945989 4.36844,1.787909 4.20632,2.166209 4.00967,2.530996 3.78147,2.873265 3.52178,3.196022 3.23205,3.49325 2.9183,3.76047 2.58204,4.000652 2.22175,4.206314 1.84796,4.380459 1.45765,4.518568 1.05684,4.619139 0.65001,4.683694 0.23718,4.710711 -0.17564,4.700208 -0.58396,4.650665 -0.98627,4.563603 -1.37959,4.440494 -1.75789,4.282885 -2.12117,4.089218 -2.46344,3.86555 -2.7832,3.608852 -3.07742,3.32662 -3.34464,3.017389 -3.58033,2.68561 -3.78599,2.33433 -3.95562,1.96506 -4.09222,1.58375 -4.1898,1.19044 -4.25285,0.79112 -4.27688,0.3873 -4.26186,-0.0135 -4.21232,-0.41433 -4.12375,-0.80464 -4.00066,-1.18593 -3.84002,-1.55373"
         id="path14" />
      <text
         xml:space="preserve"
         style="font-style:normal;font-variant:normal;font-weight:normal;font-stretch:normal;font-size:58.2083px;line-height:1.25;font-family:Forum;-inkscape-font-specification:Forum;text-align:center;text-anchor:middle;fill:#2241bd;fill-opacity:1;stroke:none;stroke-width:0.264583"
         x="106.85177"
         y="52.202721"
         id="text515"><tspan
           sodipodi:role="line"
           id="tspan513"
           style="font-style:normal;font-variant:normal;font-weight:normal;font-stretch:normal;font-size:58.2083px;font-family:Forum;-inkscape-font-specification:Forum;text-align:center;text-anchor:middle;fill:#2241bd;fill-opacity:1;stroke-width:0.264583"
           x="106.85177"
           y="52.202721">Jones</tspan><tspan
           sodipodi:role="line"
           style="font-style:normal;font-variant:normal;font-weight:normal;font-stretch:normal;font-size:58.2083px;font-family:Forum;-inkscape-font-specification:Forum;text-align:center;text-anchor:middle;fill:#2241bd;fill-opacity:1;stroke-width:0.264583"
           x="106.85177"
           y="124.96314"
           id="tspan517">Financial</tspan></text>
    </g>
  </g>
</svg>
