<?xml version="1.0" encoding="UTF-8"?>
<svg xmlns="http://www.w3.org/2000/svg" xmlns:xlink="http://www.w3.org/1999/xlink" width="360pt" height="343pt" viewBox="0 0 360 343" version="1.1">
<defs>
<clipPath id="clip1">
  <path d="M 0 0 L 360 0 L 360 342.71875 L 0 342.71875 Z M 0 0 "/>
</clipPath>
</defs>
<g id="surface46">
<g clip-path="url(#clip1)" clip-rule="nonzero">
<path style="fill:none;stroke-width:1.6;stroke-linecap:square;stroke-linejoin:miter;stroke:rgb(36.84082%,50.67749%,70.979309%);stroke-opacity:1;stroke-miterlimit:3.25;" d="M 418.800781 179.253906 L 418.691406 179.253906 L 418.632812 179.257812 L 418.558594 179.257812 L 418.46875 179.261719 L 418.367188 179.261719 L 418.253906 179.265625 L 418.128906 179.273438 L 417.984375 179.277344 L 417.832031 179.285156 L 417.664062 179.292969 L 417.480469 179.300781 L 417.082031 179.324219 L 416.859375 179.339844 L 416.625 179.355469 L 416.117188 179.390625 L 415.84375 179.414062 L 415.558594 179.4375 L 414.945312 179.492188 L 414.617188 179.523438 L 414.28125 179.558594 L 413.566406 179.632812 L 411.980469 179.816406 L 411.554688 179.871094 L 411.113281 179.925781 L 410.195312 180.050781 L 408.214844 180.34375 L 407.691406 180.425781 L 407.152344 180.511719 L 406.042969 180.699219 L 403.679688 181.121094 L 403.0625 181.238281 L 402.429688 181.359375 L 401.136719 181.617188 L 398.414062 182.195312 L 392.464844 183.597656 L 391.609375 183.8125 L 390.742188 184.039062 L 388.972656 184.507812 L 385.304688 185.53125 L 377.46875 187.929688 L 376.445312 188.261719 L 375.414062 188.605469 L 373.324219 189.3125 L 369.039062 190.820312 L 360.097656 194.222656 L 358.949219 194.6875 L 357.792969 195.15625 L 355.464844 196.121094 L 350.734375 198.152344 L 341.035156 202.609375 L 321.003906 213.0625 L 319.820312 213.734375 L 318.636719 214.410156 L 316.269531 215.785156 L 311.53125 218.609375 L 302.078125 224.546875 L 300.902344 225.316406 L 299.726562 226.089844 L 297.382812 227.652344 L 292.722656 230.839844 L 283.53125 237.449219 L 282.394531 238.296875 L 281.265625 239.144531 L 279.015625 240.859375 L 274.566406 244.328125 L 265.894531 251.421875 L 249.636719 266.039062 L 248.695312 266.945312 L 247.757812 267.851562 L 245.910156 269.664062 L 242.292969 273.292969 L 235.40625 280.515625 L 234.582031 281.414062 L 233.761719 282.3125 L 232.148438 284.097656 L 229.015625 287.648438 L 223.136719 294.625 L 222.441406 295.484375 L 221.75 296.339844 L 220.398438 298.035156 L 217.792969 301.378906 L 212.992188 307.84375 L 205.027344 319.640625 L 204.566406 320.375 L 204.113281 321.101562 L 203.242188 322.53125 L 201.609375 325.269531 L 198.796875 330.257812 L 198.488281 330.835938 L 198.1875 331.398438 L 197.613281 332.492188 L 196.566406 334.542969 L 194.882812 338.0625 L 194.710938 338.445312 L 194.542969 338.8125 L 194.230469 339.511719 L 193.699219 340.753906 L 192.96875 342.578125 L 192.90625 342.742188 L 192.851562 342.890625 L 192.757812 343.148438 L 192.71875 343.257812 L 192.6875 343.347656 L 192.636719 343.492188 L 192.609375 343.574219 L 192.601562 343.59375 L 192.601562 343.597656 L 192.613281 343.5625 L 192.644531 343.464844 L 192.664062 343.402344 L 192.6875 343.320312 L 192.742188 343.125 L 192.898438 342.578125 L 192.941406 342.40625 L 192.992188 342.222656 L 193.097656 341.816406 L 193.335938 340.84375 L 193.402344 340.566406 L 193.46875 340.277344 L 193.609375 339.660156 L 193.910156 338.265625 L 193.988281 337.882812 L 194.066406 337.488281 L 194.226562 336.660156 L 194.558594 334.847656 L 194.644531 334.363281 L 194.726562 333.863281 L 194.894531 332.828125 L 195.230469 330.605469 L 195.3125 330.019531 L 195.394531 329.421875 L 195.554688 328.183594 L 195.867188 325.5625 L 195.945312 324.875 L 196.015625 324.179688 L 196.160156 322.746094 L 196.226562 322.015625 L 196.296875 321.269531 L 196.421875 319.742188 L 196.484375 318.964844 L 196.542969 318.171875 L 196.597656 317.371094 L 196.652344 316.554688 L 196.703125 315.730469 L 196.753906 314.894531 L 196.84375 313.1875 L 196.886719 312.246094 L 196.929688 311.289062 L 196.964844 310.320312 L 197 309.339844 L 197.03125 308.347656 L 197.054688 307.34375 L 197.078125 306.328125 L 197.09375 305.296875 L 197.109375 304.257812 L 197.117188 303.207031 L 197.125 302.140625 L 197.125 301.066406 L 197.121094 299.980469 L 197.113281 298.882812 L 197.097656 297.773438 L 197.082031 296.65625 L 197.058594 295.527344 L 197.03125 294.386719 L 196.996094 293.234375 L 196.957031 292.074219 L 196.914062 290.902344 L 196.867188 289.722656 L 196.8125 288.53125 L 196.75 287.332031 L 196.6875 286.121094 L 196.617188 284.902344 L 196.539062 283.671875 L 196.457031 282.433594 L 196.367188 281.1875 L 196.273438 279.933594 L 196.066406 277.398438 L 195.957031 276.121094 L 195.835938 274.832031 L 195.582031 272.234375 L 195.445312 270.921875 L 195.300781 269.605469 L 194.996094 266.945312 L 194.832031 265.609375 L 194.664062 264.261719 L 194.304688 261.550781 L 193.507812 256.0625 L 193.289062 254.675781 L 193.066406 253.285156 L 192.601562 250.484375 L 191.585938 244.835938 L 191.316406 243.414062 L 191.039062 241.988281 L 190.460938 239.125 L 189.226562 233.367188 L 188.90625 231.949219 L 188.578125 230.527344 L 187.90625 227.675781 L 186.480469 221.964844 L 186.109375 220.53125 L 185.730469 219.101562 L 184.953125 216.238281 L 183.324219 210.511719 L 182.898438 209.082031 L 182.46875 207.652344 L 181.59375 204.792969 L 179.765625 199.101562 L 175.84375 187.824219 L 175.328125 186.429688 L 174.804688 185.039062 L 173.75 182.265625 L 171.582031 176.769531 L 167.023438 166.019531 L 166.4375 164.703125 L 165.84375 163.390625 L 164.648438 160.785156 L 162.222656 155.65625 L 157.230469 145.746094 L 156.636719 144.625 L 156.042969 143.507812 L 154.851562 141.300781 L 152.453125 136.976562 L 147.617188 128.710938 L 147.011719 127.714844 L 146.40625 126.726562 L 145.195312 124.78125 L 142.777344 120.992188 L 137.996094 113.859375 L 137.402344 113.011719 L 136.816406 112.171875 L 135.644531 110.523438 L 133.328125 107.34375 L 128.839844 101.464844 L 120.640625 91.679688 L 120.132812 91.113281 L 119.628906 90.558594 L 118.648438 89.484375 L 116.769531 87.488281 L 113.398438 84.074219 L 108.441406 79.5 L 108.21875 79.3125 L 108.007812 79.132812 L 107.617188 78.808594 L 106.976562 78.285156 L 106.84375 78.179688 L 106.726562 78.085938 L 106.523438 77.929688 L 106.265625 77.730469 L 106.230469 77.707031 L 106.210938 77.691406 L 106.203125 77.683594 L 106.207031 77.6875 L 106.253906 77.722656 L 106.351562 77.792969 L 107.277344 78.410156 L 107.441406 78.515625 L 107.617188 78.628906 L 108.003906 78.871094 L 108.921875 79.4375 L 111.339844 80.84375 L 111.695312 81.042969 L 112.066406 81.25 L 112.84375 81.675781 L 114.539062 82.578125 L 118.527344 84.578125 L 119.078125 84.847656 L 119.644531 85.113281 L 120.8125 85.664062 L 123.289062 86.789062 L 128.820312 89.148438 L 129.566406 89.453125 L 130.320312 89.757812 L 131.867188 90.367188 L 135.097656 91.601562 L 142.089844 94.082031 L 142.996094 94.386719 L 143.910156 94.691406 L 145.769531 95.296875 L 149.609375 96.496094 L 150.59375 96.792969 L 151.585938 97.089844 L 153.601562 97.675781 L 157.742188 98.835938 L 158.800781 99.117188 L 159.867188 99.402344 L 162.027344 99.960938 L 166.449219 101.050781 L 175.671875 103.105469 L 176.859375 103.347656 L 178.054688 103.585938 L 180.460938 104.054688 L 185.359375 104.953125 L 186.597656 105.164062 L 187.847656 105.375 L 190.355469 105.785156 L 195.445312 106.558594 L 196.734375 106.742188 L 198.023438 106.917969 L 200.621094 107.261719 L 201.925781 107.425781 L 203.238281 107.585938 L 205.871094 107.894531 L 207.195312 108.042969 L 208.523438 108.183594 L 211.191406 108.453125 L 212.527344 108.582031 L 213.871094 108.703125 L 216.566406 108.933594 L 218.03125 109.050781 L 219.503906 109.164062 L 220.976562 109.269531 L 222.453125 109.367188 L 223.933594 109.460938 L 225.417969 109.550781 L 228.390625 109.707031 L 229.878906 109.777344 L 231.371094 109.839844 L 232.863281 109.898438 L 234.359375 109.949219 L 235.855469 109.992188 L 237.355469 110.03125 L 238.851562 110.0625 L 240.351562 110.089844 L 241.855469 110.109375 L 243.355469 110.125 L 244.855469 110.132812 L 246.359375 110.132812 L 247.859375 110.128906 L 249.359375 110.117188 L 250.863281 110.101562 L 252.363281 110.078125 L 253.859375 110.050781 L 255.359375 110.015625 L 256.855469 109.972656 L 258.351562 109.925781 L 259.847656 109.871094 L 261.339844 109.808594 L 262.832031 109.742188 L 264.320312 109.671875 L 265.804688 109.59375 L 267.289062 109.507812 L 268.769531 109.417969 L 270.25 109.320312 L 271.726562 109.21875 L 273.199219 109.109375 L 276.132812 108.875 L 277.59375 108.75 L 279.050781 108.621094 L 281.953125 108.339844 L 287.707031 107.710938 L 289.132812 107.542969 L 290.550781 107.367188 L 293.375 107 L 298.953125 106.203125 L 300.332031 105.992188 L 301.703125 105.777344 L 304.425781 105.332031 L 309.785156 104.386719 L 311.015625 104.15625 L 312.242188 103.921875 L 314.671875 103.441406 L 319.445312 102.441406 L 320.617188 102.1875 L 321.785156 101.925781 L 324.09375 101.394531 L 328.609375 100.304688 L 329.71875 100.023438 L 330.820312 99.742188 L 332.992188 99.175781 L 337.226562 98.011719 L 345.242188 95.609375 L 346.199219 95.304688 L 347.144531 95 L 349.007812 94.386719 L 352.609375 93.15625 L 359.289062 90.695312 L 360.074219 90.390625 L 360.847656 90.085938 L 362.363281 89.480469 L 365.253906 88.289062 L 370.472656 85.992188 L 371.121094 85.691406 L 371.757812 85.398438 L 372.984375 84.816406 L 375.273438 83.695312 L 379.167969 81.667969 L 379.589844 81.4375 L 380 81.210938 L 380.773438 80.78125 L 382.15625 79.984375 L 384.242188 78.71875 L 384.441406 78.589844 L 384.625 78.472656 L 384.953125 78.257812 L 385.445312 77.929688 L 385.535156 77.867188 L 385.613281 77.816406 L 385.726562 77.738281 L 385.761719 77.710938 L 385.796875 77.6875 L 385.78125 77.699219 L 385.753906 77.71875 L 385.660156 77.789062 L 385.324219 78.046875 L 384.082031 79.058594 L 383.878906 79.230469 L 383.664062 79.410156 L 383.203125 79.808594 L 382.160156 80.730469 L 379.597656 83.105469 L 379.234375 83.453125 L 378.863281 83.8125 L 378.097656 84.566406 L 376.457031 86.214844 L 372.808594 90.078125 L 372.320312 90.613281 L 371.824219 91.160156 L 370.816406 92.292969 L 368.71875 94.699219 L 364.261719 100.078125 L 354.546875 113.082031 L 353.957031 113.925781 L 353.367188 114.785156 L 352.179688 116.527344 L 349.789062 120.121094 L 344.964844 127.75 L 344.363281 128.742188 L 343.757812 129.742188 L 342.550781 131.769531 L 340.140625 135.925781 L 335.371094 144.609375 L 334.777344 145.730469 L 334.191406 146.855469 L 333.019531 149.128906 L 330.703125 153.757812 L 326.191406 163.308594 L 325.640625 164.527344 L 325.09375 165.753906 L 324.007812 168.21875 L 321.882812 173.210938 L 317.8125 183.398438 L 317.28125 184.796875 L 316.757812 186.203125 L 315.722656 189.019531 L 313.714844 194.695312 L 313.230469 196.121094 L 312.746094 197.550781 L 311.800781 200.414062 L 309.984375 206.164062 L 309.542969 207.605469 L 309.109375 209.046875 L 308.261719 211.933594 L 306.644531 217.710938 L 303.71875 229.246094 L 303.382812 230.679688 L 303.054688 232.113281 L 302.417969 234.976562 L 301.222656 240.667969 L 300.941406 242.082031 L 300.667969 243.496094 L 300.140625 246.308594 L 299.160156 251.886719 L 298.933594 253.269531 L 298.714844 254.648438 L 298.292969 257.386719 L 298.089844 258.75 L 297.894531 260.109375 L 297.527344 262.804688 L 297.351562 264.144531 L 297.183594 265.476562 L 296.867188 268.125 L 296.308594 273.335938 L 296.191406 274.535156 L 296.078125 275.726562 L 295.875 278.089844 L 295.777344 279.261719 L 295.6875 280.425781 L 295.523438 282.734375 L 295.449219 283.875 L 295.378906 285.011719 L 295.3125 286.136719 L 295.25 287.253906 L 295.195312 288.367188 L 295.144531 289.46875 L 295.097656 290.5625 L 295.058594 291.648438 L 295.019531 292.726562 L 294.988281 293.792969 L 294.957031 294.851562 L 294.933594 295.902344 L 294.914062 296.945312 L 294.898438 297.976562 L 294.886719 299 L 294.878906 300.015625 L 294.875 301.019531 L 294.875 302.011719 L 294.878906 302.996094 L 294.886719 303.972656 L 294.898438 304.9375 L 294.914062 305.894531 L 294.933594 306.839844 L 294.953125 307.773438 L 294.980469 308.695312 L 295.007812 309.609375 L 295.039062 310.515625 L 295.074219 311.40625 L 295.113281 312.289062 L 295.15625 313.160156 L 295.246094 314.871094 L 295.292969 315.707031 L 295.34375 316.535156 L 295.457031 318.15625 L 295.515625 318.949219 L 295.574219 319.730469 L 295.703125 321.257812 L 295.769531 322.007812 L 295.839844 322.742188 L 295.980469 324.175781 L 296.054688 324.875 L 296.132812 325.5625 L 296.285156 326.898438 L 296.363281 327.546875 L 296.445312 328.1875 L 296.605469 329.425781 L 296.9375 331.753906 L 297.027344 332.347656 L 297.121094 332.929688 L 297.304688 334.042969 L 297.664062 336.09375 L 297.753906 336.570312 L 297.839844 337.027344 L 298.015625 337.902344 L 298.34375 339.460938 L 298.421875 339.808594 L 298.5 340.144531 L 298.644531 340.769531 L 298.90625 341.832031 L 299.28125 343.207031 L 299.308594 343.308594 L 299.335938 343.394531 L 299.375 343.523438 L 299.386719 343.5625 L 299.398438 343.597656 L 299.394531 343.589844 L 299.390625 343.570312 L 299.378906 343.535156 L 299.335938 343.417969 L 299.1875 343.003906 L 297.554688 339.035156 L 297.394531 338.671875 L 297.226562 338.300781 L 296.867188 337.515625 L 296.050781 335.800781 L 294.015625 331.789062 L 293.722656 331.234375 L 293.421875 330.667969 L 292.792969 329.507812 L 291.421875 327.054688 L 288.234375 321.667969 L 287.792969 320.953125 L 287.339844 320.226562 L 286.40625 318.75 L 284.425781 315.695312 L 279.988281 309.21875 L 269.207031 295.050781 L 268.503906 294.1875 L 267.789062 293.320312 L 266.332031 291.570312 L 263.324219 288.042969 L 256.917969 280.867188 L 256.082031 279.964844 L 255.234375 279.058594 L 253.523438 277.242188 L 250.011719 273.597656 L 242.632812 266.300781 L 241.679688 265.390625 L 240.722656 264.480469 L 238.78125 262.660156 L 234.828125 259.035156 L 226.628906 251.867188 L 209.269531 238.046875 L 208.054688 237.140625 L 206.835938 236.242188 L 204.386719 234.460938 L 199.445312 230.957031 L 189.433594 224.230469 L 188.171875 223.417969 L 186.910156 222.613281 L 184.382812 221.019531 L 179.316406 217.914062 L 169.183594 212.046875 L 167.921875 211.347656 L 166.660156 210.652344 L 164.140625 209.292969 L 159.125 206.660156 L 149.230469 201.78125 L 148.007812 201.210938 L 146.792969 200.644531 L 144.375 199.539062 L 139.59375 197.425781 L 130.304688 193.59375 L 129.25 193.179688 L 128.199219 192.773438 L 126.117188 191.980469 L 122.03125 190.484375 L 114.203125 187.824219 L 113.261719 187.519531 L 112.328125 187.226562 L 110.484375 186.652344 L 106.902344 185.589844 L 100.179688 183.761719 L 99.382812 183.558594 L 98.597656 183.363281 L 97.054688 182.988281 L 94.097656 182.308594 L 93.386719 182.152344 L 92.6875 182 L 91.316406 181.710938 L 88.714844 181.195312 L 88.09375 181.078125 L 87.484375 180.96875 L 86.296875 180.757812 L 84.074219 180.390625 L 83.546875 180.308594 L 83.035156 180.230469 L 82.042969 180.085938 L 80.214844 179.839844 L 79.796875 179.789062 L 79.394531 179.738281 L 78.621094 179.652344 L 78.253906 179.613281 L 77.898438 179.574219 L 77.226562 179.507812 L 76.910156 179.480469 L 76.605469 179.453125 L 76.035156 179.40625 L 75.769531 179.382812 L 75.515625 179.367188 L 75.050781 179.332031 L 74.835938 179.320312 L 74.636719 179.308594 L 74.449219 179.296875 L 74.273438 179.289062 L 74.113281 179.28125 L 73.964844 179.277344 L 73.828125 179.269531 L 73.707031 179.265625 L 73.597656 179.261719 L 73.5 179.261719 L 73.417969 179.257812 L 73.347656 179.257812 L 73.292969 179.253906 L 73.199219 179.253906 L 73.382812 179.253906 L 73.457031 179.25 L 73.546875 179.25 L 73.648438 179.246094 L 73.765625 179.242188 L 73.894531 179.238281 L 74.035156 179.230469 L 74.191406 179.222656 L 74.359375 179.214844 L 74.734375 179.195312 L 74.945312 179.183594 L 75.164062 179.167969 L 75.644531 179.132812 L 75.902344 179.113281 L 76.175781 179.09375 L 76.757812 179.042969 L 77.070312 179.015625 L 77.390625 178.984375 L 78.078125 178.914062 L 79.597656 178.746094 L 80.042969 178.691406 L 80.503906 178.632812 L 81.46875 178.503906 L 83.570312 178.199219 L 84.128906 178.113281 L 84.703125 178.019531 L 85.894531 177.820312 L 88.433594 177.367188 L 89.101562 177.238281 L 89.785156 177.105469 L 91.1875 176.824219 L 94.144531 176.191406 L 100.636719 174.632812 L 101.5 174.40625 L 102.375 174.175781 L 104.160156 173.695312 L 107.851562 172.644531 L 115.714844 170.191406 L 116.742188 169.851562 L 117.777344 169.503906 L 119.871094 168.785156 L 124.15625 167.253906 L 133.085938 163.808594 L 134.15625 163.375 L 135.230469 162.929688 L 137.394531 162.023438 L 141.785156 160.128906 L 150.769531 155.996094 L 151.90625 155.445312 L 153.050781 154.890625 L 155.34375 153.761719 L 159.960938 151.414062 L 169.289062 146.402344 L 170.460938 145.746094 L 171.632812 145.085938 L 173.980469 143.742188 L 178.679688 140.976562 L 188.058594 135.164062 L 206.515625 122.503906 L 207.738281 121.601562 L 208.960938 120.695312 L 211.390625 118.867188 L 216.195312 115.160156 L 225.546875 107.558594 L 226.691406 106.589844 L 227.828125 105.625 L 230.082031 103.679688 L 234.503906 99.761719 L 243.003906 91.851562 L 244.03125 90.859375 L 245.050781 89.867188 L 247.066406 87.878906 L 250.988281 83.90625 L 258.414062 76.003906 L 271.4375 60.683594 L 272.152344 59.777344 L 272.859375 58.875 L 274.242188 57.082031 L 276.890625 53.566406 L 281.714844 46.828125 L 282.273438 46.015625 L 282.820312 45.210938 L 283.886719 43.625 L 285.90625 40.542969 L 289.472656 34.796875 L 289.875 34.117188 L 290.269531 33.449219 L 291.027344 32.144531 L 292.433594 29.652344 L 294.8125 25.1875 L 297.972656 18.523438 L 298.097656 18.234375 L 298.214844 17.957031 L 298.429688 17.441406 L 298.792969 16.542969 L 298.867188 16.351562 L 298.9375 16.167969 L 299.0625 15.839844 L 299.25 15.332031 L 299.285156 15.234375 L 299.316406 15.152344 L 299.359375 15.019531 L 299.375 14.976562 L 299.386719 14.941406 L 299.394531 14.921875 L 299.398438 14.910156 L 299.398438 14.917969 L 299.390625 14.933594 L 299.367188 15.007812 L 299.277344 15.304688 L 299.246094 15.410156 L 299.214844 15.53125 L 299.136719 15.808594 L 298.945312 16.523438 L 298.890625 16.734375 L 298.835938 16.957031 L 298.714844 17.445312 L 298.449219 18.574219 L 298.378906 18.886719 L 298.308594 19.214844 L 298.160156 19.910156 L 297.847656 21.453125 L 297.765625 21.871094 L 297.6875 22.300781 L 297.523438 23.199219 L 297.191406 25.148438 L 297.097656 25.714844 L 297.007812 26.292969 L 296.828125 27.492188 L 296.738281 28.117188 L 296.652344 28.753906 L 296.476562 30.070312 L 296.390625 30.75 L 296.304688 31.441406 L 296.140625 32.871094 L 296.058594 33.609375 L 295.980469 34.359375 L 295.828125 35.902344 L 295.753906 36.691406 L 295.683594 37.496094 L 295.546875 39.148438 L 295.480469 39.992188 L 295.421875 40.851562 L 295.304688 42.605469 L 295.253906 43.503906 L 295.203125 44.414062 L 295.15625 45.335938 L 295.109375 46.273438 L 295.070312 47.21875 L 295.035156 48.179688 L 295 49.152344 L 294.972656 50.136719 L 294.945312 51.132812 L 294.921875 52.140625 L 294.90625 53.160156 L 294.890625 54.191406 L 294.882812 55.234375 L 294.875 56.289062 L 294.875 57.355469 L 294.878906 58.433594 L 294.886719 59.519531 L 294.898438 60.617188 L 294.917969 61.726562 L 294.9375 62.847656 L 294.964844 63.976562 L 295 65.117188 L 295.035156 66.269531 L 295.078125 67.429688 L 295.125 68.597656 L 295.179688 69.777344 L 295.238281 70.96875 L 295.300781 72.164062 L 295.371094 73.375 L 295.445312 74.589844 L 295.613281 77.050781 L 295.703125 78.292969 L 295.800781 79.546875 L 296.015625 82.070312 L 296.132812 83.347656 L 296.253906 84.632812 L 296.515625 87.21875 L 296.648438 88.4375 L 296.785156 89.664062 L 297.074219 92.128906 L 297.71875 97.132812 L 297.894531 98.394531 L 298.078125 99.664062 L 298.457031 102.214844 L 299.289062 107.375 L 299.511719 108.675781 L 299.738281 109.976562 L 300.210938 112.597656 L 301.230469 117.871094 L 303.550781 128.550781 L 303.867188 129.890625 L 304.191406 131.238281 L 304.851562 133.929688 L 306.246094 139.328125 L 309.308594 150.128906 L 310.128906 152.824219 L 310.972656 155.515625 L 312.71875 160.875 L 316.457031 171.496094 L 316.933594 172.785156 L 317.417969 174.070312 L 318.398438 176.628906 L 320.40625 181.710938 L 324.609375 191.664062 L 325.152344 192.886719 L 325.695312 194.101562 L 326.792969 196.523438 L 329.027344 201.292969 L 333.613281 210.539062 L 334.199219 211.667969 L 334.785156 212.785156 L 335.957031 215.003906 L 338.324219 219.351562 L 343.109375 227.679688 L 352.675781 242.710938 L 353.3125 243.648438 L 353.953125 244.574219 L 355.222656 246.390625 L 357.730469 249.886719 L 362.59375 256.324219 L 363.1875 257.078125 L 363.773438 257.816406 L 364.933594 259.261719 L 367.191406 262.007812 L 371.445312 266.925781 L 371.949219 267.484375 L 372.445312 268.03125 L 373.417969 269.09375 L 375.277344 271.070312 L 378.613281 274.449219 L 383.539062 278.992188 L 383.746094 279.167969 L 383.945312 279.335938 L 384.308594 279.640625 L 384.925781 280.144531 L 385.054688 280.25 L 385.175781 280.34375 L 385.382812 280.507812 L 385.671875 280.730469 L 385.71875 280.765625 L 385.753906 280.792969 L 385.78125 280.8125 L 385.792969 280.820312 L 385.796875 280.824219 L 385.789062 280.816406 L 385.742188 280.785156 L 385.699219 280.753906 L 385.648438 280.71875 L 385.511719 280.625 L 385.101562 280.347656 L 384.96875 280.261719 L 384.824219 280.167969 L 384.503906 279.960938 L 383.722656 279.46875 L 381.589844 278.195312 L 375.023438 274.6875 L 374.464844 274.414062 L 373.894531 274.132812 L 372.710938 273.5625 L 370.175781 272.378906 L 364.4375 269.878906 L 363.660156 269.558594 L 362.867188 269.234375 L 361.242188 268.578125 L 357.835938 267.257812 L 350.398438 264.589844 L 349.414062 264.257812 L 348.414062 263.925781 L 346.378906 263.261719 L 342.171875 261.945312 L 341.089844 261.621094 L 339.996094 261.296875 L 337.777344 260.652344 L 333.203125 259.390625 L 332.035156 259.082031 L 330.851562 258.773438 L 328.460938 258.167969 L 323.558594 256.988281 L 313.304688 254.796875 L 312.070312 254.554688 L 310.832031 254.320312 L 308.328125 253.859375 L 303.246094 252.980469 L 301.960938 252.773438 L 300.667969 252.570312 L 298.0625 252.171875 L 292.789062 251.429688 L 291.457031 251.257812 L 290.121094 251.089844 L 287.433594 250.765625 L 286.085938 250.609375 L 284.730469 250.460938 L 282.007812 250.175781 L 280.640625 250.039062 L 279.269531 249.910156 L 276.515625 249.664062 L 275.132812 249.550781 L 273.75 249.441406 L 270.96875 249.238281 L 269.578125 249.144531 L 268.179688 249.054688 L 266.78125 248.972656 L 265.382812 248.894531 L 263.976562 248.820312 L 262.574219 248.753906 L 261.167969 248.691406 L 259.757812 248.636719 L 258.347656 248.585938 L 256.9375 248.539062 L 255.523438 248.5 L 254.109375 248.464844 L 252.695312 248.4375 L 251.28125 248.414062 L 249.863281 248.394531 L 248.449219 248.382812 L 247.03125 248.375 L 245.613281 248.375 L 244.199219 248.378906 L 242.78125 248.390625 L 241.367188 248.402344 L 239.949219 248.425781 L 238.535156 248.453125 L 237.121094 248.484375 L 235.707031 248.519531 L 234.296875 248.5625 L 231.476562 248.664062 L 228.664062 248.789062 L 225.855469 248.933594 L 223.113281 249.097656 L 220.382812 249.28125 L 219.019531 249.382812 L 217.660156 249.488281 L 214.949219 249.710938 L 213.601562 249.828125 L 212.253906 249.953125 L 209.570312 250.21875 L 204.253906 250.800781 L 202.9375 250.957031 L 201.621094 251.121094 L 199.007812 251.457031 L 193.839844 252.1875 L 192.5625 252.378906 L 191.289062 252.574219 L 188.757812 252.980469 L 183.773438 253.839844 L 182.542969 254.0625 L 181.320312 254.289062 L 178.894531 254.757812 L 174.125 255.730469 L 172.949219 255.980469 L 171.785156 256.234375 L 169.472656 256.75 L 164.949219 257.820312 L 163.839844 258.09375 L 162.738281 258.367188 L 160.558594 258.925781 L 156.308594 260.070312 L 148.246094 262.433594 L 147.203125 262.757812 L 146.167969 263.085938 L 144.136719 263.742188 L 140.214844 265.066406 L 132.972656 267.710938 L 132.125 268.039062 L 131.289062 268.367188 L 129.660156 269.019531 L 126.558594 270.300781 L 121.003906 272.757812 L 120.371094 273.054688 L 119.75 273.34375 L 118.554688 273.917969 L 116.328125 275.015625 L 112.542969 276.996094 L 107.648438 279.863281 L 107.46875 279.976562 L 107.304688 280.082031 L 107.007812 280.273438 L 106.558594 280.578125 L 106.472656 280.632812 L 106.402344 280.683594 L 106.289062 280.761719 L 106.25 280.789062 L 106.222656 280.808594 L 106.207031 280.820312 L 106.203125 280.824219 L 106.207031 280.820312 L 106.222656 280.808594 L 106.289062 280.757812 L 106.550781 280.558594 L 107.566406 279.742188 L 107.742188 279.597656 L 107.921875 279.445312 L 108.316406 279.113281 L 109.214844 278.335938 L 111.445312 276.308594 L 117.453125 270.300781 L 117.925781 269.796875 L 118.40625 269.28125 L 119.390625 268.214844 L 121.441406 265.929688 L 125.84375 260.757812 L 126.421875 260.058594 L 127 259.34375 L 128.179688 257.878906 L 130.585938 254.800781 L 135.585938 248.066406 L 136.222656 247.171875 L 136.867188 246.265625 L 138.15625 244.417969 L 140.761719 240.582031 L 146.03125 232.386719 L 156.558594 214.035156 L 157.191406 212.832031 L 157.824219 211.621094 L 159.085938 209.171875 L 161.574219 204.1875 L 166.40625 193.871094 L 166.996094 192.550781 L 167.582031 191.226562 L 168.738281 188.558594 L 171.003906 183.160156 L 175.308594 172.132812 L 175.824219 170.734375 L 176.332031 169.335938 L 177.339844 166.527344 L 179.28125 160.871094 L 179.753906 159.453125 L 180.21875 158.03125 L 181.132812 155.183594 L 182.886719 149.46875 L 183.3125 148.035156 L 183.730469 146.605469 L 184.546875 143.738281 L 186.101562 138.007812 L 188.902344 126.585938 L 189.199219 125.261719 L 189.492188 123.9375 L 190.0625 121.296875 L 191.132812 116.046875 L 191.382812 114.738281 L 191.632812 113.4375 L 192.109375 110.839844 L 192.992188 105.695312 L 193.199219 104.417969 L 193.398438 103.144531 L 193.785156 100.613281 L 193.96875 99.351562 L 194.144531 98.097656 L 194.484375 95.605469 L 194.648438 94.367188 L 194.804688 93.132812 L 195.097656 90.679688 L 195.625 85.847656 L 195.742188 84.65625 L 195.855469 83.472656 L 196.066406 81.121094 L 196.164062 79.953125 L 196.257812 78.796875 L 196.425781 76.5 L 196.503906 75.363281 L 196.578125 74.230469 L 196.644531 73.109375 L 196.707031 71.996094 L 196.765625 70.890625 L 196.820312 69.792969 L 196.871094 68.699219 L 196.914062 67.617188 L 196.953125 66.546875 L 196.988281 65.480469 L 197.019531 64.421875 L 197.046875 63.375 L 197.070312 62.335938 L 197.089844 61.304688 L 197.105469 60.285156 L 197.113281 59.273438 L 197.121094 58.269531 L 197.125 57.277344 L 197.125 56.292969 L 197.117188 55.316406 L 197.109375 54.351562 L 197.097656 53.398438 L 197.082031 52.453125 L 197.0625 51.519531 L 197.039062 50.515625 L 197.011719 49.523438 L 196.980469 48.546875 L 196.941406 47.578125 L 196.902344 46.625 L 196.863281 45.683594 L 196.816406 44.753906 L 196.765625 43.839844 L 196.714844 42.9375 L 196.660156 42.046875 L 196.539062 40.304688 L 196.476562 39.453125 L 196.410156 38.613281 L 196.273438 36.976562 L 196.199219 36.179688 L 196.125 35.394531 L 195.96875 33.871094 L 195.886719 33.128906 L 195.808594 32.398438 L 195.640625 30.984375 L 195.554688 30.300781 L 195.464844 29.628906 L 195.289062 28.328125 L 194.929688 25.902344 L 194.839844 25.332031 L 194.75 24.777344 L 194.570312 23.714844 L 194.210938 21.765625 L 194.125 21.316406 L 194.039062 20.878906 L 193.871094 20.058594 L 193.554688 18.59375 L 193.476562 18.265625 L 193.40625 17.953125 L 193.265625 17.371094 L 193.019531 16.398438 L 192.683594 15.183594 L 192.660156 15.105469 L 192.640625 15.039062 L 192.613281 14.949219 L 192.601562 14.914062 L 192.605469 14.929688 L 192.617188 14.953125 L 192.628906 14.996094 L 192.671875 15.113281 L 192.8125 15.503906 L 192.859375 15.632812 L 192.910156 15.777344 L 193.035156 16.097656 L 193.347656 16.890625 L 194.261719 19.0625 L 194.402344 19.386719 L 194.554688 19.722656 L 194.875 20.429688 L 195.597656 21.976562 L 197.394531 25.59375 L 202.496094 34.742188 L 202.875 35.375 L 203.265625 36.019531 L 204.070312 37.332031 L 205.777344 40.046875 L 209.59375 45.820312 L 210.109375 46.570312 L 210.632812 47.328125 L 211.703125 48.859375 L 213.953125 51.992188 L 218.855469 58.507812 L 219.507812 59.34375 L 220.167969 60.179688 L 221.511719 61.871094 L 224.300781 65.296875 L 230.269531 72.292969 L 243.710938 86.65625 L 244.691406 87.636719 L 245.679688 88.617188 L 247.679688 90.582031 L 251.777344 94.5 L 260.324219 102.285156 L 261.425781 103.25 L 262.53125 104.210938 L 264.765625 106.128906 L 269.304688 109.929688 L 278.648438 117.367188 L 279.839844 118.28125 L 281.035156 119.1875 L 283.4375 120.988281 L 288.289062 124.535156 L 298.148438 131.371094 L 318.203125 143.847656 L 319.378906 144.523438 L 320.550781 145.1875 L 322.890625 146.503906 L 327.5625 149.058594 L 336.816406 153.839844 L 337.964844 154.40625 L 339.109375 154.96875 L 341.386719 156.070312 L 345.902344 158.183594 L 354.738281 162.082031 L 355.820312 162.535156 L 356.898438 162.984375 L 359.042969 163.859375 L 363.257812 165.527344 L 371.386719 168.527344 L 372.371094 168.871094 L 373.351562 169.207031 L 375.285156 169.863281 L 379.058594 171.089844 L 386.210938 173.238281 L 387.164062 173.503906 L 388.105469 173.765625 L 389.953125 174.261719 L 393.503906 175.171875 L 394.359375 175.378906 L 395.203125 175.582031 L 396.851562 175.964844 L 399.992188 176.652344 L 400.742188 176.808594 L 401.480469 176.960938 L 402.910156 177.242188 L 405.605469 177.734375 L 406.242188 177.84375 L 406.867188 177.949219 L 408.066406 178.140625 L 410.285156 178.46875 L 410.800781 178.542969 L 411.304688 178.609375 L 412.257812 178.726562 L 412.710938 178.78125 L 413.152344 178.832031 L 413.980469 178.921875 L 414.371094 178.960938 L 414.746094 178.996094 L 415.445312 179.0625 L 415.769531 179.089844 L 416.078125 179.113281 L 416.648438 179.15625 L 416.90625 179.171875 L 417.152344 179.1875 L 417.378906 179.203125 L 417.585938 179.210938 L 417.78125 179.222656 L 417.957031 179.230469 L 418.117188 179.238281 L 418.261719 179.242188 L 418.386719 179.246094 L 418.496094 179.25 L 418.589844 179.25 L 418.664062 179.253906 L 418.800781 179.253906 " transform="matrix(1,0,0,1,-66,-8)"/>
</g>
</g>
</svg>
