<?xml version="1.0" encoding="UTF-8"?>
<svg xmlns="http://www.w3.org/2000/svg" xmlns:xlink="http://www.w3.org/1999/xlink" width="360pt" height="358pt" viewBox="0 0 360 358" version="1.1">
<g id="surface41">
<path style="fill:none;stroke-width:1.6;stroke-linecap:square;stroke-linejoin:miter;stroke:rgb(36.84082%,50.67749%,70.979309%);stroke-opacity:1;stroke-miterlimit:3.25;" d="M 418.800781 186.972656 L 418.726562 186.972656 L 418.511719 186.964844 L 418.152344 186.953125 L 417.648438 186.925781 L 417 186.878906 L 416.214844 186.8125 L 415.289062 186.71875 L 414.222656 186.59375 L 413.023438 186.4375 L 411.6875 186.238281 L 410.222656 186 L 408.625 185.714844 L 406.902344 185.378906 L 405.058594 184.988281 L 401.011719 184.035156 L 398.816406 183.460938 L 396.511719 182.824219 L 391.59375 181.339844 L 388.984375 180.488281 L 386.289062 179.558594 L 380.632812 177.464844 L 377.6875 176.296875 L 374.667969 175.042969 L 368.433594 172.285156 L 355.320312 165.742188 L 351.941406 163.890625 L 348.53125 161.953125 L 341.640625 157.828125 L 338.171875 155.640625 L 334.695312 153.371094 L 327.738281 148.597656 L 324.269531 146.097656 L 320.8125 143.523438 L 313.957031 138.171875 L 300.617188 126.726562 L 297.386719 123.730469 L 294.203125 120.6875 L 288.007812 114.480469 L 285.003906 111.328125 L 282.058594 108.144531 L 276.382812 101.710938 L 273.65625 98.472656 L 271.007812 95.222656 L 265.945312 88.71875 L 256.835938 75.832031 L 254.609375 72.402344 L 252.488281 69.011719 L 248.566406 62.378906 L 246.761719 59.152344 L 245.066406 55.988281 L 241.988281 49.890625 L 240.605469 46.96875 L 239.324219 44.140625 L 237.058594 38.789062 L 236.066406 36.273438 L 235.167969 33.875 L 233.632812 29.453125 L 232.992188 27.433594 L 232.425781 25.554688 L 231.9375 23.816406 L 231.515625 22.222656 L 231.160156 20.777344 L 230.863281 19.480469 L 230.621094 18.34375 L 230.433594 17.363281 L 230.289062 16.546875 L 230.183594 15.890625 L 230.113281 15.402344 L 230.070312 15.078125 L 230.054688 14.921875 L 230.054688 14.933594 L 230.070312 15.117188 L 230.089844 15.46875 L 230.109375 15.988281 L 230.128906 16.679688 L 230.132812 17.535156 L 230.125 18.558594 L 230.09375 19.746094 L 230.035156 21.097656 L 229.945312 22.605469 L 229.816406 24.277344 L 229.648438 26.097656 L 229.429688 28.074219 L 229.160156 30.199219 L 228.835938 32.464844 L 228.449219 34.871094 L 227.996094 37.414062 L 227.472656 40.085938 L 226.875 42.882812 L 226.203125 45.800781 L 225.449219 48.835938 L 224.617188 51.976562 L 223.695312 55.222656 L 222.683594 58.566406 L 221.585938 62 L 219.105469 69.113281 L 217.726562 72.78125 L 216.25 76.511719 L 213.003906 84.140625 L 211.238281 88.023438 L 209.375 91.941406 L 205.363281 99.863281 L 203.363281 103.585938 L 201.28125 107.3125 L 196.886719 114.773438 L 194.578125 118.492188 L 192.195312 122.195312 L 187.230469 129.542969 L 184.648438 133.171875 L 182.007812 136.761719 L 176.558594 143.824219 L 165.105469 157.316406 L 162.152344 160.535156 L 159.167969 163.679688 L 153.140625 169.75 L 150.105469 172.667969 L 147.058594 175.503906 L 140.972656 180.914062 L 137.9375 183.484375 L 134.914062 185.964844 L 128.933594 190.644531 L 117.382812 198.851562 L 114.609375 200.660156 L 111.894531 202.375 L 106.664062 205.503906 L 104.152344 206.929688 L 101.722656 208.257812 L 97.113281 210.636719 L 94.949219 211.691406 L 92.878906 212.660156 L 89.054688 214.34375 L 87.304688 215.066406 L 85.671875 215.710938 L 82.761719 216.78125 L 81.492188 217.210938 L 80.351562 217.582031 L 78.464844 218.144531 L 77.726562 218.347656 L 77.125 218.5 L 76.347656 218.679688 L 76.175781 218.71875 L 76.144531 218.722656 L 76.261719 218.703125 L 76.523438 218.660156 L 76.929688 218.605469 L 77.488281 218.535156 L 78.1875 218.457031 L 79.035156 218.375 L 80.007812 218.300781 L 81.121094 218.230469 L 82.371094 218.167969 L 83.757812 218.125 L 85.277344 218.097656 L 86.929688 218.09375 L 88.710938 218.117188 L 90.625 218.171875 L 92.664062 218.257812 L 94.824219 218.386719 L 97.101562 218.554688 L 99.5 218.769531 L 102.007812 219.035156 L 104.628906 219.351562 L 107.355469 219.722656 L 110.183594 220.152344 L 113.105469 220.640625 L 116.125 221.195312 L 119.234375 221.8125 L 122.425781 222.5 L 125.695312 223.253906 L 129.042969 224.082031 L 135.9375 225.957031 L 139.480469 227.007812 L 143.074219 228.132812 L 150.40625 230.617188 L 154.132812 231.972656 L 157.890625 233.410156 L 165.484375 236.511719 L 169.308594 238.175781 L 173.144531 239.917969 L 180.824219 243.617188 L 184.660156 245.574219 L 188.488281 247.601562 L 196.085938 251.851562 L 199.847656 254.074219 L 203.582031 256.351562 L 210.933594 261.078125 L 225.0625 271.105469 L 228.449219 273.710938 L 231.773438 276.34375 L 238.203125 281.695312 L 241.308594 284.398438 L 244.332031 287.113281 L 250.132812 292.570312 L 252.90625 295.300781 L 255.585938 298.023438 L 260.675781 303.4375 L 269.714844 313.964844 L 271.898438 316.722656 L 273.964844 319.421875 L 277.75 324.632812 L 279.472656 327.128906 L 281.078125 329.542969 L 283.957031 334.109375 L 285.230469 336.25 L 286.398438 338.285156 L 288.417969 342.019531 L 291.300781 348.015625 L 291.796875 349.179688 L 292.214844 350.199219 L 292.828125 351.804688 L 293.03125 352.382812 L 293.171875 352.804688 L 293.253906 353.070312 L 293.285156 353.175781 L 293.273438 353.121094 L 293.214844 352.90625 L 293.125 352.523438 L 293 351.980469 L 292.855469 351.273438 L 292.6875 350.402344 L 292.507812 349.367188 L 292.320312 348.164062 L 292.128906 346.804688 L 291.945312 345.28125 L 291.765625 343.597656 L 291.601562 341.757812 L 291.457031 339.765625 L 291.335938 337.617188 L 291.246094 335.320312 L 291.191406 332.878906 L 291.175781 330.292969 L 291.207031 327.570312 L 291.28125 324.714844 L 291.414062 321.726562 L 291.601562 318.613281 L 291.851562 315.378906 L 292.164062 312.03125 L 292.546875 308.574219 L 293 305.011719 L 293.53125 301.355469 L 294.136719 297.601562 L 294.820312 293.765625 L 295.585938 289.847656 L 296.433594 285.859375 L 298.386719 277.691406 L 299.496094 273.523438 L 300.6875 269.308594 L 303.339844 260.773438 L 304.792969 256.46875 L 306.335938 252.140625 L 309.675781 243.464844 L 311.347656 239.417969 L 313.085938 235.382812 L 316.773438 227.351562 L 318.714844 223.375 L 320.714844 219.425781 L 324.890625 211.640625 L 327.0625 207.8125 L 329.28125 204.035156 L 333.851562 196.652344 L 343.417969 182.683594 L 345.875 179.378906 L 348.347656 176.160156 L 353.328125 169.980469 L 355.824219 167.023438 L 358.316406 164.164062 L 363.273438 158.738281 L 365.726562 156.171875 L 368.160156 153.707031 L 372.929688 149.09375 L 381.96875 141.117188 L 384.09375 139.386719 L 386.152344 137.765625 L 390.058594 134.824219 L 391.894531 133.511719 L 393.644531 132.296875 L 396.882812 130.160156 L 398.355469 129.238281 L 399.726562 128.40625 L 402.152344 127.015625 L 405.625 125.21875 L 406.183594 124.957031 L 406.617188 124.765625 L 406.921875 124.632812 L 407.089844 124.5625 L 407.128906 124.550781 L 407.027344 124.585938 L 406.410156 124.800781 L 405.894531 124.964844 L 405.238281 125.167969 L 404.4375 125.398438 L 403.5 125.652344 L 402.417969 125.925781 L 401.199219 126.21875 L 398.335938 126.832031 L 396.554688 127.167969 L 394.609375 127.5 L 392.511719 127.828125 L 390.253906 128.136719 L 387.84375 128.429688 L 385.285156 128.691406 L 382.578125 128.925781 L 379.730469 129.125 L 376.742188 129.285156 L 373.625 129.394531 L 370.371094 129.460938 L 367 129.46875 L 363.503906 129.417969 L 359.898438 129.304688 L 356.183594 129.128906 L 352.363281 128.878906 L 348.453125 128.5625 L 344.449219 128.167969 L 340.363281 127.695312 L 336.203125 127.144531 L 331.96875 126.511719 L 327.675781 125.792969 L 323.328125 124.992188 L 318.929688 124.105469 L 314.492188 123.132812 L 310.019531 122.074219 L 305.519531 120.929688 L 301 119.699219 L 296.472656 118.382812 L 291.9375 116.980469 L 282.886719 113.933594 L 278.382812 112.289062 L 273.902344 110.570312 L 265.046875 106.910156 L 260.679688 104.976562 L 256.367188 102.976562 L 247.921875 98.800781 L 243.800781 96.636719 L 239.753906 94.417969 L 231.910156 89.867188 L 217.363281 80.414062 L 213.988281 78.011719 L 210.722656 75.605469 L 204.546875 70.808594 L 201.640625 68.429688 L 198.855469 66.074219 L 193.664062 61.453125 L 191.261719 59.203125 L 188.988281 57 L 184.828125 52.761719 L 178.054688 45.144531 L 176.703125 43.488281 L 175.46875 41.925781 L 173.351562 39.101562 L 170.445312 34.8125 L 169.972656 34.046875 L 169.601562 33.417969 L 169.316406 32.921875 L 169.121094 32.566406 L 169.007812 32.355469 L 168.972656 32.285156 L 169.011719 32.367188 L 169.117188 32.59375 L 169.289062 32.976562 L 169.515625 33.511719 L 170.128906 35.046875 L 170.496094 36.050781 L 170.90625 37.210938 L 171.804688 40 L 172.289062 41.628906 L 172.785156 43.410156 L 173.292969 45.347656 L 173.800781 47.4375 L 174.304688 49.675781 L 174.804688 52.0625 L 175.289062 54.597656 L 175.757812 57.269531 L 176.203125 60.082031 L 176.617188 63.03125 L 177 66.109375 L 177.34375 69.316406 L 177.644531 72.648438 L 177.902344 76.09375 L 178.109375 79.65625 L 178.257812 83.328125 L 178.351562 87.101562 L 178.382812 90.96875 L 178.351562 94.933594 L 178.25 98.980469 L 178.082031 103.109375 L 177.835938 107.308594 L 177.519531 111.574219 L 177.128906 115.902344 L 176.65625 120.285156 L 176.105469 124.714844 L 175.476562 129.179688 L 174.765625 133.683594 L 173.972656 138.210938 L 173.101562 142.757812 L 171.117188 151.878906 L 170.003906 156.441406 L 168.816406 160.992188 L 166.210938 170.046875 L 164.800781 174.53125 L 163.316406 178.980469 L 160.15625 187.75 L 158.597656 191.765625 L 156.988281 195.730469 L 153.632812 203.480469 L 151.894531 207.257812 L 150.117188 210.964844 L 146.464844 218.148438 L 144.601562 221.621094 L 142.714844 225.003906 L 138.894531 231.496094 L 131.199219 243.3125 L 129.292969 246.007812 L 127.398438 248.597656 L 123.679688 253.445312 L 116.648438 261.796875 L 115.003906 263.597656 L 113.414062 265.289062 L 110.417969 268.335938 L 105.296875 273.09375 L 104.222656 274.015625 L 103.238281 274.832031 L 101.5625 276.164062 L 100.875 276.683594 L 100.292969 277.109375 L 99.464844 277.6875 L 99.222656 277.847656 L 99.097656 277.929688 L 99.089844 277.933594 L 99.453125 277.722656 L 99.824219 277.515625 L 100.957031 276.917969 L 101.714844 276.539062 L 102.609375 276.109375 L 104.796875 275.125 L 106.089844 274.578125 L 107.515625 273.996094 L 110.769531 272.761719 L 112.597656 272.117188 L 114.550781 271.460938 L 116.636719 270.796875 L 118.851562 270.125 L 121.191406 269.457031 L 123.652344 268.796875 L 128.945312 267.503906 L 132.007812 266.828125 L 135.207031 266.183594 L 138.535156 265.570312 L 141.988281 264.988281 L 145.558594 264.453125 L 149.246094 263.960938 L 153.042969 263.515625 L 156.945312 263.128906 L 160.949219 262.796875 L 165.042969 262.523438 L 169.226562 262.316406 L 173.488281 262.179688 L 177.824219 262.109375 L 182.226562 262.109375 L 186.695312 262.1875 L 191.214844 262.339844 L 195.78125 262.574219 L 200.386719 262.882812 L 205.027344 263.273438 L 209.691406 263.742188 L 214.375 264.296875 L 219.070312 264.929688 L 223.769531 265.640625 L 228.464844 266.433594 L 233.148438 267.304688 L 237.8125 268.253906 L 242.457031 269.277344 L 247.066406 270.378906 L 251.636719 271.546875 L 256.164062 272.785156 L 265.050781 275.460938 L 269.398438 276.886719 L 273.675781 278.371094 L 281.992188 281.492188 L 286.023438 283.117188 L 289.957031 284.785156 L 297.523438 288.214844 L 301.148438 289.964844 L 304.65625 291.738281 L 311.324219 295.3125 L 323.15625 302.429688 L 325.785156 304.167969 L 328.277344 305.875 L 332.855469 309.179688 L 334.9375 310.761719 L 336.878906 312.292969 L 340.347656 315.164062 L 341.871094 316.496094 L 343.261719 317.75 L 345.640625 320.003906 L 348.832031 323.328125 L 349.289062 323.847656 L 349.644531 324.269531 L 349.902344 324.578125 L 350.0625 324.78125 L 350.132812 324.867188 L 350.109375 324.839844 L 350 324.6875 L 349.8125 324.417969 L 349.542969 324.023438 L 349.203125 323.5 L 348.3125 322.074219 L 345.84375 317.640625 L 345.109375 316.203125 L 344.339844 314.628906 L 342.703125 311.082031 L 341.84375 309.109375 L 340.972656 307.007812 L 339.1875 302.414062 L 338.289062 299.925781 L 337.390625 297.316406 L 335.613281 291.734375 L 334.742188 288.765625 L 333.890625 285.683594 L 332.261719 279.191406 L 331.492188 275.792969 L 330.757812 272.289062 L 330.058594 268.695312 L 329.402344 265.007812 L 328.792969 261.238281 L 328.230469 257.382812 L 327.71875 253.453125 L 327.261719 249.449219 L 326.859375 245.382812 L 326.519531 241.253906 L 326.238281 237.066406 L 326.019531 232.832031 L 325.863281 228.550781 L 325.777344 224.230469 L 325.753906 219.875 L 325.800781 215.496094 L 325.917969 211.09375 L 326.101562 206.671875 L 326.355469 202.246094 L 326.679688 197.8125 L 327.074219 193.382812 L 327.535156 188.957031 L 328.066406 184.546875 L 328.660156 180.160156 L 329.324219 175.792969 L 330.050781 171.460938 L 330.839844 167.164062 L 331.691406 162.910156 L 332.601562 158.707031 L 333.566406 154.554688 L 335.65625 146.429688 L 336.753906 142.542969 L 337.894531 138.730469 L 340.289062 131.328125 L 341.539062 127.75 L 342.816406 124.261719 L 345.449219 117.554688 L 346.792969 114.347656 L 348.152344 111.242188 L 350.894531 105.339844 L 356.355469 94.859375 L 357.6875 92.527344 L 359 90.308594 L 361.539062 86.234375 L 366.144531 79.527344 L 367.171875 78.152344 L 368.140625 76.894531 L 369.878906 74.734375 L 372.46875 71.800781 L 372.902344 71.34375 L 373.25 70.992188 L 373.5 70.746094 L 373.648438 70.601562 L 373.699219 70.554688 L 373.644531 70.605469 L 373.484375 70.746094 L 373.210938 70.972656 L 372.828125 71.289062 L 372.328125 71.683594 L 370.980469 72.699219 L 366.835938 75.535156 L 365.492188 76.382812 L 364.023438 77.28125 L 360.710938 79.199219 L 358.867188 80.210938 L 356.902344 81.253906 L 352.601562 83.40625 L 350.269531 84.507812 L 347.820312 85.617188 L 342.570312 87.859375 L 339.773438 88.976562 L 336.867188 90.089844 L 330.730469 92.273438 L 327.230469 93.429688 L 323.613281 94.554688 L 319.886719 95.652344 L 316.050781 96.710938 L 312.113281 97.726562 L 308.078125 98.695312 L 299.746094 100.480469 L 295.453125 101.289062 L 291.089844 102.039062 L 286.660156 102.722656 L 282.171875 103.339844 L 277.625 103.890625 L 273.035156 104.367188 L 268.398438 104.773438 L 263.734375 105.101562 L 259.039062 105.355469 L 254.328125 105.53125 L 249.601562 105.628906 L 244.871094 105.652344 L 240.140625 105.59375 L 235.417969 105.457031 L 230.714844 105.242188 L 226.03125 104.953125 L 221.378906 104.589844 L 216.765625 104.148438 L 212.195312 103.636719 L 207.675781 103.054688 L 203.210938 102.40625 L 198.8125 101.691406 L 194.484375 100.914062 L 190.234375 100.074219 L 186.0625 99.183594 L 181.980469 98.238281 L 177.992188 97.246094 L 174.101562 96.210938 L 170.316406 95.132812 L 166.640625 94.023438 L 159.636719 91.714844 L 156.3125 90.527344 L 153.117188 89.324219 L 147.117188 86.898438 L 144.320312 85.683594 L 141.660156 84.476562 L 136.761719 82.105469 L 134.527344 80.957031 L 132.4375 79.835938 L 128.695312 77.710938 L 122.96875 74.082031 L 121.902344 73.339844 L 120.976562 72.671875 L 119.546875 71.589844 L 119.039062 71.183594 L 118.664062 70.875 L 118.421875 70.667969 L 118.304688 70.566406 L 118.3125 70.570312 L 118.421875 70.675781 L 118.945312 71.195312 L 119.351562 71.613281 L 119.851562 72.144531 L 121.105469 73.546875 L 121.855469 74.425781 L 122.675781 75.417969 L 124.535156 77.769531 L 128.949219 83.941406 L 130.171875 85.792969 L 131.433594 87.769531 L 134.050781 92.085938 L 135.394531 94.425781 L 136.761719 96.886719 L 139.527344 102.15625 L 140.917969 104.964844 L 142.308594 107.882812 L 145.074219 114.046875 L 146.433594 117.285156 L 147.78125 120.625 L 150.398438 127.589844 L 151.667969 131.207031 L 152.898438 134.914062 L 154.09375 138.699219 L 155.246094 142.558594 L 156.355469 146.492188 L 157.417969 150.492188 L 159.386719 158.679688 L 160.292969 162.851562 L 161.136719 167.074219 L 161.921875 171.335938 L 162.644531 175.636719 L 163.304688 179.96875 L 163.902344 184.324219 L 164.429688 188.699219 L 164.894531 193.085938 L 165.289062 197.484375 L 165.617188 201.882812 L 165.875 206.28125 L 166.0625 210.667969 L 166.183594 215.039062 L 166.238281 219.390625 L 166.226562 223.714844 L 166.144531 228.003906 L 166 232.257812 L 165.792969 236.46875 L 165.523438 240.632812 L 165.191406 244.738281 L 164.804688 248.789062 L 164.359375 252.769531 L 163.859375 256.683594 L 163.3125 260.523438 L 162.660156 264.59375 L 161.960938 268.566406 L 161.207031 272.433594 L 160.414062 276.191406 L 159.582031 279.835938 L 158.710938 283.359375 L 156.890625 290.023438 L 155.945312 293.160156 L 154.988281 296.160156 L 153.054688 301.738281 L 152.089844 304.308594 L 151.132812 306.734375 L 149.273438 311.132812 L 148.378906 313.101562 L 147.515625 314.917969 L 145.917969 318.089844 L 143.371094 322.582031 L 142.90625 323.324219 L 142.519531 323.921875 L 142.214844 324.371094 L 142.003906 324.675781 L 141.886719 324.839844 L 141.867188 324.863281 L 141.953125 324.753906 L 142.144531 324.515625 L 142.449219 324.148438 L 142.875 323.65625 L 144.082031 322.324219 L 144.875 321.492188 L 145.792969 320.558594 L 148.035156 318.398438 L 149.359375 317.183594 L 150.816406 315.886719 L 154.152344 313.070312 L 162.503906 306.730469 L 164.9375 305.03125 L 167.511719 303.300781 L 173.0625 299.765625 L 176.035156 297.972656 L 179.136719 296.175781 L 185.71875 292.582031 L 189.1875 290.792969 L 192.777344 289.023438 L 200.277344 285.554688 L 204.183594 283.867188 L 208.191406 282.214844 L 216.46875 279.039062 L 220.652344 277.550781 L 224.910156 276.117188 L 229.230469 274.742188 L 233.613281 273.421875 L 238.050781 272.167969 L 242.535156 270.980469 L 251.621094 268.808594 L 256.210938 267.832031 L 260.820312 266.929688 L 265.445312 266.101562 L 270.074219 265.351562 L 274.707031 264.679688 L 279.332031 264.085938 L 283.945312 263.570312 L 288.539062 263.132812 L 293.101562 262.773438 L 297.632812 262.492188 L 302.121094 262.289062 L 306.5625 262.160156 L 310.949219 262.101562 L 315.277344 262.121094 L 319.535156 262.207031 L 323.71875 262.359375 L 327.824219 262.578125 L 331.84375 262.855469 L 335.769531 263.195312 L 339.597656 263.589844 L 343.328125 264.03125 L 346.945312 264.523438 L 350.453125 265.0625 L 353.84375 265.636719 L 357.109375 266.246094 L 360.25 266.886719 L 363.261719 267.550781 L 366.140625 268.234375 L 368.882812 268.9375 L 371.484375 269.648438 L 376.253906 271.078125 L 378.421875 271.785156 L 380.4375 272.480469 L 384.023438 273.816406 L 385.585938 274.445312 L 386.996094 275.039062 L 389.363281 276.101562 L 390.316406 276.558594 L 391.117188 276.960938 L 392.277344 277.570312 L 392.632812 277.773438 L 392.847656 277.898438 L 392.917969 277.941406 L 392.847656 277.898438 L 392.644531 277.761719 L 392.304688 277.53125 L 391.242188 276.773438 L 387.691406 273.945312 L 386.613281 273.015625 L 385.449219 271.984375 L 382.878906 269.597656 L 381.480469 268.238281 L 380.015625 266.769531 L 376.898438 263.496094 L 375.253906 261.691406 L 373.5625 259.773438 L 370.046875 255.597656 L 362.636719 245.914062 L 360.734375 243.226562 L 358.820312 240.429688 L 354.976562 234.53125 L 353.058594 231.433594 L 351.152344 228.238281 L 347.371094 221.578125 L 345.511719 218.117188 L 343.679688 214.574219 L 340.101562 207.257812 L 338.367188 203.488281 L 336.671875 199.65625 L 333.414062 191.808594 L 331.859375 187.804688 L 330.355469 183.753906 L 327.519531 175.527344 L 326.191406 171.363281 L 324.921875 167.171875 L 322.578125 158.730469 L 321.503906 154.492188 L 320.5 150.246094 L 319.5625 146.003906 L 318.699219 141.765625 L 317.898438 137.539062 L 317.171875 133.332031 L 316.515625 129.144531 L 315.925781 124.988281 L 315.40625 120.867188 L 314.957031 116.785156 L 314.574219 112.746094 L 314.257812 108.757812 L 314.007812 104.828125 L 313.816406 100.957031 L 313.691406 97.152344 L 313.625 93.421875 L 313.613281 89.765625 L 313.660156 86.191406 L 313.757812 82.699219 L 313.90625 79.300781 L 314.101562 75.992188 L 314.335938 72.785156 L 314.617188 69.679688 L 314.929688 66.679688 L 315.308594 63.550781 L 315.722656 60.554688 L 316.167969 57.695312 L 316.636719 54.976562 L 317.125 52.402344 L 317.625 49.972656 L 318.648438 45.570312 L 319.160156 43.601562 L 319.660156 41.785156 L 320.617188 38.632812 L 321.0625 37.292969 L 321.476562 36.113281 L 322.183594 34.234375 L 322.46875 33.53125 L 322.703125 32.988281 L 322.875 32.597656 L 322.984375 32.367188 L 323.023438 32.285156 L 322.988281 32.355469 L 322.871094 32.574219 L 322.671875 32.9375 L 322.382812 33.441406 L 322 34.082031 L 320.941406 35.765625 L 317.535156 40.601562 L 316.398438 42.089844 L 315.140625 43.679688 L 312.261719 47.136719 L 310.632812 48.992188 L 308.878906 50.929688 L 304.996094 55.011719 L 302.859375 57.140625 L 300.601562 59.328125 L 295.699219 63.832031 L 284.421875 73.199219 L 281.304688 75.578125 L 278.078125 77.960938 L 271.289062 82.710938 L 267.738281 85.066406 L 264.089844 87.398438 L 256.511719 91.984375 L 252.59375 94.222656 L 248.59375 96.421875 L 240.375 100.675781 L 236.167969 102.71875 L 231.902344 104.707031 L 223.226562 108.492188 L 219.121094 110.164062 L 214.988281 111.773438 L 206.660156 114.792969 L 202.472656 116.203125 L 198.285156 117.539062 L 189.910156 120.003906 L 185.734375 121.125 L 181.578125 122.171875 L 177.445312 123.148438 L 173.34375 124.046875 L 169.273438 124.875 L 165.246094 125.628906 L 161.261719 126.3125 L 157.332031 126.921875 L 153.457031 127.460938 L 149.644531 127.933594 L 145.902344 128.335938 L 142.230469 128.675781 L 138.640625 128.949219 L 135.132812 129.164062 L 131.710938 129.320312 L 128.382812 129.421875 L 125.152344 129.464844 L 122.023438 129.464844 L 119 129.414062 L 116.089844 129.320312 L 113.289062 129.1875 L 110.605469 129.015625 L 108.042969 128.8125 L 105.605469 128.582031 L 103.292969 128.328125 L 101.109375 128.054688 L 99.054688 127.761719 L 97.136719 127.460938 L 95.355469 127.152344 L 93.707031 126.839844 L 90.832031 126.226562 L 89.605469 125.933594 L 88.519531 125.660156 L 86.773438 125.171875 L 86.113281 124.96875 L 85.589844 124.800781 L 84.972656 124.589844 L 84.867188 124.550781 L 84.902344 124.5625 L 85.074219 124.632812 L 85.375 124.761719 L 85.808594 124.957031 L 86.371094 125.21875 L 87.871094 125.960938 L 88.800781 126.449219 L 89.847656 127.019531 L 92.28125 128.414062 L 98.375 132.3125 L 100.285156 133.640625 L 102.289062 135.082031 L 106.570312 138.332031 L 108.835938 140.140625 L 111.171875 142.074219 L 116.042969 146.316406 L 118.558594 148.621094 L 121.125 151.050781 L 126.371094 156.277344 L 137.128906 168.148438 L 139.839844 171.398438 L 142.539062 174.753906 L 147.90625 181.769531 L 150.554688 185.421875 L 153.171875 189.164062 L 158.300781 196.898438 L 160.800781 200.878906 L 163.25 204.933594 L 167.976562 213.222656 L 176.636719 230.363281 L 178.617188 234.726562 L 180.515625 239.109375 L 184.066406 247.894531 L 185.714844 252.289062 L 187.273438 256.667969 L 190.121094 265.371094 L 191.414062 269.675781 L 192.613281 273.9375 L 193.726562 278.15625 L 194.75 282.316406 L 195.683594 286.417969 L 196.53125 290.449219 L 197.292969 294.402344 L 197.972656 298.277344 L 198.570312 302.058594 L 199.09375 305.746094 L 199.535156 309.332031 L 199.90625 312.8125 L 200.210938 316.175781 L 200.445312 319.421875 L 200.621094 322.542969 L 200.738281 325.535156 L 200.804688 328.390625 L 200.820312 331.105469 L 200.789062 333.679688 L 200.722656 336.105469 L 200.621094 338.382812 L 200.488281 340.5 L 200.335938 342.464844 L 200.164062 344.269531 L 199.980469 345.878906 L 199.792969 347.335938 L 199.605469 348.628906 L 199.421875 349.761719 L 199.246094 350.734375 L 199.085938 351.542969 L 198.835938 352.671875 L 198.757812 352.996094 L 198.714844 353.15625 L 198.714844 353.160156 L 198.761719 353 L 198.863281 352.6875 L 199.019531 352.21875 L 199.53125 350.828125 L 199.894531 349.914062 L 200.332031 348.855469 L 201.457031 346.324219 L 202.152344 344.859375 L 202.9375 343.269531 L 204.796875 339.726562 L 205.882812 337.78125 L 207.066406 335.730469 L 209.761719 331.332031 L 216.488281 321.5 L 218.453125 318.863281 L 220.535156 316.164062 L 225.035156 310.617188 L 227.457031 307.777344 L 229.988281 304.90625 L 235.386719 299.085938 L 238.246094 296.152344 L 241.210938 293.207031 L 247.441406 287.320312 L 261.019531 275.707031 L 264.621094 272.871094 L 268.300781 270.074219 L 275.867188 264.617188 L 279.742188 261.964844 L 283.671875 259.367188 L 291.667969 254.363281 L 295.726562 251.960938 L 299.8125 249.632812 L 308.054688 245.203125 L 324.617188 237.328125 L 328.457031 235.691406 L 332.28125 234.128906 L 339.84375 231.246094 L 343.574219 229.917969 L 347.261719 228.671875 L 354.492188 226.414062 L 358.023438 225.398438 L 361.488281 224.460938 L 364.886719 223.597656 L 368.210938 222.804688 L 371.457031 222.085938 L 374.621094 221.4375 L 377.695312 220.851562 L 380.679688 220.335938 L 383.5625 219.878906 L 386.347656 219.484375 L 389.023438 219.144531 L 391.589844 218.859375 L 394.046875 218.628906 L 396.382812 218.441406 L 398.597656 218.296875 L 400.691406 218.195312 L 402.660156 218.128906 L 404.496094 218.097656 L 406.203125 218.09375 L 407.777344 218.113281 L 409.214844 218.152344 L 410.511719 218.210938 L 411.671875 218.277344 L 412.691406 218.355469 L 413.570312 218.433594 L 414.308594 218.511719 L 414.902344 218.582031 L 415.351562 218.644531 L 415.660156 218.691406 L 415.828125 218.71875 L 415.851562 218.722656 L 415.730469 218.699219 L 415.472656 218.644531 L 415.078125 218.550781 L 414.542969 218.417969 L 413.871094 218.238281 L 413.066406 218.011719 L 412.132812 217.734375 L 409.875 217 L 408.5625 216.542969 L 407.125 216.015625 L 403.910156 214.746094 L 402.132812 214 L 400.253906 213.175781 L 396.191406 211.28125 L 394.015625 210.203125 L 391.753906 209.039062 L 386.976562 206.445312 L 376.574219 200.136719 L 373.589844 198.167969 L 370.546875 196.085938 L 364.316406 191.589844 L 361.144531 189.179688 L 357.941406 186.65625 L 351.46875 181.292969 L 348.210938 178.457031 L 344.953125 175.519531 L 338.449219 169.355469 L 325.675781 155.96875 L 322.566406 152.425781 L 319.5 148.8125 L 313.523438 141.398438 L 310.621094 137.609375 L 307.785156 133.773438 L 302.320312 125.984375 L 299.695312 122.042969 L 297.15625 118.078125 L 292.320312 110.105469 L 283.726562 94.191406 L 281.808594 90.257812 L 279.988281 86.355469 L 276.640625 78.679688 L 275.109375 74.917969 L 273.671875 71.21875 L 271.089844 64.023438 L 269.9375 60.542969 L 268.875 57.152344 L 267.90625 53.851562 L 267.019531 50.652344 L 266.222656 47.558594 L 265.503906 44.574219 L 264.300781 38.964844 L 263.804688 36.347656 L 263.382812 33.863281 L 263.019531 31.515625 L 262.71875 29.3125 L 262.46875 27.25 L 262.273438 25.339844 L 262.121094 23.578125 L 262.011719 21.976562 L 261.933594 20.53125 L 261.886719 19.246094 L 261.867188 18.125 L 261.863281 17.171875 L 261.875 16.382812 L 261.894531 15.761719 L 261.914062 15.308594 L 261.933594 15.023438 L 261.941406 14.910156 L 261.9375 14.945312 L 261.917969 15.128906 L 261.875 15.453125 L 261.808594 15.925781 L 261.707031 16.542969 L 261.574219 17.300781 L 261.402344 18.195312 L 261.1875 19.230469 L 260.925781 20.402344 L 260.609375 21.707031 L 260.238281 23.144531 L 259.8125 24.707031 L 259.320312 26.394531 L 258.136719 30.125 L 257.4375 32.164062 L 256.667969 34.3125 L 254.882812 38.917969 L 253.871094 41.371094 L 252.773438 43.910156 L 250.316406 49.25 L 248.953125 52.035156 L 247.5 54.890625 L 244.320312 60.800781 L 236.851562 73.234375 L 234.753906 76.441406 L 232.566406 79.675781 L 227.921875 86.203125 L 225.46875 89.484375 L 222.933594 92.773438 L 217.609375 99.347656 L 214.832031 102.621094 L 211.976562 105.875 L 206.054688 112.324219 L 193.457031 124.8125 L 190.171875 127.824219 L 186.839844 130.78125 L 180.0625 136.527344 L 176.625 139.304688 L 173.160156 142.015625 L 166.171875 147.226562 L 162.660156 149.722656 L 159.144531 152.136719 L 152.113281 156.726562 L 138.234375 164.898438 L 134.898438 166.6875 L 131.605469 168.390625 L 125.148438 171.546875 L 121.996094 173 L 118.90625 174.367188 L 112.917969 176.855469 L 110.035156 177.976562 L 107.226562 179.015625 L 101.867188 180.867188 L 99.324219 181.679688 L 96.878906 182.421875 L 92.292969 183.699219 L 90.160156 184.238281 L 88.140625 184.71875 L 86.234375 185.140625 L 84.453125 185.507812 L 82.789062 185.820312 L 81.25 186.089844 L 79.84375 186.3125 L 78.5625 186.492188 L 77.414062 186.636719 L 76.402344 186.75 L 75.527344 186.835938 L 74.789062 186.894531 L 74.1875 186.933594 L 73.730469 186.957031 L 73.410156 186.96875 L 73.234375 186.972656 L 73.199219 186.972656 L 73.308594 186.972656 L 73.554688 186.980469 L 73.945312 186.996094 L 74.476562 187.027344 L 75.144531 187.078125 L 75.953125 187.148438 L 76.898438 187.246094 L 77.980469 187.375 L 79.195312 187.539062 L 80.539062 187.742188 L 82.015625 187.984375 L 83.613281 188.277344 L 85.339844 188.617188 L 89.148438 189.460938 L 91.226562 189.972656 L 93.414062 190.542969 L 98.105469 191.890625 L 100.601562 192.667969 L 103.191406 193.515625 L 108.636719 195.445312 L 111.484375 196.527344 L 114.40625 197.6875 L 120.464844 200.257812 L 133.265625 206.40625 L 136.867188 208.304688 L 140.503906 210.304688 L 147.878906 214.601562 L 151.597656 216.890625 L 155.332031 219.28125 L 162.816406 224.332031 L 166.550781 226.988281 L 170.273438 229.730469 L 177.652344 235.460938 L 191.992188 247.777344 L 195.453125 251.011719 L 198.859375 254.296875 L 205.46875 261.003906 L 208.664062 264.414062 L 211.785156 267.851562 L 217.777344 274.796875 L 220.640625 278.289062 L 223.414062 281.785156 L 228.675781 288.773438 L 238.003906 302.519531 L 240.078125 305.867188 L 242.050781 309.171875 L 245.675781 315.605469 L 247.332031 318.722656 L 248.882812 321.769531 L 251.683594 327.613281 L 252.933594 330.398438 L 254.085938 333.082031 L 256.105469 338.136719 L 256.980469 340.492188 L 257.769531 342.726562 L 259.097656 346.816406 L 259.648438 348.660156 L 260.125 350.363281 L 260.53125 351.925781 L 260.878906 353.339844 L 261.164062 354.605469 L 261.398438 355.714844 L 261.582031 356.671875 L 261.71875 357.464844 L 261.820312 358.101562 L 261.886719 358.574219 L 261.925781 358.882812 L 261.941406 359.027344 L 261.9375 359.003906 L 261.925781 358.8125 L 261.90625 358.457031 L 261.882812 357.9375 L 261.867188 357.300781 L 261.863281 356.519531 L 261.867188 355.597656 L 261.890625 354.53125 L 261.9375 353.328125 L 262.007812 351.984375 L 262.109375 350.503906 L 262.246094 348.890625 L 262.421875 347.148438 L 262.636719 345.273438 L 262.898438 343.273438 L 263.210938 341.152344 L 263.574219 338.914062 L 263.996094 336.554688 L 265.019531 331.511719 L 265.628906 328.832031 L 266.304688 326.050781 L 267.871094 320.210938 L 268.765625 317.160156 L 269.734375 314.027344 L 271.914062 307.542969 L 273.121094 304.199219 L 274.410156 300.796875 L 277.238281 293.832031 L 283.886719 279.425781 L 285.753906 275.757812 L 287.703125 272.070312 L 291.832031 264.679688 L 294.015625 260.980469 L 296.269531 257.285156 L 300.988281 249.941406 L 303.449219 246.300781 L 305.976562 242.6875 L 311.207031 235.558594 L 322.289062 221.84375 L 325.164062 218.550781 L 328.078125 215.324219 L 333.984375 209.066406 L 336.972656 206.050781 L 339.972656 203.109375 L 346.007812 197.464844 L 349.027344 194.769531 L 352.039062 192.160156 L 358.035156 187.210938 L 369.734375 178.425781 L 372.804688 176.304688 L 375.816406 174.296875 L 381.648438 170.621094 L 384.449219 168.949219 L 387.171875 167.390625 L 392.339844 164.597656 L 394.777344 163.359375 L 397.105469 162.222656 L 401.417969 160.253906 L 403.390625 159.410156 L 405.234375 158.660156 L 408.515625 157.417969 L 409.945312 156.917969 L 411.230469 156.496094 L 413.34375 155.851562 L 414.164062 155.625 L 414.828125 155.453125 L 415.664062 155.257812 L 415.835938 155.222656 L 415.839844 155.222656 L 415.671875 155.25 L 415.339844 155.300781 L 414.835938 155.371094 L 414.164062 155.449219 L 413.320312 155.535156 L 412.3125 155.621094 L 411.132812 155.699219 L 409.792969 155.769531 L 408.285156 155.820312 L 406.617188 155.847656 L 404.789062 155.847656 L 402.804688 155.816406 L 400.667969 155.746094 L 398.378906 155.632812 L 395.945312 155.472656 L 393.371094 155.257812 L 390.65625 154.984375 L 387.8125 154.648438 L 384.839844 154.25 L 381.742188 153.78125 L 378.527344 153.242188 L 375.203125 152.621094 L 371.773438 151.925781 L 368.242188 151.144531 L 364.621094 150.28125 L 360.910156 149.332031 L 357.117188 148.289062 L 353.253906 147.160156 L 345.335938 144.628906 L 341.292969 143.222656 L 337.203125 141.722656 L 328.917969 138.445312 L 324.738281 136.667969 L 320.539062 134.800781 L 312.121094 130.800781 L 307.992188 128.710938 L 303.871094 126.539062 L 295.695312 121.964844 L 291.648438 119.570312 L 287.640625 117.109375 L 279.753906 111.988281 L 275.890625 109.34375 L 272.085938 106.644531 L 264.675781 101.113281 L 250.785156 89.632812 L 247.53125 86.707031 L 244.371094 83.773438 L 238.351562 77.898438 L 235.496094 74.972656 L 232.746094 72.058594 L 227.574219 66.300781 L 225.152344 63.46875 L 222.84375 60.675781 L 218.570312 55.234375 L 211.382812 45.113281 L 209.867188 42.773438 L 208.460938 40.527344 L 205.972656 36.320312 L 204.882812 34.375 L 203.898438 32.539062 L 202.21875 29.222656 L 201.519531 27.75 L 200.90625 26.40625 L 199.933594 24.128906 L 199.566406 23.203125 L 199.269531 22.417969 L 198.878906 21.300781 L 198.769531 20.972656 L 198.714844 20.796875 L 198.710938 20.777344 L 198.75 20.917969 L 198.824219 21.222656 L 198.933594 21.683594 L 199.066406 22.308594 L 199.222656 23.09375 L 199.394531 24.039062 L 199.578125 25.148438 L 199.765625 26.417969 L 199.953125 27.84375 L 200.136719 29.429688 L 200.308594 31.171875 L 200.460938 33.066406 L 200.59375 35.113281 L 200.695312 37.15625 L 200.769531 39.324219 L 200.808594 41.617188 L 200.816406 44.03125 L 200.785156 46.566406 L 200.714844 49.214844 L 200.59375 51.972656 L 200.425781 54.839844 L 200.207031 57.808594 L 199.933594 60.878906 L 199.601562 64.042969 L 199.207031 67.296875 L 198.753906 70.640625 L 198.234375 74.0625 L 197.648438 77.5625 L 196.996094 81.136719 L 196.269531 84.773438 L 195.472656 88.472656 L 194.605469 92.226562 L 193.664062 96.035156 L 192.648438 99.886719 L 191.554688 103.777344 L 189.148438 111.65625 L 187.835938 115.632812 L 186.445312 119.628906 L 183.445312 127.648438 L 181.839844 131.664062 L 180.160156 135.675781 L 176.601562 143.660156 L 174.726562 147.621094 L 172.785156 151.558594 L 168.730469 159.335938 L 166.621094 163.167969 L 164.460938 166.949219 L 159.996094 174.359375 L 157.703125 177.980469 L 155.371094 181.535156 L 150.613281 188.4375 L 140.839844 201.316406 L 138.367188 204.324219 L 135.894531 207.242188 L 130.960938 212.796875 L 128.511719 215.429688 L 126.078125 217.964844 L 121.292969 222.734375 L 118.945312 224.964844 L 116.636719 227.09375 L 112.152344 231.039062 L 103.871094 237.6875 L 101.816406 239.207031 L 99.851562 240.609375 L 96.21875 243.070312 L 94.5625 244.128906 L 93.023438 245.082031 L 90.304688 246.671875 L 89.132812 247.316406 L 88.097656 247.863281 L 86.441406 248.691406 L 85.828125 248.976562 L 85.363281 249.1875 L 85.046875 249.320312 L 84.886719 249.386719 L 84.882812 249.390625 L 85.035156 249.332031 L 85.347656 249.222656 L 85.820312 249.066406 L 86.457031 248.867188 L 87.253906 248.632812 L 89.339844 248.074219 L 90.628906 247.765625 L 92.078125 247.441406 L 93.6875 247.109375 L 95.457031 246.773438 L 97.382812 246.441406 L 99.46875 246.121094 L 101.703125 245.8125 L 104.09375 245.523438 L 106.628906 245.257812 L 109.304688 245.027344 L 112.125 244.828125 L 115.082031 244.667969 L 118.167969 244.554688 L 121.386719 244.488281 L 124.722656 244.476562 L 128.179688 244.519531 L 131.746094 244.625 L 135.421875 244.792969 L 139.199219 245.03125 L 143.070312 245.339844 L 147.03125 245.722656 L 151.074219 246.179688 L 155.191406 246.714844 L 159.378906 247.332031 L 163.628906 248.03125 L 167.9375 248.8125 L 172.292969 249.675781 L 176.6875 250.625 L 181.117188 251.660156 L 185.578125 252.777344 L 194.546875 255.269531 L 199.042969 256.640625 L 203.539062 258.09375 L 212.5 261.238281 L 216.953125 262.925781 L 221.371094 264.6875 L 230.101562 268.421875 L 234.109375 270.253906 L 238.074219 272.140625 L 245.835938 276.054688 L 249.625 278.082031 L 253.347656 280.144531 L 260.578125 284.378906 L 264.074219 286.535156 L 267.492188 288.71875 L 274.058594 293.132812 L 286.0625 302.027344 L 288.808594 304.238281 L 291.453125 306.433594 L 296.421875 310.753906 L 298.742188 312.871094 L 300.953125 314.949219 L 305.039062 318.980469 L 306.917969 320.917969 L 308.683594 322.800781 L 311.882812 326.371094 L 316.984375 332.613281 L 317.996094 333.960938 L 318.90625 335.210938 L 320.429688 337.410156 L 321.050781 338.347656 L 321.582031 339.179688 L 322.378906 340.492188 L 322.652344 340.972656 L 322.847656 341.324219 L 322.96875 341.554688 L 323.019531 341.652344 L 323.003906 341.621094 L 322.925781 341.457031 L 322.601562 340.726562 L 322.363281 340.152344 L 322.078125 339.441406 L 321.394531 337.605469 L 321.003906 336.476562 L 320.585938 335.207031 L 319.6875 332.257812 L 319.21875 330.574219 L 318.742188 328.753906 L 318.265625 326.796875 L 317.785156 324.707031 L 317.3125 322.488281 L 316.851562 320.136719 L 316.40625 317.660156 L 315.976562 315.054688 L 315.582031 312.386719 L 315.210938 309.605469 L 314.871094 306.710938 L 314.5625 303.707031 L 314.292969 300.601562 L 314.0625 297.394531 L 313.878906 294.09375 L 313.738281 290.699219 L 313.648438 287.214844 L 313.613281 283.648438 L 313.628906 280 L 313.703125 276.28125 L 313.839844 272.488281 L 314.035156 268.632812 L 314.292969 264.71875 L 314.613281 260.75 L 315 256.730469 L 315.457031 252.667969 L 315.980469 248.566406 L 316.570312 244.429688 L 317.230469 240.265625 L 317.957031 236.082031 L 319.625 227.664062 L 320.558594 223.445312 L 321.5625 219.226562 L 323.765625 210.808594 L 324.964844 206.621094 L 326.230469 202.457031 L 328.9375 194.207031 L 330.375 190.136719 L 331.871094 186.109375 L 335.011719 178.199219 L 336.652344 174.328125 L 338.339844 170.515625 L 341.824219 163.09375 L 343.617188 159.492188 L 345.441406 155.964844 L 349.15625 149.160156 L 356.753906 136.636719 L 358.664062 133.746094 L 360.570312 130.957031 L 364.339844 125.691406 L 366.199219 123.21875 L 368.035156 120.855469 L 371.609375 116.457031 L 373.34375 114.421875 L 375.03125 112.5 L 378.261719 108.992188 L 383.984375 103.300781 L 385.339844 102.054688 L 386.601562 100.9375 L 388.816406 99.066406 L 389.761719 98.304688 L 390.589844 97.660156 L 391.886719 96.703125 L 392.34375 96.382812 L 392.671875 96.164062 L 392.863281 96.039062 L 392.917969 96.003906 L 392.828125 96.058594 L 392.59375 96.191406 L 391.6875 96.691406 L 391.007812 97.039062 L 390.179688 97.453125 L 388.054688 98.441406 L 386.765625 99.007812 L 385.316406 99.609375 L 381.960938 100.910156 L 380.050781 101.597656 L 377.992188 102.300781 L 375.78125 103.015625 L 373.421875 103.734375 L 370.917969 104.453125 L 368.269531 105.167969 L 362.550781 106.554688 L 359.488281 107.21875 L 356.296875 107.855469 L 352.980469 108.460938 L 349.539062 109.027344 L 345.980469 109.554688 L 342.308594 110.039062 L 338.527344 110.472656 L 334.644531 110.851562 L 330.667969 111.175781 L 326.597656 111.4375 L 322.441406 111.640625 L 318.207031 111.773438 L 313.902344 111.835938 L 309.53125 111.832031 L 305.097656 111.75 L 300.613281 111.59375 L 296.082031 111.363281 L 291.511719 111.054688 L 286.90625 110.664062 L 282.28125 110.195312 L 277.632812 109.648438 L 272.976562 109.023438 L 268.316406 108.316406 L 263.660156 107.53125 L 259.011719 106.671875 L 254.382812 105.730469 L 249.773438 104.71875 L 245.199219 103.632812 L 240.664062 102.476562 L 236.171875 101.253906 L 227.34375 98.613281 L 223.3125 97.296875 L 219.339844 95.933594 L 211.59375 93.074219 L 207.828125 91.585938 L 204.144531 90.058594 L 197.023438 86.921875 L 193.597656 85.3125 L 190.265625 83.6875 L 183.894531 80.394531 L 172.40625 73.777344 L 169.8125 72.140625 L 167.328125 70.523438 L 162.710938 67.363281 L 160.578125 65.828125 L 158.566406 64.332031 L 154.890625 61.46875 L 153.234375 60.113281 L 151.695312 58.816406 L 148.96875 56.40625 L 144.898438 52.476562 L 144.160156 51.703125 L 143.53125 51.023438 L 142.582031 49.953125 L 142.261719 49.570312 L 142.035156 49.292969 L 141.902344 49.125 L 141.859375 49.074219 L 141.90625 49.132812 L 142.035156 49.3125 L 142.527344 50.039062 L 144.339844 52.988281 L 144.9375 54.046875 L 145.589844 55.238281 L 147.019531 58.011719 L 147.789062 59.59375 L 148.59375 61.308594 L 150.273438 65.125 L 151.140625 67.230469 L 152.023438 69.457031 L 153.804688 74.292969 L 154.695312 76.894531 L 155.578125 79.613281 L 157.316406 85.402344 L 158.226562 88.726562 L 159.113281 92.179688 L 159.964844 95.753906 L 160.78125 99.445312 L 161.554688 103.25 L 162.285156 107.160156 L 162.960938 111.175781 L 163.585938 115.285156 L 164.152344 119.484375 L 164.65625 123.769531 L 165.09375 128.132812 L 165.46875 132.566406 L 165.769531 137.066406 L 166 141.625 L 166.152344 146.230469 L 166.230469 150.882812 L 166.230469 155.570312 L 166.152344 160.289062 L 165.996094 165.03125 L 165.757812 169.785156 L 165.4375 174.546875 L 165.039062 179.3125 L 164.5625 184.066406 L 164.003906 188.808594 L 163.371094 193.53125 L 162.660156 198.21875 L 161.875 202.875 L 161.015625 207.488281 L 160.089844 212.050781 L 159.09375 216.554688 L 156.917969 225.367188 L 155.742188 229.664062 L 154.511719 233.875 L 151.90625 242.03125 L 150.539062 245.964844 L 149.136719 249.792969 L 146.246094 257.117188 L 144.765625 260.601562 L 143.273438 263.96875 L 140.261719 270.316406 L 134.3125 281.40625 L 132.878906 283.828125 L 131.472656 286.109375 L 128.789062 290.242188 L 127.519531 292.089844 L 126.308594 293.792969 L 124.078125 296.765625 L 123.074219 298.035156 L 122.148438 299.167969 L 120.566406 301.011719 L 118.601562 303.09375 L 118.398438 303.289062 L 118.304688 303.378906 L 118.316406 303.371094 L 118.4375 303.261719 L 118.675781 303.058594 L 119.03125 302.765625 L 120.101562 301.925781 L 120.820312 301.386719 L 121.664062 300.773438 L 123.734375 299.34375 L 129.425781 295.804688 L 131.175781 294.808594 L 133.054688 293.773438 L 137.203125 291.617188 L 139.46875 290.503906 L 141.859375 289.375 L 147.015625 287.089844 L 149.773438 285.941406 L 152.652344 284.800781 L 158.753906 282.539062 L 161.972656 281.433594 L 165.292969 280.347656 L 172.242188 278.253906 L 175.863281 277.257812 L 179.574219 276.296875 L 183.367188 275.375 L 187.246094 274.5 L 191.203125 273.671875 L 195.230469 272.894531 L 199.324219 272.167969 L 203.480469 271.496094 L 207.691406 270.886719 L 211.953125 270.335938 L 216.261719 269.847656 L 220.613281 269.421875 L 224.996094 269.066406 L 229.40625 268.773438 L 233.839844 268.550781 L 238.289062 268.394531 L 242.746094 268.308594 L 247.210938 268.292969 L 251.671875 268.347656 L 256.128906 268.46875 L 260.570312 268.664062 L 264.992188 268.921875 L 269.386719 269.25 L 273.75 269.644531 L 278.078125 270.105469 L 282.363281 270.628906 L 286.601562 271.210938 L 290.78125 271.855469 L 294.90625 272.554688 L 298.964844 273.308594 L 306.867188 274.96875 L 310.625 275.851562 L 314.304688 276.777344 L 321.402344 278.730469 L 324.816406 279.753906 L 328.128906 280.804688 L 334.457031 282.972656 L 337.460938 284.078125 L 340.355469 285.195312 L 345.808594 287.445312 L 355.296875 291.867188 L 357.363281 292.933594 L 359.308594 293.972656 L 362.824219 295.953125 L 368.347656 299.402344 L 369.417969 300.128906 L 370.363281 300.796875 L 371.890625 301.921875 L 372.476562 302.378906 L 372.945312 302.75 L 373.542969 303.25 L 373.671875 303.363281 L 373.695312 303.382812 L 373.617188 303.308594 L 373.433594 303.132812 L 373.152344 302.855469 L 372.78125 302.472656 L 371.761719 301.378906 L 371.125 300.664062 L 370.410156 299.835938 L 368.753906 297.828125 L 364.679688 292.378906 L 363.53125 290.714844 L 362.335938 288.929688 L 359.828125 284.996094 L 358.53125 282.847656 L 357.207031 280.582031 L 354.5 275.695312 L 353.128906 273.078125 L 351.75 270.351562 L 348.992188 264.5625 L 347.625 261.503906 L 346.265625 258.347656 L 343.597656 251.734375 L 342.1875 247.988281 L 340.8125 244.136719 L 339.476562 240.1875 L 338.179688 236.140625 L 336.929688 232.003906 L 335.730469 227.78125 L 333.5 219.113281 L 332.476562 214.675781 L 331.515625 210.175781 L 330.621094 205.625 L 329.800781 201.027344 L 329.050781 196.390625 L 328.371094 191.722656 L 327.769531 187.023438 L 327.246094 182.308594 L 326.800781 177.582031 L 326.433594 172.851562 L 326.144531 168.125 L 325.9375 163.40625 L 325.808594 158.707031 L 325.753906 154.03125 L 325.78125 149.386719 L 325.882812 144.78125 L 326.058594 140.21875 L 326.308594 135.710938 L 326.628906 131.261719 L 327.019531 126.878906 L 327.472656 122.566406 L 327.992188 118.335938 L 328.570312 114.1875 L 329.203125 110.128906 L 329.890625 106.171875 L 330.625 102.3125 L 331.40625 98.558594 L 332.222656 94.921875 L 333.078125 91.398438 L 333.964844 88 L 335.804688 81.578125 L 336.75 78.566406 L 337.707031 75.691406 L 339.625 70.363281 L 340.578125 67.917969 L 341.515625 65.617188 L 343.332031 61.460938 L 344.199219 59.609375 L 345.027344 57.90625 L 346.554688 54.964844 L 348.917969 50.886719 L 349.335938 50.238281 L 349.667969 49.738281 L 349.914062 49.375 L 350.074219 49.15625 L 350.132812 49.074219 L 350.09375 49.125 L 349.949219 49.308594 L 349.695312 49.617188 L 349.359375 50.015625 L 348.917969 50.515625 L 347.726562 51.820312 L 346.964844 52.609375 L 346.097656 53.488281 L 344.015625 55.496094 L 342.800781 56.613281 L 341.46875 57.804688 L 338.449219 60.375 L 330.96875 66.152344 L 328.800781 67.703125 L 326.515625 69.285156 L 321.589844 72.519531 L 318.957031 74.164062 L 316.207031 75.824219 L 310.382812 79.15625 L 307.308594 80.820312 L 304.132812 82.476562 L 297.480469 85.75 L 294.015625 87.359375 L 290.457031 88.941406 L 283.089844 92.019531 L 279.285156 93.503906 L 275.40625 94.949219 L 267.449219 97.707031 L 263.378906 99.011719 L 259.257812 100.261719 L 250.867188 102.601562 L 246.609375 103.679688 L 242.320312 104.695312 L 238.003906 105.648438 L 233.667969 106.535156 L 229.3125 107.359375 L 224.949219 108.109375 L 220.582031 108.796875 L 216.210938 109.410156 L 211.851562 109.957031 L 207.503906 110.429688 L 203.175781 110.835938 L 198.875 111.171875 L 194.601562 111.4375 L 190.363281 111.636719 L 186.167969 111.769531 L 182.019531 111.835938 L 177.925781 111.835938 L 173.886719 111.773438 L 169.914062 111.652344 L 166.011719 111.472656 L 162.183594 111.238281 L 158.433594 110.949219 L 154.765625 110.605469 L 151.1875 110.21875 L 147.414062 109.746094 L 143.753906 109.226562 L 140.214844 108.664062 L 136.800781 108.0625 L 133.515625 107.425781 L 130.363281 106.757812 L 124.472656 105.359375 L 121.746094 104.640625 L 119.164062 103.910156 L 114.453125 102.453125 L 112.332031 101.734375 L 110.363281 101.03125 L 106.902344 99.699219 L 105.410156 99.082031 L 104.078125 98.503906 L 101.894531 97.492188 L 101.039062 97.066406 L 100.339844 96.707031 L 99.40625 96.195312 L 99.167969 96.058594 L 99.078125 96.003906 L 99.136719 96.039062 L 99.675781 96.398438 L 100.148438 96.734375 L 101.488281 97.726562 L 102.34375 98.390625 L 103.320312 99.179688 L 105.601562 101.117188 L 106.898438 102.277344 L 108.296875 103.566406 L 111.351562 106.539062 L 113 108.222656 L 114.726562 110.042969 L 118.363281 114.09375 L 126.242188 123.804688 L 128.296875 126.566406 L 130.375 129.453125 L 134.570312 135.613281 L 136.675781 138.875 L 138.777344 142.253906 L 142.949219 149.359375 L 145.007812 153.070312 L 147.039062 156.886719 L 151 164.804688 L 152.921875 168.898438 L 154.796875 173.074219 L 158.386719 181.644531 L 160.0625 185.949219 L 161.679688 190.308594 L 164.71875 199.164062 L 166.136719 203.652344 L 167.480469 208.167969 L 169.945312 217.265625 L 171.058594 221.828125 L 172.097656 226.394531 L 173.054688 230.957031 L 173.933594 235.507812 L 174.726562 240.039062 L 175.441406 244.542969 L 176.078125 249.015625 L 176.632812 253.449219 L 177.105469 257.835938 L 177.503906 262.167969 L 177.824219 266.441406 L 178.070312 270.648438 L 178.246094 274.78125 L 178.347656 278.835938 L 178.382812 282.804688 L 178.355469 286.679688 L 178.265625 290.460938 L 178.113281 294.136719 L 177.910156 297.707031 L 177.65625 301.160156 L 177.355469 304.5 L 177.011719 307.710938 L 176.632812 310.800781 L 176.21875 313.753906 L 175.773438 316.574219 L 175.308594 319.253906 L 174.824219 321.792969 L 174.324219 324.1875 L 173.816406 326.433594 L 173.308594 328.527344 L 172.304688 332.261719 L 171.820312 333.894531 L 171.355469 335.375 L 170.507812 337.863281 L 170.136719 338.871094 L 169.808594 339.71875 L 169.292969 340.953125 L 169.121094 341.339844 L 169.011719 341.574219 L 168.972656 341.65625 L 169.007812 341.59375 L 169.117188 341.382812 L 169.3125 341.03125 L 169.964844 339.910156 L 170.433594 339.152344 L 171 338.261719 L 172.449219 336.117188 L 176.679688 330.484375 L 177.9375 328.9375 L 179.296875 327.316406 L 182.34375 323.859375 L 184.027344 322.03125 L 185.820312 320.148438 L 189.730469 316.21875 L 191.851562 314.183594 L 194.078125 312.113281 L 198.851562 307.871094 L 209.652344 299.144531 L 212.605469 296.941406 L 215.652344 294.738281 L 222.019531 290.351562 L 225.335938 288.179688 L 228.734375 286.027344 L 235.769531 281.792969 L 239.402344 279.722656 L 243.097656 277.6875 L 250.683594 273.738281 L 266.480469 266.417969 L 270.535156 264.726562 L 274.617188 263.09375 L 282.851562 260.023438 L 286.992188 258.585938 L 291.144531 257.214844 L 299.453125 254.6875 L 303.597656 253.527344 L 307.730469 252.441406 L 311.84375 251.425781 L 315.929688 250.484375 L 319.988281 249.617188 L 324.011719 248.820312 L 327.992188 248.09375 L 331.925781 247.441406 L 335.804688 246.855469 L 339.628906 246.339844 L 343.386719 245.894531 L 347.078125 245.511719 L 350.699219 245.191406 L 354.238281 244.933594 L 357.695312 244.738281 L 361.066406 244.59375 L 364.34375 244.507812 L 367.523438 244.472656 L 370.605469 244.488281 L 373.578125 244.546875 L 376.445312 244.648438 L 379.199219 244.785156 L 381.839844 244.960938 L 384.359375 245.164062 L 386.953125 245.417969 L 389.402344 245.699219 L 391.699219 246 L 393.84375 246.320312 L 395.835938 246.648438 L 397.667969 246.984375 L 399.339844 247.316406 L 400.851562 247.644531 L 402.199219 247.960938 L 403.386719 248.261719 L 405.269531 248.785156 L 405.964844 249 L 406.496094 249.171875 L 406.867188 249.300781 L 407.078125 249.375 L 407.128906 249.394531 L 407.023438 249.351562 L 406.347656 249.058594 L 405.785156 248.800781 L 405.074219 248.460938 L 403.230469 247.515625 L 402.105469 246.902344 L 400.851562 246.191406 L 397.964844 244.464844 L 390.839844 239.683594 L 388.808594 238.199219 L 386.691406 236.597656 L 382.210938 233.027344 L 379.867188 231.058594 L 377.457031 228.96875 L 372.472656 224.421875 L 369.914062 221.964844 L 367.316406 219.390625 L 362.035156 213.882812 L 351.308594 201.507812 L 348.632812 198.144531 L 345.96875 194.683594 L 340.703125 187.480469 L 338.113281 183.742188 L 335.558594 179.925781 L 330.578125 172.058594 L 328.164062 168.023438 L 325.800781 163.925781 L 321.261719 155.574219 L 313.019531 138.40625 L 311.269531 134.34375 L 309.59375 130.277344 L 306.457031 122.136719 L 305.003906 118.078125 L 303.625 114.03125 L 301.09375 106.007812 L 299.945312 102.042969 L 298.871094 98.113281 L 297.878906 94.226562 L 296.957031 90.390625 L 296.113281 86.609375 L 295.34375 82.890625 L 294.644531 79.234375 L 294.019531 75.652344 L 293.460938 72.144531 L 292.972656 68.71875 L 292.550781 65.378906 L 292.1875 62.132812 L 291.886719 58.980469 L 291.644531 55.929688 L 291.457031 52.984375 L 291.316406 50.148438 L 291.226562 47.425781 L 291.183594 44.820312 L 291.179688 42.332031 L 291.210938 39.96875 L 291.277344 37.734375 L 291.371094 35.628906 L 291.492188 33.65625 L 291.632812 31.816406 L 291.789062 30.113281 L 291.957031 28.550781 L 292.132812 27.128906 L 292.308594 25.847656 L 292.488281 24.707031 L 292.65625 23.714844 L 292.816406 22.863281 L 292.960938 22.15625 L 293.082031 21.597656 L 293.179688 21.179688 L 293.25 20.90625 L 293.285156 20.777344 L 293.28125 20.789062 L 293.234375 20.945312 L 292.992188 21.667969 L 292.792969 22.234375 L 292.53125 22.933594 L 291.816406 24.722656 L 291.355469 25.804688 L 290.820312 27.007812 L 289.511719 29.769531 L 288.730469 31.320312 L 287.867188 32.976562 L 285.867188 36.59375 L 280.738281 44.917969 L 279.242188 47.15625 L 277.648438 49.457031 L 274.167969 54.25 L 272.285156 56.722656 L 270.300781 59.25 L 266.039062 64.417969 L 263.761719 67.054688 L 261.394531 69.71875 L 256.371094 75.105469 L 245.246094 85.992188 L 242.253906 88.707031 L 239.179688 91.40625 L 232.808594 96.757812 L 229.515625 99.398438 L 226.15625 102.007812 L 219.253906 107.117188 L 215.714844 109.613281 L 212.128906 112.066406 L 204.820312 116.816406 L 189.796875 125.632812 L 185.984375 127.675781 L 182.160156 129.652344 L 174.496094 133.398438 L 170.667969 135.160156 L 166.847656 136.847656 L 159.253906 139.996094 L 155.492188 141.457031 L 151.761719 142.839844 L 144.417969 145.375 L 140.8125 146.527344 L 137.257812 147.601562 L 130.328125 149.53125 L 126.964844 150.382812 L 123.671875 151.164062 L 120.453125 151.875 L 117.320312 152.519531 L 114.273438 153.09375 L 111.320312 153.609375 L 108.457031 154.058594 L 105.699219 154.453125 L 103.042969 154.789062 L 100.492188 155.074219 L 98.054688 155.308594 L 95.734375 155.496094 L 93.527344 155.636719 L 91.445312 155.742188 L 89.484375 155.808594 L 87.652344 155.84375 L 85.8125 155.851562 L 84.125 155.828125 L 82.59375 155.785156 L 81.222656 155.71875 L 80.011719 155.644531 L 78.964844 155.5625 L 78.082031 155.476562 L 77.363281 155.394531 L 76.808594 155.324219 L 76.421875 155.265625 L 76.199219 155.230469 L 76.140625 155.21875 L 76.246094 155.242188 L 76.511719 155.296875 L 77.527344 155.546875 L 78.269531 155.746094 L 79.167969 156.003906 L 81.417969 156.707031 L 82.757812 157.164062 L 84.242188 157.695312 L 87.617188 159.003906 L 89.496094 159.785156 L 91.503906 160.660156 L 95.863281 162.691406 L 105.832031 167.960938 L 108.550781 169.542969 L 111.347656 171.230469 L 117.152344 174.9375 L 120.144531 176.957031 L 123.191406 179.082031 L 129.417969 183.664062 L 132.582031 186.117188 L 135.777344 188.675781 L 142.210938 194.105469 L 155.117188 206.140625 L 158.3125 209.378906 L 161.484375 212.699219 L 167.734375 219.574219 L 170.800781 223.121094 L 173.820312 226.734375 L 179.699219 234.132812 L 182.554688 237.914062 L 185.339844 241.738281 L 190.707031 249.492188 L 200.5 265.265625 L 202.589844 268.957031 L 204.601562 272.648438 L 208.386719 279.988281 L 210.160156 283.628906 L 211.847656 287.242188 L 214.980469 294.359375 L 216.417969 297.855469 L 217.777344 301.304688 L 220.25 308.023438 L 221.367188 311.289062 L 222.402344 314.480469 L 224.246094 320.632812 L 225.050781 323.582031 L 225.789062 326.441406 L 226.453125 329.207031 L 227.054688 331.867188 L 227.585938 334.429688 L 228.058594 336.878906 L 228.472656 339.21875 L 228.828125 341.441406 L 229.132812 343.542969 L 229.390625 345.523438 L 229.601562 347.378906 L 229.769531 349.105469 L 229.898438 350.699219 L 229.996094 352.160156 L 230.066406 353.484375 L 230.105469 354.667969 L 230.128906 355.714844 L 230.132812 356.621094 L 230.125 357.382812 L 230.109375 358.003906 L 230.089844 358.476562 L 230.070312 358.808594 L 230.058594 358.992188 L 230.054688 359.035156 L 230.09375 358.683594 L 230.148438 358.292969 L 230.226562 357.761719 L 230.339844 357.085938 L 230.488281 356.277344 L 230.910156 354.246094 L 231.191406 353.03125 L 231.523438 351.683594 L 232.363281 348.613281 L 232.871094 346.898438 L 233.449219 345.0625 L 234.8125 341.054688 L 235.605469 338.886719 L 236.476562 336.621094 L 238.457031 331.800781 L 243.433594 321.132812 L 245.070312 317.945312 L 246.824219 314.679688 L 250.667969 307.941406 L 252.761719 304.484375 L 254.96875 300.980469 L 259.714844 293.851562 L 262.253906 290.246094 L 264.902344 286.621094 L 270.507812 279.34375 L 282.890625 264.890625 L 286.210938 261.339844 L 289.605469 257.824219 L 296.621094 250.9375 L 300.226562 247.574219 L 303.890625 244.273438 L 311.371094 237.882812 L 315.171875 234.796875 L 319.003906 231.796875 L 326.742188 226.054688 L 342.296875 215.710938 L 346.15625 213.378906 L 349.992188 211.152344 L 357.554688 207.015625 L 361.265625 205.109375 L 364.917969 203.3125 L 372.027344 200.039062 L 375.464844 198.5625 L 378.816406 197.191406 L 385.234375 194.757812 L 388.289062 193.691406 L 391.226562 192.71875 L 396.734375 191.054688 L 399.292969 190.355469 L 401.714844 189.734375 L 403.996094 189.195312 L 406.125 188.726562 L 408.105469 188.328125 L 409.925781 187.996094 L 411.585938 187.71875 L 413.082031 187.5 L 414.410156 187.324219 L 415.566406 187.195312 L 416.550781 187.101562 L 417.359375 187.039062 L 417.988281 187 L 418.4375 186.980469 L 418.710938 186.972656 L 418.800781 186.972656 " transform="matrix(1,0,0,1,-66,-8)"/>
</g>
</svg>
