<?xml version="1.0" encoding="UTF-8"?>
<svg xmlns="http://www.w3.org/2000/svg" xmlns:xlink="http://www.w3.org/1999/xlink" width="360pt" height="357pt" viewBox="0 0 360 357" version="1.1">
<defs>
<clipPath id="clip1">
  <path d="M 0 0 L 360 0 L 360 356.640625 L 0 356.640625 Z M 0 0 "/>
</clipPath>
</defs>
<g id="surface51">
<g clip-path="url(#clip1)" clip-rule="nonzero">
<path style="fill:none;stroke-width:1.6;stroke-linecap:square;stroke-linejoin:miter;stroke:rgb(36.84082%,50.67749%,70.979309%);stroke-opacity:1;stroke-miterlimit:3.25;" d="M 418.800781 186.226562 L 418.371094 197.289062 L 417.082031 208.28125 L 414.949219 219.132812 L 411.980469 229.777344 L 408.199219 240.140625 L 403.632812 250.164062 L 398.308594 259.78125 L 392.265625 268.929688 L 385.542969 277.558594 L 378.1875 285.609375 L 370.246094 293.03125 L 361.78125 299.78125 L 352.839844 305.820312 L 343.492188 311.113281 L 333.792969 315.625 L 323.816406 319.335938 L 313.625 322.222656 L 303.285156 324.269531 L 292.875 325.476562 L 282.457031 325.832031 L 272.105469 325.347656 L 261.886719 324.027344 L 251.875 321.890625 L 242.132812 318.953125 L 232.722656 315.246094 L 223.714844 310.800781 L 215.164062 305.652344 L 207.125 299.84375 L 199.652344 293.417969 L 192.796875 286.429688 L 186.601562 278.929688 L 181.101562 270.980469 L 176.335938 262.636719 L 172.335938 253.96875 L 169.121094 245.035156 L 166.710938 235.910156 L 165.117188 226.65625 L 164.351562 217.347656 L 164.40625 208.050781 L 165.285156 198.839844 L 166.972656 189.78125 L 169.453125 180.941406 L 172.707031 172.386719 L 176.703125 164.183594 L 181.410156 156.394531 L 186.789062 149.074219 L 192.800781 142.28125 L 199.394531 136.0625 L 206.519531 130.472656 L 214.121094 125.550781 L 222.144531 121.332031 L 230.523438 117.851562 L 239.199219 115.140625 L 248.097656 113.21875 L 257.15625 112.101562 L 266.308594 111.800781 L 275.480469 112.324219 L 284.605469 113.671875 L 293.609375 115.832031 L 302.429688 118.796875 L 310.992188 122.546875 L 319.238281 127.058594 L 327.097656 132.300781 L 334.511719 138.246094 L 341.980469 145.433594 L 348.789062 153.339844 L 354.875 161.902344 L 360.179688 171.054688 L 364.648438 180.722656 L 368.242188 190.832031 L 370.917969 201.296875 L 372.648438 212.035156 L 373.410156 222.964844 L 373.1875 233.992188 L 371.976562 245.03125 L 369.777344 255.988281 L 366.601562 266.78125 L 362.460938 277.316406 L 357.386719 287.511719 L 351.410156 297.28125 L 344.570312 306.546875 L 336.914062 315.234375 L 328.503906 323.265625 L 319.386719 330.582031 L 309.640625 337.117188 L 299.332031 342.824219 L 288.535156 347.648438 L 277.335938 351.550781 L 265.8125 354.496094 L 254.050781 356.464844 L 242.140625 357.4375 L 230.171875 357.398438 L 218.234375 356.355469 L 206.414062 354.304688 L 194.804688 351.269531 L 183.488281 347.265625 L 172.554688 342.328125 L 162.082031 336.488281 L 152.152344 329.800781 L 142.832031 322.308594 L 134.195312 314.070312 L 126.300781 305.15625 L 119.210938 295.628906 L 112.972656 285.566406 L 107.628906 275.046875 L 103.21875 264.152344 L 99.769531 252.964844 L 97.304688 241.574219 L 95.832031 230.070312 L 95.359375 218.542969 L 95.886719 207.074219 L 97.398438 195.761719 L 99.875 184.691406 L 103.296875 173.945312 L 107.621094 163.605469 L 112.808594 153.757812 L 118.8125 144.46875 L 125.574219 135.8125 L 133.035156 127.855469 L 141.128906 120.65625 L 149.78125 114.265625 L 158.914062 108.734375 L 168.453125 104.09375 L 178.308594 100.378906 L 188.398438 97.613281 L 198.632812 95.816406 L 208.925781 94.992188 L 219.183594 95.140625 L 228.65625 96.148438 L 237.949219 97.988281 L 247 100.636719 L 255.730469 104.066406 L 264.082031 108.253906 L 271.992188 113.15625 L 279.398438 118.738281 L 286.246094 124.949219 L 292.480469 131.742188 L 298.058594 139.058594 L 302.9375 146.84375 L 307.078125 155.03125 L 310.449219 163.558594 L 313.027344 172.359375 L 314.785156 181.359375 L 315.714844 190.496094 L 315.804688 199.6875 L 315.050781 208.871094 L 313.460938 217.96875 L 311.042969 226.910156 L 307.8125 235.625 L 303.792969 244.042969 L 299.011719 252.097656 L 293.5 259.726562 L 287.300781 266.867188 L 280.449219 273.460938 L 273.003906 279.453125 L 265.011719 284.796875 L 256.527344 289.445312 L 247.617188 293.359375 L 238.34375 296.503906 L 228.769531 298.847656 L 218.96875 300.367188 L 209.007812 301.046875 L 198.957031 300.875 L 188.894531 299.847656 L 178.886719 297.957031 L 169.007812 295.21875 L 159.335938 291.644531 L 149.929688 287.25 L 140.867188 282.058594 L 132.210938 276.101562 L 124.027344 269.421875 L 116.371094 262.050781 L 109.304688 254.039062 L 102.875 245.433594 L 97.132812 236.296875 L 92.121094 226.679688 L 87.878906 216.648438 L 84.441406 206.269531 L 81.828125 195.605469 L 80.070312 184.730469 L 79.175781 173.714844 L 79.15625 162.632812 L 80.011719 151.550781 L 81.746094 140.550781 L 84.347656 129.699219 L 87.800781 119.070312 L 92.085938 108.734375 L 97.171875 98.757812 L 103.03125 89.207031 L 109.621094 80.140625 L 116.902344 71.625 L 124.824219 63.710938 L 133.167969 56.585938 L 142.023438 50.132812 L 151.335938 44.394531 L 161.046875 39.398438 L 171.09375 35.179688 L 181.410156 31.757812 L 191.933594 29.15625 L 202.589844 27.386719 L 213.320312 26.457031 L 224.046875 26.371094 L 234.707031 27.121094 L 245.230469 28.699219 L 255.550781 31.09375 L 265.601562 34.28125 L 275.316406 38.234375 L 284.636719 42.925781 L 293.503906 48.320312 L 301.863281 54.371094 L 309.664062 61.039062 L 316.851562 68.273438 L 323.390625 76.023438 L 329.234375 84.226562 L 334.355469 92.832031 L 338.71875 101.769531 L 342.304688 110.984375 L 345.089844 120.398438 L 347.066406 129.957031 L 348.222656 139.582031 L 348.5625 149.210938 L 348.082031 158.773438 L 346.792969 168.203125 L 344.710938 177.429688 L 341.859375 186.390625 L 338.261719 195.027344 L 333.949219 203.269531 L 328.957031 211.066406 L 323.324219 218.359375 L 317.101562 225.097656 L 310.332031 231.234375 L 303.074219 236.726562 L 295.375 241.535156 L 287.304688 245.628906 L 278.917969 248.976562 L 270.28125 251.550781 L 261.460938 253.34375 L 252.523438 254.332031 L 243.539062 254.515625 L 234.570312 253.890625 L 225.6875 252.460938 L 216.960938 250.238281 L 208.453125 247.238281 L 200.230469 243.480469 L 192.359375 238.992188 L 184.894531 233.800781 L 177.894531 227.953125 L 171.417969 221.480469 L 165.511719 214.429688 L 160.226562 206.855469 L 155.601562 198.808594 L 151.675781 190.34375 L 148.480469 181.523438 L 146.050781 172.40625 L 144.402344 163.058594 L 143.554688 153.550781 L 143.554688 143.125 L 144.519531 132.675781 L 146.449219 122.285156 L 149.335938 112.042969 L 153.164062 102.03125 L 157.910156 92.339844 L 163.542969 83.046875 L 170.023438 74.234375 L 177.308594 65.972656 L 185.347656 58.335938 L 194.078125 51.386719 L 203.441406 45.191406 L 213.363281 39.796875 L 223.777344 35.257812 L 234.605469 31.613281 L 245.761719 28.894531 L 257.164062 27.136719 L 268.730469 26.347656 L 280.375 26.550781 L 292 27.742188 L 303.527344 29.917969 L 314.867188 33.070312 L 325.933594 37.175781 L 336.644531 42.210938 L 346.917969 48.136719 L 356.671875 54.917969 L 365.839844 62.496094 L 374.351562 70.828125 L 382.140625 79.84375 L 389.152344 89.480469 L 395.332031 99.667969 L 400.636719 110.328125 L 405.027344 121.386719 L 408.472656 132.757812 L 410.949219 144.355469 L 412.441406 156.09375 L 412.945312 167.886719 L 412.453125 179.648438 L 410.972656 191.285156 L 408.527344 202.71875 L 405.132812 213.855469 L 400.824219 224.617188 L 395.640625 234.925781 L 389.617188 244.707031 L 382.816406 253.886719 L 375.292969 262.398438 L 367.105469 270.179688 L 358.328125 277.179688 L 349.027344 283.351562 L 339.285156 288.648438 L 329.183594 293.035156 L 318.800781 296.492188 L 308.222656 298.988281 L 297.542969 300.523438 L 286.839844 301.082031 L 276.203125 300.675781 L 265.722656 299.316406 L 255.480469 297.019531 L 245.5625 293.8125 L 236.046875 289.726562 L 227.007812 284.8125 L 218.523438 279.109375 L 210.664062 272.671875 L 203.484375 265.566406 L 197.449219 258.386719 L 192.105469 250.734375 L 187.484375 242.675781 L 183.621094 234.265625 L 180.539062 225.578125 L 178.257812 216.675781 L 176.796875 207.632812 L 176.160156 198.511719 L 176.351562 189.390625 L 177.371094 180.335938 L 179.203125 171.417969 L 181.84375 162.710938 L 185.261719 154.273438 L 189.4375 146.179688 L 194.335938 138.488281 L 199.917969 131.261719 L 206.148438 124.558594 L 212.976562 118.425781 L 220.355469 112.921875 L 228.222656 108.082031 L 236.527344 103.953125 L 245.203125 100.566406 L 254.191406 97.953125 L 263.417969 96.136719 L 272.820312 95.140625 L 282.324219 94.96875 L 291.863281 95.636719 L 301.363281 97.136719 L 310.757812 99.472656 L 319.972656 102.625 L 328.941406 106.582031 L 337.59375 111.320312 L 345.867188 116.8125 L 353.695312 123.023438 L 361.027344 129.917969 L 367.796875 137.445312 L 373.957031 145.5625 L 379.457031 154.21875 L 384.257812 163.351562 L 388.316406 172.90625 L 391.601562 182.820312 L 394.082031 193.023438 L 395.738281 203.453125 L 396.550781 214.039062 L 396.507812 224.710938 L 395.609375 235.394531 L 393.851562 246.023438 L 391.246094 256.519531 L 387.796875 266.820312 L 383.53125 276.851562 L 378.464844 286.550781 L 372.636719 295.847656 L 366.078125 304.683594 L 358.824219 313 L 350.925781 320.738281 L 342.433594 327.847656 L 333.394531 334.28125 L 323.871094 340 L 313.921875 344.957031 L 303.613281 349.128906 L 293.007812 352.484375 L 282.175781 355 L 271.1875 356.664062 L 260.113281 357.46875 L 248.09375 357.355469 L 236.152344 356.230469 L 224.371094 354.101562 L 212.839844 350.988281 L 201.652344 346.914062 L 190.886719 341.917969 L 180.625 336.042969 L 170.941406 329.335938 L 161.910156 321.855469 L 153.597656 313.660156 L 146.058594 304.824219 L 139.355469 295.414062 L 133.527344 285.511719 L 128.617188 275.195312 L 124.65625 264.554688 L 121.671875 253.671875 L 119.675781 242.640625 L 118.675781 231.550781 L 118.675781 220.488281 L 119.660156 209.550781 L 121.621094 198.820312 L 124.53125 188.386719 L 128.355469 178.332031 L 133.050781 168.742188 L 138.578125 159.691406 L 144.882812 151.253906 L 151.898438 143.492188 L 159.5625 136.472656 L 167.800781 130.25 L 176.542969 124.871094 L 185.703125 120.378906 L 195.203125 116.804688 L 204.953125 114.175781 L 214.863281 112.507812 L 224.84375 111.816406 L 234.8125 112.097656 L 244.671875 113.351562 L 254.332031 115.558594 L 263.710938 118.695312 L 272.722656 122.734375 L 281.28125 127.636719 L 289.316406 133.355469 L 296.75 139.839844 L 303.511719 147.027344 L 309.546875 154.863281 L 314.789062 163.265625 L 319.195312 172.167969 L 322.722656 181.484375 L 325.332031 191.140625 L 326.996094 201.039062 L 327.699219 211.105469 L 327.425781 221.238281 L 326.175781 231.355469 L 323.949219 241.359375 L 320.761719 251.171875 L 316.636719 260.695312 L 311.597656 269.847656 L 305.6875 278.546875 L 298.945312 286.714844 L 291.421875 294.273438 L 283.175781 301.15625 L 274.273438 307.296875 L 264.78125 312.640625 L 254.773438 317.132812 L 244.523438 320.671875 L 233.929688 323.3125 L 223.074219 325.027344 L 212.042969 325.792969 L 200.917969 325.597656 L 189.78125 324.433594 L 178.722656 322.304688 L 167.828125 319.21875 L 157.183594 315.195312 L 146.863281 310.253906 L 136.957031 304.429688 L 127.535156 297.757812 L 118.671875 290.289062 L 110.4375 282.070312 L 102.894531 273.160156 L 96.101562 263.625 L 90.117188 253.527344 L 84.980469 242.941406 L 80.730469 231.941406 L 77.40625 220.613281 L 75.035156 209.035156 L 73.628906 197.289062 L 73.199219 185.464844 L 73.753906 173.644531 L 75.285156 161.914062 L 77.785156 150.363281 L 81.230469 139.070312 L 85.59375 128.125 L 90.84375 117.597656 L 96.9375 107.566406 L 103.828125 98.105469 L 111.464844 89.285156 L 119.785156 81.160156 L 128.722656 73.789062 L 138.210938 67.226562 L 148.175781 61.515625 L 158.542969 56.691406 L 169.226562 52.785156 L 180.144531 49.824219 L 191.21875 47.816406 L 202.355469 46.78125 L 213.476562 46.710938 L 224.492188 47.597656 L 235.316406 49.433594 L 245.867188 52.191406 L 256.070312 55.84375 L 265.839844 60.355469 L 275.105469 65.683594 L 283.792969 71.773438 L 291.847656 78.574219 L 299.199219 86.023438 L 305.796875 94.058594 L 311.59375 102.601562 L 316.550781 111.585938 L 320.625 120.925781 L 323.796875 130.546875 L 326.042969 140.359375 L 327.351562 150.285156 L 327.71875 160.238281 L 327.140625 170.132812 L 325.636719 179.878906 L 323.214844 189.402344 L 319.910156 198.613281 L 315.746094 207.4375 L 311.125 215.25 L 305.832031 222.601562 L 299.90625 229.4375 L 293.398438 235.703125 L 286.351562 241.355469 L 278.824219 246.347656 L 270.871094 250.640625 L 262.558594 254.203125 L 253.945312 257.007812 L 245.09375 259.03125 L 236.078125 260.25 L 226.960938 260.664062 L 217.816406 260.253906 L 208.707031 259.03125 L 199.707031 256.996094 L 190.882812 254.15625 L 182.300781 250.535156 L 174.027344 246.152344 L 166.125 241.039062 L 158.65625 235.21875 L 151.675781 228.742188 L 145.242188 221.640625 L 139.40625 213.972656 L 134.214844 205.777344 L 129.703125 197.121094 L 125.917969 188.050781 L 122.886719 178.640625 L 120.640625 168.941406 L 119.199219 159.027344 L 118.574219 148.964844 L 118.785156 138.824219 L 119.835938 128.667969 L 121.71875 118.570312 L 124.433594 108.601562 L 127.964844 98.828125 L 132.296875 89.320312 L 137.40625 80.136719 L 143.261719 71.351562 L 149.832031 63.015625 L 157.078125 55.191406 L 164.953125 47.933594 L 173.410156 41.289062 L 182.402344 35.3125 L 191.867188 30.035156 L 201.75 25.503906 L 211.984375 21.746094 L 222.507812 18.789062 L 233.257812 16.652344 L 244.164062 15.359375 L 255.152344 14.910156 L 266.160156 15.320312 L 277.117188 16.578125 L 287.949219 18.6875 L 298.585938 21.625 L 308.96875 25.378906 L 319.023438 29.921875 L 328.691406 35.226562 L 337.914062 41.257812 L 346.625 47.976562 L 354.777344 55.339844 L 362.316406 63.296875 L 369.199219 71.796875 L 375.382812 80.785156 L 380.828125 90.199219 L 385.863281 100.820312 L 389.964844 111.785156 L 393.101562 123.015625 L 395.253906 134.421875 L 396.417969 145.910156 L 396.582031 157.402344 L 395.761719 168.800781 L 393.960938 180.019531 L 391.210938 190.972656 L 387.53125 201.582031 L 382.960938 211.757812 L 377.546875 221.425781 L 371.339844 230.515625 L 364.390625 238.957031 L 356.765625 246.6875 L 348.53125 253.648438 L 339.761719 259.789062 L 330.535156 265.070312 L 320.929688 269.453125 L 311.027344 272.90625 L 300.917969 275.410156 L 290.6875 276.949219 L 280.421875 277.519531 L 270.214844 277.125 L 260.148438 275.773438 L 250.3125 273.480469 L 240.789062 270.277344 L 231.660156 266.195312 L 223.003906 261.277344 L 214.898438 255.566406 L 207.410156 249.117188 L 200.605469 241.992188 L 194.539062 234.257812 L 189.265625 225.980469 L 184.835938 217.242188 L 181.28125 208.113281 L 178.636719 198.683594 L 176.929688 189.035156 L 176.167969 179.257812 L 176.371094 169.433594 L 177.527344 159.652344 L 179.640625 150.003906 L 182.6875 140.574219 L 186.648438 131.445312 L 191.488281 122.707031 L 197.175781 114.433594 L 203.660156 106.699219 L 210.890625 99.582031 L 218.808594 93.140625 L 227.347656 87.441406 L 236.445312 82.535156 L 246.023438 78.472656 L 256.003906 75.296875 L 266.304688 73.039062 L 276.84375 71.726562 L 287.53125 71.378906 L 298.28125 72.011719 L 309.007812 73.617188 L 319.617188 76.203125 L 330.027344 79.746094 L 340.148438 84.234375 L 349.894531 89.632812 L 359.1875 95.90625 L 367.949219 103.019531 L 375.585938 110.367188 L 382.636719 118.351562 L 389.054688 126.921875 L 394.789062 136.027344 L 399.796875 145.609375 L 404.039062 155.605469 L 407.488281 165.949219 L 410.113281 176.578125 L 411.890625 187.414062 L 412.808594 198.394531 L 412.855469 209.445312 L 412.03125 220.496094 L 410.335938 231.46875 L 407.777344 242.296875 L 404.371094 252.90625 L 400.140625 263.230469 L 395.105469 273.199219 L 389.304688 282.746094 L 382.773438 291.8125 L 375.550781 300.339844 L 367.6875 308.269531 L 359.234375 315.550781 L 350.246094 322.140625 L 340.785156 327.996094 L 330.910156 333.078125 L 320.6875 337.359375 L 310.1875 340.8125 L 299.476562 343.421875 L 288.628906 345.164062 L 277.714844 346.039062 L 266.804688 346.046875 L 255.976562 345.183594 L 245.296875 343.46875 L 234.839844 340.910156 L 224.667969 337.539062 L 214.855469 333.375 L 205.464844 328.457031 L 196.554688 322.824219 L 188.179688 316.515625 L 180.402344 309.582031 L 173.261719 302.078125 L 166.8125 294.058594 L 161.085938 285.585938 L 156.121094 276.71875 L 151.949219 267.523438 L 148.589844 258.074219 L 146.058594 248.4375 L 144.371094 238.679688 L 143.535156 228.878906 L 143.542969 219.105469 L 144.394531 209.433594 L 146.078125 199.929688 L 148.566406 190.664062 L 151.84375 181.703125 L 155.878906 173.117188 L 160.632812 164.964844 L 166.070312 157.304688 L 172.140625 150.199219 L 178.796875 143.691406 L 185.984375 137.832031 L 193.644531 132.667969 L 201.71875 128.230469 L 210.144531 124.554688 L 218.847656 121.667969 L 227.589844 119.621094 L 236.46875 118.367188 L 245.421875 117.914062 L 254.378906 118.261719 L 263.269531 119.414062 L 272.035156 121.359375 L 280.601562 124.082031 L 288.90625 127.570312 L 296.886719 131.789062 L 304.480469 136.71875 L 311.632812 142.316406 L 318.285156 148.550781 L 324.386719 155.375 L 329.890625 162.738281 L 334.753906 170.59375 L 338.933594 178.886719 L 342.394531 187.554688 L 345.113281 196.539062 L 347.058594 205.777344 L 348.210938 215.207031 L 348.5625 224.753906 L 348.097656 234.359375 L 346.820312 243.953125 L 344.730469 253.464844 L 341.832031 262.828125 L 338.144531 271.976562 L 333.683594 280.847656 L 328.476562 289.375 L 322.554688 297.496094 L 315.949219 305.160156 L 308.699219 312.300781 L 300.847656 318.875 L 292.449219 324.832031 L 283.550781 330.128906 L 274.207031 334.71875 L 264.476562 338.578125 L 254.425781 341.667969 L 244.109375 343.964844 L 233.601562 345.453125 L 222.960938 346.117188 L 212.261719 345.945312 L 201.566406 344.9375 L 190.949219 343.09375 L 180.472656 340.425781 L 170.207031 336.941406 L 160.214844 332.667969 L 150.566406 327.625 L 141.3125 321.84375 L 132.519531 315.355469 L 124.242188 308.207031 L 116.535156 300.433594 L 109.441406 292.085938 L 103.007812 283.21875 L 97.277344 273.886719 L 92.28125 264.144531 L 88.050781 254.054688 L 84.613281 243.683594 L 81.988281 233.097656 L 80.191406 222.355469 L 79.230469 211.53125 L 79.105469 200.695312 L 79.820312 189.90625 L 81.367188 179.242188 L 83.726562 168.765625 L 87.191406 157.683594 L 91.5625 146.984375 L 96.800781 136.742188 L 102.867188 127.035156 L 109.707031 117.925781 L 117.261719 109.488281 L 125.46875 101.777344 L 134.257812 94.847656 L 143.5625 88.75 L 153.304688 83.523438 L 163.398438 79.199219 L 173.765625 75.808594 L 184.320312 73.363281 L 194.976562 71.886719 L 205.652344 71.371094 L 216.253906 71.820312 L 226.699219 73.214844 L 236.902344 75.542969 L 246.78125 78.777344 L 256.253906 82.875 L 265.25 87.804688 L 273.695312 93.515625 L 281.519531 99.949219 L 288.664062 107.050781 L 295.066406 114.753906 L 300.683594 122.992188 L 305.464844 131.679688 L 309.378906 140.75 L 312.390625 150.121094 L 314.476562 159.703125 L 315.625 169.414062 L 315.832031 179.171875 L 315.089844 188.882812 L 313.410156 198.46875 L 310.808594 207.835938 L 307.308594 216.910156 L 302.941406 225.605469 L 297.746094 233.847656 L 291.765625 241.5625 L 285.050781 248.675781 L 277.660156 255.125 L 269.652344 260.855469 L 261.101562 265.804688 L 252.078125 269.9375 L 242.65625 273.203125 L 232.914062 275.570312 L 222.941406 277.019531 L 212.816406 277.523438 L 202.625 277.078125 L 192.457031 275.671875 L 182.394531 273.320312 L 172.527344 270.027344 L 162.941406 265.816406 L 153.710938 260.710938 L 144.921875 254.753906 L 136.648438 247.976562 L 128.964844 240.4375 L 121.933594 232.183594 L 115.617188 223.277344 L 110.078125 213.785156 L 105.363281 203.777344 L 101.515625 193.332031 L 98.574219 182.523438 L 96.570312 171.4375 L 95.5625 160.910156 L 95.402344 150.285156 L 96.09375 139.628906 L 97.640625 129.011719 L 100.03125 118.503906 L 103.265625 108.179688 L 107.316406 98.101562 L 112.167969 88.339844 L 117.789062 78.960938 L 124.144531 70.027344 L 131.199219 61.59375 L 138.90625 53.71875 L 147.222656 46.457031 L 156.09375 39.855469 L 165.460938 33.957031 L 175.269531 28.800781 L 185.457031 24.417969 L 195.957031 20.839844 L 206.699219 18.089844 L 217.617188 16.183594 L 228.644531 15.132812 L 239.707031 14.945312 L 250.730469 15.617188 L 261.652344 17.144531 L 272.398438 19.515625 L 282.898438 22.714844 L 293.089844 26.710938 L 302.902344 31.480469 L 312.28125 36.992188 L 321.160156 43.199219 L 329.488281 50.0625 L 337.214844 57.535156 L 344.285156 65.558594 L 350.667969 74.085938 L 356.3125 83.046875 L 361.199219 92.382812 L 365.289062 102.03125 L 368.566406 111.925781 L 371.011719 121.992188 L 372.617188 132.164062 L 373.378906 142.371094 L 373.296875 152.542969 L 372.375 162.605469 L 370.632812 172.496094 L 368.085938 182.140625 L 364.753906 191.476562 L 360.675781 200.4375 L 355.878906 208.96875 L 350.40625 217.003906 L 344.304688 224.492188 L 337.617188 231.386719 L 330.402344 237.632812 L 322.714844 243.199219 L 314.617188 248.042969 L 306.167969 252.132812 L 297.4375 255.445312 L 288.488281 257.957031 L 279.390625 259.65625 L 270.214844 260.53125 L 261.027344 260.582031 L 251.90625 259.808594 L 242.914062 258.222656 L 234.121094 255.835938 L 225.59375 252.667969 L 216.730469 248.382812 L 208.339844 243.253906 L 200.492188 237.324219 L 193.261719 230.648438 L 186.714844 223.292969 L 180.914062 215.3125 L 175.910156 206.785156 L 171.75 197.785156 L 168.480469 188.394531 L 166.128906 178.691406 L 164.71875 168.765625 L 164.273438 158.699219 L 164.800781 148.589844 L 166.300781 138.519531 L 168.765625 128.582031 L 172.183594 118.863281 L 176.53125 109.449219 L 181.773438 100.421875 L 187.878906 91.871094 L 194.796875 83.863281 L 202.476562 76.480469 L 210.859375 69.785156 L 219.886719 63.839844 L 229.476562 58.703125 L 239.566406 54.425781 L 250.070312 51.046875 L 260.90625 48.601562 L 271.988281 47.121094 L 283.234375 46.621094 L 294.546875 47.117188 L 305.84375 48.613281 L 317.03125 51.101562 L 328.019531 54.574219 L 338.722656 59.007812 L 349.054688 64.375 L 358.933594 70.636719 L 368.277344 77.757812 L 377.015625 85.679688 L 385.074219 94.347656 L 392.390625 103.699219 L 398.90625 113.671875 L 404.566406 124.183594 L 409.328125 135.160156 L 413.15625 146.519531 L 416.011719 158.175781 L 417.878906 170.042969 L 418.738281 182.03125 L 418.585938 194.050781 L 417.421875 206.015625 L 415.253906 217.828125 L 412.101562 229.402344 L 407.988281 240.65625 L 402.949219 251.5 L 397.027344 261.855469 L 390.261719 271.648438 L 382.714844 280.800781 L 374.445312 289.25 L 365.515625 296.9375 L 356.003906 303.800781 L 345.980469 309.800781 L 335.527344 314.886719 L 324.726562 319.035156 L 313.671875 322.210938 L 302.441406 324.402344 L 291.335938 325.582031 L 280.238281 325.800781 L 269.234375 325.0625 L 258.402344 323.378906 L 247.828125 320.777344 L 237.59375 317.277344 L 227.773438 312.917969 L 218.441406 307.742188 L 209.671875 301.796875 L 201.523438 295.132812 L 194.0625 287.8125 L 187.34375 279.902344 L 181.410156 271.46875 L 176.3125 262.585938 L 172.078125 253.332031 L 168.738281 243.785156 L 166.320312 234.027344 L 164.828125 224.144531 L 164.277344 214.214844 L 164.664062 204.332031 L 165.976562 194.574219 L 168.203125 185.023438 L 171.316406 175.765625 L 175.289062 166.878906 L 180.082031 158.433594 L 185.652344 150.507812 L 191.949219 143.167969 L 198.917969 136.476562 L 206.496094 130.488281 L 214.613281 125.261719 L 223.207031 120.839844 L 232.195312 117.261719 L 241.5 114.5625 L 251.046875 112.761719 L 260.746094 111.886719 L 270.519531 111.941406 L 280.28125 112.929688 L 289.945312 114.851562 L 299.429688 117.691406 L 308.652344 121.429688 L 317.53125 126.046875 L 325.984375 131.5 L 333.945312 137.753906 L 341.339844 144.761719 L 348.101562 152.46875 L 354.171875 160.820312 L 359.492188 169.746094 L 364.011719 179.183594 L 367.6875 189.058594 L 370.484375 199.292969 L 372.371094 209.808594 L 373.324219 220.519531 L 373.332031 231.351562 L 372.382812 242.210938 L 370.476562 253.015625 L 367.617188 263.683594 L 363.828125 274.128906 L 359.121094 284.265625 L 353.535156 294.019531 L 347.097656 303.3125 L 339.859375 312.070312 L 331.863281 320.222656 L 323.167969 327.703125 L 313.832031 334.457031 L 304.609375 340.046875 L 294.941406 344.917969 L 284.894531 349.03125 L 274.527344 352.363281 L 263.910156 354.886719 L 253.101562 356.582031 L 242.175781 357.433594 L 231.199219 357.441406 L 220.242188 356.601562 L 209.375 354.914062 L 198.660156 352.394531 L 188.175781 349.054688 L 177.976562 344.914062 L 168.132812 340.003906 L 158.707031 334.351562 L 149.753906 327.996094 L 141.335938 320.976562 L 133.496094 313.339844 L 126.289062 305.140625 L 119.753906 296.421875 L 113.9375 287.253906 L 108.863281 277.683594 L 104.570312 267.785156 L 101.078125 257.613281 L 98.402344 247.242188 L 96.5625 236.738281 L 95.558594 226.167969 L 95.398438 215.601562 L 96.078125 205.109375 L 97.582031 194.757812 L 99.894531 184.617188 L 103.003906 174.75 L 106.871094 165.222656 L 111.476562 156.09375 L 116.773438 147.421875 L 122.726562 139.265625 L 129.289062 131.671875 L 136.410156 124.695312 L 144.039062 118.371094 L 152.113281 112.742188 L 160.578125 107.84375 L 169.371094 103.703125 L 178.421875 100.34375 L 187.671875 97.78125 L 197.046875 96.03125 L 206.480469 95.097656 L 215.90625 94.988281 L 225.253906 95.6875 L 234.457031 97.195312 L 243.445312 99.492188 L 252.15625 102.550781 L 260.523438 106.355469 L 268.492188 110.863281 L 276 116.046875 L 282.992188 121.855469 L 289.421875 128.253906 L 295.234375 135.179688 L 300.398438 142.589844 L 304.867188 150.421875 L 308.609375 158.617188 L 311.597656 167.109375 L 313.808594 175.839844 L 315.226562 184.742188 L 315.84375 193.742188 L 315.589844 203.539062 L 314.386719 213.289062 L 312.234375 222.90625 L 309.152344 232.296875 L 305.164062 241.382812 L 300.300781 250.082031 L 294.601562 258.316406 L 288.105469 266.007812 L 280.875 273.085938 L 272.957031 279.488281 L 264.421875 285.152344 L 255.335938 290.023438 L 245.773438 294.058594 L 235.816406 297.207031 L 225.535156 299.445312 L 215.023438 300.738281 L 204.363281 301.074219 L 193.640625 300.4375 L 182.945312 298.828125 L 172.363281 296.25 L 161.984375 292.714844 L 151.890625 288.242188 L 142.164062 282.863281 L 132.894531 276.609375 L 124.148438 269.527344 L 116.003906 261.664062 L 108.527344 253.074219 L 101.785156 243.824219 L 95.832031 233.972656 L 90.71875 223.601562 L 86.492188 212.78125 L 83.183594 201.589844 L 80.828125 190.117188 L 79.449219 178.441406 L 79.058594 166.65625 L 79.667969 154.84375 L 81.265625 143.09375 L 83.855469 131.5 L 87.414062 120.140625 L 91.914062 109.105469 L 97.328125 98.476562 L 103.617188 88.332031 L 110.734375 78.746094 L 118.625 69.792969 L 127.234375 61.539062 L 136.492188 54.039062 L 146.332031 47.351562 L 156.683594 41.527344 L 167.460938 36.597656 L 178.582031 32.605469 L 189.972656 29.578125 L 201.535156 27.523438 L 213.191406 26.464844 L 224.847656 26.398438 L 236.414062 27.320312 L 247.808594 29.21875 L 258.941406 32.070312 L 269.734375 35.851562 L 280.097656 40.523438 L 289.960938 46.046875 L 299.25 52.367188 L 307.898438 59.433594 L 315.839844 67.183594 L 323.015625 75.546875 L 328.984375 83.84375 L 334.203125 92.554688 L 338.648438 101.613281 L 342.292969 110.953125 L 345.117188 120.503906 L 347.105469 130.199219 L 348.253906 139.960938 L 348.554688 149.722656 L 348.019531 159.417969 L 346.652344 168.964844 L 344.472656 178.304688 L 341.5 187.359375 L 337.765625 196.074219 L 333.296875 204.378906 L 328.136719 212.214844 L 322.328125 219.523438 L 315.914062 226.253906 L 308.953125 232.359375 L 301.496094 237.792969 L 293.601562 242.515625 L 285.335938 246.492188 L 276.765625 249.699219 L 267.953125 252.105469 L 258.96875 253.699219 L 249.882812 254.46875 L 240.765625 254.40625 L 231.691406 253.515625 L 222.726562 251.800781 L 213.945312 249.273438 L 205.414062 245.949219 L 197.199219 241.859375 L 189.367188 237.03125 L 181.980469 231.496094 L 175.09375 225.292969 L 168.769531 218.472656 L 163.054688 211.082031 L 157.992188 203.175781 L 153.632812 194.804688 L 150.007812 186.039062 L 147.152344 176.933594 L 145.089844 167.558594 L 143.847656 157.984375 L 143.433594 148.277344 L 143.863281 138.511719 L 145.132812 128.753906 L 147.246094 119.078125 L 150.191406 109.550781 L 153.957031 100.25 L 158.519531 91.238281 L 163.855469 82.585938 L 169.925781 74.351562 L 176.703125 66.605469 L 184.144531 59.394531 L 192.195312 52.78125 L 200.8125 46.8125 L 209.9375 41.535156 L 219.511719 36.988281 L 229.476562 33.210938 L 239.761719 30.230469 L 250.300781 28.074219 L 261.03125 26.761719 L 271.875 26.304688 L 282.761719 26.714844 L 293.625 27.984375 L 305.277344 30.335938 L 316.730469 33.6875 L 327.882812 38.011719 L 338.65625 43.28125 L 348.964844 49.460938 L 358.726562 56.503906 L 367.871094 64.363281 L 376.324219 72.972656 L 384.023438 82.269531 L 390.910156 92.1875 L 396.929688 102.648438 L 402.039062 113.574219 L 406.199219 124.878906 L 409.378906 136.480469 L 411.5625 148.289062 L 412.730469 160.210938 L 412.878906 172.15625 L 412.011719 184.035156 L 410.136719 195.753906 L 407.277344 207.226562 L 403.457031 218.367188 L 398.714844 229.085938 L 393.085938 239.304688 L 386.628906 248.949219 L 379.394531 257.945312 L 371.445312 266.226562 L 362.847656 273.730469 L 353.683594 280.410156 L 344.023438 286.210938 L 333.953125 291.097656 L 323.554688 295.035156 L 312.917969 298.003906 L 302.128906 299.984375 L 291.285156 300.96875 L 280.472656 300.957031 L 269.78125 299.960938 L 259.304688 297.992188 L 249.125 295.082031 L 239.328125 291.257812 L 230 286.5625 L 221.210938 281.039062 L 213.039062 274.75 L 205.550781 267.753906 L 198.804688 260.109375 L 192.855469 251.898438 L 187.753906 243.195312 L 183.542969 234.074219 L 180.253906 224.625 L 177.910156 214.9375 L 176.535156 205.09375 L 176.132812 195.183594 L 176.707031 185.304688 L 178.25 175.539062 L 180.75 165.980469 L 184.179688 156.71875 L 188.507812 147.832031 L 193.695312 139.40625 L 199.703125 131.523438 L 206.46875 124.246094 L 213.9375 117.652344 L 222.042969 111.800781 L 230.714844 106.746094 L 239.875 102.539062 L 249.449219 99.222656 L 259.164062 96.871094 L 269.113281 95.433594 L 279.210938 94.933594 L 289.375 95.378906 L 299.515625 96.777344 L 309.550781 99.121094 L 319.390625 102.398438 L 328.957031 106.589844 L 338.164062 111.671875 L 346.9375 117.601562 L 355.199219 124.34375 L 362.875 131.851562 L 369.902344 140.066406 L 376.21875 148.933594 L 381.765625 158.382812 L 386.496094 168.347656 L 390.359375 178.75 L 393.328125 189.519531 L 395.363281 200.566406 L 396.449219 211.816406 L 396.566406 223.175781 L 395.710938 234.566406 L 393.878906 245.894531 L 391.082031 257.082031 L 387.328125 268.035156 L 382.652344 278.675781 L 377.074219 288.925781 L 370.636719 298.699219 L 363.382812 307.929688 L 355.363281 316.542969 L 346.632812 324.472656 L 337.257812 331.664062 L 327.300781 338.054688 L 316.835938 343.605469 L 305.941406 348.269531 L 294.695312 352.011719 L 283.175781 354.804688 L 271.472656 356.632812 L 259.671875 357.480469 L 247.851562 357.34375 L 236.109375 356.226562 L 224.519531 354.136719 L 213.175781 351.09375 L 202.160156 347.121094 L 191.546875 342.257812 L 181.417969 336.539062 L 171.84375 330.015625 L 162.890625 322.734375 L 154.625 314.757812 L 147.105469 306.148438 L 140.382812 296.976562 L 134.503906 287.316406 L 129.503906 277.242188 L 125.417969 266.835938 L 122.265625 256.179688 L 120.070312 245.355469 L 118.839844 234.457031 L 118.574219 223.5625 L 119.269531 212.761719 L 120.90625 202.136719 L 123.472656 191.773438 L 126.933594 181.75 L 131.257812 172.152344 L 136.394531 163.046875 L 141.886719 155.058594 L 148.003906 147.621094 L 154.695312 140.777344 L 161.910156 134.574219 L 169.589844 129.054688 L 177.679688 124.253906 L 186.117188 120.199219 L 194.832031 116.921875 L 203.757812 114.441406 L 212.832031 112.769531 L 221.984375 111.914062 L 231.140625 111.882812 L 240.238281 112.667969 L 249.203125 114.261719 L 257.964844 116.652344 L 266.464844 119.816406 L 274.632812 123.730469 L 282.40625 128.363281 L 289.726562 133.679688 L 296.539062 139.636719 L 302.789062 146.191406 L 308.429688 153.289062 L 313.417969 160.882812 L 317.710938 168.914062 L 321.273438 177.316406 L 324.078125 186.035156 L 326.097656 195 L 327.320312 204.144531 L 327.722656 213.402344 L 327.304688 222.707031 L 326.066406 231.980469 L 324.003906 241.160156 L 321.136719 250.171875 L 317.472656 258.953125 L 313.039062 267.433594 L 307.859375 275.550781 L 301.964844 283.246094 L 295.394531 290.453125 L 288.195312 297.121094 L 280.40625 303.199219 L 272.078125 308.636719 L 263.273438 313.386719 L 254.042969 317.417969 L 244.449219 320.695312 L 234.558594 323.183594 L 224.433594 324.867188 L 214.144531 325.722656 L 203.757812 325.738281 L 193.347656 324.914062 L 182.980469 323.242188 L 172.726562 320.730469 L 162.652344 317.390625 L 152.832031 313.242188 L 143.328125 308.304688 L 134.207031 302.605469 L 125.527344 296.179688 L 117.351562 289.0625 L 109.734375 281.300781 L 102.722656 272.941406 L 96.371094 264.03125 L 90.71875 254.632812 L 85.800781 244.800781 L 81.660156 234.59375 L 78.316406 224.085938 L 75.625 212.417969 L 73.917969 200.558594 L 73.21875 188.589844 L 73.523438 176.605469 L 74.835938 164.691406 L 77.140625 152.9375 L 80.421875 141.433594 L 84.65625 130.265625 L 89.804688 119.511719 L 95.832031 109.253906 L 102.683594 99.570312 L 110.304688 90.527344 L 118.644531 82.195312 L 127.625 74.628906 L 137.179688 67.882812 L 147.230469 62.007812 L 157.699219 57.042969 L 168.503906 53.015625 L 179.554688 49.957031 L 190.769531 47.878906 L 202.050781 46.796875 L 213.320312 46.703125 L 224.480469 47.597656 L 235.445312 49.460938 L 246.128906 52.273438 L 256.453125 56.003906 L 266.328125 60.609375 L 275.683594 66.054688 L 284.445312 72.277344 L 292.546875 79.226562 L 299.921875 86.835938 L 306.519531 95.035156 L 312.289062 103.75 L 317.191406 112.90625 L 321.183594 122.417969 L 324.246094 132.203125 L 326.355469 142.171875 L 327.5 152.242188 L 327.675781 162.316406 L 326.886719 172.316406 L 325.148438 182.148438 L 322.476562 191.726562 L 318.898438 200.964844 L 314.457031 209.785156 L 309.1875 218.109375 L 303.140625 225.863281 L 296.371094 232.980469 L 288.949219 239.394531 L 280.933594 245.046875 L 272.398438 249.886719 L 263.421875 253.875 L 254.082031 256.96875 L 244.464844 259.140625 L 234.65625 260.371094 L 224.742188 260.636719 L 214.8125 259.941406 L 204.957031 258.285156 L 195.257812 255.671875 L 185.808594 252.125 L 176.691406 247.667969 L 167.988281 242.332031 L 159.777344 236.160156 L 152.136719 229.203125 L 145.132812 221.507812 L 139.230469 213.714844 L 133.988281 205.386719 L 129.453125 196.582031 L 125.667969 187.363281 L 122.65625 177.789062 L 120.453125 167.933594 L 119.082031 157.859375 L 118.554688 147.640625 L 118.886719 137.347656 L 120.078125 127.054688 L 122.128906 116.832031 L 125.035156 106.753906 L 128.773438 96.890625 L 133.335938 87.308594 L 138.6875 78.082031 L 144.800781 69.273438 L 151.636719 60.945312 L 159.160156 53.160156 L 167.316406 45.96875 L 176.058594 39.421875 L 185.328125 33.574219 L 195.070312 28.464844 L 205.21875 24.128906 L 215.707031 20.597656 L 226.472656 17.898438 L 237.441406 16.054688 L 248.539062 15.078125 L 259.703125 14.976562 L 270.851562 15.753906 L 281.914062 17.40625 L 292.820312 19.921875 L 303.496094 23.285156 L 313.875 27.476562 L 323.886719 32.46875 L 333.472656 38.222656 L 342.5625 44.707031 L 351.097656 51.875 L 359.03125 59.679688 L 366.3125 68.0625 L 372.886719 76.972656 L 378.722656 86.351562 L 383.777344 96.128906 L 388.027344 106.246094 L 391.441406 116.625 L 394.007812 127.203125 L 395.710938 137.90625 L 396.546875 148.660156 L 396.511719 159.394531 L 395.609375 170.039062 L 393.859375 180.515625 L 391.273438 190.757812 L 387.878906 200.695312 L 383.703125 210.265625 L 378.777344 219.398438 L 373.148438 228.039062 L 366.859375 236.128906 L 359.960938 243.617188 L 352.503906 250.449219 L 344.546875 256.585938 L 336.152344 261.992188 L 327.382812 266.625 L 318.308594 270.46875 L 308.996094 273.488281 L 299.515625 275.679688 L 290.128906 277.003906 L 280.71875 277.515625 L 271.351562 277.21875 L 262.097656 276.109375 L 253.019531 274.210938 L 244.1875 271.539062 L 235.664062 268.117188 L 227.507812 263.976562 L 219.78125 259.144531 L 212.539062 253.667969 L 205.832031 247.585938 L 199.710938 240.945312 L 194.21875 233.804688 L 189.398438 226.207031 L 185.277344 218.21875 L 181.898438 209.902344 L 179.273438 201.3125 L 177.433594 192.523438 L 176.386719 183.59375 L 176.144531 174.59375 L 176.710938 165.59375 L 178.078125 156.660156 L 180.246094 147.859375 L 183.195312 139.257812 L 186.90625 130.921875 L 191.359375 122.914062 L 196.523438 115.296875 L 202.363281 108.128906 L 208.835938 101.464844 L 215.90625 95.359375 L 223.515625 89.855469 L 231.621094 85 L 240.160156 80.835938 L 249.082031 77.390625 L 258.320312 74.703125 L 267.808594 72.792969 L 277.492188 71.679688 L 287.292969 71.378906 L 297.148438 71.898438 L 306.992188 73.242188 L 316.75 75.402344 L 326.359375 78.378906 L 335.753906 82.152344 L 344.863281 86.707031 L 353.628906 92.011719 L 361.984375 98.042969 L 369.875 104.761719 L 377.246094 112.128906 L 384.039062 120.101562 L 390.210938 128.632812 L 395.714844 137.664062 L 400.511719 147.144531 L 404.566406 157.015625 L 407.847656 167.214844 L 410.332031 177.679688 L 412 188.339844 L 412.839844 199.132812 L 412.835938 209.984375 L 411.992188 220.835938 L 410.308594 231.609375 L 407.792969 242.246094 L 404.457031 252.667969 L 400.328125 262.816406 L 395.421875 272.625 L 389.261719 282.808594 L 382.273438 292.445312 L 374.503906 301.464844 L 366.015625 309.800781 L 356.871094 317.390625 L 347.136719 324.179688 L 336.886719 330.121094 L 326.195312 335.171875 L 315.148438 339.296875 L 303.828125 342.46875 L 292.316406 344.671875 L 280.699219 345.886719 L 269.070312 346.117188 L 257.511719 345.359375 L 246.113281 343.628906 L 234.960938 340.945312 L 224.132812 337.335938 L 213.714844 332.828125 L 203.78125 327.472656 L 194.40625 321.308594 L 185.660156 314.394531 L 177.605469 306.789062 L 170.296875 298.558594 L 163.789062 289.773438 L 158.125 280.511719 L 153.347656 270.84375 L 149.484375 260.855469 L 146.558594 250.632812 L 144.585938 240.257812 L 143.578125 229.816406 L 143.53125 219.402344 L 144.441406 209.09375 L 146.289062 198.984375 L 149.058594 189.152344 L 152.710938 179.679688 L 157.21875 170.648438 L 162.527344 162.128906 L 168.589844 154.195312 L 175.351562 146.910156 L 182.75 140.335938 L 190.714844 134.523438 L 199.175781 129.527344 L 208.050781 125.382812 L 217.269531 122.125 L 226.742188 119.785156 L 236.386719 118.375 L 246.113281 117.910156 L 255.84375 118.398438 L 265.484375 119.828125 L 274.953125 122.191406 L 284.164062 125.472656 L 293.03125 129.636719 L 301.480469 134.65625 L 309.429688 140.484375 L 316.8125 147.074219 L 323.558594 154.375 L 329.605469 162.324219 L 334.898438 170.855469 L 339.382812 179.898438 L 343.015625 189.382812 L 345.761719 199.222656 L 347.589844 209.339844 L 348.476562 219.648438 L 348.40625 230.066406 L 347.472656 239.808594 L 345.703125 249.5 L 343.097656 259.066406 L 339.675781 268.4375 L 335.449219 277.550781 L 330.445312 286.335938 L 324.691406 294.726562 L 318.222656 302.660156 L 311.078125 310.082031 L 303.300781 316.9375 L 294.945312 323.167969 L 286.054688 328.734375 L 276.695312 333.585938 L 266.921875 337.691406 L 256.800781 341.015625 L 246.390625 343.53125 L 235.769531 345.214844 L 225 346.054688 L 214.15625 346.035156 L 203.304688 345.15625 L 192.515625 343.417969 L 181.867188 340.828125 L 171.425781 337.402344 L 161.257812 333.15625 L 151.433594 328.117188 L 142.011719 322.316406 L 133.0625 315.785156 L 124.636719 308.570312 L 116.792969 300.710938 L 109.578125 292.261719 L 103.046875 283.277344 L 97.234375 273.808594 L 92.179688 263.925781 L 87.914062 253.683594 L 84.460938 243.152344 L 81.847656 232.402344 L 80.085938 221.503906 L 79.183594 210.523438 L 79.144531 199.53125 L 79.964844 188.601562 L 81.640625 177.804688 L 84.152344 167.210938 L 87.480469 156.890625 L 91.597656 146.902344 L 96.476562 137.316406 L 102.078125 128.195312 L 108.363281 119.589844 L 115.28125 111.558594 L 122.789062 104.152344 L 130.820312 97.414062 L 139.328125 91.382812 L 148.246094 86.101562 L 157.511719 81.59375 L 167.054688 77.886719 L 176.8125 75 L 186.710938 72.949219 L 196.683594 71.738281 L 206.65625 71.371094 L 216.558594 71.847656 L 226.324219 73.148438 L 235.878906 75.265625 L 245.160156 78.175781 L 254.097656 81.851562 L 262.632812 86.257812 L 271.355469 91.816406 L 279.464844 98.136719 L 286.890625 105.160156 L 293.570312 112.820312 L 299.457031 121.039062 L 304.492188 129.746094 L 308.648438 138.859375 L 311.882812 148.296875 L 314.171875 157.972656 L 315.5 167.796875 L 315.859375 177.675781 L 315.25 187.527344 L 313.675781 197.261719 L 311.152344 206.785156 L 307.703125 216.011719 L 303.359375 224.863281 L 298.160156 233.253906 L 292.15625 241.105469 L 285.390625 248.347656 L 277.929688 254.910156 L 269.835938 260.734375 L 261.179688 265.765625 L 252.039062 269.953125 L 242.488281 273.25 L 232.617188 275.628906 L 222.503906 277.058594 L 212.238281 277.523438 L 201.914062 277.011719 L 191.617188 275.515625 L 181.441406 273.042969 L 171.46875 269.613281 L 161.792969 265.238281 L 152.496094 259.957031 L 143.660156 253.796875 L 135.367188 246.8125 L 127.6875 239.046875 L 120.691406 230.558594 L 114.445312 221.417969 L 109 211.6875 L 104.414062 201.445312 L 100.726562 190.769531 L 97.980469 179.742188 L 96.195312 168.449219 L 95.402344 156.976562 L 95.609375 145.417969 L 96.824219 133.859375 L 99.042969 122.394531 L 102.253906 111.109375 L 106.441406 100.097656 L 111.570312 89.441406 L 117.613281 79.226562 L 124.527344 69.53125 L 132.257812 60.433594 L 140.753906 52.003906 L 149.953125 44.308594 L 159.785156 37.410156 L 170.175781 31.355469 L 181.050781 26.199219 L 192.324219 21.976562 L 203.917969 18.71875 L 215.738281 16.449219 L 227.699219 15.191406 L 239.707031 14.945312 L 251.675781 15.714844 L 263.296875 17.453125 L 274.707031 20.144531 L 285.824219 23.765625 L 296.566406 28.292969 L 306.859375 33.683594 L 316.621094 39.894531 L 325.792969 46.878906 L 334.300781 54.578125 L 342.09375 62.929688 L 349.109375 71.867188 L 355.304688 81.324219 L 360.640625 91.21875 L 365.078125 101.476562 L 368.589844 112.015625 L 371.164062 122.75 L 372.777344 133.601562 L 373.433594 144.480469 L 373.128906 155.300781 L 371.878906 165.976562 L 369.699219 176.429688 L 366.613281 186.574219 L 362.65625 196.335938 L 357.867188 205.632812 L 352.292969 214.394531 L 345.984375 222.558594 L 338.996094 230.058594 L 331.398438 236.835938 L 323.253906 242.84375 L 314.636719 248.03125 L 305.621094 252.367188 L 296.285156 255.816406 L 286.71875 258.355469 L 276.992188 259.964844 L 267.203125 260.640625 L 257.425781 260.375 L 247.753906 259.179688 L 238.265625 257.066406 L 229.042969 254.054688 L 220.167969 250.171875 L 211.71875 245.457031 L 203.769531 239.949219 L 196.386719 233.699219 L 189.636719 226.757812 L 183.582031 219.191406 L 178.277344 211.058594 L 173.765625 202.429688 L 170.089844 193.386719 L 167.289062 183.996094 L 165.390625 174.347656 L 164.414062 164.515625 L 164.371094 154.589844 L 165.269531 144.652344 L 167.109375 134.789062 L 169.878906 125.082031 L 173.558594 115.621094 L 178.128906 106.480469 L 183.558594 97.746094 L 189.804688 89.488281 L 196.824219 81.78125 L 204.566406 74.691406 L 212.972656 68.285156 L 221.984375 62.621094 L 231.527344 57.746094 L 241.535156 53.710938 L 251.21875 50.738281 L 261.175781 48.554688 L 271.339844 47.179688 L 281.644531 46.632812 L 292.015625 46.921875 L 302.390625 48.046875 L 312.695312 50.015625 L 322.863281 52.8125 L 332.824219 56.429688 L 342.515625 60.847656 L 351.867188 66.035156 L 360.816406 71.972656 L 369.304688 78.621094 L 377.277344 85.9375 L 384.675781 93.882812 L 391.453125 102.40625 L 397.5625 111.457031 L 402.960938 120.976562 L 407.617188 130.90625 L 411.492188 141.1875 L 414.566406 151.75 L 416.816406 162.53125 L 418.226562 173.464844 L 418.789062 184.476562 L 418.5 195.5 L 417.355469 206.460938 L 415.371094 217.296875 L 412.558594 227.9375 L 408.933594 238.316406 L 404.523438 248.363281 L 399.355469 258.023438 L 393.46875 267.226562 L 386.898438 275.925781 L 379.691406 284.058594 L 371.898438 291.582031 L 363.566406 298.445312 L 354.757812 304.613281 L 345.527344 310.042969 L 335.9375 314.707031 L 326.054688 318.582031 L 315.945312 321.640625 L 305.675781 323.875 L 295.316406 325.269531 L 284.9375 325.824219 L 274.605469 325.542969 L 264.390625 324.429688 L 254.359375 322.5 L 244.582031 319.773438 L 235.121094 316.277344 L 226.035156 312.039062 L 217.394531 307.089844 L 209.242188 301.476562 L 201.644531 295.238281 L 194.640625 288.429688 L 188.28125 281.097656 L 182.601562 273.300781 L 177.644531 265.097656 L 173.433594 256.550781 L 169.996094 247.722656 L 167.355469 238.683594 L 165.519531 229.5 L 164.5 220.238281 L 164.300781 210.96875 L 164.917969 201.761719 L 166.5 191.921875 L 169.007812 182.324219 L 172.425781 173.042969 L 176.710938 164.167969 L 181.824219 155.773438 L 187.722656 147.933594 L 194.34375 140.71875 L 201.636719 134.191406 L 209.527344 128.40625 L 217.945312 123.421875 L 226.820312 119.28125 L 236.070312 116.019531 L 245.613281 113.671875 L 255.363281 112.257812 L 265.238281 111.796875 L 275.144531 112.292969 L 285 113.75 L 294.710938 116.15625 L 304.195312 119.496094 L 313.367188 123.75 L 322.144531 128.882812 L 330.445312 134.855469 L 338.199219 141.625 L 345.335938 149.140625 L 351.78125 157.335938 L 357.480469 166.15625 L 362.382812 175.527344 L 366.433594 185.371094 L 369.59375 195.617188 L 371.828125 206.179688 L 373.117188 216.976562 L 373.433594 227.921875 L 372.769531 238.925781 L 371.125 249.898438 L 368.503906 260.753906 L 364.914062 271.40625 L 360.382812 281.765625 L 354.9375 291.75 L 348.609375 301.28125 L 341.445312 310.277344 L 333.496094 318.664062 L 324.816406 326.378906 L 315.46875 333.355469 L 305.519531 339.535156 L 295.042969 344.871094 L 284.117188 349.3125 L 272.820312 352.828125 L 261.234375 355.386719 L 249.449219 356.960938 L 237.550781 357.542969 L 225.625 357.121094 L 213.765625 355.699219 L 202.058594 353.289062 L 190.589844 349.902344 L 179.449219 345.566406 L 168.710938 340.316406 L 158.464844 334.191406 L 148.777344 327.234375 L 139.722656 319.503906 L 131.371094 311.054688 L 123.777344 301.953125 L 116.996094 292.269531 L 111.078125 282.082031 L 106.0625 271.46875 L 102.222656 261.246094 L 99.21875 250.792969 L 97.070312 240.175781 L 95.78125 229.46875 L 95.359375 218.746094 L 95.800781 208.078125 L 97.09375 197.53125 L 99.226562 187.183594 L 102.179688 177.101562 L 105.925781 167.355469 L 110.433594 158 L 115.664062 149.105469 L 121.578125 140.730469 L 128.128906 132.925781 L 135.261719 125.742188 L 142.925781 119.230469 L 151.054688 113.425781 L 159.597656 108.363281 L 168.480469 104.082031 L 177.636719 100.597656 L 187.003906 97.9375 L 196.507812 96.109375 L 206.074219 95.121094 L 215.632812 94.976562 L 225.113281 95.671875 L 234.449219 97.195312 L 243.5625 99.527344 L 252.390625 102.648438 L 260.863281 106.527344 L 268.921875 111.136719 L 276.503906 116.433594 L 283.554688 122.371094 L 290.019531 128.910156 L 295.847656 135.988281 L 301 143.558594 L 305.4375 151.554688 L 309.121094 159.914062 L 312.027344 168.570312 L 314.128906 177.460938 L 315.414062 186.507812 L 315.867188 195.652344 L 315.488281 204.8125 L 314.273438 213.917969 L 312.234375 222.902344 L 309.382812 231.695312 L 305.734375 240.222656 L 301.316406 248.421875 L 296.160156 256.226562 L 290.300781 263.574219 L 283.777344 270.402344 L 276.636719 276.664062 L 268.929688 282.304688 L 260.710938 287.273438 L 252.039062 291.535156 L 242.96875 295.046875 L 233.574219 297.78125 L 223.917969 299.707031 L 214.066406 300.808594 L 204.089844 301.070312 L 194.0625 300.484375 L 184.058594 299.042969 L 174.144531 296.753906 L 164.394531 293.628906 L 154.875 289.679688 L 145.839844 285.027344 L 137.152344 279.628906 L 128.882812 273.519531 L 121.085938 266.726562 L 113.8125 259.296875 L 107.117188 251.273438 L 101.046875 242.699219 L 95.648438 233.632812 L 90.953125 224.128906 L 87 214.246094 L 83.820312 204.042969 L 81.433594 193.582031 L 79.863281 182.933594 L 79.117188 172.164062 L 79.210938 161.339844 L 80.136719 150.523438 L 81.902344 139.792969 L 84.488281 129.207031 L 87.886719 118.835938 L 92.078125 108.746094 L 97.035156 99 L 102.730469 89.65625 L 109.121094 80.777344 L 116.175781 72.414062 L 123.851562 64.621094 L 132.089844 57.445312 L 140.847656 50.929688 L 150.066406 45.117188 L 159.6875 40.039062 L 169.652344 35.726562 L 179.890625 32.207031 L 190.34375 29.496094 L 200.945312 27.605469 L 211.625 26.550781 L 222.316406 26.328125 L 232.949219 26.9375 L 243.457031 28.375 L 253.773438 30.621094 L 263.832031 33.65625 L 273.574219 37.457031 L 282.933594 42 L 291.855469 47.242188 L 300.28125 53.144531 L 308.164062 59.671875 L 315.449219 66.769531 L 322.097656 74.386719 L 328.066406 82.46875 L 333.320312 90.957031 L 337.832031 99.792969 L 341.574219 108.914062 L 344.53125 118.253906 L 346.683594 127.746094 L 348.027344 137.320312 L 348.554688 146.917969 L 348.273438 156.464844 L 347.183594 165.890625 L 345.308594 175.140625 L 342.660156 184.136719 L 339.261719 192.828125 L 335.148438 201.144531 L 330.351562 209.03125 L 324.910156 216.4375 L 318.867188 223.304688 L 312.273438 229.585938 L 304.546875 235.691406 L 296.300781 241.007812 L 287.605469 245.492188 L 278.542969 249.105469 L 269.191406 251.820312 L 259.632812 253.609375 L 249.957031 254.46875 L 240.242188 254.378906 L 230.578125 253.347656 L 221.054688 251.382812 L 211.746094 248.5 L 202.746094 244.722656 L 194.128906 240.082031 L 185.976562 234.617188 L 178.355469 228.371094 L 171.339844 221.394531 L 164.992188 213.746094 L 159.371094 205.488281 L 154.53125 196.6875 L 150.519531 187.421875 L 147.375 177.757812 L 145.132812 167.785156 L 143.8125 157.582031 L 143.4375 147.230469 L 144.019531 136.820312 L 145.5625 126.433594 L 148.054688 116.160156 L 151.492188 106.082031 L 155.847656 96.285156 L 161.097656 86.855469 L 167.207031 77.863281 L 174.132812 69.390625 L 181.832031 61.511719 L 190.242188 54.289062 L 199.304688 47.785156 L 208.957031 42.054688 L 219.128906 37.152344 L 229.742188 33.121094 L 240.71875 30 L 251.980469 27.8125 L 263.441406 26.585938 L 275.015625 26.335938 L 286.617188 27.066406 L 298.160156 28.777344 L 309.554688 31.464844 L 320.71875 35.109375 L 331.570312 39.6875 L 342.023438 45.171875 L 352 51.519531 L 361.429688 58.6875 L 370.238281 66.628906 L 378.363281 75.28125 L 385.742188 84.582031 L 392.320312 94.464844 L 398.054688 104.855469 L 402.894531 115.679688 L 406.816406 126.859375 L 409.785156 138.308594 L 411.785156 149.941406 L 412.804688 161.671875 L 412.835938 173.417969 L 411.886719 185.089844 L 409.964844 196.597656 L 407.089844 207.863281 L 403.570312 218.078125 L 399.273438 227.941406 L 394.226562 237.394531 L 388.472656 246.371094 L 382.054688 254.820312 L 375.011719 262.6875 L 367.402344 269.921875 L 359.277344 276.480469 L 350.699219 282.328125 L 341.722656 287.425781 L 332.417969 291.746094 L 322.847656 295.265625 L 313.082031 297.964844 L 303.191406 299.832031 L 293.242188 300.863281 L 283.304688 301.054688 L 273.453125 300.414062 L 263.753906 298.949219 L 254.273438 296.683594 L 245.082031 293.628906 L 236.242188 289.824219 L 227.816406 285.296875 L 219.859375 280.085938 L 212.433594 274.230469 L 205.582031 267.789062 L 199.359375 260.800781 L 193.804688 253.328125 L 188.957031 245.429688 L 184.851562 237.167969 L 181.511719 228.601562 L 178.960938 219.800781 L 177.21875 210.832031 L 176.289062 201.769531 L 176.1875 192.675781 L 176.902344 183.625 L 178.433594 174.683594 L 180.765625 165.925781 L 183.882812 157.414062 L 187.761719 149.214844 L 192.367188 141.394531 L 197.671875 134.011719 L 203.628906 127.125 L 210.203125 120.785156 L 217.339844 115.046875 L 224.984375 109.957031 L 233.085938 105.550781 L 241.585938 101.871094 L 250.414062 98.945312 L 259.511719 96.800781 L 268.8125 95.460938 L 278.242188 94.941406 L 287.738281 95.246094 L 297.226562 96.378906 L 306.640625 98.339844 L 315.902344 101.125 L 324.953125 104.710938 L 333.722656 109.082031 L 342.140625 114.214844 L 350.152344 120.078125 L 357.6875 126.636719 L 364.699219 133.84375 L 371.125 141.660156 L 376.921875 150.03125 L 382.042969 158.910156 L 386.78125 169.035156 L 390.632812 179.605469 L 393.558594 190.542969 L 395.527344 201.761719 L 396.515625 213.171875 L 396.511719 224.691406 L 395.503906 236.226562 L 393.496094 247.6875 L 390.5 258.988281 L 386.53125 270.035156 L 381.613281 280.746094 L 375.78125 291.035156 L 369.074219 300.828125 L 361.539062 310.039062 L 353.234375 318.601562 L 344.214844 326.449219 L 334.550781 333.519531 L 324.308594 339.757812 L 313.570312 345.117188 L 302.414062 349.554688 L 290.921875 353.039062 L 279.179688 355.542969 L 267.277344 357.046875 L 255.300781 357.546875 L 243.347656 357.03125 L 231.5 355.511719 L 219.851562 353.003906 L 208.484375 349.527344 L 197.488281 345.113281 L 186.945312 339.800781 L 176.929688 333.628906 L 167.515625 326.652344 L 158.773438 318.925781 L 150.765625 310.519531 L 143.550781 301.5 L 137.175781 291.941406 L 131.691406 281.921875 L 127.128906 271.519531 L 123.515625 260.824219 L 120.878906 249.921875 L 119.226562 238.902344 L 118.5625 227.851562 L 118.890625 216.859375 L 120.195312 206.019531 L 122.457031 195.414062 L 125.652344 185.132812 L 129.742188 175.253906 L 134.6875 165.859375 L 140.441406 157.023438 L 146.945312 148.816406 L 154.136719 141.300781 L 161.953125 134.539062 L 170.316406 128.582031 L 179.15625 123.476562 L 188.390625 119.261719 L 197.933594 115.964844 L 207.699219 113.613281 L 217.605469 112.222656 L 227.554688 111.796875 L 237.464844 112.339844 L 247.242188 113.839844 L 256.804688 116.285156 L 266.0625 119.648438 L 274.933594 123.894531 L 282.796875 128.625 L 290.191406 134.054688 L 297.0625 140.140625 L 303.347656 146.835938 L 309.003906 154.089844 L 313.980469 161.84375 L 318.238281 170.039062 L 321.746094 178.609375 L 324.464844 187.496094 L 326.375 196.621094 L 327.460938 205.921875 L 327.703125 215.328125 L 327.101562 224.757812 L 325.65625 234.148438 L 323.367188 243.421875 L 320.25 252.507812 L 316.320312 261.335938 L 311.605469 269.839844 L 306.132812 277.949219 L 299.9375 285.601562 L 293.0625 292.742188 L 285.550781 299.304688 L 277.453125 305.242188 L 268.824219 310.503906 L 259.722656 315.046875 L 250.207031 318.835938 L 240.347656 321.832031 L 230.207031 324.011719 L 219.859375 325.351562 L 209.371094 325.835938 L 198.820312 325.453125 L 188.273438 324.203125 L 177.808594 322.085938 L 167.496094 319.109375 L 157.40625 315.289062 L 147.613281 310.648438 L 138.179688 305.210938 L 129.175781 299.011719 L 120.664062 292.082031 L 112.703125 284.472656 L 105.34375 276.226562 L 98.644531 267.394531 L 92.652344 258.039062 L 87.402344 248.214844 L 82.933594 237.984375 L 79.28125 227.417969 L 76.46875 216.585938 L 74.511719 205.550781 L 73.433594 194.394531 L 73.230469 183.179688 L 73.910156 171.988281 L 75.46875 160.886719 L 77.890625 149.953125 L 81.164062 139.257812 L 85.261719 128.867188 L 90.160156 118.847656 L 95.820312 109.269531 L 102.203125 100.191406 L 109.265625 91.671875 L 116.957031 83.765625 L 125.226562 76.519531 L 134.015625 69.984375 L 143.257812 64.191406 L 152.894531 59.183594 L 162.660156 55.0625 L 172.675781 51.742188 L 182.867188 49.238281 L 193.175781 47.566406 L 203.523438 46.726562 L 213.851562 46.722656 L 224.085938 47.546875 L 234.160156 49.191406 L 244.003906 51.632812 L 253.558594 54.851562 L 262.753906 58.816406 L 271.539062 63.5 L 279.847656 68.863281 L 287.632812 74.859375 L 294.839844 81.445312 L 301.425781 88.570312 L 307.34375 96.175781 L 312.5625 104.210938 L 317.046875 112.609375 L 320.773438 121.3125 L 323.714844 130.25 L 325.859375 139.359375 L 327.195312 148.570312 L 327.714844 157.820312 L 327.421875 167.035156 L 326.324219 176.148438 L 324.429688 185.089844 L 321.761719 193.800781 L 318.335938 202.210938 L 314.1875 210.257812 L 309.34375 217.886719 L 303.847656 225.035156 L 297.738281 231.652344 L 291.066406 237.691406 L 283.882812 243.101562 L 276.238281 247.847656 L 268.191406 251.886719 L 259.808594 255.191406 L 251.148438 257.738281 L 242.273438 259.5 L 233.253906 260.464844 L 224.15625 260.625 L 215.050781 259.972656 L 206.003906 258.507812 L 197.085938 256.242188 L 188.359375 253.183594 L 179.894531 249.355469 L 171.753906 244.78125 L 163.996094 239.484375 L 156.6875 233.507812 L 149.882812 226.878906 L 143.628906 219.652344 L 137.980469 211.867188 L 132.980469 203.582031 L 128.671875 194.847656 L 125.085938 185.726562 L 122.261719 176.273438 L 120.214844 166.558594 L 118.972656 156.640625 L 118.550781 146.59375 L 118.953125 136.480469 L 120.1875 126.375 L 122.25 116.339844 L 125.136719 106.449219 L 129.175781 95.957031 L 134.144531 85.796875 L 140.007812 76.050781 L 146.722656 66.792969 L 154.25 58.101562 L 162.53125 50.042969 L 171.511719 42.691406 L 181.121094 36.101562 L 191.300781 30.324219 L 201.96875 25.414062 L 213.046875 21.40625 L 224.457031 18.335938 L 236.113281 16.230469 L 247.929688 15.109375 L 259.816406 14.980469 L 271.691406 15.847656 L 283.460938 17.707031 L 295.042969 20.546875 L 306.347656 24.34375 L 317.292969 29.070312 L 327.796875 34.691406 L 337.785156 41.167969 L 347.183594 48.445312 L 355.921875 56.46875 L 363.9375 65.179688 L 371.175781 74.507812 L 377.582031 84.386719 L 383.113281 94.734375 L 387.734375 105.472656 L 391.414062 116.523438 L 394.125 127.792969 L 395.859375 139.203125 L 396.605469 150.664062 L 396.367188 162.082031 L 395.148438 173.375 L 392.96875 184.457031 L 389.851562 195.246094 L 385.832031 205.652344 L 380.945312 215.601562 L 375.234375 225.019531 L 368.757812 233.832031 L 361.570312 241.980469 L 353.738281 249.398438 L 345.324219 256.03125 L 336.410156 261.839844 L 327.070312 266.777344 L 317.382812 270.808594 L 307.433594 273.910156 L 297.308594 276.066406 L 287.09375 277.257812 L 276.878906 277.492188 L 266.746094 276.769531 L 256.785156 275.101562 L 247.078125 272.507812 L 237.714844 269.019531 L 228.765625 264.675781 L 220.316406 259.507812 L 212.429688 253.578125 L 205.179688 246.929688 L 198.625 239.632812 L 192.820312 231.75 L 187.820312 223.355469 L 183.667969 214.523438 L 180.398438 205.332031 L 178.164062 196.5 L 176.746094 187.5 L 176.148438 178.394531 L 176.382812 169.257812 L 177.445312 160.164062 L 179.332031 151.175781 L 182.027344 142.371094 L 185.519531 133.8125 L 189.78125 125.570312 L 194.785156 117.707031 L 200.492188 110.289062 L 206.871094 103.371094 L 213.871094 97.007812 L 221.445312 91.253906 L 229.539062 86.15625 L 238.097656 81.757812 L 247.0625 78.09375 L 256.363281 75.199219 L 265.945312 73.101562 L 275.730469 71.820312 L 285.65625 71.371094 L 295.648438 71.765625 L 305.636719 73.007812 L 315.546875 75.089844 L 325.316406 78.015625 L 334.867188 81.757812 L 344.136719 86.308594 L 353.054688 91.632812 L 361.554688 97.707031 L 369.582031 104.488281 L 377.070312 111.941406 L 383.972656 120.015625 L 390.230469 128.664062 L 395.804688 137.832031 L 400.652344 147.457031 L 404.734375 157.484375 L 408.023438 167.84375 L 410.488281 178.46875 L 412.109375 189.292969 L 412.878906 200.25 L 412.78125 211.261719 L 411.820312 222.257812 L 409.992188 233.171875 L 407.3125 243.925781 L 403.796875 254.457031 L 399.460938 264.691406 L 394.339844 274.5625 L 388.457031 284.011719 L 381.855469 292.972656 L 374.578125 301.390625 L 366.667969 309.210938 L 358.179688 316.382812 L 349.167969 322.859375 L 339.691406 328.605469 L 329.816406 333.582031 L 319.601562 337.761719 L 309.117188 341.113281 L 298.433594 343.625 L 287.621094 345.28125 L 276.746094 346.074219 L 265.886719 346.007812 L 255.109375 345.078125 L 244.488281 343.300781 L 234.089844 340.695312 L 223.152344 336.957031 L 212.644531 332.304688 L 202.640625 326.78125 L 193.21875 320.441406 L 184.449219 313.335938 L 176.402344 305.53125 L 169.128906 297.097656 L 162.683594 288.105469 L 157.113281 278.636719 L 152.460938 268.769531 L 148.75 258.59375 L 146.007812 248.191406 L 144.246094 237.65625 L 143.472656 227.078125 L 143.6875 216.546875 L 144.878906 206.15625 L 147.03125 195.984375 L 150.113281 186.128906 L 154.097656 176.667969 L 158.9375 167.683594 L 164.589844 159.25 L 170.996094 151.441406 L 178.09375 144.324219 L 185.816406 137.957031 L 194.09375 132.394531 L 202.847656 127.683594 L 212 123.863281 L 221.460938 120.96875 L 231.144531 119.019531 L 240.96875 118.039062 L 250.835938 118.027344 L 260.660156 118.992188 L 270.347656 120.921875 L 279.8125 123.796875 L 288.972656 127.597656 L 297.734375 132.292969 L 306.023438 137.839844 L 313.757812 144.191406 L 320.871094 151.292969 L 327.289062 159.089844 L 332.957031 167.511719 L 337.8125 176.484375 L 341.8125 185.9375 L 344.914062 195.785156 L 347.085938 205.949219 L 348.296875 216.339844 L 348.53125 226.871094 L 347.777344 237.449219 L 346.035156 247.984375 L 343.3125 258.386719 L 339.621094 268.570312 L 334.984375 278.445312 L 329.433594 287.921875 L 323.007812 296.925781 L 315.75 305.371094 L 307.714844 313.1875 L 298.957031 320.308594 L 289.550781 326.664062 L 279.558594 332.203125 L 269.058594 336.871094 L 258.128906 340.628906 L 246.855469 343.4375 L 235.324219 345.265625 L 223.625 346.097656 L 212.058594 345.933594 L 200.503906 344.789062 L 189.042969 342.671875 L 177.765625 339.589844 L 166.75 335.566406 L 156.082031 330.625 L 145.84375 324.796875 L 136.105469 318.128906 L 126.945312 310.660156 L 118.425781 302.453125 L 110.613281 293.558594 L 103.5625 284.042969 L 97.328125 273.976562 L 91.953125 263.4375 L 87.476562 252.492188 L 83.929688 241.234375 L 81.335938 229.734375 L 79.710938 218.085938 L 79.066406 206.371094 L 79.402344 194.675781 L 80.710938 183.085938 L 82.980469 171.6875 L 86.191406 160.5625 L 90.308594 149.796875 L 95.300781 139.460938 L 101.125 129.636719 L 107.730469 120.390625 L 115.066406 111.792969 L 123.066406 103.898438 L 131.664062 96.769531 L 140.792969 90.445312 L 150.375 84.980469 L 160.335938 80.398438 L 170.59375 76.738281 L 181.058594 74.015625 L 191.65625 72.242188 L 202.292969 71.429688 L 212.886719 71.574219 L 223.351562 72.664062 L 233.605469 74.683594 L 243.5625 77.613281 L 253.144531 81.414062 L 262.273438 86.054688 L 270.882812 91.484375 L 278.894531 97.652344 L 286.253906 104.503906 L 292.898438 111.976562 L 298.777344 120.003906 L 303.84375 128.507812 L 308.058594 137.417969 L 311.390625 146.652344 L 313.8125 156.128906 L 315.308594 165.765625 L 315.863281 175.480469 L 315.484375 185.183594 L 314.167969 194.789062 L 311.929688 204.21875 L 308.792969 213.382812 L 304.777344 222.207031 L 299.925781 230.605469 L 294.277344 238.511719 L 287.875 245.847656 L 280.78125 252.550781 L 273.050781 258.5625 L 265.324219 263.5 L 257.15625 267.742188 L 248.609375 271.253906 L 239.746094 274.011719 L 230.628906 275.988281 L 221.324219 277.164062 L 211.898438 277.523438 L 202.429688 277.058594 L 192.976562 275.769531 L 183.613281 273.65625 L 174.410156 270.734375 L 165.433594 267.011719 L 156.75 262.515625 L 148.421875 257.265625 L 140.511719 251.296875 L 133.082031 244.644531 L 126.1875 237.351562 L 119.878906 229.464844 L 114.203125 221.03125 L 109.210938 212.105469 L 104.9375 202.746094 L 101.414062 193.011719 L 98.675781 182.96875 L 96.746094 172.679688 L 95.640625 162.214844 L 95.375 151.636719 L 95.953125 141.023438 L 97.378906 130.441406 L 99.648438 119.957031 L 102.75 109.640625 L 106.671875 99.566406 L 111.382812 89.792969 L 116.867188 80.386719 L 123.085938 71.414062 L 130.003906 62.929688 L 137.574219 54.992188 L 145.761719 47.65625 L 154.503906 40.960938 L 163.75 34.960938 L 173.445312 29.6875 L 183.527344 25.175781 L 193.929688 21.460938 L 204.585938 18.5625 L 215.433594 16.496094 L 226.398438 15.277344 L 237.417969 14.914062 L 248.410156 15.40625 L 259.316406 16.746094 L 270.0625 18.925781 L 280.582031 21.929688 L 290.808594 25.734375 L 300.671875 30.3125 L 310.121094 35.632812 L 319.085938 41.65625 L 327.519531 48.339844 L 335.363281 55.636719 L 342.574219 63.496094 L 349.109375 71.867188 L 354.925781 80.6875 L 359.988281 89.894531 L 364.277344 99.429688 L 367.757812 109.226562 L 370.421875 119.210938 L 372.257812 129.320312 L 373.296875 140.339844 L 373.351562 151.335938 L 372.429688 162.214844 L 370.542969 172.894531 L 367.722656 183.285156 L 363.996094 193.308594 L 359.398438 202.878906 L 353.980469 211.925781 L 347.792969 220.375 L 340.890625 228.160156 L 333.34375 235.21875 L 325.21875 241.5 L 316.589844 246.949219 L 307.535156 251.53125 L 298.140625 255.210938 L 288.484375 257.957031 L 278.652344 259.757812 L 268.738281 260.597656 L 258.828125 260.472656 L 249.007812 259.390625 L 239.363281 257.359375 L 229.988281 254.410156 L 220.960938 250.5625 L 212.359375 245.851562 L 204.265625 240.328125 L 196.753906 234.039062 L 189.882812 227.035156 L 183.726562 219.386719 L 178.332031 211.15625 L 173.757812 202.421875 L 170.042969 193.253906 L 167.226562 183.734375 L 165.332031 173.949219 L 164.386719 163.980469 L 164.402344 153.921875 L 165.382812 143.855469 L 167.328125 133.875 L 170.226562 124.0625 L 174.0625 114.507812 L 178.804688 105.296875 L 184.421875 96.507812 L 190.871094 88.21875 L 198.109375 80.511719 L 206.078125 73.449219 L 214.71875 67.097656 L 223.964844 61.519531 L 233.742188 56.765625 L 243.980469 52.878906 L 254.597656 49.902344 L 265.507812 47.863281 L 276.625 46.792969 L 287.867188 46.703125 L 299.144531 47.605469 L 310.367188 49.496094 L 321.441406 52.371094 L 332.289062 56.210938 L 342.816406 61 L 352.945312 66.699219 L 362.589844 73.273438 L 371.675781 80.679688 L 380.132812 88.859375 L 387.894531 97.761719 L 394.894531 107.316406 L 401.078125 117.457031 L 406.070312 127.386719 L 410.277344 137.695312 L 413.664062 148.320312 L 416.210938 159.191406 L 417.902344 170.238281 L 418.71875 181.390625 L 418.660156 192.574219 L 417.722656 203.714844 L 415.917969 214.742188 L 413.257812 225.582031 L 409.757812 236.171875 L 405.445312 246.433594 L 400.347656 256.304688 L 394.5 265.726562 L 387.945312 274.632812 L 380.726562 282.96875 L 372.898438 290.679688 L 364.511719 297.722656 L 355.625 304.050781 L 346.300781 309.625 L 336.601562 314.417969 L 326.59375 318.394531 L 316.351562 321.535156 L 305.941406 323.828125 L 295.4375 325.257812 L 284.910156 325.824219 L 274.433594 325.53125 L 264.078125 324.382812 L 253.914062 322.394531 L 244.011719 319.589844 L 234.441406 315.992188 L 225.261719 311.632812 L 216.542969 306.550781 L 208.335938 300.785156 L 200.699219 294.386719 L 193.6875 287.40625 L 187.335938 279.894531 L 181.699219 271.914062 L 176.800781 263.53125 L 172.683594 254.800781 L 169.363281 245.800781 L 166.863281 236.597656 L 165.195312 227.257812 L 164.371094 217.855469 L 164.386719 208.464844 L 165.242188 199.15625 L 166.921875 190 L 169.414062 181.066406 L 172.691406 172.425781 L 176.726562 164.140625 L 181.488281 156.277344 L 186.933594 148.894531 L 193.023438 142.046875 L 199.707031 135.792969 L 206.933594 130.179688 L 214.640625 125.25 L 222.769531 121.039062 L 231.261719 117.589844 L 240.042969 114.921875 L 249.054688 113.0625 L 258.21875 112.023438 L 267.46875 111.824219 L 276.730469 112.460938 L 285.933594 113.9375 L 294.828125 116.191406 L 303.53125 119.230469 L 311.976562 123.035156 L 320.097656 127.585938 L 327.839844 132.851562 L 335.140625 138.800781 L 341.941406 145.390625 L 348.191406 152.582031 L 353.84375 160.324219 L 358.851562 168.570312 L 363.171875 177.261719 L 366.777344 186.34375 L 369.628906 195.757812 L 371.703125 205.433594 L 372.980469 215.3125 L 373.445312 225.324219 L 373.089844 235.40625 L 371.90625 245.484375 L 369.898438 255.496094 L 367.074219 265.371094 L 363.445312 275.039062 L 359.03125 284.441406 L 353.855469 293.511719 L 347.945312 302.183594 L 341.335938 310.402344 L 334.066406 318.109375 L 326.183594 325.253906 L 317.726562 331.785156 L 308.75 337.65625 L 299.3125 342.832031 L 289.46875 347.273438 L 279.28125 350.949219 L 268.8125 353.828125 L 258.125 355.898438 L 247.289062 357.140625 L 236.371094 357.546875 L 225.441406 357.105469 L 214.566406 355.828125 L 203.8125 353.714844 L 193.25 350.78125 L 182.945312 347.046875 L 172.960938 342.527344 L 163.359375 337.261719 L 154.199219 331.277344 L 145.535156 324.617188 L 137.429688 317.320312 L 129.921875 309.433594 L 123.0625 301.011719 L 116.890625 292.105469 L 111.445312 282.777344 L 106.753906 273.082031 L 102.847656 263.089844 L 99.742188 252.859375 L 97.457031 242.460938 L 96.003906 231.960938 L 95.382812 221.425781 L 95.597656 210.925781 L 96.636719 200.53125 L 98.492188 190.304688 L 101.144531 180.316406 L 104.566406 170.625 L 108.738281 161.296875 L 113.617188 152.390625 L 119.175781 143.960938 L 125.914062 135.417969 L 133.335938 127.566406 L 141.375 120.457031 L 149.960938 114.144531 L 159.023438 108.675781 L 168.476562 104.082031 L 178.242188 100.402344 L 188.238281 97.652344 L 198.378906 95.847656 L 208.578125 95.003906 L 218.746094 95.113281 L 228.800781 96.171875 L 238.652344 98.164062 L 248.222656 101.0625 L 257.429688 104.84375 L 266.191406 109.464844 L 274.433594 114.882812 L 282.089844 121.046875 L 289.09375 127.902344 L 295.386719 135.378906 L 300.914062 143.417969 L 305.628906 151.945312 L 309.488281 160.878906 L 312.460938 170.144531 L 314.519531 179.65625 L 315.644531 189.335938 L 315.824219 199.089844 L 315.054688 208.835938 L 313.34375 218.488281 L 310.703125 227.957031 L 307.148438 237.164062 L 302.707031 246.023438 L 297.417969 254.457031 L 291.320312 262.386719 L 284.464844 269.742188 L 276.898438 276.453125 L 268.691406 282.464844 L 259.898438 287.714844 L 250.601562 292.152344 L 240.867188 295.738281 L 230.773438 298.429688 L 220.410156 300.199219 L 209.851562 301.023438 L 199.191406 300.890625 L 188.511719 299.789062 L 177.898438 297.722656 L 167.441406 294.703125 L 157.222656 290.738281 L 147.328125 285.859375 L 137.835938 280.089844 L 128.832031 273.476562 L 120.382812 266.058594 L 112.558594 257.894531 L 105.433594 249.03125 L 99.054688 239.542969 L 93.488281 229.492188 L 88.773438 218.953125 L 84.953125 208.003906 L 82.0625 196.722656 L 80.125 185.195312 L 79.164062 173.507812 L 79.191406 161.742188 L 80.207031 149.992188 L 82.207031 138.339844 L 84.949219 127.628906 L 88.527344 117.152344 L 92.910156 106.972656 L 98.082031 97.160156 L 104 87.773438 L 110.632812 78.875 L 117.933594 70.519531 L 125.859375 62.765625 L 134.359375 55.65625 L 143.375 49.238281 L 152.847656 43.554688 L 162.714844 38.632812 L 172.914062 34.507812 L 183.378906 31.207031 L 194.039062 28.738281 L 204.828125 27.125 L 215.671875 26.367188 L 226.5 26.46875 L 237.242188 27.425781 L 247.824219 29.222656 L 258.1875 31.84375 L 268.253906 35.273438 L 277.964844 39.472656 L 287.257812 44.417969 L 296.070312 50.066406 L 304.34375 56.375 L 312.035156 63.296875 L 319.085938 70.78125 L 325.460938 78.769531 L 331.113281 87.203125 L 336.019531 96.023438 L 340.140625 105.160156 L 343.460938 114.550781 L 345.960938 124.125 L 347.628906 133.8125 L 348.460938 143.546875 L 348.457031 153.253906 L 347.621094 162.863281 L 345.96875 172.308594 L 343.519531 181.519531 L 340.289062 190.425781 L 336.3125 198.972656 L 331.625 207.089844 L 326.261719 214.722656 L 320.269531 221.820312 L 313.695312 228.324219 L 306.59375 234.191406 L 299.019531 239.378906 L 291.035156 243.851562 L 282.699219 247.574219 L 274.078125 250.523438 L 265.242188 252.675781 L 256.253906 254.019531 L 247.1875 254.539062 L 238.113281 254.234375 L 229.097656 253.105469 L 220.214844 251.164062 L 211.53125 248.421875 L 203.117188 244.898438 L 195.03125 240.621094 L 187.34375 235.617188 L 180.113281 229.921875 L 173.398438 223.582031 L 167.25 216.636719 L 161.113281 208.234375 L 155.8125 199.21875 L 151.398438 189.667969 L 147.917969 179.667969 L 145.410156 169.3125 L 143.910156 158.691406 L 143.433594 147.902344 L 144 137.039062 L 145.605469 126.203125 L 148.253906 115.492188 L 151.921875 105 L 156.589844 94.824219 L 162.226562 85.058594 L 168.792969 75.789062 L 176.234375 67.101562 L 184.496094 59.082031 L 193.515625 51.796875 L 203.222656 45.324219 L 213.535156 39.714844 L 224.378906 35.027344 L 235.660156 31.3125 L 247.292969 28.601562 L 259.179688 26.925781 L 271.222656 26.308594 L 283.328125 26.757812 L 295.398438 28.277344 L 307.328125 30.859375 L 319.027344 34.488281 L 330.394531 39.140625 L 341.339844 44.777344 L 351.773438 51.363281 L 361.613281 58.839844 L 370.777344 67.15625 L 379.1875 76.246094 L 386.78125 86.03125 L 393.5 96.441406 L 399.28125 107.386719 L 404.089844 118.785156 L 407.882812 130.542969 L 410.632812 142.5625 L 412.324219 154.75 L 412.941406 167.007812 L 412.484375 179.238281 L 410.964844 191.339844 L 408.398438 203.214844 L 404.808594 214.769531 L 400.234375 225.914062 L 394.714844 236.554688 L 388.304688 246.613281 L 381.0625 256.003906 L 373.054688 264.660156 L 364.351562 272.511719 L 355.035156 279.5 L 345.183594 285.574219 L 334.890625 290.6875 L 324.242188 294.808594 L 313.339844 297.90625 L 302.273438 299.964844 L 291.144531 300.972656 L 280.054688 300.9375 L 269.09375 299.859375 L 258.363281 297.765625 L 247.953125 294.679688 L 237.960938 290.636719 " transform="matrix(1,0,0,1,-66,-8)"/>
</g>
</g>
</svg>
