<?xml version="1.0" encoding="UTF-8"?>
<svg xmlns="http://www.w3.org/2000/svg" xmlns:xlink="http://www.w3.org/1999/xlink" width="410pt" height="285pt" viewBox="0 0 410 285" version="1.1">
<g id="surface56">
<path style="fill:none;stroke-width:1.6;stroke-linecap:square;stroke-linejoin:miter;stroke:rgb(36.84082%,50.67749%,70.979309%);stroke-opacity:1;stroke-miterlimit:3.25;" d="M 467.800781 150.1875 L 467.070312 162.738281 L 464.894531 175.101562 L 461.316406 187.089844 L 456.398438 198.539062 L 450.234375 209.285156 L 442.929688 219.195312 L 434.605469 228.144531 L 425.390625 236.035156 L 415.414062 242.785156 L 404.824219 248.332031 L 393.757812 252.625 L 382.355469 255.636719 L 370.753906 257.34375 L 359.097656 257.742188 L 347.523438 256.828125 L 336.167969 254.621094 L 325.171875 251.148438 L 314.671875 246.449219 L 304.808594 240.574219 L 295.714844 233.59375 L 287.527344 225.585938 L 280.367188 216.648438 L 274.363281 206.902344 L 269.628906 196.476562 L 266.261719 185.523438 L 264.347656 174.210938 L 263.960938 162.726562 L 265.140625 151.265625 L 267.914062 140.046875 L 272.269531 129.289062 L 278.167969 119.230469 L 285.542969 110.09375 L 294.28125 102.109375 L 304.238281 95.5 L 315.230469 90.464844 L 327.042969 87.191406 L 339.417969 85.828125 L 352.070312 86.496094 L 364.6875 89.261719 L 376.949219 94.160156 L 388.5 101.15625 L 399.003906 110.167969 L 408.117188 121.054688 L 415.523438 133.601562 L 420.921875 147.554688 L 424.066406 162.585938 L 424.753906 178.328125 L 422.847656 194.375 L 418.273438 210.277344 L 411.046875 225.582031 L 401.261719 239.816406 L 389.09375 252.535156 L 374.804688 263.304688 L 358.746094 271.753906 L 341.328125 277.554688 L 323.039062 280.46875 L 304.40625 280.339844 L 285.992188 277.113281 L 268.371094 270.835938 L 252.109375 261.675781 L 237.742188 249.902344 L 225.753906 235.894531 L 216.558594 220.113281 L 210.464844 203.109375 L 207.609375 184.007812 L 208.757812 165.011719 L 213.832031 146.964844 L 222.585938 130.6875 L 234.589844 116.933594 L 249.253906 106.367188 L 265.859375 99.5 L 283.578125 96.691406 L 301.523438 98.113281 L 318.773438 103.742188 L 334.441406 113.347656 L 347.691406 126.511719 L 357.808594 142.640625 L 364.214844 161.003906 L 366.503906 180.742188 L 364.472656 200.941406 L 358.113281 220.660156 L 347.636719 238.96875 L 333.441406 255.019531 L 316.101562 268.066406 L 296.347656 277.515625 L 275.011719 282.933594 L 252.992188 284.09375 L 231.21875 280.96875 L 210.589844 273.726562 L 191.949219 262.730469 L 176.023438 248.503906 L 163.414062 231.710938 L 154.558594 213.128906 L 149.707031 193.585938 L 148.933594 173.941406 L 152.128906 155.042969 L 159.011719 137.675781 L 169.144531 122.535156 L 181.96875 110.207031 L 196.828125 101.136719 L 212.996094 95.613281 L 229.726562 93.773438 L 246.273438 95.597656 L 261.921875 100.914062 L 276.03125 109.421875 L 288.035156 120.707031 L 297.488281 134.265625 L 304.050781 149.527344 L 307.511719 165.890625 L 307.785156 182.730469 L 304.894531 199.441406 L 298.988281 215.457031 L 290.304688 230.257812 L 279.167969 243.394531 L 265.953125 254.496094 L 251.101562 263.28125 L 235.070312 269.558594 L 218.324219 273.21875 L 201.328125 274.242188 L 184.519531 272.691406 L 168.3125 268.691406 L 153.070312 262.433594 L 139.109375 254.148438 L 126.691406 244.117188 L 116.023438 232.632812 L 107.25 220.015625 L 100.46875 206.582031 L 95.71875 192.648438 L 93.113281 179.457031 L 92.230469 166.328125 L 93.007812 153.480469 L 95.355469 141.117188 L 99.15625 129.40625 L 104.285156 118.503906 L 110.605469 108.546875 L 117.96875 99.644531 L 126.222656 91.882812 L 135.214844 85.332031 L 144.78125 80.042969 L 154.777344 76.050781 L 165.046875 73.367188 L 175.445312 72.003906 L 185.820312 71.941406 L 196.039062 73.167969 L 205.957031 75.640625 L 215.445312 79.320312 L 224.371094 84.152344 L 232.609375 90.0625 L 240.035156 96.972656 L 246.539062 104.789062 L 252.007812 113.398438 L 256.339844 122.671875 L 259.460938 132.46875 L 261.292969 142.628906 L 261.792969 152.988281 L 260.941406 163.363281 L 258.742188 173.570312 L 255.222656 183.429688 L 250.445312 192.765625 L 244.496094 201.414062 L 237.476562 209.222656 L 229.519531 216.070312 L 220.75 221.84375 L 211.324219 226.460938 L 201.386719 229.859375 L 191.089844 231.992188 L 180.585938 232.835938 L 170.023438 232.382812 L 159.542969 230.632812 L 149.289062 227.601562 L 139.398438 223.324219 L 130.007812 217.832031 L 121.242188 211.183594 L 113.238281 203.441406 L 106.117188 194.675781 L 100 184.980469 L 95 174.453125 L 91.230469 163.214844 L 88.785156 151.398438 L 87.753906 139.152344 L 88.214844 126.640625 L 90.214844 114.039062 L 93.800781 101.539062 L 98.980469 89.34375 L 105.742188 77.671875 L 114.042969 66.734375 L 123.804688 56.753906 L 134.929688 47.945312 L 147.265625 40.519531 L 160.640625 34.667969 L 174.835938 30.566406 L 189.613281 28.355469 L 204.394531 28.136719 L 219.183594 29.917969 L 233.683594 33.714844 L 247.570312 39.515625 L 260.535156 47.246094 L 272.265625 56.777344 L 282.453125 67.933594 L 290.828125 80.476562 L 297.148438 94.125 L 301.207031 108.546875 L 302.867188 123.367188 L 302.039062 138.1875 L 298.710938 152.578125 L 292.9375 166.109375 L 284.863281 178.351562 L 274.699219 188.894531 L 262.738281 197.363281 L 249.347656 203.429688 L 234.949219 206.832031 L 220.03125 207.386719 L 205.101562 204.996094 L 190.703125 199.65625 L 177.378906 191.46875 L 165.648438 180.636719 L 156.007812 167.460938 L 148.878906 152.34375 L 144.621094 135.757812 L 143.496094 118.261719 L 145.65625 100.445312 L 151.140625 82.9375 L 159.867188 66.375 L 171.621094 51.367188 L 186.078125 38.488281 L 202.800781 28.230469 L 221.253906 21.003906 L 240.824219 17.117188 L 260.851562 16.738281 L 280.640625 19.910156 L 299.5 26.539062 L 316.765625 36.386719 L 331.824219 49.089844 L 344.15625 64.164062 L 353.335938 81.035156 L 359.0625 99.046875 L 361.179688 117.496094 L 359.664062 135.660156 L 354.644531 152.820312 L 346.386719 168.3125 L 335.292969 181.523438 L 321.871094 191.945312 L 306.726562 199.175781 L 290.519531 202.949219 L 273.960938 203.128906 L 257.765625 199.738281 L 242.621094 192.921875 L 229.179688 182.976562 L 218 170.304688 L 209.566406 155.421875 L 204.234375 138.90625 L 202.238281 121.40625 L 203.683594 103.589844 L 208.542969 86.121094 L 216.652344 69.644531 L 227.742188 54.746094 L 242.699219 40.972656 L 260.113281 30.214844 L 279.304688 22.863281 L 299.527344 19.171875 L 320.027344 19.222656 L 340.058594 22.945312 L 358.914062 30.128906 L 375.96875 40.425781 L 390.6875 53.382812 L 402.644531 68.464844 L 411.542969 85.078125 L 417.199219 102.59375 L 419.574219 120.382812 L 418.734375 137.839844 L 414.859375 154.394531 L 408.230469 169.535156 L 399.203125 182.835938 L 388.195312 193.945312 L 375.660156 202.605469 L 362.078125 208.65625 L 347.9375 212.023438 L 333.710938 212.726562 L 319.835938 210.851562 L 306.730469 206.570312 L 294.742188 200.105469 L 284.183594 191.71875 L 275.292969 181.71875 L 268.257812 170.429688 L 263.199219 158.191406 L 260.183594 145.339844 L 259.226562 132.207031 L 260.285156 119.101562 L 263.285156 106.316406 L 268.101562 94.121094 L 274.59375 82.746094 L 282.589844 72.394531 L 291.902344 63.238281 L 302.328125 55.410156 L 313.664062 49.015625 L 325.703125 44.132812 L 338.238281 40.808594 L 351.066406 39.066406 L 363.992188 38.910156 L 376.828125 40.320312 L 389.398438 43.257812 L 401.523438 47.679688 L 413.046875 53.511719 L 423.8125 60.683594 L 433.675781 69.101562 L 442.496094 78.65625 L 450.144531 89.234375 L 456.5 100.703125 L 461.449219 112.90625 L 464.902344 125.679688 L 466.777344 138.832031 L 467.027344 152.167969 L 465.621094 165.464844 L 462.566406 178.507812 L 457.910156 191.0625 L 451.730469 202.917969 L 444.132812 213.863281 L 435.273438 223.71875 L 425.3125 232.320312 L 414.445312 239.550781 L 403.664062 244.972656 L 392.433594 249.066406 L 380.917969 251.800781 L 369.285156 253.175781 L 357.691406 253.199219 L 346.28125 251.898438 L 335.199219 249.316406 L 324.582031 245.507812 L 314.554688 240.535156 L 305.238281 234.46875 L 296.75 227.398438 L 289.191406 219.414062 L 282.667969 210.621094 L 277.269531 201.132812 L 273.082031 191.078125 L 270.179688 180.59375 L 268.625 169.828125 L 268.46875 158.945312 L 269.734375 148.113281 L 272.445312 137.511719 L 276.585938 127.335938 L 282.121094 117.777344 L 289 109.03125 L 297.128906 101.292969 L 306.394531 94.753906 L 316.648438 89.597656 L 327.714844 85.984375 L 339.382812 84.058594 L 351.421875 83.941406 L 363.566406 85.722656 L 375.542969 89.441406 L 387.046875 95.117188 L 397.78125 102.703125 L 407.433594 112.109375 L 415.707031 123.195312 L 422.3125 135.769531 L 426.992188 149.585938 L 429.527344 164.347656 L 429.734375 179.714844 L 427.488281 195.3125 L 422.734375 210.734375 L 415.480469 225.558594 L 405.804688 239.355469 L 393.875 251.710938 L 379.925781 262.21875 L 364.269531 270.523438 L 347.296875 276.320312 L 329.449219 279.367188 L 311.214844 279.507812 L 293.121094 276.671875 L 275.714844 270.886719 L 259.535156 262.285156 L 245.101562 251.101562 L 232.886719 237.675781 L 223.304688 222.429688 L 216.691406 205.878906 L 213.269531 188.585938 L 213.167969 171.179688 L 216.378906 154.292969 L 222.773438 138.566406 L 232.105469 124.605469 L 243.996094 112.976562 L 257.964844 104.148438 L 273.4375 98.503906 L 291.152344 96.285156 L 308.992188 98.265625 L 326.046875 104.410156 L 341.441406 114.476562 L 354.351562 128.042969 L 364.066406 144.503906 L 370.015625 163.121094 L 371.808594 183.035156 L 369.25 203.316406 L 362.347656 223.015625 L 351.324219 241.203125 L 336.597656 257.019531 L 318.773438 269.722656 L 298.589844 278.710938 L 276.914062 283.570312 L 254.667969 284.082031 L 232.808594 280.238281 L 212.253906 272.238281 L 193.859375 260.472656 L 178.371094 245.507812 L 166.378906 228.054688 L 158.316406 208.925781 L 154.414062 189.003906 L 154.714844 169.183594 L 159.0625 150.34375 L 167.121094 133.296875 L 178.40625 118.757812 L 192.292969 107.300781 L 208.054688 99.363281 L 224.917969 95.207031 L 242.070312 94.921875 L 258.722656 98.433594 L 274.136719 105.511719 L 287.640625 115.773438 L 298.675781 128.738281 L 306.804688 143.816406 L 311.714844 160.367188 L 313.246094 177.714844 L 311.367188 195.1875 L 306.183594 212.132812 L 297.910156 227.949219 L 286.871094 242.105469 L 273.480469 254.160156 L 258.203125 263.761719 L 241.542969 270.660156 L 224.039062 274.71875 L 206.210938 275.894531 L 188.570312 274.242188 L 171.585938 269.898438 L 155.6875 263.074219 L 141.238281 254.046875 L 128.539062 243.132812 L 117.824219 230.683594 L 109.253906 217.070312 L 102.925781 202.675781 L 98.875 187.863281 L 97.066406 172.992188 L 97.425781 158.398438 L 99.820312 144.375 L 104.097656 131.199219 L 110.058594 119.089844 L 117.496094 108.246094 L 126.175781 98.816406 L 135.871094 90.910156 L 146.140625 84.707031 L 156.933594 80.089844 L 168.039062 77.070312 L 179.246094 75.632812 L 190.359375 75.742188 L 201.199219 77.347656 L 211.59375 80.375 L 221.386719 84.742188 L 230.433594 90.355469 L 238.597656 97.097656 L 245.765625 104.859375 L 251.828125 113.511719 L 256.683594 122.917969 L 260.25 132.925781 L 262.457031 143.382812 L 263.246094 154.117188 L 262.578125 164.949219 L 260.441406 175.6875 L 256.847656 186.136719 L 251.828125 196.097656 L 245.457031 205.367188 L 237.832031 213.761719 L 229.085938 221.101562 L 219.375 227.234375 L 208.882812 232.035156 L 197.804688 235.40625 L 186.34375 237.292969 L 174.710938 237.660156 L 163.105469 236.511719 L 151.71875 233.867188 L 140.738281 229.78125 L 130.328125 224.324219 L 120.644531 217.574219 L 111.832031 209.628906 L 104.011719 200.59375 L 97.3125 190.589844 L 91.832031 179.742188 L 87.671875 168.183594 L 84.914062 156.0625 L 83.632812 143.53125 L 83.886719 130.765625 L 85.714844 117.941406 L 89.152344 105.242188 L 94.195312 92.871094 L 100.828125 81.035156 L 109.007812 69.945312 L 118.660156 59.8125 L 129.671875 50.851562 L 141.914062 43.265625 L 155.207031 37.25 L 169.347656 32.976562 L 184.089844 30.597656 L 199.164062 30.226562 L 214.273438 31.953125 L 229.089844 35.800781 L 243.28125 41.757812 L 256.5 49.753906 L 268.40625 59.652344 L 278.667969 71.261719 L 286.976562 84.328125 L 293.066406 98.535156 L 296.722656 113.515625 L 297.78125 128.847656 L 296.160156 144.078125 L 292.222656 157.769531 L 286.015625 170.5625 L 277.667969 182.058594 L 267.394531 191.882812 L 255.464844 199.691406 L 242.226562 205.1875 L 228.074219 208.125 L 213.457031 208.335938 L 198.867188 205.722656 L 184.800781 200.28125 L 171.777344 192.105469 L 160.292969 181.382812 L 150.8125 168.390625 L 143.753906 153.5 L 139.464844 137.164062 L 138.207031 119.902344 L 140.140625 102.28125 L 145.324219 84.90625 L 153.6875 68.386719 L 165.050781 53.328125 L 179.117188 40.285156 L 195.472656 29.761719 L 213.613281 22.179688 L 232.949219 17.847656 L 252.84375 16.96875 L 272.613281 19.609375 L 291.574219 25.703125 L 309.058594 35.042969 L 324.445312 47.296875 L 337.195312 62.003906 L 346.863281 78.609375 L 353.125 96.472656 L 355.78125 114.894531 L 354.789062 133.152344 L 350.242188 150.519531 L 342.382812 166.3125 L 331.59375 179.898438 L 318.367188 190.734375 L 303.300781 198.394531 L 287.066406 202.574219 L 270.375 203.121094 L 253.960938 200.015625 L 238.546875 193.402344 L 224.796875 183.550781 L 213.316406 170.871094 L 204.609375 155.871094 L 199.066406 139.15625 L 196.945312 121.386719 L 198.367188 103.257812 L 203.3125 85.46875 L 211.628906 68.695312 L 223.03125 53.558594 L 237.121094 40.609375 L 253.414062 30.300781 L 271.34375 22.988281 L 290.304688 18.894531 L 309.65625 18.121094 L 328.773438 20.648438 L 347.050781 26.34375 L 363.929688 34.957031 L 378.914062 46.144531 L 391.597656 59.492188 L 401.660156 74.511719 L 408.882812 90.691406 L 413.378906 108.914062 L 414.390625 127.179688 L 412.035156 144.832031 L 406.554688 161.265625 L 398.292969 175.945312 L 387.671875 188.433594 L 375.183594 198.390625 L 361.355469 205.574219 L 346.726562 209.863281 L 331.847656 211.226562 L 317.226562 209.742188 L 303.351562 205.566406 L 290.644531 198.9375 L 279.472656 190.15625 L 270.132812 179.554688 L 262.847656 167.519531 L 257.765625 154.433594 L 254.96875 140.699219 L 254.46875 126.699219 L 256.214844 112.804688 L 260.105469 99.351562 L 265.988281 86.652344 L 273.675781 74.976562 L 282.957031 64.546875 L 293.589844 55.542969 L 305.328125 48.117188 L 317.910156 42.355469 L 331.089844 38.328125 L 344.617188 36.054688 L 358.246094 35.527344 L 371.761719 36.710938 L 384.945312 39.542969 L 397.609375 43.941406 L 409.578125 49.8125 L 420.6875 57.039062 L 430.808594 65.5 L 439.804688 75.0625 L 447.574219 85.585938 L 454.023438 96.929688 L 459.066406 108.929688 L 462.636719 121.4375 L 464.683594 134.277344 L 465.171875 147.273438 L 464.074219 160.246094 L 461.398438 173.003906 L 457.160156 185.351562 L 451.417969 197.082031 L 444.25 208.003906 L 435.769531 217.921875 L 426.117188 226.664062 L 415.46875 234.074219 L 404.019531 240.023438 L 391.988281 244.421875 L 379.601562 247.210938 L 367.085938 248.371094 L 354.667969 247.921875 L 342.554688 245.90625 L 330.949219 242.398438 L 320.023438 237.496094 L 309.941406 231.316406 L 300.839844 223.980469 L 292.839844 215.628906 L 286.046875 206.402344 L 280.550781 196.460938 L 276.660156 186.671875 L 274.007812 176.527344 L 272.644531 166.171875 L 272.585938 155.746094 L 273.851562 145.40625 L 276.4375 135.300781 L 280.332031 125.59375 L 285.496094 116.445312 L 291.878906 108.023438 L 299.40625 100.488281 L 307.988281 94 L 317.5 88.710938 L 327.800781 84.773438 L 338.726562 82.308594 L 350.085938 81.4375 L 361.667969 82.242188 L 373.238281 84.789062 L 384.558594 89.113281 L 395.359375 95.210938 L 405.378906 103.03125 L 414.34375 112.5 L 421.996094 123.480469 L 428.078125 135.804688 L 432.363281 149.25 L 434.652344 163.554688 L 434.777344 178.417969 L 432.625 193.507812 L 428.132812 208.460938 L 421.296875 222.894531 L 412.179688 236.417969 L 400.90625 248.644531 L 387.683594 259.207031 L 372.777344 267.757812 L 356.523438 274 L 339.316406 277.691406 L 321.59375 278.65625 L 303.839844 276.789062 L 286.5625 272.085938 L 270.265625 264.628906 L 255.453125 254.59375 L 242.597656 242.253906 L 232.121094 227.980469 L 224.375 212.214844 L 219.632812 195.480469 L 218.066406 178.339844 L 219.734375 161.40625 L 224.582031 145.292969 L 232.4375 130.609375 L 242.996094 117.925781 L 255.851562 107.757812 L 270.496094 100.523438 L 286.339844 96.558594 L 302.722656 96.058594 L 318.964844 99.101562 L 334.355469 105.617188 L 348.222656 115.402344 L 359.933594 128.105469 L 368.929688 143.265625 L 374.761719 160.304688 L 377.101562 178.558594 L 375.753906 197.316406 L 370.675781 215.828125 L 361.980469 233.34375 L 349.929688 249.164062 L 335.246094 262.398438 L 318.214844 272.859375 L 299.425781 280.136719 L 279.542969 283.949219 L 259.269531 284.140625 L 239.320312 280.714844 L 220.398438 273.808594 L 203.171875 263.699219 L 188.21875 250.789062 L 176.046875 235.585938 L 167.027344 218.679688 L 161.421875 200.730469 L 159.347656 182.425781 L 160.789062 164.453125 L 165.589844 147.480469 L 173.46875 132.128906 L 184.035156 118.945312 L 196.804688 108.382812 L 211.21875 100.789062 L 226.671875 96.390625 L 242.53125 95.292969 L 258.164062 97.480469 L 272.96875 102.8125 L 286.382812 111.042969 L 297.914062 121.832031 L 307.152344 134.757812 L 313.777344 149.335938 L 317.566406 165.039062 L 318.402344 181.332031 L 316.277344 197.664062 L 311.269531 213.507812 L 303.558594 228.375 L 293.394531 241.828125 L 281.105469 253.488281 L 267.058594 263.042969 L 251.667969 270.269531 L 235.367188 275.011719 L 218.59375 277.199219 L 201.78125 276.839844 L 185.34375 274.011719 L 169.664062 268.851562 L 155.085938 261.558594 L 141.902344 252.375 L 130.355469 241.578125 L 120.636719 229.472656 L 112.882812 216.375 L 107.167969 202.613281 L 103.519531 188.503906 L 101.914062 174.359375 L 102.28125 160.46875 L 104.519531 147.101562 L 108.488281 134.492188 L 114.023438 122.855469 L 120.933594 112.359375 L 129.019531 103.148438 L 138.070312 95.332031 L 147.878906 88.980469 L 158.222656 84.136719 L 168.898438 80.820312 L 179.707031 79.019531 L 190.457031 78.695312 L 200.976562 79.792969 L 211.101562 82.242188 L 220.683594 85.957031 L 230.316406 91.304688 L 239.015625 97.886719 L 246.652344 105.554688 L 253.121094 114.15625 L 258.332031 123.53125 L 262.222656 133.519531 L 264.738281 143.953125 L 265.835938 154.667969 L 265.5 165.492188 L 263.71875 176.253906 L 260.503906 186.78125 L 255.886719 196.894531 L 249.914062 206.417969 L 242.652344 215.175781 L 234.199219 222.996094 L 224.679688 229.714844 L 214.234375 235.183594 L 203.046875 239.269531 L 191.308594 241.875 L 179.230469 242.925781 L 167.039062 242.382812 L 154.960938 240.246094 L 143.214844 236.546875 L 132.011719 231.355469 L 121.539062 224.765625 L 111.972656 216.890625 L 103.453125 207.871094 L 96.105469 197.84375 L 90.039062 186.96875 L 85.328125 175.40625 L 82.039062 163.308594 L 80.226562 150.847656 L 79.914062 138.1875 L 81.125 125.492188 L 83.859375 112.9375 L 88.109375 100.6875 L 93.84375 88.921875 L 101.015625 77.816406 L 109.5625 67.546875 L 119.394531 58.289062 L 130.402344 50.210938 L 142.449219 43.476562 L 155.375 38.242188 L 168.988281 34.644531 L 183.082031 32.800781 L 197.414062 32.800781 L 211.726562 34.707031 L 225.742188 38.546875 L 239.171875 44.300781 L 251.714844 51.910156 L 263.070312 61.265625 L 272.949219 72.203125 L 281.082031 84.507812 L 287.21875 97.917969 L 291.152344 112.117188 L 292.722656 126.746094 L 291.832031 141.410156 L 288.441406 155.683594 L 282.589844 169.132812 L 274.402344 181.308594 L 264.078125 191.789062 L 251.902344 200.171875 L 238.246094 206.105469 L 223.542969 209.292969 L 209.320312 209.605469 L 195.070312 207.246094 L 181.257812 202.191406 L 168.363281 194.507812 L 156.855469 184.347656 L 147.1875 171.953125 L 139.765625 157.652344 L 134.933594 141.84375 L 132.972656 125.007812 L 134.070312 107.671875 L 138.3125 90.402344 L 145.675781 73.785156 L 156.03125 58.398438 L 169.128906 44.808594 L 184.617188 33.519531 L 202.035156 24.96875 L 220.851562 19.511719 L 240.453125 17.386719 L 260.195312 18.714844 L 279.398438 23.492188 L 297.398438 31.570312 L 313.566406 42.679688 L 327.328125 56.417969 L 338.195312 72.277344 L 345.792969 89.660156 L 349.863281 107.890625 L 350.292969 126.253906 L 347.117188 144.03125 L 340.507812 160.503906 L 330.785156 175.011719 L 318.398438 186.96875 L 303.902344 195.886719 L 287.953125 201.40625 L 271.257812 203.296875 L 254.550781 201.480469 L 238.582031 196.035156 L 224.054688 187.183594 L 211.621094 175.285156 L 201.839844 160.824219 L 195.164062 144.390625 L 191.914062 126.640625 L 192.269531 108.285156 L 196.261719 90.050781 L 203.78125 72.652344 L 214.582031 56.757812 L 228.277344 42.972656 L 244.390625 31.808594 L 262.351562 23.660156 L 281.523438 18.808594 L 301.246094 17.398438 L 320.851562 19.441406 L 339.683594 24.816406 L 357.132812 33.285156 L 372.664062 44.503906 L 385.824219 58.03125 L 396.25 73.363281 L 403.695312 89.945312 L 408.027344 107.191406 L 409.214844 124.519531 L 407.347656 141.367188 L 402.609375 157.199219 L 395.273438 171.546875 L 385.683594 184 L 374.246094 194.234375 L 360.277344 202.535156 L 345.265625 207.75 L 329.808594 209.808594 L 314.503906 208.75 L 299.898438 204.730469 L 286.496094 197.988281 L 274.726562 188.847656 L 264.945312 177.691406 L 257.414062 164.933594 L 252.316406 151.03125 L 249.746094 136.4375 L 249.722656 121.601562 L 252.179688 106.945312 L 256.992188 92.867188 L 263.976562 79.71875 L 272.898438 67.808594 L 283.5 57.382812 L 295.484375 48.644531 L 308.550781 41.734375 L 322.394531 36.746094 L 336.707031 33.726562 L 351.191406 32.664062 L 365.578125 33.523438 L 379.609375 36.222656 L 393.042969 40.65625 L 405.683594 46.691406 L 417.347656 54.183594 L 427.878906 62.960938 L 437.152344 72.863281 L 445.066406 83.703125 L 451.542969 95.304688 L 456.523438 107.480469 L 459.972656 120.058594 L 461.863281 132.859375 L 462.195312 145.699219 L 460.980469 158.414062 L 458.242188 170.824219 L 454.023438 182.757812 L 448.386719 194.054688 L 441.40625 204.539062 L 433.179688 214.054688 L 423.832031 222.441406 L 413.503906 229.558594 L 402.367188 235.28125 L 390.613281 239.496094 L 378.457031 242.128906 L 366.121094 243.136719 L 353.839844 242.507812 L 341.847656 240.273438 L 330.367188 236.503906 L 319.605469 231.292969 L 309.746094 224.773438 L 300.949219 217.09375 L 293.34375 208.421875 L 287.039062 198.929688 L 282.105469 188.796875 L 278.597656 178.214844 L 276.554688 167.355469 L 275.988281 156.402344 L 276.890625 145.535156 L 279.242188 134.925781 L 283.015625 124.753906 L 288.152344 115.183594 L 294.582031 106.390625 L 302.070312 98.675781 L 310.617188 92.019531 L 320.109375 86.566406 L 330.398438 82.460938 L 341.324219 79.824219 L 352.703125 78.765625 L 364.328125 79.371094 L 375.972656 81.710938 L 387.40625 85.824219 L 398.359375 91.710938 L 408.578125 99.335938 L 417.789062 108.628906 L 425.726562 119.476562 L 432.128906 131.710938 L 436.761719 145.125 L 439.40625 159.464844 L 439.882812 174.433594 L 438.0625 189.703125 L 433.855469 204.898438 L 427.246094 219.628906 L 418.28125 233.496094 L 407.070312 246.089844 L 393.816406 257.019531 L 378.78125 265.910156 L 362.304688 272.433594 L 344.796875 276.328125 L 326.722656 277.386719 L 308.59375 275.492188 L 290.945312 270.621094 L 274.332031 262.859375 L 259.296875 252.394531 L 246.351562 239.519531 L 235.957031 224.632812 L 228.496094 208.230469 L 224.261719 190.882812 L 223.425781 173.222656 L 226.046875 155.921875 L 232.03125 139.671875 L 241.15625 125.132812 L 253.054688 112.933594 L 267.242188 103.621094 L 283.109375 97.632812 L 299.960938 95.296875 L 317.039062 96.773438 L 333.554688 102.078125 L 348.722656 111.054688 L 361.789062 123.378906 L 372.089844 138.566406 L 379.054688 156.011719 L 382.261719 174.976562 L 381.445312 194.652344 L 376.519531 214.179688 L 367.578125 232.695312 L 354.914062 249.367188 L 338.976562 263.445312 L 320.382812 274.277344 L 299.867188 281.375 L 278.265625 284.40625 L 256.460938 283.222656 L 235.347656 277.875 L 215.792969 268.605469 L 198.589844 255.839844 L 184.421875 240.15625 L 173.824219 222.269531 L 167.496094 204.3125 L 164.761719 185.84375 L 165.636719 167.582031 L 169.992188 150.226562 L 177.566406 134.429688 L 187.976562 120.78125 L 200.726562 109.777344 L 215.253906 101.800781 L 230.917969 97.113281 L 247.066406 95.839844 L 263.023438 97.984375 L 278.152344 103.414062 L 291.847656 111.875 L 303.582031 123.011719 L 312.90625 136.382812 L 319.480469 151.46875 L 323.058594 167.710938 L 323.523438 184.519531 L 320.863281 201.316406 L 315.171875 217.523438 L 306.648438 232.617188 L 295.582031 246.121094 L 282.328125 257.636719 L 267.304688 266.835938 L 250.972656 273.484375 L 233.8125 277.4375 L 216.308594 278.640625 L 198.941406 277.117188 L 182.164062 272.980469 L 166.382812 266.414062 L 151.964844 257.660156 L 139.222656 247.011719 L 128.398438 234.796875 L 119.675781 221.375 L 113.171875 207.113281 L 108.9375 192.382812 L 106.964844 177.546875 L 107.191406 162.945312 L 109.5 148.898438 L 113.734375 135.6875 L 119.710938 123.5625 L 127.199219 112.734375 L 135.972656 103.363281 L 145.769531 95.578125 L 156.34375 89.457031 L 167.4375 85.050781 L 178.800781 82.355469 L 190.199219 81.351562 L 201.410156 81.980469 L 212.234375 84.160156 L 222.480469 87.785156 L 231.992188 92.734375 L 240.632812 98.875 L 248.277344 106.0625 L 254.839844 114.144531 L 260.234375 122.964844 L 264.414062 132.371094 L 267.339844 142.210938 L 268.992188 152.324219 L 269.359375 162.566406 L 268.457031 172.796875 L 266.300781 182.867188 L 262.921875 192.644531 L 258.363281 202.003906 L 252.152344 211.53125 L 244.695312 220.257812 L 236.089844 228.035156 L 226.457031 234.726562 L 215.917969 240.199219 L 204.625 244.328125 L 192.746094 247.015625 L 180.476562 248.175781 L 168.011719 247.746094 L 155.578125 245.695312 L 143.394531 242.035156 L 131.691406 236.800781 L 120.691406 230.070312 L 110.597656 221.957031 L 101.589844 212.597656 L 93.824219 202.164062 L 87.425781 190.832031 L 82.492188 178.804688 L 79.082031 166.265625 L 77.234375 153.421875 L 76.957031 140.464844 L 78.246094 127.570312 L 81.066406 114.921875 L 85.378906 102.6875 L 91.125 91.03125 L 98.230469 80.105469 L 106.609375 70.066406 L 116.160156 61.050781 L 126.769531 53.199219 L 138.308594 46.636719 L 150.621094 41.480469 L 163.550781 37.84375 L 176.910156 35.808594 L 190.5 35.453125 L 204.101562 36.828125 L 217.480469 39.953125 L 230.398438 44.820312 L 242.601562 51.394531 L 253.832031 59.589844 L 263.839844 69.296875 L 272.382812 80.347656 L 279.226562 92.539062 L 284.175781 105.628906 L 287.054688 119.324219 L 287.742188 133.308594 L 286.152344 147.21875 L 282.269531 160.6875 L 276.132812 173.3125 L 267.859375 184.707031 L 257.632812 194.488281 L 245.710938 202.289062 L 232.417969 207.792969 L 218.15625 210.726562 L 203.371094 210.894531 L 188.5625 208.175781 L 174.257812 202.539062 L 161.003906 194.0625 L 149.332031 182.914062 L 139.757812 169.390625 L 132.738281 153.867188 L 128.660156 136.835938 L 127.820312 118.855469 L 130.402344 100.558594 L 136.46875 82.609375 L 145.210938 66.78125 L 156.75 52.398438 L 170.808594 39.988281 L 187.011719 30.007812 L 204.882812 22.851562 L 223.878906 18.824219 L 243.402344 18.117188 L 262.800781 20.808594 L 281.425781 26.839844 L 298.636719 36.035156 L 313.828125 48.085938 L 326.464844 62.566406 L 336.097656 78.945312 L 342.390625 96.601562 L 345.132812 114.867188 L 344.253906 133.019531 L 339.824219 150.339844 L 332.066406 166.136719 L 321.335938 179.761719 L 308.117188 190.660156 L 293 198.375 L 276.65625 202.582031 L 259.8125 203.097656 L 243.222656 199.886719 L 227.628906 193.074219 L 213.734375 182.929688 L 202.179688 169.867188 L 193.5 154.40625 L 188.113281 137.1875 L 186.304688 118.898438 L 188.203125 100.28125 L 193.792969 82.082031 L 202.90625 65.027344 L 215.230469 49.789062 L 230.328125 36.953125 L 247.65625 27.015625 L 266.597656 20.335938 L 286.46875 17.148438 L 306.5625 17.542969 L 326.183594 21.46875 L 344.664062 28.738281 L 361.394531 39.039062 L 375.84375 51.957031 L 387.582031 66.980469 L 396.289062 83.539062 L 401.765625 101.023438 L 403.945312 118.800781 L 402.863281 136.25 L 398.691406 152.789062 L 391.683594 167.882812 L 382.203125 181.058594 L 370.667969 191.9375 L 357.554688 200.230469 L 343.378906 205.742188 L 328.664062 208.378906 L 313.929688 208.148438 L 299.675781 205.148438 L 286.351562 199.550781 L 274.375 191.609375 L 264.089844 181.628906 L 255.777344 169.972656 L 249.644531 157.019531 L 245.828125 143.175781 L 244.386719 128.847656 L 245.5 113.234375 L 249.304688 97.996094 L 255.628906 83.578125 L 264.238281 70.367188 L 274.84375 58.6875 L 287.121094 48.804688 L 300.726562 40.917969 L 315.285156 35.160156 L 330.445312 31.589844 L 345.84375 30.226562 L 361.148438 31.015625 L 376.046875 33.867188 L 390.257812 38.648438 L 403.542969 45.199219 L 415.679688 53.324219 L 426.507812 62.816406 L 435.882812 73.460938 L 443.703125 85.03125 L 449.90625 97.300781 L 454.449219 110.050781 L 457.320312 123.0625 L 458.535156 136.132812 L 458.128906 149.066406 L 456.152344 161.679688 L 452.671875 173.800781 L 447.773438 185.265625 L 441.542969 195.925781 L 434.097656 205.640625 L 425.550781 214.28125 L 416.035156 221.730469 L 405.695312 227.875 L 394.6875 232.621094 L 383.1875 235.890625 L 371.382812 237.621094 L 359.480469 237.773438 L 347.691406 236.339844 L 336.234375 233.339844 L 325.328125 228.835938 L 315.1875 222.910156 L 306.003906 215.699219 L 297.960938 207.355469 L 291.191406 198.058594 L 285.816406 188.007812 L 281.914062 177.417969 L 279.519531 166.496094 L 278.660156 155.449219 L 279.3125 144.484375 L 281.441406 133.792969 L 284.992188 123.550781 L 289.886719 113.925781 L 296.042969 105.082031 L 303.351562 97.160156 L 311.703125 90.296875 L 320.96875 84.617188 L 331.007812 80.238281 L 341.664062 77.261719 L 352.773438 75.777344 L 364.148438 75.863281 L 375.59375 77.570312 L 386.898438 80.933594 L 397.839844 85.96875 L 408.191406 92.652344 L 417.707031 100.933594 L 426.152344 110.734375 L 433.171875 121.707031 L 438.714844 133.871094 L 442.578125 147.035156 L 444.589844 160.972656 L 444.59375 175.417969 L 442.484375 190.078125 L 438.183594 204.636719 L 431.679688 218.746094 L 423.003906 232.046875 L 412.257812 244.1875 L 399.605469 254.804688 L 385.269531 263.570312 L 369.550781 270.179688 L 352.792969 274.375 L 335.410156 275.957031 L 317.851562 274.789062 L 300.601562 270.828125 L 284.167969 264.109375 L 269.050781 254.761719 L 255.738281 243.027344 L 244.683594 229.222656 L 236.28125 213.777344 L 230.839844 197.179688 L 228.589844 180.007812 L 229.640625 162.871094 L 233.976562 146.414062 L 241.460938 131.28125 L 251.828125 118.09375 L 264.679688 107.417969 L 279.496094 99.742188 L 295.667969 95.449219 L 312.5 94.792969 L 329.246094 97.882812 L 345.136719 104.675781 L 359.421875 114.964844 L 371.390625 128.386719 L 380.417969 144.425781 L 385.992188 162.441406 L 387.742188 181.691406 L 385.457031 201.355469 L 379.109375 220.582031 L 368.847656 238.523438 L 355.007812 254.375 L 338.085938 267.410156 L 318.738281 277.027344 L 297.734375 282.777344 L 275.921875 284.378906 L 254.203125 281.746094 L 233.472656 274.984375 L 214.59375 264.398438 L 198.335938 250.457031 L 185.351562 233.804688 L 176.140625 215.199219 L 171.023438 195.488281 L 170.136719 175.570312 L 173.410156 156.347656 L 180.589844 138.679688 L 191.238281 123.351562 L 204.773438 111.027344 L 220.476562 102.226562 L 237.546875 97.304688 L 255.140625 96.4375 L 272.390625 99.605469 L 288.480469 106.621094 L 301.765625 116.320312 L 312.835938 128.652344 L 321.257812 143.117188 L 326.691406 159.152344 L 328.929688 176.148438 L 327.882812 193.472656 L 323.582031 210.503906 L 316.183594 226.652344 L 305.933594 241.359375 L 293.1875 254.15625 L 278.363281 264.644531 L 261.945312 272.519531 L 244.441406 277.570312 L 226.390625 279.699219 L 208.320312 278.898438 L 190.746094 275.253906 L 174.128906 268.945312 L 158.90625 260.222656 L 145.425781 249.390625 L 133.992188 236.816406 L 124.820312 222.894531 L 118.050781 208.039062 L 113.753906 192.667969 L 111.929688 177.191406 L 112.503906 162 L 115.347656 147.464844 L 120.277344 133.90625 L 127.070312 121.605469 L 135.46875 110.800781 L 145.191406 101.667969 L 155.945312 94.34375 L 167.429688 88.910156 L 179.339844 85.398438 L 191.398438 83.800781 L 203.324219 84.058594 L 214.867188 86.09375 L 225.800781 89.777344 L 235.925781 94.976562 L 245.070312 101.523438 L 253.089844 109.242188 L 259.871094 117.949219 L 265.332031 127.449219 L 269.417969 137.550781 L 272.09375 148.070312 L 273.351562 158.816406 L 273.203125 169.617188 L 271.679688 180.300781 L 268.828125 190.710938 L 264.707031 200.707031 L 259.390625 210.144531 L 252.957031 218.90625 L 245.5 226.871094 L 237.113281 233.945312 L 227.90625 240.03125 L 217.984375 245.046875 L 207.46875 248.914062 L 196.488281 251.570312 L 185.167969 252.964844 L 173.648438 253.054688 L 162.078125 251.808594 L 150.613281 249.210938 L 139.410156 245.273438 L 128.632812 240.011719 L 118.453125 233.480469 L 108.269531 225.046875 L 99.171875 215.324219 L 91.332031 204.46875 L 84.902344 192.671875 L 80 180.132812 L 76.714844 167.074219 L 75.089844 153.730469 L 75.136719 140.320312 L 76.835938 127.070312 L 80.128906 114.179688 L 84.949219 101.84375 L 91.199219 90.234375 L 98.765625 79.503906 L 107.535156 69.792969 L 117.375 61.222656 L 128.140625 53.902344 L 139.6875 47.925781 L 151.863281 43.375 L 164.496094 40.320312 L 177.414062 38.8125 L 190.441406 38.894531 L 203.375 40.582031 L 216.023438 43.875 L 228.175781 48.753906 L 239.621094 55.167969 L 250.148438 63.046875 L 259.542969 72.273438 L 267.601562 82.714844 L 274.132812 94.191406 L 278.957031 106.503906 L 281.929688 119.402344 L 282.933594 132.621094 L 281.882812 145.859375 L 278.738281 158.792969 L 273.523438 171.085938 L 266.308594 182.390625 L 257.214844 192.363281 L 246.445312 200.667969 L 234.253906 207.003906 L 220.953125 211.089844 L 206.917969 212.714844 L 192.566406 211.710938 L 178.363281 207.992188 L 164.789062 201.554688 L 152.339844 192.484375 L 141.507812 180.960938 L 132.753906 167.261719 L 126.492188 151.757812 L 123.082031 134.898438 L 122.78125 117.21875 L 125.765625 99.304688 L 132.078125 81.789062 L 141.652344 65.3125 L 154.28125 50.511719 L 169.628906 37.980469 L 187.238281 28.25 L 206.542969 21.765625 L 226.882812 18.851562 L 247.523438 19.683594 L 267.703125 24.308594 L 286.644531 32.589844 L 303.605469 44.238281 L 317.910156 58.8125 L 328.972656 75.71875 L 335.976562 92.984375 L 339.519531 111.019531 L 339.488281 129.125 L 335.910156 146.597656 L 328.964844 162.734375 L 318.957031 176.878906 L 306.332031 188.449219 L 291.648438 196.960938 L 275.546875 202.039062 L 258.746094 203.460938 L 241.992188 201.140625 L 226.042969 195.15625 L 211.625 185.738281 L 199.398438 173.25 L 189.945312 158.199219 L 183.726562 141.191406 L 181.074219 122.925781 L 182.164062 104.140625 L 187.027344 85.601562 L 195.527344 68.0625 L 207.386719 52.230469 L 222.183594 38.738281 L 239.382812 28.117188 L 258.359375 20.777344 L 278.414062 16.992188 L 298.820312 16.886719 L 318.84375 20.433594 L 337.777344 27.464844 L 354.972656 37.675781 L 369.851562 50.644531 L 381.953125 65.84375 L 390.917969 82.679688 L 396.527344 100.5 L 398.691406 118.640625 L 397.449219 136.441406 L 392.96875 153.269531 L 385.53125 168.546875 L 375.519531 181.773438 L 363.390625 192.542969 L 349.667969 200.539062 L 334.902344 205.566406 L 319.671875 207.53125 L 304.539062 206.457031 L 290.046875 202.457031 L 276.6875 195.75 L 264.902344 186.621094 L 255.054688 175.433594 L 247.433594 162.59375 L 242.246094 148.535156 L 239.613281 133.71875 L 239.574219 118.597656 L 242.085938 103.609375 L 247.042969 89.175781 L 254.265625 75.667969 L 263.523438 63.421875 L 274.554688 52.714844 L 287.046875 43.773438 L 300.683594 36.757812 L 315.132812 31.777344 L 330.054688 28.886719 L 345.125 28.074219 L 360.042969 29.300781 L 374.515625 32.46875 L 388.289062 37.453125 L 400.890625 43.945312 L 412.414062 51.855469 L 422.714844 60.996094 L 431.667969 71.171875 L 439.191406 82.175781 L 445.226562 93.800781 L 449.742188 105.851562 L 452.734375 118.125 L 454.222656 130.441406 L 454.253906 142.621094 L 452.875 154.503906 L 450.164062 165.9375 L 446.207031 176.789062 L 441.09375 186.941406 L 434.929688 196.28125 L 427.820312 204.714844 L 419.882812 212.167969 L 411.230469 218.558594 L 401.980469 223.839844 L 392.265625 227.957031 L 382.203125 230.875 L 371.925781 232.566406 L 361.566406 233.011719 L 351.261719 232.210938 L 341.152344 230.167969 L 331.378906 226.910156 L 322.085938 222.480469 L 313.414062 216.929688 L 305.503906 210.339844 L 298.480469 202.808594 L 292.46875 194.460938 L 287.570312 185.421875 L 283.863281 175.855469 L 281.410156 165.917969 L 280.246094 155.78125 L 280.382812 145.621094 L 281.804688 135.601562 L 284.46875 125.886719 L 288.324219 116.628906 L 293.289062 107.960938 L 299.28125 100.011719 L 306.203125 92.890625 L 313.949219 86.6875 L 322.402344 81.488281 L 331.449219 77.363281 L 340.972656 74.367188 L 350.847656 72.554688 L 360.941406 71.957031 L 371.132812 72.605469 L 381.28125 74.511719 L 391.246094 77.683594 L 400.890625 82.113281 L 410.070312 87.777344 L 418.640625 94.640625 L 426.445312 102.644531 L 433.347656 111.726562 L 439.199219 121.789062 L 443.867188 132.726562 L 447.21875 144.40625 L 449.136719 156.675781 L 449.527344 169.359375 L 448.300781 182.269531 L 445.402344 195.199219 L 440.796875 207.921875 L 433.878906 221.210938 L 425 233.667969 L 414.257812 244.980469 L 401.796875 254.835938 L 387.832031 262.945312 L 372.621094 269.042969 L 356.472656 272.894531 L 339.753906 274.320312 L 322.867188 273.195312 L 306.242188 269.472656 L 290.335938 263.167969 L 275.605469 254.390625 L 262.503906 243.332031 L 251.453125 230.269531 L 242.828125 215.566406 L 236.941406 199.660156 L 234.027344 183.066406 L 234.230469 166.335938 L 237.582031 150.0625 L 243.996094 134.855469 L 253.269531 121.308594 L 265.078125 109.980469 L 278.984375 101.363281 L 294.441406 95.875 L 310.828125 93.816406 L 327.449219 95.359375 L 343.578125 100.535156 L 358.476562 109.226562 L 371.4375 121.160156 L 381.808594 135.914062 L 389.03125 152.9375 L 392.664062 171.550781 L 392.414062 190.996094 L 388.148438 210.453125 L 379.914062 229.085938 L 367.941406 246.066406 L 352.625 260.636719 L 334.527344 272.121094 L 314.34375 279.984375 L 292.878906 283.847656 L 271.007812 283.503906 L 249.632812 278.945312 L 229.640625 270.363281 L 211.863281 258.136719 L 197.035156 242.808594 L 185.753906 225.085938 L 178.453125 205.773438 L 175.375 185.765625 L 176.574219 165.980469 L 181.890625 147.324219 L 190.984375 130.648438 L 203.332031 116.707031 L 218.269531 106.121094 L 235.007812 99.347656 L 252.691406 96.664062 L 270.429688 98.152344 L 287.34375 103.710938 L 302.597656 113.039062 L 315.457031 125.679688 L 325.300781 141.039062 L 331.65625 158.402344 L 334.21875 176.992188 L 332.851562 195.988281 L 327.59375 214.578125 L 319.363281 230.871094 L 308.210938 245.554688 L 294.527344 258.132812 L 278.769531 268.1875 L 261.472656 275.421875 L 243.195312 279.628906 L 224.519531 280.726562 L 206.019531 278.734375 L 188.234375 273.78125 L 171.671875 266.085938 L 156.773438 255.949219 L 143.910156 243.738281 L 133.367188 229.871094 L 125.355469 214.796875 L 119.996094 198.980469 L 117.3125 182.890625 L 117.265625 166.980469 L 119.734375 151.671875 L 124.53125 137.347656 L 131.417969 124.347656 L 140.105469 112.949219 L 150.277344 103.382812 L 161.597656 95.804688 L 173.722656 90.316406 L 186.304688 86.964844 L 199.003906 85.734375 L 211.503906 86.5625 L 223.507812 89.347656 L 234.761719 93.9375 L 245.027344 100.160156 L 254.113281 107.816406 L 261.867188 116.6875 L 268.167969 126.542969 L 272.933594 137.15625 L 276.113281 148.292969 L 277.699219 159.726562 L 277.703125 171.242188 L 276.164062 182.628906 L 273.148438 193.703125 L 268.734375 204.289062 L 263.023438 214.230469 L 256.125 223.386719 L 248.160156 231.640625 L 239.253906 238.886719 L 229.542969 245.039062 L 219.15625 250.023438 L 208.238281 253.792969 L 196.925781 256.292969 L 185.355469 257.496094 L 173.671875 257.386719 L 162.011719 255.957031 L 150.515625 253.210938 L 139.328125 249.160156 L 128.589844 243.84375 L 118.449219 237.300781 L 109.039062 229.589844 L 100.5 220.796875 L 92.96875 211.015625 L 86.570312 200.363281 L 81.410156 188.980469 L 77.585938 177.023438 L 75.167969 164.664062 L 74.199219 152.085938 L 74.703125 139.476562 L 76.894531 126.003906 L 80.75 112.957031 L 86.179688 100.554688 L 93.074219 89 L 101.285156 78.460938 L 110.664062 69.09375 L 121.039062 61.011719 L 132.234375 54.3125 L 144.070312 49.066406 L 156.371094 45.324219 L 168.953125 43.117188 L 181.640625 42.460938 L 194.253906 43.355469 L 206.609375 45.78125 L 218.535156 49.707031 L 229.847656 55.078125 L 240.375 61.828125 L 249.933594 69.859375 L 258.359375 79.066406 L 265.484375 89.308594 L 271.160156 100.421875 L 275.246094 112.222656 L 277.628906 124.496094 L 278.207031 137.007812 L 276.929688 149.5 L 273.757812 161.695312 L 268.710938 173.300781 L 261.839844 184.023438 L 253.261719 193.5625 L 243.125 201.625 L 231.640625 207.929688 L 219.074219 212.238281 L 205.738281 214.328125 L 191.988281 214.042969 L 178.222656 211.269531 L 164.859375 205.972656 L 152.351562 198.183594 L 141.132812 188.019531 L 131.648438 175.683594 L 124.304688 161.460938 L 119.457031 145.714844 L 117.40625 128.890625 L 118.371094 111.492188 L 122.476562 94.078125 L 129.738281 77.238281 L 140.0625 61.574219 L 153.230469 47.667969 L 168.902344 36.074219 L 186.628906 27.277344 L 205.855469 21.675781 L 225.949219 19.5625 L 246.207031 21.089844 L 265.894531 26.273438 L 284.273438 34.976562 L 300.636719 46.910156 L 314.335938 61.625 L 324.8125 78.550781 L 331.648438 96.992188 L 334.558594 116.167969 L 333.4375 135.242188 L 328.355469 153.363281 L 319.570312 169.703125 L 307.511719 183.496094 L 292.777344 194.078125 L 276.414062 200.839844 L 258.960938 203.65625 L 241.273438 202.371094 L 224.230469 197 L 208.683594 187.753906 L 195.429688 175.019531 L 185.171875 159.355469 L 178.46875 141.457031 L 175.726562 122.125 L 177.164062 102.234375 L 182.8125 82.6875 L 192.496094 64.367188 L 205.871094 48.109375 L 222.40625 34.640625 L 241.433594 24.566406 L 262.175781 18.324219 L 283.785156 16.175781 L 305.371094 18.199219 L 326.074219 24.273438 L 345.0625 34.101562 L 361.609375 47.226562 L 375.101562 63.046875 L 385.074219 80.855469 L 391.230469 99.867188 L 393.429688 119.269531 L 391.730469 138.246094 L 386.328125 156.027344 L 377.59375 171.898438 L 366.015625 185.265625 L 352.179688 195.648438 L 336.761719 202.695312 L 320.460938 206.21875 L 303.996094 206.164062 L 288.070312 202.625 L 273.324219 195.835938 L 260.34375 186.128906 L 249.613281 173.953125 L 241.515625 159.8125 L 236.316406 144.269531 L 234.171875 127.910156 L 235.117188 111.324219 L 239.078125 95.074219 L 245.886719 79.691406 L 255.28125 65.640625 L 266.9375 53.328125 L 280.46875 43.078125 L 295.457031 35.136719 L 311.460938 29.660156 L 328.035156 26.726562 L 344.742188 26.332031 L 361.167969 28.40625 L 376.9375 32.8125 L 391.707031 39.363281 L 405.1875 47.828125 L 417.140625 57.933594 L 427.378906 69.394531 L 435.769531 81.917969 L 442.226562 95.191406 L 446.722656 108.917969 L 449.265625 122.816406 L 449.898438 136.605469 L 448.714844 150.039062 L 445.820312 162.894531 L 441.351562 174.96875 L 435.898438 185.378906 L 429.34375 194.839844 L 421.824219 203.257812 L 413.492188 210.554688 L 404.488281 216.667969 L 394.960938 221.550781 L 385.054688 225.179688 L 374.914062 227.542969 L 364.679688 228.632812 L 354.488281 228.464844 L 344.46875 227.054688 L 334.761719 224.445312 L 325.484375 220.671875 L 316.761719 215.789062 L 308.722656 209.871094 L 301.472656 202.988281 L 295.132812 195.234375 L 289.800781 186.71875 L 285.570312 177.566406 L 282.523438 167.910156 L 280.71875 157.902344 L 280.210938 147.707031 L 281.011719 137.496094 L 283.117188 127.441406 L 286.503906 117.71875 L 291.109375 108.492188 L 296.855469 99.925781 L 303.644531 92.15625 L 311.359375 85.304688 L 319.871094 79.476562 L 329.039062 74.757812 L 338.726562 71.207031 L 348.785156 68.875 L 359.078125 67.78125 L 369.457031 67.945312 L 379.789062 69.363281 L 389.941406 72.023438 L 399.777344 75.90625 L 409.167969 80.972656 L 417.988281 87.175781 L 426.113281 94.464844 L 433.421875 102.769531 L 439.796875 112.011719 L 445.128906 122.097656 L 449.304688 132.917969 L 452.230469 144.351562 L 453.816406 156.265625 L 453.984375 168.507812 L 452.671875 180.914062 L 449.832031 193.300781 L 445.449219 205.484375 L 439.519531 217.257812 L 432.066406 228.421875 L 423.152344 238.757812 L 412.863281 248.0625 L 401.3125 256.128906 L 388.660156 262.765625 L 375.089844 267.789062 L 360.816406 271.050781 L 346.089844 272.421875 L 331.1875 271.808594 L 316.402344 269.164062 L 302.050781 264.476562 L 288.449219 257.792969 L 274.921875 248.398438 L 263.054688 236.972656 L 253.226562 223.78125 L 245.757812 209.171875 L 240.925781 193.5625 L 238.933594 177.429688 L 239.890625 161.285156 L 243.816406 145.679688 L 250.617188 131.183594 L 260.101562 118.335938 L 271.957031 107.660156 L 285.769531 99.621094 L 301.027344 94.601562 L 317.140625 92.886719 L 333.453125 94.640625 L 349.273438 99.902344 L 363.90625 108.5625 L 376.664062 120.371094 L 386.925781 134.933594 L 394.136719 151.730469 L 397.867188 170.117188 L 397.8125 189.371094 L 393.824219 208.699219 L 385.929688 227.285156 L 374.324219 244.324219 L 359.371094 259.058594 L 341.605469 270.816406 L 321.6875 279.039062 L 300.398438 283.332031 L 278.59375 283.460938 L 257.167969 279.390625 L 237.007812 271.269531 L 218.960938 259.449219 L 203.777344 244.449219 L 192.074219 226.949219 L 184.324219 207.75 L 180.804688 187.738281 L 181.597656 167.839844 L 186.574219 148.980469 L 195.414062 132.035156 L 207.613281 117.785156 L 222.503906 106.890625 L 239.304688 99.839844 L 257.136719 96.941406 L 275.082031 98.304688 L 292.234375 103.839844 L 307.722656 113.257812 L 320.773438 126.09375 L 330.730469 141.742188 L 337.09375 159.460938 L 339.535156 178.4375 L 337.90625 197.816406 L 332.25 216.730469 L 322.78125 234.371094 L 309.890625 249.988281 L 294.089844 262.941406 L 276.015625 272.734375 L 256.382812 279.003906 L 235.9375 281.558594 L 215.453125 280.351562 L 195.667969 275.507812 L 177.269531 267.28125 L 160.863281 256.0625 L 146.953125 242.332031 L 136.5625 227.742188 L 128.90625 211.957031 L 124.101562 195.484375 L 122.171875 178.839844 L 123.050781 162.523438 L 126.582031 146.996094 L 132.542969 132.679688 L 140.644531 119.929688 L 150.558594 109.046875 L 161.914062 100.25 L 174.320312 93.707031 L 187.382812 89.492188 L 200.703125 87.625 L 213.910156 88.058594 L 226.652344 90.691406 L 238.613281 95.367188 L 249.507812 101.894531 L 259.105469 110.035156 L 267.214844 119.546875 L 273.691406 130.15625 L 278.433594 141.589844 L 281.394531 153.570312 L 282.554688 165.828125 L 281.945312 178.105469 L 279.621094 190.15625 L 275.675781 201.765625 L 270.214844 212.726562 L 263.375 222.863281 L 255.304688 232.03125 L 246.15625 240.101562 L 236.097656 246.972656 L 225.300781 252.566406 L 213.933594 256.824219 L 202.164062 259.714844 L 190.152344 261.222656 L 178.0625 261.34375 L 166.046875 260.089844 L 154.253906 257.496094 L 142.824219 253.597656 L 131.890625 248.441406 L 121.582031 242.09375 L 112.019531 234.625 L 103.328125 226.117188 L 95.609375 216.65625 L 88.96875 206.351562 L 83.511719 195.320312 L 79.316406 183.691406 L 76.457031 171.605469 L 75 159.222656 L 74.976562 146.714844 L 76.40625 134.253906 L 79.285156 122.035156 L 83.570312 110.234375 L 89.203125 99.039062 L 96.089844 88.617188 L 104.117188 79.121094 L 113.148438 70.683594 L 123.03125 63.421875 L 133.601562 57.417969 L 144.699219 52.734375 L 156.152344 49.402344 L 167.792969 47.445312 L 179.464844 46.847656 L 191.011719 47.597656 L 202.074219 49.605469 L 212.742188 52.824219 L 222.898438 57.199219 L 232.421875 62.664062 L 241.199219 69.148438 L 249.125 76.566406 L 256.101562 84.824219 L 262.035156 93.816406 L 266.839844 103.429688 L 270.433594 113.535156 L 272.753906 124.003906 L 273.746094 134.683594 L 273.367188 145.414062 L 271.59375 156.03125 L 268.425781 166.355469 L 263.871094 176.203125 L 257.976562 185.390625 L 250.800781 193.726562 L 242.441406 201.023438 L 233.015625 207.105469 L 222.675781 211.796875 L 211.59375 214.949219 L 199.984375 216.429688 L 188.070312 216.128906 L 176.113281 213.972656 L 164.378906 209.925781 L 153.15625 203.984375 L 142.734375 196.199219 L 133.414062 186.664062 L 125.480469 175.519531 L 119.195312 162.960938 L 114.808594 149.230469 L 112.527344 134.617188 L 112.519531 119.441406 L 114.898438 104.074219 L 119.710938 88.902344 L 126.953125 74.332031 L 136.535156 60.769531 L 148.304688 48.613281 L 162.035156 38.25 L 177.417969 30.019531 L 194.097656 24.214844 L 211.644531 21.070312 L 229.59375 20.738281 L 247.441406 23.289062 L 264.671875 28.707031 L 280.769531 36.875 L 295.230469 47.578125 L 307.597656 60.503906 L 317.46875 75.261719 L 324.511719 91.375 L 328.492188 108.308594 L 329.269531 125.476562 L 326.824219 142.269531 L 321.253906 158.078125 L 312.769531 172.316406 L 301.695312 184.429688 L 288.472656 193.945312 L 273.625 200.472656 L 257.746094 203.730469 L 241.488281 203.546875 L 225.523438 199.894531 L 210.53125 192.875 L 197.15625 182.722656 L 185.160156 168.582031 L 176.414062 151.792969 L 171.425781 133.097656 L 170.527344 113.328125 L 173.871094 93.386719 L 181.402344 74.175781 L 192.878906 56.582031 L 207.871094 41.402344 L 225.777344 29.339844 L 245.875 20.9375 L 267.324219 16.578125 L 289.238281 16.441406 L 310.707031 20.527344 L 330.855469 28.625 L 348.871094 40.351562 L 364.046875 55.160156 L 375.816406 72.371094 L 383.78125 91.203125 L 387.710938 110.8125 L 387.566406 130.351562 L 383.484375 148.972656 L 375.777344 165.898438 L 364.910156 180.445312 L 351.460938 192.046875 L 336.113281 200.273438 L 319.609375 204.855469 L 302.714844 205.6875 L 286.191406 202.820312 L 270.753906 196.453125 L 257.054688 186.917969 L 245.648438 174.667969 L 236.976562 160.242188 L 231.363281 144.242188 L 229 127.308594 L 229.941406 110.085938 L 234.128906 93.199219 L 241.375 77.246094 L 251.402344 62.742188 L 263.851562 50.148438 L 278.285156 39.824219 L 294.230469 32.039062 L 311.191406 26.960938 L 328.660156 24.671875 L 346.148438 25.152344 L 363.183594 28.300781 L 379.347656 33.945312 L 394.265625 41.851562 L 407.617188 51.730469 L 419.152344 63.265625 L 428.683594 76.105469 L 436.085938 89.898438 L 441.300781 104.28125 L 444.324219 118.914062 L 445.203125 133.464844 L 444.03125 147.625 L 440.949219 161.125 L 436.113281 173.722656 L 429.722656 185.214844 L 421.980469 195.433594 L 413.105469 204.246094 L 403.324219 211.5625 L 392.855469 217.3125 L 381.925781 221.46875 L 370.75 224.023438 L 360.273438 224.984375 L 349.917969 224.597656 L 339.824219 222.914062 L 330.132812 219.992188 L 320.972656 215.902344 L 312.460938 210.722656 L 304.707031 204.539062 L 297.808594 197.449219 L 291.859375 189.550781 L 286.941406 180.953125 L 283.128906 171.78125 L 280.484375 162.152344 L 279.0625 152.210938 L 278.902344 142.097656 L 280.023438 131.960938 L 282.4375 121.964844 L 286.125 112.269531 L 291.050781 103.042969 L 297.152344 94.449219 L 304.339844 86.640625 L 312.507812 79.757812 L 321.527344 73.929688 L 331.246094 69.257812 L 341.503906 65.820312 L 352.136719 63.679688 L 362.980469 62.863281 L 373.859375 63.375 L 384.613281 65.207031 L 395.097656 68.324219 L 405.160156 72.675781 L 414.671875 78.207031 L 423.511719 84.84375 L 431.5625 92.503906 L 438.722656 101.105469 L 444.890625 110.542969 L 449.988281 120.71875 L 453.929688 131.519531 L 456.644531 142.824219 L 458.070312 154.507812 L 458.160156 166.433594 L 456.871094 178.457031 L 454.175781 190.421875 L 450.066406 202.167969 L 444.550781 213.527344 L 437.648438 224.328125 L 429.414062 234.394531 L 419.914062 243.546875 L 409.25 251.613281 L 397.539062 258.425781 L 384.929688 263.832031 L 371.605469 267.683594 L 357.761719 269.863281 L 343.625 270.269531 L 329.441406 268.84375 L 315.472656 265.546875 L 302.003906 260.386719 L 289.3125 253.414062 L 277.683594 244.726562 L 267.398438 234.460938 L 258.710938 222.8125 L 251.863281 210.011719 L 247.058594 196.347656 L 244.453125 182.140625 L 244.164062 167.742188 L 246.519531 152.367188 L 251.636719 137.726562 L 259.402344 124.335938 L 269.59375 112.691406 L 281.902344 103.261719 L 295.921875 96.460938 L 311.152344 92.621094 L 327.027344 91.988281 L 342.929688 94.699219 L 358.203125 100.753906 L 372.1875 110.039062 L 384.246094 122.296875 L 393.785156 137.128906 L 400.300781 154.03125 L 403.382812 172.382812 L 402.753906 191.476562 L 398.285156 210.546875 L 390.011719 228.8125 L 378.132812 245.488281 L 363.011719 259.84375 L 345.164062 271.226562 L 325.246094 279.101562 L 304.023438 283.078125 L 282.339844 282.9375 L 261.074219 278.632812 L 241.101562 270.328125 L 223.261719 258.363281 L 208.292969 243.253906 L 196.824219 225.683594 L 189.316406 206.445312 L 186.046875 186.429688 L 187.101562 166.5625 L 192.351562 147.78125 L 201.46875 130.964844 L 213.941406 116.902344 L 229.09375 106.261719 L 246.125 99.539062 L 264.136719 97.039062 L 282.199219 98.871094 L 299.371094 104.929688 L 314.773438 114.914062 L 327.601562 128.335938 L 337.199219 144.554688 L 343.054688 162.796875 L 344.847656 182.214844 L 342.4375 201.90625 L 335.898438 220.980469 L 325.480469 238.585938 L 311.605469 253.953125 L 294.84375 266.4375 L 275.886719 275.527344 L 255.496094 280.875 L 234.480469 282.316406 L 213.65625 279.839844 L 193.804688 273.617188 L 175.636719 263.96875 L 159.777344 251.34375 L 146.734375 236.292969 L 136.878906 219.449219 L 130.445312 201.496094 L 127.523438 183.125 L 128.0625 165.015625 L 131.886719 147.808594 L 138.703125 132.082031 L 147.433594 119.171875 L 158.0625 108.308594 L 170.175781 99.746094 L 183.339844 93.648438 L 197.101562 90.101562 L 211.023438 89.109375 L 224.679688 90.601562 L 237.6875 94.449219 L 249.6875 100.453125 L 260.378906 108.378906 L 269.507812 117.953125 L 276.886719 128.863281 L 282.367188 140.800781 L 285.867188 153.441406 L 287.359375 166.457031 L 286.855469 179.546875 L 284.421875 192.410156 L 280.15625 204.785156 L 274.191406 216.429688 L 266.691406 227.128906 L 257.835938 236.710938 L 247.816406 245.027344 L 236.839844 251.964844 L 225.117188 257.445312 L 212.851562 261.417969 L 200.25 263.855469 L 187.511719 264.761719 L 174.816406 264.160156 L 162.34375 262.09375 L 150.261719 258.625 L 138.710938 253.824219 L 127.835938 247.78125 L 117.757812 240.585938 L 108.582031 232.347656 L 100.417969 223.171875 L 93.34375 213.171875 L 87.441406 202.472656 L 82.773438 191.203125 L 79.398438 179.488281 L 77.359375 167.46875 L 76.6875 155.289062 L 77.410156 143.101562 L 79.523438 131.058594 L 83.015625 119.328125 L 87.851562 108.070312 L 93.976562 97.453125 L 101.308594 87.636719 L 109.742188 78.773438 L 119.148438 71.003906 L 129.371094 64.441406 L 140.25 59.1875 L 151.597656 55.308594 L 163.226562 52.84375 L 174.957031 51.808594 L 186.601562 52.191406 L 197.984375 53.945312 L 208.945312 57.015625 L 219.335938 61.328125 L 229.027344 66.789062 L 237.890625 73.296875 L 245.832031 80.746094 L 252.75 89.019531 L 258.574219 97.992188 L 263.226562 107.542969 L 266.597656 117.332031 L 268.75 127.417969 L 269.648438 137.660156 L 269.269531 147.921875 L 267.609375 158.058594 L 264.664062 167.914062 L 260.460938 177.339844 L 255.035156 186.175781 L 248.4375 194.265625 L 240.75 201.457031 L 232.066406 207.589844 L 222.507812 212.523438 L 212.214844 216.117188 L 201.347656 218.257812 L 190.09375 218.832031 L 178.664062 217.757812 L 167.273438 214.988281 L 156.171875 210.488281 L 145.605469 204.273438 L 135.828125 196.382812 L 127.101562 186.90625 L 119.675781 175.972656 L 113.789062 163.75 L 109.660156 150.453125 L 107.480469 136.328125 L 107.40625 121.671875 L 109.542969 106.800781 L 113.953125 92.066406 L 120.640625 77.832031 L 129.546875 64.46875 L 140.550781 52.351562 L 153.460938 41.828125 L 168.023438 33.230469 L 183.925781 26.855469 L 200.796875 22.933594 L 218.214844 21.644531 L 235.730469 23.089844 L 252.855469 27.292969 L 269.105469 34.1875 L 284 43.621094 L 297.085938 55.34375 L 307.941406 69.027344 L 316.21875 84.257812 L 321.636719 100.554688 L 324.007812 117.386719 L 323.246094 134.179688 L 319.375 150.34375 L 312.527344 165.296875 L 302.953125 178.480469 L 291.011719 189.386719 L 277.15625 197.574219 L 261.921875 202.699219 L 245.917969 204.523438 L 229.792969 202.929688 L 214.210938 197.921875 L 199.832031 189.652344 L 187.285156 178.386719 L 177.125 164.527344 L 169.839844 148.570312 L 165.804688 131.113281 L 165.257812 112.816406 L 168.324219 94.378906 L 174.96875 76.519531 L 185.019531 59.9375 L 199.410156 44.144531 L 216.882812 31.351562 L 236.726562 22.152344 L 258.117188 16.972656 L 280.164062 16.050781 L 301.9375 19.421875 L 322.53125 26.929688 L 341.089844 38.210938 L 356.867188 52.738281 L 369.25 69.832031 L 377.78125 88.707031 L 382.203125 108.503906 L 382.429688 128.324219 L 378.585938 147.292969 L 370.964844 164.582031 L 360.039062 179.460938 L 346.402344 191.3125 L 330.773438 199.683594 L 313.921875 204.265625 L 296.667969 204.941406 L 279.816406 201.753906 L 264.132812 194.910156 L 250.320312 184.773438 L 238.964844 171.828125 L 230.542969 156.660156 L 225.390625 139.921875 L 223.703125 122.308594 L 225.523438 104.519531 L 230.769531 87.242188 L 239.214844 71.105469 L 250.53125 56.675781 L 264.304688 44.429688 L 280.035156 34.742188 L 297.191406 27.878906 L 315.203125 23.992188 L 333.515625 23.132812 L 351.582031 25.238281 L 368.890625 30.160156 L 384.992188 37.660156 L 399.496094 47.441406 L 412.078125 59.144531 L 422.492188 72.386719 L 430.582031 86.753906 L 436.25 101.832031 L 439.480469 117.214844 L 440.320312 132.507812 L 438.886719 147.347656 L 435.328125 161.417969 L 429.847656 174.429688 L 422.679688 186.148438 L 414.074219 196.375 L 404.300781 204.976562 L 393.632812 211.847656 L 382.34375 216.933594 L 370.699219 220.21875 L 358.953125 221.730469 L 347.339844 221.511719 L 336.082031 219.648438 L 325.378906 216.234375 L 315.402344 211.394531 L 306.308594 205.261719 L 298.234375 197.976562 L 291.296875 189.695312 L 285.582031 180.574219 L 281.429688 171.445312 L 278.457031 161.859375 L 276.714844 151.949219 L 276.21875 141.859375 L 276.984375 131.726562 L 279.015625 121.695312 L 282.300781 111.902344 L 286.816406 102.5 L 292.515625 93.636719 L 299.339844 85.449219 L 307.210938 78.085938 L 316.027344 71.679688 L 325.671875 66.355469 L 336 62.222656 L 346.855469 59.371094 L 358.066406 57.863281 L 369.453125 57.75 L 380.828125 59.03125 L 392.003906 61.703125 L 402.8125 65.714844 L 413.078125 71.007812 L 422.660156 77.5 L 431.421875 85.085938 L 439.242188 93.65625 L 446.027344 103.09375 L 451.695312 113.269531 L 456.171875 124.058594 L 459.410156 135.324219 L 461.363281 146.933594 L 462.007812 158.757812 L 461.316406 170.652344 L 459.285156 182.480469 L 455.921875 194.101562 L 451.238281 205.375 L 445.261719 216.152344 L 438.046875 226.292969 L 429.640625 235.644531 L 420.132812 244.066406 L 409.609375 251.417969 L 398.195312 257.5625 L 386.019531 262.378906 L 373.242188 265.75 L 360.039062 267.582031 L 346.601562 267.796875 L 333.144531 266.335938 L 319.898438 263.175781 L 307.09375 258.324219 L 294.984375 251.8125 L 283.8125 243.722656 L 273.824219 234.167969 L 265.25 223.304688 L 258.3125 211.324219 L 253.199219 198.46875 L 250.070312 185.007812 L 249.046875 171.242188 L 250.199219 157.511719 L 253.550781 144.160156 L 259.066406 131.554688 L 266.640625 120.058594 L 276.109375 110.027344 L 287.246094 101.792969 L 299.757812 95.65625 L 313.300781 91.871094 L 327.472656 90.628906 L 343.027344 92.300781 L 358.210938 97.171875 L 372.402344 105.175781 L 384.992188 116.132812 L 395.402344 129.734375 L 403.109375 145.558594 L 407.675781 163.058594 L 408.773438 181.617188 L 406.199219 200.527344 L 399.898438 219.046875 L 389.96875 236.421875 L 376.664062 251.917969 L 360.402344 264.851562 L 341.738281 274.636719 L 321.351562 280.804688 L 300.011719 283.027344 L 278.570312 281.164062 L 257.882812 275.238281 L 238.804688 265.46875 L 222.132812 252.253906 L 208.5625 236.167969 L 198.65625 217.917969 L 192.820312 198.339844 L 191.261719 178.328125 L 194 158.816406 L 200.832031 140.730469 L 211.371094 124.925781 L 225.039062 112.164062 L 241.105469 103.050781 L 258.726562 98.027344 L 276.972656 97.339844 L 294.890625 101.015625 L 311.535156 108.882812 L 326.039062 120.554688 L 337.621094 135.472656 L 345.664062 152.914062 L 349.71875 172.058594 L 349.523438 191.996094 L 345.03125 211.792969 L 336.386719 230.535156 L 323.941406 247.371094 L 308.207031 261.546875 L 289.839844 272.453125 L 269.609375 279.632812 L 248.34375 282.8125 L 226.914062 281.90625 L 206.164062 277 L 186.890625 268.367188 L 169.800781 256.429688 L 155.496094 241.742188 L 144.425781 224.945312 L 136.902344 206.765625 L 133.074219 187.945312 L 132.9375 169.230469 L 136.332031 151.332031 L 142.980469 134.90625 L 152.472656 120.511719 L 164.320312 108.609375 L 177.964844 99.550781 L 192.808594 93.558594 L 208.246094 90.726562 L 223.671875 91.046875 L 238.519531 94.382812 L 252.273438 100.519531 L 264.277344 108.964844 L 274.4375 119.464844 L 282.476562 131.617188 L 288.207031 145.003906 L 291.507812 159.1875 L 292.34375 173.746094 L 290.753906 188.261719 L 286.835938 202.347656 L 280.75 215.65625 L 272.699219 227.875 L 262.921875 238.746094 L 251.683594 248.0625 L 239.273438 255.664062 L 225.980469 261.441406 L 212.097656 265.335938 L 197.910156 267.324219 L 183.683594 267.433594 L 169.679688 265.722656 L 156.128906 262.277344 L 143.238281 257.207031 L 131.199219 250.648438 L 120.164062 242.746094 L 110.277344 233.660156 L 101.644531 223.550781 L 94.355469 212.597656 L 88.480469 200.964844 L 84.066406 188.828125 L 81.148438 176.355469 L 79.738281 163.71875 L 79.839844 151.085938 L 81.4375 138.617188 L 84.507812 126.484375 L 89 114.847656 L 94.863281 103.871094 L 102.011719 93.710938 L 110.347656 84.523438 L 119.753906 76.460938 L 130.085938 69.652344 L 141.175781 64.222656 L 152.835938 60.269531 L 164.863281 57.859375 L 177.03125 57.03125 L 189.125 57.792969 L 200.917969 60.105469 L 212.195312 63.902344 L 222.769531 69.089844 L 232.457031 75.539062 L 241.117188 83.113281 L 248.617188 91.648438 L 254.863281 100.980469 L 259.777344 110.933594 L 263.3125 121.339844 L 265.433594 132.023438 L 266.121094 142.816406 L 265.382812 153.542969 L 263.230469 164.039062 L 259.695312 174.132812 L 254.824219 183.667969 L 248.683594 192.472656 L 241.351562 200.386719 L 232.925781 207.261719 L 223.53125 212.941406 L 213.304688 217.28125 L 202.40625 220.160156 L 191.796875 221.417969 L 180.933594 221.226562 L 169.996094 219.523438 L 159.175781 216.273438 L 148.683594 211.457031 L 138.734375 205.089844 L 129.546875 197.222656 L 121.347656 187.921875 L 114.355469 177.304688 L 108.769531 165.515625 L 104.796875 152.738281 L 102.597656 139.191406 L 102.316406 125.117188 L 104.066406 110.800781 L 107.910156 96.542969 L 113.867188 82.667969 L 121.910156 69.503906 L 131.945312 57.386719 L 143.832031 46.648438 L 157.367188 37.59375 L 172.289062 30.515625 L 188.289062 25.648438 L 204.996094 23.195312 L 222.019531 23.28125 L 238.921875 25.980469 L 255.253906 31.28125 L 270.566406 39.089844 L 284.410156 49.238281 L 296.367188 61.46875 L 306.070312 75.445312 L 313.203125 90.761719 L 317.515625 106.949219 L 318.859375 123.492188 L 317.171875 139.839844 L 312.496094 155.429688 L 304.988281 169.707031 L 294.898438 182.140625 L 282.59375 192.253906 L 268.527344 199.636719 L 253.230469 203.964844 L 237.300781 205.027344 L 221.363281 202.722656 L 206.082031 197.078125 L 192.089844 188.25 L 180 176.519531 L 170.355469 162.292969 L 163.625 146.070312 L 160.160156 128.449219 L 160.199219 110.089844 L 163.839844 91.691406 L 171.035156 73.96875 L 181.609375 57.613281 L 195.230469 43.269531 L 211.453125 31.515625 L 229.71875 22.816406 L 249.390625 17.53125 L 269.761719 15.871094 L 290.097656 17.910156 L 309.667969 23.566406 L 327.773438 32.617188 L 343.765625 44.699219 L 357.09375 59.328125 L 367.3125 75.929688 L 374.097656 93.835938 L 377.382812 113.90625 L 376.394531 133.765625 L 371.300781 152.511719 L 362.457031 169.300781 L 350.382812 183.40625 L 335.742188 194.226562 L 319.304688 201.324219 L 301.898438 204.4375 L 284.386719 203.496094 L 267.609375 198.601562 L 252.355469 190.035156 L 239.332031 178.234375 L 229.121094 163.753906 L 222.171875 147.257812 L 218.78125 129.46875 L 219.085938 111.144531 L 223.0625 93.03125 L 230.546875 75.847656 L 241.238281 60.242188 L 254.710938 46.785156 L 270.464844 35.933594 L 287.921875 28.027344 L 306.464844 23.277344 L 325.476562 21.777344 L 344.339844 23.496094 L 362.476562 28.289062 L 379.363281 35.910156 L 394.546875 46.039062 L 407.648438 58.28125 L 418.390625 72.195312 L 426.570312 87.324219 L 432.089844 103.183594 L 434.929688 119.308594 L 435.152344 135.25 L 432.894531 150.59375 L 428.34375 164.972656 L 421.75 178.066406 L 413.394531 189.609375 L 403.585938 199.398438 L 392.644531 207.289062 L 380.902344 213.1875 L 368.679688 217.066406 L 356.285156 218.929688 L 344.015625 218.84375 L 332.136719 216.894531 L 320.890625 213.214844 L 310.488281 207.953125 L 301.109375 201.277344 L 292.90625 193.378906 L 286 184.449219 L 280.476562 174.683594 L 276.410156 164.285156 L 273.832031 153.449219 L 272.765625 142.367188 L 273.210938 131.226562 L 275.144531 120.214844 L 278.535156 109.503906 L 283.328125 99.265625 L 289.460938 89.660156 L 296.855469 80.84375 L 305.410156 72.972656 L 315.015625 66.191406 L 325.542969 60.628906 L 336.835938 56.410156 L 347.921875 53.777344 L 359.375 52.484375 L 371.027344 52.578125 L 382.699219 54.085938 L 394.207031 57.019531 L 405.363281 61.347656 L 415.984375 67.019531 L 425.894531 73.957031 L 434.933594 82.054688 L 442.964844 91.183594 L 449.867188 101.207031 L 455.546875 111.972656 L 459.933594 123.316406 L 462.980469 135.078125 L 464.65625 147.101562 L 464.957031 159.230469 L 463.886719 171.308594 L 461.464844 183.199219 L 457.730469 194.753906 L 452.722656 205.839844 L 446.5 216.328125 L 439.125 226.09375 L 430.679688 235.015625 L 421.246094 242.980469 L 410.933594 249.871094 L 399.847656 255.589844 L 388.113281 260.042969 L 375.878906 263.140625 L 363.296875 264.8125 L 350.53125 265 L 337.765625 263.664062 L 325.195312 260.789062 L 313.015625 256.371094 L 301.4375 250.445312 L 290.671875 243.074219 L 280.929688 234.34375 L 272.417969 224.378906 L 265.324219 213.339844 L 259.828125 201.410156 L 256.082031 188.816406 L 254.214844 175.808594 L 254.3125 162.664062 L 256.425781 149.6875 L 260.558594 137.195312 L 266.65625 125.507812 L 274.621094 114.953125 L 284.289062 105.847656 L 295.449219 98.484375 L 307.828125 93.136719 L 321.105469 90.019531 L 334.914062 89.316406 L 348.847656 91.136719 L 362.476562 95.523438 L 375.355469 102.449219 L 387.035156 111.792969 L 397.089844 123.371094 L 405.105469 136.894531 L 410.734375 152.015625 L 413.679688 168.3125 L 413.71875 185.296875 L 410.730469 202.445312 L 404.679688 219.195312 L 395.644531 234.988281 L 383.808594 249.269531 L 369.765625 261.300781 L 353.683594 270.9375 L 336.007812 277.816406 L 317.273438 281.652344 L 298.050781 282.265625 L 278.953125 279.585938 L 260.613281 273.664062 L 243.632812 264.675781 L 228.59375 252.914062 L 216.007812 238.773438 L 206.308594 222.761719 L 199.828125 205.460938 L 196.769531 187.515625 L 197.222656 169.597656 L 201.128906 152.402344 L 208.296875 136.589844 L 218.40625 122.789062 L 231.011719 111.542969 L 245.574219 103.304688 L 261.457031 98.410156 L 277.984375 97.066406 L 294.4375 99.335938 L 310.105469 105.132812 L 324.304688 114.238281 L 336.402344 126.300781 L 345.867188 140.839844 L 352.257812 157.289062 L 355.261719 175.003906 L 354.707031 193.285156 L 350.554688 211.425781 L 342.914062 228.722656 L 332.035156 244.511719 L 318.28125 258.199219 L 302.128906 269.277344 L 284.140625 277.34375 L 264.945312 282.121094 L 245.207031 283.457031 L 225.589844 281.339844 L 206.75 275.878906 L 189.300781 267.308594 L 173.785156 255.980469 L 160.671875 242.328125 L 150.324219 226.863281 L 142.996094 210.148438 L 138.832031 192.777344 L 137.855469 175.34375 L 139.984375 158.429688 L 145.027344 142.578125 L 152.707031 128.28125 L 162.664062 115.949219 L 174.480469 105.929688 L 187.683594 98.46875 L 201.792969 93.726562 L 216.300781 91.761719 L 230.726562 92.558594 L 244.59375 96.007812 L 257.488281 101.917969 L 269.019531 110.050781 L 278.875 120.101562 L 286.796875 131.722656 L 292.597656 144.554688 L 296.152344 158.210938 L 297.414062 172.300781 L 296.386719 186.457031 L 292.773438 201.464844 L 286.710938 215.707031 L 278.417969 228.808594 L 268.167969 240.453125 L 256.269531 250.382812 L 243.046875 258.402344 L 228.847656 264.378906 L 214.019531 268.242188 L 198.898438 269.972656 L 183.808594 269.609375 L 169.054688 267.230469 L 154.902344 262.953125 L 141.597656 256.929688 L 129.347656 249.332031 L 118.324219 240.355469 L 108.667969 230.203125 L 100.484375 219.089844 L 93.851562 207.226562 L 88.8125 194.824219 L 85.390625 182.089844 L 83.574219 169.226562 L 83.347656 156.421875 L 84.660156 143.851562 L 87.464844 131.6875 L 91.679688 120.085938 L 97.226562 109.199219 L 104.007812 99.164062 L 111.914062 90.105469 L 120.832031 82.152344 L 130.628906 75.40625 L 141.160156 69.972656 L 152.261719 65.9375 L 163.761719 63.367188 L 175.476562 62.308594 L 187.203125 62.792969 L 198.734375 64.816406 L 209.859375 68.34375 L 220.367188 73.304688 L 230.058594 79.597656 L 238.757812 87.09375 L 246.304688 95.632812 L 252.570312 105.035156 L 257.460938 115.105469 L 260.914062 125.640625 L 262.890625 136.445312 L 263.386719 147.320312 L 262.421875 158.074219 L 260.035156 168.527344 L 256.28125 178.511719 L 251.238281 187.867188 L 244.988281 196.445312 L 237.628906 204.105469 L 229.277344 210.726562 L 220.050781 216.179688 L 210.085938 220.359375 L 199.53125 223.167969 L 188.550781 224.515625 L 177.320312 224.335938 L 166.035156 222.574219 L 154.890625 219.191406 L 144.105469 214.1875 L 133.902344 207.574219 L 124.511719 199.40625 L 116.160156 189.757812 L 109.511719 179.527344 L 104.144531 168.234375 L 100.230469 156.039062 L 97.917969 143.117188 L 97.339844 129.679688 L 98.59375 115.96875 L 101.753906 102.234375 L 106.855469 88.753906 L 113.890625 75.820312 L 122.800781 63.730469 L 133.488281 52.78125 L 145.804688 43.257812 L 159.539062 35.429688 L 174.445312 29.542969 L 190.222656 25.800781 L 206.53125 24.367188 L 223 25.34375 L 239.230469 28.78125 L 254.804688 34.65625 L 269.308594 42.863281 L 282.332031 53.238281 L 293.496094 65.53125 L 302.457031 79.421875 L 308.929688 94.527344 L 312.6875 110.402344 L 313.589844 126.558594 L 311.582031 142.480469 L 306.710938 157.632812 L 299.117188 171.492188 L 289.050781 183.554688 L 276.84375 193.355469 L 262.933594 200.503906 L 247.824219 204.6875 L 232.085938 205.691406 L 216.328125 203.40625 L 201.183594 197.855469 L 187.273438 189.167969 L 175.199219 177.613281 L 165.496094 163.570312 L 158.636719 147.515625 L 154.980469 130.03125 L 154.773438 111.757812 L 158.136719 93.378906 L 165.046875 75.605469 L 175.335938 59.121094 L 188.703125 44.578125 L 204.722656 32.566406 L 222.847656 23.566406 L 242.449219 17.953125 L 262.832031 15.960938 L 283.253906 17.683594 L 302.976562 23.0625 L 321.289062 31.890625 L 337.523438 43.820312 L 351.105469 58.371094 L 361.570312 74.964844 L 368.574219 92.933594 L 371.921875 111.558594 L 371.5625 130.101562 L 367.597656 147.828125 L 360.277344 164.039062 L 349.980469 178.113281 L 337.199219 189.511719 L 322.527344 197.8125 L 304.722656 203.070312 L 286.34375 203.90625 L 268.375 200.339844 L 251.753906 192.605469 L 237.328125 181.128906 L 225.828125 166.507812 L 217.828125 149.46875 L 213.71875 130.839844 L 213.699219 111.492188 L 217.777344 92.3125 L 225.777344 74.136719 L 237.351562 57.742188 L 252.003906 43.796875 L 269.136719 32.835938 L 288.054688 25.25 L 308.027344 21.265625 L 328.300781 20.960938 L 348.15625 24.261719 L 366.910156 30.945312 L 383.960938 40.679688 L 398.808594 53.023438 L 411.042969 67.472656 L 420.390625 83.457031 L 426.679688 100.402344 L 429.867188 117.71875 L 430.015625 134.847656 L 427.28125 151.265625 L 421.90625 166.503906 L 414.199219 180.171875 L 404.523438 191.945312 L 393.28125 201.574219 L 380.878906 208.902344 L 367.746094 213.84375 L 354.289062 216.382812 L 340.894531 216.574219 L 327.925781 214.53125 L 315.707031 210.40625 L 304.507812 204.410156 L 294.574219 196.765625 L 286.085938 187.722656 L 279.195312 177.546875 L 273.992188 166.503906 L 270.539062 154.859375 L 268.859375 142.878906 L 268.941406 130.804688 L 270.742188 118.875 L 274.195312 107.308594 L 279.214844 96.304688 L 285.703125 86.050781 L 293.53125 76.71875 L 302.578125 68.453125 L 312.691406 61.394531 L 323.722656 55.660156 L 335.507812 51.363281 L 347.871094 48.585938 L 360.628906 47.410156 L 373.570312 47.890625 L 386.496094 50.058594 L 399.175781 53.917969 L 411.382812 59.453125 L 422.878906 66.59375 L 433.441406 75.25 L 442.851562 85.285156 L 450.914062 96.519531 " transform="matrix(1,0,0,1,-66,-8)"/>
</g>
</svg>
